<svg width="5371" height="524" viewBox="0 0 5371 524" fill="none" xmlns="http://www.w3.org/2000/svg">
<path d="M302.884 390.464C302.884 390.464 302.335 390.464 302.061 390.464C295.614 390.052 290.264 385.665 288.618 379.496L240.332 202.772L215.64 285.17C213.72 291.477 207.958 295.727 201.374 295.727H108.78C100.55 295.727 93.8282 289.009 93.8282 280.783C93.8282 272.557 100.55 265.839 108.78 265.839H190.263L226.752 144.093C228.672 137.787 234.433 133.536 241.018 133.536C241.018 133.536 241.018 133.536 241.155 133.536C247.739 133.536 253.638 138.061 255.284 144.504L305.628 329.042L327.439 275.299C329.771 269.678 335.12 265.976 341.293 265.976H415.368C423.599 265.976 430.32 272.694 430.32 280.92C430.32 289.146 423.599 295.864 415.368 295.864H351.307L316.739 381.278C314.407 386.899 308.92 390.601 302.884 390.601V390.464Z" fill="black"/>
<path d="M262.143 524C117.56 524 0 406.504 0 262C0 117.496 117.56 0 262.143 0C406.726 0 524.286 117.496 524.286 262C524.286 406.504 406.726 524 262.143 524ZM262.143 29.7509C134.021 29.7509 29.9043 133.948 29.9043 261.863C29.9043 389.778 134.158 493.975 262.143 493.975C390.128 493.975 494.381 389.778 494.381 261.863C494.381 133.948 390.128 29.7509 262.143 29.7509Z" fill="black"/>
<path d="M798.774 457.78L931.972 68.0017H1036.64L1173.26 457.78H1084.51L1021.96 269.677C1014.41 245.41 1006.87 218.95 999.051 190.022C991.232 161.093 983.139 129.56 974.634 95.4219H992.192C983.824 129.834 976.005 161.505 968.735 190.57C961.465 219.635 954.332 245.959 947.199 269.677L886.978 457.78H798.774ZM882.04 367.293V304.775H1090.14V367.293H882.04Z" fill="black"/>
<path d="M1221.55 457.78V68.0017H1373.68C1403.31 68.0017 1428.55 73.6228 1449.26 84.8651C1469.98 96.1074 1485.89 111.6 1496.72 131.479C1507.56 151.222 1513.05 173.981 1513.05 199.619C1513.05 225.257 1507.56 248.152 1496.45 267.758C1485.34 287.363 1469.29 302.719 1448.3 313.824C1427.31 324.929 1401.8 330.413 1371.76 330.413H1273.81V266.113H1358.86C1375.32 266.113 1388.77 263.234 1399.33 257.612C1409.89 251.991 1417.71 244.176 1422.92 234.168C1428.14 224.16 1430.61 212.78 1430.61 199.619C1430.61 186.457 1428 175.078 1422.92 165.206C1417.71 155.335 1409.89 147.657 1399.19 142.173C1388.49 136.689 1375.05 133.947 1358.59 133.947H1301.25V457.78H1221.41H1221.55Z" fill="black"/>
<path d="M1648.72 68.0017V457.78H1568.88V68.0017H1648.72Z" fill="black"/>
<path d="M1870.12 457.78V68.0017H2009.9C2039.94 68.0017 2064.91 73.6228 2085.07 84.728C2105.24 95.8332 2120.19 111.051 2130.07 129.971C2139.94 149.028 2145.02 170.553 2145.02 194.546C2145.02 218.539 2139.94 240.201 2129.93 259.258C2119.91 278.315 2104.82 293.396 2084.8 304.501C2064.77 315.606 2039.67 321.09 2009.35 321.09H1913.88V270.637H2003.59C2022.79 270.637 2038.29 267.347 2050.23 260.766C2062.16 254.185 2070.81 245.136 2076.29 233.62C2081.78 222.103 2084.52 209.079 2084.52 194.683C2084.52 180.287 2081.78 166.989 2076.29 155.609C2070.81 144.23 2062.03 135.318 2050.09 128.737C2038.16 122.157 2022.52 119.003 2003.18 119.003H1929.93V457.78H1870.25H1870.12Z" fill="black"/>
<path d="M2267.24 68.0017V457.78H2209.63V68.0017H2267.24Z" fill="black"/>
<path d="M2426.64 464.361C2408.12 464.361 2391.38 460.933 2376.43 454.078C2361.48 447.223 2349.55 437.078 2340.9 423.916C2332.12 410.617 2327.87 394.439 2327.87 375.245C2327.87 358.656 2331.03 345.083 2337.47 334.389C2343.78 323.695 2352.43 315.332 2363.4 309.026C2374.38 302.719 2386.45 298.057 2399.75 294.904C2413.06 291.751 2426.64 289.42 2440.49 287.775C2457.78 285.718 2471.77 283.936 2482.61 282.702C2493.44 281.468 2501.4 279.275 2506.61 276.121C2511.83 272.968 2514.29 268.169 2514.29 261.314V259.806C2514.29 248.838 2512.24 239.515 2507.98 232.112C2503.73 224.571 2497.56 218.813 2489.33 214.7C2481.1 210.587 2470.67 208.53 2458.33 208.53C2445.98 208.53 2434.6 210.45 2425.54 214.426C2416.49 218.402 2408.94 223.337 2403.32 229.507C2397.7 235.676 2393.44 241.983 2390.7 248.564L2336.51 234.443C2343.1 217.031 2352.7 202.909 2365.05 192.353C2377.39 181.659 2391.66 173.981 2407.71 169.045C2423.76 164.11 2440.36 161.779 2457.37 161.779C2469.3 161.779 2481.78 163.15 2495.09 165.892C2508.4 168.634 2520.88 173.707 2532.54 181.11C2544.2 188.514 2553.8 198.796 2561.07 211.958C2568.34 225.12 2572.05 242.532 2572.05 263.782V457.917H2516.35V417.884H2513.47C2509.63 425.424 2504.01 432.691 2496.46 439.82C2488.92 446.949 2479.45 452.844 2468.07 457.506C2456.68 462.167 2442.96 464.361 2427.05 464.361H2426.64ZM2439.4 418.021C2455.03 418.021 2468.48 415.005 2479.73 408.835C2490.97 402.665 2499.48 394.577 2505.38 384.568C2511.28 374.423 2514.29 363.729 2514.29 352.349V314.921C2512.24 316.977 2508.26 318.897 2502.36 320.542C2496.46 322.187 2489.88 323.695 2482.33 324.929C2474.79 326.163 2467.65 327.26 2460.66 328.22C2453.66 329.179 2447.9 329.728 2443.37 330.276C2432.54 331.647 2422.66 333.978 2413.61 337.405C2404.55 340.696 2397.42 345.357 2392.21 351.527C2387 357.696 2384.25 365.785 2384.25 375.794C2384.25 384.979 2386.58 392.794 2391.52 399.101C2396.32 405.408 2402.77 410.069 2411 413.222C2419.23 416.376 2428.7 417.884 2439.53 417.884L2439.4 418.021Z" fill="black"/>
<path d="M2774.24 165.343V212.232H2615.67V165.343H2774.24ZM2658.33 95.6962H2715.94V378.81C2715.94 390.463 2718.41 399.101 2723.35 404.585C2728.29 410.069 2736.52 412.811 2747.77 412.811C2750.79 412.811 2754.63 412.399 2759.56 411.714C2764.5 411.028 2768.62 410.343 2772.18 409.657L2782.34 455.723C2776.16 457.78 2769.72 459.288 2762.72 460.248C2755.72 461.207 2748.87 461.619 2742.01 461.619C2715.53 461.619 2694.95 454.764 2680.28 441.054C2665.6 427.343 2658.33 408.149 2658.33 383.334V95.5591V95.6962Z" fill="black"/>
<path d="M2962.17 165.344V212.232H2783.71V165.344H2962.17ZM2839.13 457.78V131.754C2839.13 113.657 2843.24 98.4383 2851.34 86.2363C2859.43 74.0344 2870.13 64.8486 2883.43 58.8161C2896.74 52.7837 2911.01 49.6304 2926.37 49.6304C2938.03 49.6304 2948.04 50.5901 2956.27 52.5095C2964.51 54.4289 2970.68 56.0741 2974.52 57.4451L2961.21 104.059C2958.47 103.237 2955.04 102.277 2950.92 101.317C2946.81 100.358 2941.73 99.8093 2935.56 99.8093C2921.98 99.8093 2912.1 103.237 2905.93 109.955C2899.76 116.81 2896.74 126.544 2896.74 139.569V457.643H2839.13V457.78Z" fill="black"/>
<path d="M3129.12 463.813C3101.68 463.813 3077.81 457.506 3057.24 445.03C3036.66 432.417 3020.75 414.868 3009.5 392.246C2998.11 369.624 2992.49 343.164 2992.49 313.276C2992.49 283.388 2998.11 256.379 3009.5 233.62C3020.88 210.861 3036.8 193.175 3057.24 180.699C3077.68 168.086 3101.68 161.916 3129.12 161.916C3156.55 161.916 3180.69 168.223 3201.27 180.699C3221.85 193.312 3237.76 210.861 3249.01 233.62C3260.26 256.379 3266.02 282.976 3266.02 313.276C3266.02 343.575 3260.39 369.624 3249.01 392.246C3237.62 414.868 3221.71 432.554 3201.27 445.03C3180.83 457.643 3156.69 463.813 3129.12 463.813ZM3129.12 415.142C3146.95 415.142 3161.63 410.48 3173.29 401.158C3184.95 391.835 3193.59 379.496 3199.21 364.003C3204.84 348.511 3207.72 331.647 3207.72 313.139C3207.72 294.63 3204.84 277.355 3199.21 261.726C3193.59 246.096 3184.95 233.62 3173.29 224.297C3161.63 214.974 3146.95 210.313 3129.12 210.313C3111.28 210.313 3096.88 214.974 3085.36 224.297C3073.83 233.62 3065.19 246.096 3059.57 261.589C3053.94 277.081 3051.06 294.219 3051.06 313.139C3051.06 332.059 3053.94 348.511 3059.57 364.003C3065.19 379.496 3073.83 391.835 3085.36 401.158C3096.88 410.48 3111.42 415.142 3129.12 415.142Z" fill="black"/>
<path d="M3329.94 457.78V165.344H3385.63V212.369H3388.79C3394.14 196.328 3403.6 183.715 3417.05 174.667C3430.49 165.618 3445.72 161.094 3462.86 161.094C3466.57 161.094 3470.68 161.094 3475.48 161.505C3480.15 161.779 3484.13 162.19 3487.28 162.739V217.716C3485.22 217.031 3481.11 216.345 3475.21 215.66C3469.31 214.974 3463.28 214.563 3457.1 214.563C3443.8 214.563 3431.86 217.305 3421.3 222.926C3410.6 228.547 3402.37 236.225 3396.47 246.096C3390.57 255.967 3387.55 267.347 3387.55 280.234V457.917H3329.94V457.78Z" fill="black"/>
<path d="M3544.07 457.78V165.343H3598.81L3600.31 233.071H3595.93C3600.04 216.482 3606.62 202.909 3615.27 192.215C3624.05 181.521 3634.2 173.57 3645.86 168.223C3657.52 162.876 3669.73 160.271 3682.48 160.271C3703.75 160.271 3720.89 166.852 3734.06 180.013C3747.09 193.175 3756.01 211.547 3760.54 235.128H3753.27C3757.11 219.087 3763.69 205.514 3773.16 194.272C3782.62 183.167 3794.01 174.666 3807.31 168.908C3820.62 163.15 3834.89 160.271 3850.11 160.271C3867.4 160.271 3883.03 163.972 3897.16 171.513C3911.16 179.054 3922.27 190.159 3930.5 204.966C3938.73 219.773 3942.84 238.281 3942.84 260.354V457.643H3885.23V266.113C3885.23 246.644 3879.74 232.386 3868.9 223.748C3858.07 215.111 3845.17 210.724 3830.36 210.724C3818.29 210.724 3808 213.192 3799.22 218.264C3790.44 223.337 3783.72 230.329 3779.05 239.378C3774.39 248.427 3771.92 258.709 3771.92 270.363V457.643H3715.13V262.548C3715.13 246.781 3710.06 234.305 3700.04 224.845C3690.03 215.385 3677.27 210.724 3661.77 210.724C3651.07 210.724 3641.19 213.192 3632 218.127C3622.81 223.063 3615.54 230.466 3610.05 240.064C3604.57 249.661 3601.82 261.588 3601.82 275.71V457.506H3544.21L3544.07 457.78Z" fill="black"/>
<path d="M4331.22 458.756H4248.77L4249.3 402.122H4331.22C4353.45 402.122 4372.09 397.228 4387.15 387.439C4402.2 377.476 4413.58 363.23 4421.28 344.701C4428.98 325.998 4432.83 303.624 4432.83 277.579V257.915C4432.83 237.813 4430.65 220.071 4426.27 204.689C4421.89 189.307 4415.42 176.372 4406.84 165.884C4398.44 155.396 4388.02 147.443 4375.59 142.024C4363.16 136.606 4348.9 133.896 4332.79 133.896H4247.2V77H4332.79C4358.35 77 4381.63 81.2825 4402.64 89.8476C4423.82 98.4126 4442.11 110.736 4457.52 126.817C4473.09 142.724 4485 161.776 4493.22 183.976C4501.63 206.175 4505.83 230.996 4505.83 258.439V277.579C4505.83 304.848 4501.63 329.669 4493.22 352.043C4485 374.242 4473.09 393.295 4457.52 409.201C4442.11 425.108 4423.73 437.344 4402.38 445.909C4381.02 454.474 4357.3 458.756 4331.22 458.756ZM4289.21 77V458.756H4217V77H4289.21Z" fill="#59778B"/>
<path d="M4549.68 319.793V314.287C4549.68 293.486 4552.65 274.346 4558.61 256.866C4564.56 239.211 4573.22 223.917 4584.6 210.982C4595.98 198.047 4609.89 187.996 4626.35 180.829C4642.8 173.488 4661.53 169.817 4682.54 169.817C4703.89 169.817 4722.8 173.488 4739.25 180.829C4755.88 187.996 4769.89 198.047 4781.27 210.982C4792.64 223.917 4801.31 239.211 4807.26 256.866C4813.21 274.346 4816.19 293.486 4816.19 314.287V319.793C4816.19 340.419 4813.21 359.559 4807.26 377.213C4801.31 394.693 4792.64 409.988 4781.27 423.098C4769.89 436.033 4755.97 446.083 4739.52 453.25C4723.06 460.417 4704.24 464 4683.06 464C4662.06 464 4643.24 460.417 4626.61 453.25C4609.98 446.083 4595.98 436.033 4584.6 423.098C4573.22 409.988 4564.56 394.693 4558.61 377.213C4552.65 359.559 4549.68 340.419 4549.68 319.793ZM4619 314.287V319.793C4619 332.203 4620.22 343.827 4622.67 354.665C4625.12 365.502 4628.89 375.028 4633.96 383.244C4639.04 391.459 4645.6 397.927 4653.66 402.646C4661.88 407.191 4671.69 409.463 4683.06 409.463C4694.27 409.463 4703.89 407.191 4711.95 402.646C4720 397.927 4726.56 391.459 4731.64 383.244C4736.89 375.028 4740.74 365.502 4743.19 354.665C4745.64 343.827 4746.87 332.203 4746.87 319.793V314.287C4746.87 302.051 4745.64 290.602 4743.19 279.939C4740.74 269.102 4736.89 259.575 4731.64 251.36C4726.56 242.97 4719.91 236.415 4711.68 231.695C4703.63 226.801 4693.92 224.354 4682.54 224.354C4671.34 224.354 4661.71 226.801 4653.66 231.695C4645.6 236.415 4639.04 242.97 4633.96 251.36C4628.89 259.575 4625.12 269.102 4622.67 279.939C4620.22 290.602 4619 302.051 4619 314.287Z" fill="#59778B"/>
<path d="M4983.18 409.463C4992.99 409.463 5001.74 407.541 5009.44 403.695C5017.14 399.85 5023.27 394.431 5027.82 387.439C5032.55 380.447 5035.08 372.319 5035.43 363.055H5100.81C5100.46 382.283 5095.04 399.5 5084.53 414.707C5074.03 429.915 5060.03 441.976 5042.52 450.89C5025.19 459.63 5005.76 464 4984.23 464C4962.35 464 4943.27 460.329 4926.99 452.988C4910.71 445.646 4897.15 435.421 4886.29 422.311C4875.62 409.201 4867.56 393.994 4862.14 376.689C4856.89 359.384 4854.26 340.856 4854.26 321.104V312.713C4854.26 292.961 4856.89 274.433 4862.14 257.128C4867.56 239.823 4875.62 224.616 4886.29 211.506C4897.15 198.396 4910.71 188.171 4926.99 180.829C4943.27 173.488 4962.26 169.817 4983.97 169.817C5006.9 169.817 5027.03 174.274 5044.36 183.189C5061.87 192.104 5075.52 204.689 5085.32 220.945C5095.3 237.201 5100.46 256.341 5100.81 278.366H5035.43C5035.08 268.228 5032.81 259.138 5028.61 251.098C5024.41 243.057 5018.45 236.589 5010.75 231.695C5003.05 226.801 4993.69 224.354 4982.66 224.354C4970.93 224.354 4961.13 226.801 4953.25 231.695C4945.55 236.589 4939.51 243.319 4935.13 251.884C4930.93 260.274 4927.96 269.713 4926.2 280.201C4924.63 290.514 4923.84 301.352 4923.84 312.713V321.104C4923.84 332.64 4924.63 343.652 4926.2 354.14C4927.96 364.628 4930.93 374.067 4935.13 382.457C4939.51 390.673 4945.55 397.228 4953.25 402.122C4961.13 407.016 4971.1 409.463 4983.18 409.463Z" fill="#59778B"/>
<path d="M5303.26 381.146C5303.26 375.203 5301.68 369.872 5298.53 365.152C5295.38 360.433 5289.43 356.15 5280.68 352.305C5272.1 348.285 5259.49 344.526 5242.87 341.03C5228.16 337.884 5214.6 333.951 5202.17 329.232C5189.74 324.512 5179.06 318.831 5170.13 312.189C5161.21 305.372 5154.2 297.419 5149.13 288.329C5144.23 279.065 5141.78 268.402 5141.78 256.341C5141.78 244.63 5144.31 233.618 5149.39 223.305C5154.47 212.817 5161.82 203.64 5171.45 195.774C5181.07 187.734 5192.8 181.441 5206.63 176.896C5220.46 172.177 5236.04 169.817 5253.37 169.817C5277.52 169.817 5298.27 173.75 5315.6 181.616C5333.1 189.482 5346.49 200.319 5355.77 214.128C5365.05 227.762 5369.69 243.144 5369.69 260.274H5300.37C5300.37 252.758 5298.62 245.941 5295.12 239.823C5291.79 233.705 5286.63 228.811 5279.63 225.14C5272.62 221.295 5263.78 219.372 5253.11 219.372C5243.48 219.372 5235.34 220.945 5228.69 224.091C5222.21 227.238 5217.31 231.346 5213.98 236.415C5210.66 241.484 5208.99 247.077 5208.99 253.195C5208.99 257.74 5209.87 261.848 5211.62 265.518C5213.54 269.014 5216.61 272.248 5220.81 275.22C5225.01 278.191 5230.7 280.9 5237.88 283.348C5245.23 285.795 5254.24 288.154 5264.92 290.427C5286.1 294.622 5304.57 300.215 5320.32 307.207C5336.25 314.024 5348.68 323.114 5357.61 334.476C5366.54 345.837 5371 360.346 5371 378C5371 390.585 5368.29 402.122 5362.86 412.61C5357.43 422.923 5349.56 431.925 5339.23 439.616C5328.9 447.307 5316.56 453.337 5302.21 457.707C5287.85 461.902 5271.66 464 5253.63 464C5227.55 464 5205.49 459.368 5187.46 450.104C5169.43 440.665 5155.78 428.778 5146.5 414.445C5137.22 399.937 5132.59 384.904 5132.59 369.348H5199.02C5199.54 380.36 5202.52 389.187 5207.94 395.829C5213.37 402.472 5220.2 407.278 5228.42 410.25C5236.83 413.047 5245.67 414.445 5254.94 414.445C5265.45 414.445 5274.29 413.047 5281.46 410.25C5288.64 407.278 5294.07 403.346 5297.74 398.451C5301.42 393.382 5303.26 387.614 5303.26 381.146Z" fill="#59778B"/>
</svg>
