<svg width="2636" height="304" viewBox="0 0 2636 304" fill="none" xmlns="http://www.w3.org/2000/svg">
<path d="M920.055 112.451L868.277 255H847.115L906.734 98.5938H920.377L920.055 112.451ZM963.453 255L911.568 112.451L911.246 98.5938H924.889L984.723 255H963.453ZM960.768 197.1V214.072H872.896V197.1H960.768Z" fill="white"/>
<path d="M1063.36 193.662H1021.57V176.797H1063.36C1071.45 176.797 1078 175.508 1083.01 172.93C1088.03 170.352 1091.68 166.771 1093.97 162.188C1096.33 157.604 1097.52 152.376 1097.52 146.504C1097.52 141.133 1096.33 136.084 1093.97 131.357C1091.68 126.631 1088.03 122.835 1083.01 119.971C1078 117.035 1071.45 115.566 1063.36 115.566H1026.4V255H1005.67V98.5938H1063.36C1075.17 98.5938 1085.16 100.635 1093.33 104.717C1101.49 108.799 1107.68 114.456 1111.91 121.689C1116.14 128.851 1118.25 137.051 1118.25 146.289C1118.25 156.315 1116.14 164.873 1111.91 171.963C1107.68 179.053 1101.49 184.46 1093.33 188.184C1085.16 191.836 1075.17 193.662 1063.36 193.662Z" fill="white"/>
<path d="M1166.7 98.5938V255H1145.96V98.5938H1166.7Z" fill="white"/>
<path d="M1316.66 193.662H1274.87V176.797H1316.66C1324.75 176.797 1331.3 175.508 1336.31 172.93C1341.33 170.352 1344.98 166.771 1347.27 162.188C1349.63 157.604 1350.82 152.376 1350.82 146.504C1350.82 141.133 1349.63 136.084 1347.27 131.357C1344.98 126.631 1341.33 122.835 1336.31 119.971C1331.3 117.035 1324.75 115.566 1316.66 115.566H1279.7V255H1258.97V98.5938H1316.66C1328.47 98.5938 1338.46 100.635 1346.63 104.717C1354.79 108.799 1360.99 114.456 1365.21 121.689C1369.44 128.851 1371.55 137.051 1371.55 146.289C1371.55 156.315 1369.44 164.873 1365.21 171.963C1360.99 179.053 1354.79 184.46 1346.63 188.184C1338.46 191.836 1328.47 193.662 1316.66 193.662Z" fill="white"/>
<path d="M1416.34 90V255H1396.36V90H1416.34Z" fill="white"/>
<path d="M1516.78 235.127V175.293C1516.78 170.71 1515.85 166.735 1513.99 163.369C1512.2 159.932 1509.48 157.282 1505.83 155.42C1502.17 153.558 1497.66 152.627 1492.29 152.627C1487.28 152.627 1482.87 153.486 1479.08 155.205C1475.35 156.924 1472.42 159.18 1470.27 161.973C1468.19 164.766 1467.15 167.773 1467.15 170.996H1447.28C1447.28 166.842 1448.36 162.725 1450.5 158.643C1452.65 154.561 1455.73 150.872 1459.74 147.578C1463.82 144.212 1468.69 141.562 1474.35 139.629C1480.08 137.624 1486.45 136.621 1493.47 136.621C1501.92 136.621 1509.37 138.053 1515.82 140.918C1522.33 143.783 1527.42 148.115 1531.07 153.916C1534.79 159.645 1536.66 166.842 1536.66 175.508V229.648C1536.66 233.516 1536.98 237.633 1537.62 242.002C1538.34 246.37 1539.38 250.13 1540.74 253.281V255H1520.01C1519 252.708 1518.22 249.665 1517.64 245.869C1517.07 242.002 1516.78 238.421 1516.78 235.127ZM1520.22 184.531L1520.44 198.496H1500.35C1494.69 198.496 1489.64 198.962 1485.2 199.893C1480.76 200.752 1477.04 202.077 1474.03 203.867C1471.02 205.658 1468.73 207.913 1467.15 210.635C1465.58 213.285 1464.79 216.4 1464.79 219.98C1464.79 223.633 1465.61 226.963 1467.26 229.971C1468.91 232.979 1471.38 235.378 1474.67 237.168C1478.04 238.887 1482.16 239.746 1487.03 239.746C1493.11 239.746 1498.49 238.457 1503.14 235.879C1507.8 233.301 1511.48 230.15 1514.21 226.426C1517 222.702 1518.5 219.085 1518.72 215.576L1527.2 225.137C1526.7 228.145 1525.34 231.475 1523.12 235.127C1520.9 238.779 1517.93 242.288 1514.21 245.654C1510.55 248.949 1506.18 251.706 1501.1 253.926C1496.09 256.074 1490.43 257.148 1484.13 257.148C1476.25 257.148 1469.34 255.609 1463.39 252.529C1457.52 249.45 1452.94 245.332 1449.64 240.176C1446.42 234.948 1444.81 229.111 1444.81 222.666C1444.81 216.436 1446.03 210.957 1448.46 206.23C1450.9 201.432 1454.41 197.458 1458.99 194.307C1463.57 191.084 1469.09 188.649 1475.53 187.002C1481.98 185.355 1489.18 184.531 1497.12 184.531H1520.22Z" fill="white"/>
<path d="M1616.58 138.77V154.023H1553.74V138.77H1616.58ZM1575.01 110.518H1594.88V226.211C1594.88 230.15 1595.49 233.122 1596.71 235.127C1597.92 237.132 1599.5 238.457 1601.43 239.102C1603.37 239.746 1605.44 240.068 1607.66 240.068C1609.31 240.068 1611.03 239.925 1612.82 239.639C1614.68 239.281 1616.08 238.994 1617.01 238.779L1617.12 255C1615.54 255.501 1613.46 255.967 1610.88 256.396C1608.38 256.898 1605.33 257.148 1601.75 257.148C1596.88 257.148 1592.41 256.182 1588.33 254.248C1584.24 252.314 1580.99 249.092 1578.55 244.58C1576.19 239.997 1575.01 233.838 1575.01 226.104V110.518Z" fill="white"/>
<path d="M1669.54 255H1649.66V126.523C1649.66 118.145 1651.17 111.09 1654.18 105.361C1657.26 99.5605 1661.66 95.1921 1667.39 92.2559C1673.12 89.248 1679.92 87.7441 1687.8 87.7441C1690.09 87.7441 1692.38 87.8874 1694.67 88.1738C1697.04 88.4603 1699.33 88.89 1701.55 89.4629L1700.47 105.684C1698.97 105.326 1697.25 105.075 1695.32 104.932C1693.46 104.788 1691.59 104.717 1689.73 104.717C1685.51 104.717 1681.85 105.576 1678.78 107.295C1675.77 108.942 1673.48 111.377 1671.9 114.6C1670.32 117.822 1669.54 121.797 1669.54 126.523V255ZM1694.24 138.77V154.023H1631.29V138.77H1694.24Z" fill="white"/>
<path d="M1711.11 198.174V195.703C1711.11 187.324 1712.33 179.554 1714.76 172.393C1717.2 165.16 1720.71 158.893 1725.29 153.594C1729.87 148.223 1735.42 144.069 1741.94 141.133C1748.46 138.125 1755.76 136.621 1763.85 136.621C1772.02 136.621 1779.36 138.125 1785.88 141.133C1792.46 144.069 1798.05 148.223 1802.63 153.594C1807.29 158.893 1810.83 165.16 1813.27 172.393C1815.7 179.554 1816.92 187.324 1816.92 195.703V198.174C1816.92 206.553 1815.7 214.323 1813.27 221.484C1810.83 228.646 1807.29 234.912 1802.63 240.283C1798.05 245.583 1792.5 249.736 1785.98 252.744C1779.54 255.68 1772.23 257.148 1764.07 257.148C1755.9 257.148 1748.56 255.68 1742.05 252.744C1735.53 249.736 1729.94 245.583 1725.29 240.283C1720.71 234.912 1717.2 228.646 1714.76 221.484C1712.33 214.323 1711.11 206.553 1711.11 198.174ZM1730.98 195.703V198.174C1730.98 203.975 1731.66 209.453 1733.02 214.609C1734.38 219.694 1736.43 224.206 1739.15 228.145C1741.94 232.083 1745.41 235.199 1749.57 237.49C1753.72 239.71 1758.55 240.82 1764.07 240.82C1769.51 240.82 1774.27 239.71 1778.36 237.49C1782.51 235.199 1785.95 232.083 1788.67 228.145C1791.39 224.206 1793.43 219.694 1794.79 214.609C1796.22 209.453 1796.94 203.975 1796.94 198.174V195.703C1796.94 189.974 1796.22 184.567 1794.79 179.482C1793.43 174.326 1791.35 169.779 1788.56 165.84C1785.84 161.829 1782.4 158.678 1778.25 156.387C1774.17 154.095 1769.37 152.949 1763.85 152.949C1758.41 152.949 1753.61 154.095 1749.46 156.387C1745.38 158.678 1741.94 161.829 1739.15 165.84C1736.43 169.779 1734.38 174.326 1733.02 179.482C1731.66 184.567 1730.98 189.974 1730.98 195.703Z" fill="white"/>
<path d="M1861.71 157.031V255H1841.84V138.77H1861.18L1861.71 157.031ZM1898.02 138.125L1897.92 156.602C1896.27 156.243 1894.69 156.029 1893.19 155.957C1891.76 155.814 1890.11 155.742 1888.25 155.742C1883.66 155.742 1879.62 156.458 1876.11 157.891C1872.6 159.323 1869.63 161.328 1867.19 163.906C1864.76 166.484 1862.82 169.564 1861.39 173.145C1860.03 176.654 1859.14 180.521 1858.71 184.746L1853.12 187.969C1853.12 180.951 1853.8 174.362 1855.16 168.203C1856.59 162.044 1858.78 156.602 1861.71 151.875C1864.65 147.077 1868.38 143.353 1872.89 140.703C1877.47 137.982 1882.91 136.621 1889.21 136.621C1890.65 136.621 1892.29 136.8 1894.16 137.158C1896.02 137.445 1897.31 137.767 1898.02 138.125Z" fill="white"/>
<path d="M1936.16 161.865V255H1916.18V138.77H1935.08L1936.16 161.865ZM1932.08 192.48L1922.84 192.158C1922.91 184.209 1923.95 176.868 1925.95 170.137C1927.96 163.333 1930.93 157.425 1934.87 152.412C1938.81 147.399 1943.71 143.532 1949.59 140.811C1955.46 138.018 1962.26 136.621 1970 136.621C1975.44 136.621 1980.45 137.409 1985.04 138.984C1989.62 140.488 1993.59 142.887 1996.96 146.182C2000.32 149.476 2002.94 153.701 2004.8 158.857C2006.66 164.014 2007.59 170.244 2007.59 177.549V255H1987.72V178.516C1987.72 172.428 1986.68 167.559 1984.61 163.906C1982.6 160.254 1979.74 157.604 1976.01 155.957C1972.29 154.238 1967.92 153.379 1962.91 153.379C1957.03 153.379 1952.13 154.417 1948.19 156.494C1944.25 158.571 1941.1 161.436 1938.74 165.088C1936.37 168.74 1934.65 172.93 1933.58 177.656C1932.58 182.311 1932.08 187.253 1932.08 192.48ZM2007.38 181.523L1994.06 185.605C1994.13 179.232 1995.17 173.109 1997.17 167.236C1999.25 161.364 2002.22 156.136 2006.09 151.553C2010.03 146.969 2014.86 143.353 2020.59 140.703C2026.32 137.982 2032.87 136.621 2040.25 136.621C2046.48 136.621 2051.99 137.445 2056.79 139.092C2061.66 140.739 2065.74 143.281 2069.04 146.719C2072.41 150.085 2074.95 154.417 2076.67 159.717C2078.38 165.016 2079.24 171.318 2079.24 178.623V255H2059.26V178.408C2059.26 171.891 2058.23 166.842 2056.15 163.262C2054.14 159.609 2051.28 157.067 2047.55 155.635C2043.9 154.131 2039.53 153.379 2034.45 153.379C2030.08 153.379 2026.21 154.131 2022.85 155.635C2019.48 157.139 2016.65 159.215 2014.36 161.865C2012.07 164.443 2010.32 167.415 2009.1 170.781C2007.95 174.147 2007.38 177.728 2007.38 181.523Z" fill="white"/>
<path d="M2210.41 255H2176.68L2176.89 231.797H2210.41C2219.5 231.797 2227.13 229.792 2233.29 225.781C2239.45 221.699 2244.1 215.863 2247.25 208.271C2250.4 200.609 2251.98 191.442 2251.98 180.771V172.715C2251.98 164.479 2251.08 157.21 2249.29 150.908C2247.5 144.606 2244.85 139.307 2241.34 135.01C2237.91 130.713 2233.65 127.454 2228.56 125.234C2223.48 123.014 2217.64 121.904 2211.05 121.904H2176.03V98.5938H2211.05C2221.51 98.5938 2231.03 100.348 2239.62 103.857C2248.29 107.367 2255.77 112.415 2262.08 119.004C2268.45 125.521 2273.32 133.327 2276.69 142.422C2280.12 151.517 2281.84 161.686 2281.84 172.93V180.771C2281.84 191.943 2280.12 202.113 2276.69 211.279C2273.32 220.374 2268.45 228.18 2262.08 234.697C2255.77 241.214 2248.25 246.227 2239.52 249.736C2230.78 253.245 2221.08 255 2210.41 255ZM2193.22 98.5938V255H2163.68V98.5938H2193.22Z" fill="#6F9AB6"/>
<path d="M2299.78 198.066V195.811C2299.78 187.288 2301 179.447 2303.43 172.285C2305.87 165.052 2309.41 158.786 2314.07 153.486C2318.72 148.187 2324.42 144.069 2331.15 141.133C2337.88 138.125 2345.54 136.621 2354.14 136.621C2362.87 136.621 2370.61 138.125 2377.34 141.133C2384.14 144.069 2389.87 148.187 2394.53 153.486C2399.18 158.786 2402.73 165.052 2405.16 172.285C2407.6 179.447 2408.81 187.288 2408.81 195.811V198.066C2408.81 206.517 2407.6 214.359 2405.16 221.592C2402.73 228.753 2399.18 235.02 2394.53 240.391C2389.87 245.69 2384.18 249.808 2377.45 252.744C2370.72 255.68 2363.02 257.148 2354.35 257.148C2345.76 257.148 2338.06 255.68 2331.26 252.744C2324.45 249.808 2318.72 245.69 2314.07 240.391C2309.41 235.02 2305.87 228.753 2303.43 221.592C2301 214.359 2299.78 206.517 2299.78 198.066ZM2328.14 195.811V198.066C2328.14 203.151 2328.64 207.913 2329.64 212.354C2330.65 216.794 2332.19 220.697 2334.26 224.062C2336.34 227.428 2339.03 230.078 2342.32 232.012C2345.69 233.874 2349.7 234.805 2354.35 234.805C2358.93 234.805 2362.87 233.874 2366.17 232.012C2369.46 230.078 2372.15 227.428 2374.22 224.062C2376.37 220.697 2377.95 216.794 2378.95 212.354C2379.95 207.913 2380.46 203.151 2380.46 198.066V195.811C2380.46 190.798 2379.95 186.107 2378.95 181.738C2377.95 177.298 2376.37 173.395 2374.22 170.029C2372.15 166.592 2369.43 163.906 2366.06 161.973C2362.77 159.967 2358.79 158.965 2354.14 158.965C2349.55 158.965 2345.61 159.967 2342.32 161.973C2339.03 163.906 2336.34 166.592 2334.26 170.029C2332.19 173.395 2330.65 177.298 2329.64 181.738C2328.64 186.107 2328.14 190.798 2328.14 195.811Z" fill="#6F9AB6"/>
<path d="M2477.13 234.805C2481.15 234.805 2484.73 234.017 2487.88 232.441C2491.03 230.866 2493.53 228.646 2495.4 225.781C2497.33 222.917 2498.37 219.587 2498.51 215.791H2525.26C2525.12 223.669 2522.9 230.723 2518.6 236.953C2514.3 243.184 2508.57 248.125 2501.41 251.777C2494.32 255.358 2486.37 257.148 2477.56 257.148C2468.61 257.148 2460.81 255.645 2454.15 252.637C2447.49 249.629 2441.94 245.439 2437.5 240.068C2433.13 234.697 2429.83 228.467 2427.61 221.377C2425.46 214.287 2424.39 206.696 2424.39 198.604V195.166C2424.39 187.074 2425.46 179.482 2427.61 172.393C2429.83 165.303 2433.13 159.072 2437.5 153.701C2441.94 148.33 2447.49 144.141 2454.15 141.133C2460.81 138.125 2468.58 136.621 2477.46 136.621C2486.84 136.621 2495.07 138.447 2502.16 142.1C2509.33 145.752 2514.91 150.908 2518.92 157.568C2523 164.229 2525.12 172.07 2525.26 181.094H2498.51C2498.37 176.94 2497.44 173.216 2495.72 169.922C2494 166.628 2491.57 163.978 2488.41 161.973C2485.26 159.967 2481.43 158.965 2476.92 158.965C2472.12 158.965 2468.11 159.967 2464.89 161.973C2461.74 163.978 2459.27 166.735 2457.48 170.244C2455.76 173.682 2454.54 177.549 2453.82 181.846C2453.18 186.071 2452.86 190.511 2452.86 195.166V198.604C2452.86 203.33 2453.18 207.842 2453.82 212.139C2454.54 216.436 2455.76 220.303 2457.48 223.74C2459.27 227.106 2461.74 229.792 2464.89 231.797C2468.11 233.802 2472.19 234.805 2477.13 234.805Z" fill="#6F9AB6"/>
<path d="M2608.08 223.203C2608.08 220.768 2607.44 218.584 2606.15 216.65C2604.86 214.717 2602.42 212.962 2598.84 211.387C2595.33 209.74 2590.18 208.2 2583.38 206.768C2577.36 205.479 2571.81 203.867 2566.72 201.934C2561.64 200 2557.27 197.673 2553.62 194.951C2549.97 192.158 2547.1 188.9 2545.03 185.176C2543.02 181.38 2542.02 177.012 2542.02 172.07C2542.02 167.272 2543.06 162.76 2545.13 158.535C2547.21 154.238 2550.22 150.479 2554.16 147.256C2558.09 143.962 2562.89 141.383 2568.55 139.521C2574.21 137.588 2580.58 136.621 2587.67 136.621C2597.55 136.621 2606.04 138.232 2613.13 141.455C2620.29 144.678 2625.77 149.118 2629.57 154.775C2633.36 160.361 2635.26 166.663 2635.26 173.682H2606.9C2606.9 170.602 2606.18 167.809 2604.75 165.303C2603.39 162.796 2601.28 160.791 2598.41 159.287C2595.55 157.712 2591.93 156.924 2587.56 156.924C2583.63 156.924 2580.3 157.568 2577.57 158.857C2574.92 160.146 2572.92 161.829 2571.56 163.906C2570.2 165.983 2569.52 168.275 2569.52 170.781C2569.52 172.643 2569.88 174.326 2570.59 175.83C2571.38 177.262 2572.63 178.587 2574.35 179.805C2576.07 181.022 2578.4 182.132 2581.33 183.135C2584.34 184.137 2588.03 185.104 2592.4 186.035C2601.06 187.754 2608.62 190.046 2615.06 192.91C2621.58 195.703 2626.67 199.427 2630.32 204.082C2633.97 208.737 2635.8 214.681 2635.8 221.914C2635.8 227.07 2634.69 231.797 2632.47 236.094C2630.25 240.319 2627.02 244.007 2622.8 247.158C2618.57 250.309 2613.52 252.78 2607.65 254.57C2601.78 256.289 2595.16 257.148 2587.78 257.148C2577.11 257.148 2568.09 255.251 2560.71 251.455C2553.33 247.588 2547.75 242.718 2543.95 236.846C2540.16 230.902 2538.26 224.743 2538.26 218.369H2565.44C2565.65 222.881 2566.87 226.497 2569.09 229.219C2571.31 231.94 2574.1 233.91 2577.47 235.127C2580.9 236.273 2584.52 236.846 2588.32 236.846C2592.61 236.846 2596.23 236.273 2599.17 235.127C2602.1 233.91 2604.32 232.298 2605.83 230.293C2607.33 228.216 2608.08 225.853 2608.08 223.203Z" fill="#6F9AB6"/>
<path d="M286.207 14.5497L221.072 180.83L155.568 3.00103L86.1535 180.437L26.9468 14.5497H0L85.0958 247.515L154.916 70.079L220.346 247.699L313.141 14.5497H286.207Z" fill="white"/>
<path d="M417.263 132.913C406.403 124.034 349.484 94.4672 342.167 89.3509C334.873 84.2592 331.208 76.8307 331.208 67.09C331.208 57.3493 334.923 49.4042 342.339 43.3286C349.755 37.2038 358.782 34.1782 369.421 34.1782C376.271 34.1782 382.138 35.4942 387.02 38.1754C391.891 40.8442 396.552 45.1734 400.967 51.1507L403.304 54.7788C403.956 55.2462 404.866 56.3531 405.973 58.0995L425.577 45.4809C419.145 34.1782 411.126 25.5936 401.472 19.7148C391.842 13.8482 381.486 10.9088 370.417 10.9088C351.575 10.9088 336.165 16.2096 324.198 26.8604C312.243 37.4989 306.279 51.1507 306.279 67.7664C306.279 83.4844 311.678 95.6233 322.538 104.134C333.41 112.657 387.562 140.772 395.986 146.541C404.411 152.284 408.605 160.82 408.605 172.122C408.605 184.975 404.374 195.65 395.826 204.161C387.291 212.721 376.48 216.964 363.431 216.964C351.92 216.964 342.388 213.422 334.861 206.325C327.322 199.229 321.996 189.07 318.897 175.775L294.964 183.093C297.054 192.059 300.092 200.053 304.04 207.026C308.086 214.135 313.104 220.162 319.069 225.106C330.913 234.982 345.93 239.914 364.108 239.914C383.38 239.914 399.75 233.297 413.291 220.125C426.795 206.94 433.547 190.829 433.547 171.753C433.547 154.707 428.123 141.744 417.263 132.901V132.913Z" fill="white"/>
<path d="M696.3 117.663C701.884 116.077 707.812 115.277 714.158 115.277C731.044 115.277 744.708 120.738 755.125 131.66C765.579 142.532 770.831 155.384 770.831 170.192C770.831 180.597 768.322 190.35 763.316 199.463C758.335 208.564 748.644 220.937 734.23 236.47L688.552 285.776H773.303V303.511H648.617L718.77 227.75C732.987 212.488 742.248 201.197 746.541 193.83C750.845 186.488 752.973 178.715 752.973 170.585C752.973 160.254 749.136 151.362 741.412 143.921C733.725 136.493 724.292 132.754 713.125 132.754C706.742 132.754 700.949 133.91 695.722 136.222C696.177 131.77 696.349 119.324 696.288 117.663H696.3Z" fill="white"/>
<path d="M562.205 0C492.778 0 436.511 56.1197 436.511 125.35C436.511 194.58 492.791 250.7 562.205 250.7C631.62 250.7 687.9 194.58 687.9 125.35C687.9 56.1197 631.633 0 562.205 0ZM562.205 227.406C506.442 227.406 461.232 181.716 461.232 125.35C461.232 68.9843 506.442 23.294 562.205 23.294C617.968 23.294 663.179 68.9843 663.179 125.35C663.179 181.716 617.968 227.406 562.205 227.406Z" fill="white"/>
<path d="M662.859 117.405L626.27 117.491L608.031 150.316L562.513 39.3438L521.558 130.503L461.367 130.38C461.613 135.398 462.216 140.33 463.15 145.126L531.077 145.274L561.886 76.7078L606.014 184.286L634.953 132.225L662.945 132.151C663.093 129.9 663.191 127.637 663.191 125.362C663.191 122.681 663.056 120.037 662.859 117.405Z" fill="white"/>
</svg>
