<svg version="1.1" viewBox="0.0 0.0 600.0 400.0" fill="none" stroke="none" stroke-linecap="square" stroke-miterlimit="10" width="600" height="400" xmlns:xlink="http://www.w3.org/1999/xlink" xmlns="http://www.w3.org/2000/svg"><path fill="#f0f4f9" d="M0 0L600.0 0L600.0 400.0L0 400.0L0 0Z" fill-rule="nonzero"/><path stroke="#bec1c5" stroke-width="1.0" stroke-linecap="butt" d="M140.5 64.5L140.5 300.5" fill-rule="nonzero"/><path stroke="#bec1c5" stroke-width="1.0" stroke-linecap="butt" d="M250.5 64.5L250.5 300.5" fill-rule="nonzero"/><path stroke="#bec1c5" stroke-width="1.0" stroke-linecap="butt" d="M360.5 64.5L360.5 300.5" fill-rule="nonzero"/><path stroke="#bec1c5" stroke-width="1.0" stroke-linecap="butt" d="M470.5 64.5L470.5 300.5" fill-rule="nonzero"/><path stroke="#bec1c5" stroke-width="1.0" stroke-linecap="butt" d="M580.5 64.5L580.5 300.5" fill-rule="nonzero"/><path stroke="#272728" stroke-width="1.0" stroke-linecap="butt" d="M86.5 300.5L580.5 300.5" fill-rule="nonzero"/><path stroke="#bec1c5" stroke-width="1.0" stroke-linecap="butt" d="M86.5 221.5L580.5 221.5" fill-rule="nonzero"/><path stroke="#bec1c5" stroke-width="1.0" stroke-linecap="butt" d="M86.5 143.5L580.5 143.5" fill-rule="nonzero"/><path stroke="#bec1c5" stroke-width="1.0" stroke-linecap="butt" d="M86.5 64.5L580.5 64.5" fill-rule="nonzero"/><clipPath id="id_0"><path d="M86.0 64.333336L580.0 64.333336L580.0 300.66666L86.0 300.66666L86.0 64.333336Z" clip-rule="nonzero"/></clipPath><path stroke="#4285f4" stroke-width="2.0" stroke-linecap="butt" clip-path="url(#id_0)" d="M86.0 99.20668L305.55554 110.97608L470.22223 119.61052L580.0 117.07269" fill-rule="nonzero"/><path stroke="#ea4335" stroke-width="2.0" stroke-linecap="butt" clip-path="url(#id_0)" d="M86.0 99.214165L305.55554 116.21756L470.22223 118.56238L580.0 117.400406" fill-rule="nonzero"/><path stroke="#fbbc04" stroke-width="2.0" stroke-linecap="butt" clip-path="url(#id_0)" d="M86.0 125.782364L305.55554 125.20808L470.22223 129.4152L580.0 129.0351" fill-rule="nonzero"/><path stroke="#34a853" stroke-width="2.0" stroke-linecap="butt" clip-path="url(#id_0)" d="M86.0 176.90913L305.55554 180.00984L470.22223 183.5056L580.0 184.1563" fill-rule="nonzero"/><path fill="#000000" fill-opacity="0.0" clip-path="url(#id_0)" d="M89.0 99.20668C89.0 100.86353 87.65685 102.20668 86.0 102.20668C84.34315 102.20668 83.0 100.86353 83.0 99.20668C83.0 97.54983 84.34315 96.20668 86.0 96.20668C87.65685 96.20668 89.0 97.54983 89.0 99.20668Z" fill-rule="nonzero"/><path fill="#000000" fill-opacity="0.0" clip-path="url(#id_0)" d="M308.55554 110.97608C308.55554 112.632935 307.2124 113.97608 305.55554 113.97608C303.8987 113.97608 302.55554 112.632935 302.55554 110.97608C302.55554 109.31923 303.8987 107.97608 305.55554 107.97608C307.2124 107.97608 308.55554 109.31923 308.55554 110.97608Z" fill-rule="nonzero"/><path fill="#000000" fill-opacity="0.0" clip-path="url(#id_0)" d="M473.22223 119.61052C473.22223 121.26737 471.8791 122.61052 470.22223 122.61052C468.56537 122.61052 467.22223 121.26737 467.22223 119.61052C467.22223 117.95367 468.56537 116.61052 470.22223 116.61052C471.8791 116.61052 473.22223 117.95367 473.22223 119.61052Z" fill-rule="nonzero"/><path fill="#000000" fill-opacity="0.0" clip-path="url(#id_0)" d="M583.0 117.07269C583.0 118.729546 581.65686 120.07269 580.0 120.07269C578.34314 120.07269 577.0 118.729546 577.0 117.07269C577.0 115.41584 578.34314 114.07269 580.0 114.07269C581.65686 114.07269 583.0 115.41584 583.0 117.07269Z" fill-rule="nonzero"/><path fill="#000000" fill-opacity="0.0" clip-path="url(#id_0)" d="M89.0 99.214165C89.0 100.87102 87.65685 102.214165 86.0 102.214165C84.34315 102.214165 83.0 100.87102 83.0 99.214165C83.0 97.55731 84.34315 96.214165 86.0 96.214165C87.65685 96.214165 89.0 97.55731 89.0 99.214165Z" fill-rule="nonzero"/><path fill="#000000" fill-opacity="0.0" clip-path="url(#id_0)" d="M308.55554 116.21756C308.55554 117.87441 307.2124 119.21756 305.55554 119.21756C303.8987 119.21756 302.55554 117.87441 302.55554 116.21756C302.55554 114.56071 303.8987 113.21756 305.55554 113.21756C307.2124 113.21756 308.55554 114.56071 308.55554 116.21756Z" fill-rule="nonzero"/><path fill="#000000" fill-opacity="0.0" clip-path="url(#id_0)" d="M473.22223 118.56238C473.22223 120.21923 471.8791 121.56238 470.22223 121.56238C468.56537 121.56238 467.22223 120.21923 467.22223 118.56238C467.22223 116.905525 468.56537 115.56238 470.22223 115.56238C471.8791 115.56238 473.22223 116.905525 473.22223 118.56238Z" fill-rule="nonzero"/><path fill="#000000" fill-opacity="0.0" clip-path="url(#id_0)" d="M583.0 117.400406C583.0 119.05726 581.65686 120.400406 580.0 120.400406C578.34314 120.400406 577.0 119.05726 577.0 117.400406C577.0 115.74355 578.34314 114.400406 580.0 114.400406C581.65686 114.400406 583.0 115.74355 583.0 117.400406Z" fill-rule="nonzero"/><path fill="#000000" fill-opacity="0.0" clip-path="url(#id_0)" d="M89.0 125.782364C89.0 127.43922 87.65685 128.78236 86.0 128.78236C84.34315 128.78236 83.0 127.43922 83.0 125.782364C83.0 124.12551 84.34315 122.782364 86.0 122.782364C87.65685 122.782364 89.0 124.12551 89.0 125.782364Z" fill-rule="nonzero"/><path fill="#000000" fill-opacity="0.0" clip-path="url(#id_0)" d="M308.55554 125.20808C308.55554 126.86493 307.2124 128.20807 305.55554 128.20807C303.8987 128.20807 302.55554 126.86493 302.55554 125.20808C302.55554 123.551216 303.8987 122.20808 305.55554 122.20808C307.2124 122.20808 308.55554 123.551216 308.55554 125.20808Z" fill-rule="nonzero"/><path fill="#000000" fill-opacity="0.0" clip-path="url(#id_0)" d="M473.22223 129.4152C473.22223 131.07205 471.8791 132.4152 470.22223 132.4152C468.56537 132.4152 467.22223 131.07205 467.22223 129.4152C467.22223 127.75835 468.56537 126.4152 470.22223 126.4152C471.8791 126.4152 473.22223 127.75835 473.22223 129.4152Z" fill-rule="nonzero"/><path fill="#000000" fill-opacity="0.0" clip-path="url(#id_0)" d="M583.0 129.0351C583.0 130.69196 581.65686 132.0351 580.0 132.0351C578.34314 132.0351 577.0 130.69196 577.0 129.0351C577.0 127.37824 578.34314 126.035095 580.0 126.035095C581.65686 126.035095 583.0 127.37824 583.0 129.0351Z" fill-rule="nonzero"/><path fill="#000000" fill-opacity="0.0" clip-path="url(#id_0)" d="M89.0 176.90913C89.0 178.566 87.65685 179.90913 86.0 179.90913C84.34315 179.90913 83.0 178.566 83.0 176.90913C83.0 175.25229 84.34315 173.90913 86.0 173.90913C87.65685 173.90913 89.0 175.25229 89.0 176.90913Z" fill-rule="nonzero"/><path fill="#000000" fill-opacity="0.0" clip-path="url(#id_0)" d="M308.55554 180.00984C308.55554 181.66669 307.2124 183.00984 305.55554 183.00984C303.8987 183.00984 302.55554 181.66669 302.55554 180.00984C302.55554 178.35298 303.8987 177.00984 305.55554 177.00984C307.2124 177.00984 308.55554 178.35298 308.55554 180.00984Z" fill-rule="nonzero"/><path fill="#000000" fill-opacity="0.0" clip-path="url(#id_0)" d="M473.22223 183.5056C473.22223 185.16245 471.8791 186.5056 470.22223 186.5056C468.56537 186.5056 467.22223 185.16245 467.22223 183.5056C467.22223 181.84874 468.56537 180.5056 470.22223 180.5056C471.8791 180.5056 473.22223 181.84874 473.22223 183.5056Z" fill-rule="nonzero"/><path fill="#000000" fill-opacity="0.0" clip-path="url(#id_0)" d="M583.0 184.1563C583.0 185.81316 581.65686 187.1563 580.0 187.1563C578.34314 187.1563 577.0 185.81316 577.0 184.1563C577.0 182.49945 578.34314 181.1563 580.0 181.1563C581.65686 181.1563 583.0 182.49945 583.0 184.1563Z" fill-rule="nonzero"/><path fill="#000000" d="M292.0625 346.65103L293.1875 346.9479Q292.82812 348.33853 291.90625 349.0729Q290.98438 349.80728 289.64062 349.80728Q288.25 349.80728 287.375 349.24478Q286.5 348.68228 286.04688 347.61978Q285.59375 346.54166 285.59375 345.30728Q285.59375 343.96353 286.10938 342.96353Q286.625 341.96353 287.5625 341.4479Q288.51562 340.93228 289.65625 340.93228Q290.9375 340.93228 291.8125 341.58853Q292.70312 342.24478 293.04688 343.43228L291.92188 343.6979Q291.625 342.7604 291.04688 342.33853Q290.48438 341.90103 289.625 341.90103Q288.64062 341.90103 287.96875 342.3854Q287.3125 342.85416 287.03125 343.65103Q286.76562 344.4479 286.76562 345.30728Q286.76562 346.40103 287.07812 347.21353Q287.40625 348.02603 288.07812 348.43228Q288.75 348.83853 289.54688 348.83853Q290.5 348.83853 291.15625 348.29166Q291.82812 347.74478 292.0625 346.65103ZM294.40625 346.55728Q294.40625 344.8229 295.35938 343.99478Q296.15625 343.30728 297.3125 343.30728Q298.59375 343.30728 299.40625 344.15103Q300.23438 344.97916 300.23438 346.46353Q300.23438 347.66666 299.875 348.35416Q299.51562 349.04166 298.8125 349.43228Q298.125 349.80728 297.3125 349.80728Q296.01562 349.80728 295.20312 348.97916Q294.40625 348.1354 294.40625 346.55728ZM295.48438 346.55728Q295.48438 347.74478 296.0 348.33853Q296.53125 348.93228 297.3125 348.93228Q298.10938 348.93228 298.625 348.33853Q299.14062 347.74478 299.14062 346.52603Q299.14062 345.36978 298.60938 344.77603Q298.09375 344.18228 297.3125 344.18228Q296.53125 344.18228 296.0 344.77603Q295.48438 345.35416 295.48438 346.55728ZM301.79688 349.66666L301.79688 343.4479L302.73438 343.4479L302.73438 344.3229Q303.42188 343.30728 304.71875 343.30728Q305.28125 343.30728 305.75 343.5104Q306.23438 343.71353 306.46875 344.04166Q306.70312 344.36978 306.79688 344.80728Q306.84375 345.10416 306.84375 345.83853L306.84375 349.66666L305.79688 349.66666L305.79688 345.8854Q305.79688 345.22916 305.67188 344.91666Q305.54688 344.60416 305.23438 344.41666Q304.92188 344.21353 304.5 344.21353Q303.82812 344.21353 303.32812 344.65103Q302.84375 345.0729 302.84375 346.2604L302.84375 349.66666L301.79688 349.66666ZM312.85938 347.3854L313.89062 347.52603Q313.71875 348.58853 313.01562 349.1979Q312.3125 349.80728 311.29688 349.80728Q310.01562 349.80728 309.23438 348.97916Q308.46875 348.1354 308.46875 346.5729Q308.46875 345.5729 308.79688 344.8229Q309.14062 344.05728 309.8125 343.68228Q310.5 343.30728 311.3125 343.30728Q312.3125 343.30728 312.95312 343.8229Q313.60938 344.3229 313.79688 345.27603L312.76562 345.43228Q312.625 344.80728 312.25 344.49478Q311.875 344.16666 311.34375 344.16666Q310.54688 344.16666 310.04688 344.74478Q309.54688 345.30728 309.54688 346.54166Q309.54688 347.80728 310.03125 348.36978Q310.51562 348.93228 311.28125 348.93228Q311.90625 348.93228 312.3125 348.55728Q312.73438 348.18228 312.85938 347.3854ZM318.875 349.66666L318.875 348.74478Q318.14062 349.80728 316.89062 349.80728Q316.34375 349.80728 315.85938 349.60416Q315.39062 349.3854 315.15625 349.0729Q314.92188 348.74478 314.82812 348.27603Q314.76562 347.97916 314.76562 347.29166L314.76562 343.4479L315.82812 343.4479L315.82812 346.90103Q315.82812 347.71353 315.89062 348.0104Q315.98438 348.41666 316.29688 348.66666Q316.625 348.90103 317.10938 348.90103Q317.57812 348.90103 317.98438 348.66666Q318.40625 348.41666 318.57812 347.99478Q318.76562 347.5729 318.76562 346.77603L318.76562 343.4479L319.8125 343.4479L319.8125 349.66666L318.875 349.66666ZM321.78125 349.66666L321.78125 343.4479L322.73438 343.4479L322.73438 344.3854Q323.09375 343.72916 323.39062 343.52603Q323.70312 343.30728 324.07812 343.30728Q324.60938 343.30728 325.15625 343.6354L324.79688 344.61978Q324.40625 344.3854 324.03125 344.3854Q323.67188 344.3854 323.39062 344.60416Q323.125 344.80728 323.01562 345.18228Q322.82812 345.74478 322.82812 346.40103L322.82812 349.66666L321.78125 349.66666ZM325.78125 349.66666L325.78125 343.4479L326.73438 343.4479L326.73438 344.3854Q327.09375 343.72916 327.39062 343.52603Q327.70312 343.30728 328.07812 343.30728Q328.60938 343.30728 329.15625 343.6354L328.79688 344.61978Q328.40625 344.3854 328.03125 344.3854Q327.67188 344.3854 327.39062 344.60416Q327.125 344.80728 327.01562 345.18228Q326.82812 345.74478 326.82812 346.40103L326.82812 349.66666L325.78125 349.66666ZM334.04688 347.66666L335.14062 347.79166Q334.89062 348.74478 334.1875 349.27603Q333.48438 349.80728 332.40625 349.80728Q331.04688 349.80728 330.23438 348.96353Q329.4375 348.11978 329.4375 346.60416Q329.4375 345.04166 330.25 344.18228Q331.0625 343.30728 332.34375 343.30728Q333.59375 343.30728 334.375 344.15103Q335.17188 344.99478 335.17188 346.54166Q335.17188 346.6354 335.17188 346.8229L330.53125 346.8229Q330.59375 347.85416 331.10938 348.40103Q331.625 348.93228 332.40625 348.93228Q332.98438 348.93228 333.39062 348.6354Q333.8125 348.3229 334.04688 347.66666ZM330.59375 345.96353L334.0625 345.96353Q334.0 345.16666 333.67188 344.77603Q333.15625 344.16666 332.35938 344.16666Q331.625 344.16666 331.125 344.65103Q330.64062 345.1354 330.59375 345.96353ZM336.79688 349.66666L336.79688 343.4479L337.73438 343.4479L337.73438 344.3229Q338.42188 343.30728 339.71875 343.30728Q340.28125 343.30728 340.75 343.5104Q341.23438 343.71353 341.46875 344.04166Q341.70312 344.36978 341.79688 344.80728Q341.84375 345.10416 341.84375 345.83853L341.84375 349.66666L340.79688 349.66666L340.79688 345.8854Q340.79688 345.22916 340.67188 344.91666Q340.54688 344.60416 340.23438 344.41666Q339.92188 344.21353 339.5 344.21353Q338.82812 344.21353 338.32812 344.65103Q337.84375 345.0729 337.84375 346.2604L337.84375 349.66666L336.79688 349.66666ZM346.09375 348.72916L346.25 349.65103Q345.79688 349.74478 345.45312 349.74478Q344.875 349.74478 344.5625 349.5729Q344.25 349.3854 344.10938 349.08853Q343.98438 348.79166 343.98438 347.83853L343.98438 344.2604L343.21875 344.2604L343.21875 343.4479L343.98438 343.4479L343.98438 341.90103L345.03125 341.27603L345.03125 343.4479L346.09375 343.4479L346.09375 344.2604L345.03125 344.2604L345.03125 347.90103Q345.03125 348.35416 345.07812 348.47916Q345.14062 348.60416 345.26562 348.68228Q345.39062 348.7604 345.625 348.7604Q345.8125 348.7604 346.09375 348.72916ZM355.5625 341.0729L356.70312 341.0729L356.70312 346.04166Q356.70312 347.33853 356.40625 348.10416Q356.10938 348.85416 355.34375 349.33853Q354.57812 349.80728 353.34375 349.80728Q352.14062 349.80728 351.35938 349.40103Q350.59375 348.97916 350.26562 348.1979Q349.9375 347.40103 349.9375 346.04166L349.9375 341.0729L351.07812 341.0729L351.07812 346.02603Q351.07812 347.15103 351.28125 347.68228Q351.5 348.21353 352.0 348.5104Q352.51562 348.79166 353.25 348.79166Q354.5 348.79166 355.03125 348.22916Q355.5625 347.65103 355.5625 346.02603L355.5625 341.0729ZM358.375 347.80728L359.40625 347.65103Q359.5 348.27603 359.89062 348.60416Q360.29688 348.93228 361.03125 348.93228Q361.75 348.93228 362.09375 348.65103Q362.45312 348.35416 362.45312 347.9479Q362.45312 347.58853 362.14062 347.3854Q361.92188 347.24478 361.0625 347.02603Q359.90625 346.72916 359.45312 346.52603Q359.01562 346.30728 358.78125 345.93228Q358.54688 345.55728 358.54688 345.08853Q358.54688 344.68228 358.73438 344.3229Q358.92188 343.96353 359.25 343.72916Q359.5 343.55728 359.92188 343.43228Q360.34375 343.30728 360.84375 343.30728Q361.5625 343.30728 362.10938 343.52603Q362.67188 343.72916 362.9375 344.08853Q363.20312 344.4479 363.29688 345.04166L362.26562 345.18228Q362.20312 344.71353 361.85938 344.4479Q361.53125 344.16666 360.90625 344.16666Q360.1875 344.16666 359.875 344.41666Q359.5625 344.65103 359.5625 344.97916Q359.5625 345.18228 359.6875 345.33853Q359.82812 345.5104 360.09375 345.61978Q360.25 345.68228 361.03125 345.8854Q362.15625 346.1979 362.59375 346.3854Q363.03125 346.5729 363.28125 346.93228Q363.53125 347.29166 363.53125 347.83853Q363.53125 348.36978 363.21875 348.83853Q362.92188 349.29166 362.34375 349.55728Q361.76562 349.80728 361.03125 349.80728Q359.8125 349.80728 359.17188 349.30728Q358.54688 348.79166 358.375 347.80728ZM369.04688 347.66666L370.14062 347.79166Q369.89062 348.74478 369.1875 349.27603Q368.48438 349.80728 367.40625 349.80728Q366.04688 349.80728 365.23438 348.96353Q364.4375 348.11978 364.4375 346.60416Q364.4375 345.04166 365.25 344.18228Q366.0625 343.30728 367.34375 343.30728Q368.59375 343.30728 369.375 344.15103Q370.17188 344.99478 370.17188 346.54166Q370.17188 346.6354 370.17188 346.8229L365.53125 346.8229Q365.59375 347.85416 366.10938 348.40103Q366.625 348.93228 367.40625 348.93228Q367.98438 348.93228 368.39062 348.6354Q368.8125 348.3229 369.04688 347.66666ZM365.59375 345.96353L369.0625 345.96353Q369.0 345.16666 368.67188 344.77603Q368.15625 344.16666 367.35938 344.16666Q366.625 344.16666 366.125 344.65103Q365.64062 345.1354 365.59375 345.96353ZM371.78125 349.66666L371.78125 343.4479L372.73438 343.4479L372.73438 344.3854Q373.09375 343.72916 373.39062 343.52603Q373.70312 343.30728 374.07812 343.30728Q374.60938 343.30728 375.15625 343.6354L374.79688 344.61978Q374.40625 344.3854 374.03125 344.3854Q373.67188 344.3854 373.39062 344.60416Q373.125 344.80728 373.01562 345.18228Q372.82812 345.74478 372.82812 346.40103L372.82812 349.66666L371.78125 349.66666ZM375.375 347.80728L376.40625 347.65103Q376.5 348.27603 376.89062 348.60416Q377.29688 348.93228 378.03125 348.93228Q378.75 348.93228 379.09375 348.65103Q379.45312 348.35416 379.45312 347.9479Q379.45312 347.58853 379.14062 347.3854Q378.92188 347.24478 378.0625 347.02603Q376.90625 346.72916 376.45312 346.52603Q376.01562 346.30728 375.78125 345.93228Q375.54688 345.55728 375.54688 345.08853Q375.54688 344.68228 375.73438 344.3229Q375.92188 343.96353 376.25 343.72916Q376.5 343.55728 376.92188 343.43228Q377.34375 343.30728 377.84375 343.30728Q378.5625 343.30728 379.10938 343.52603Q379.67188 343.72916 379.9375 344.08853Q380.20312 344.4479 380.29688 345.04166L379.26562 345.18228Q379.20312 344.71353 378.85938 344.4479Q378.53125 344.16666 377.90625 344.16666Q377.1875 344.16666 376.875 344.41666Q376.5625 344.65103 376.5625 344.97916Q376.5625 345.18228 376.6875 345.33853Q376.82812 345.5104 377.09375 345.61978Q377.25 345.68228 378.03125 345.8854Q379.15625 346.1979 379.59375 346.3854Q380.03125 346.5729 380.28125 346.93228Q380.53125 347.29166 380.53125 347.83853Q380.53125 348.36978 380.21875 348.83853Q379.92188 349.29166 379.34375 349.55728Q378.76562 349.80728 378.03125 349.80728Q376.8125 349.80728 376.17188 349.30728Q375.54688 348.79166 375.375 347.80728Z" fill-rule="nonzero"/><path fill="#000000" d="M30.99999 245.39062L23.421865 245.39062L23.421865 248.21875L22.40624 248.21875L22.40624 241.40625L23.421865 241.40625L23.421865 244.25L30.99999 244.25L30.99999 245.39062ZM30.99999 240.70312L22.40624 240.70312L22.40624 239.65625L25.484365 239.65625Q24.640615 238.92188 24.640615 237.79688Q24.640615 237.09375 24.921865 236.59375Q25.18749 236.07812 25.671865 235.85938Q26.140615 235.64062 27.06249 235.64062L30.99999 235.64062L30.99999 236.6875L27.06249 236.6875Q26.265615 236.6875 25.90624 237.03125Q25.546865 237.375 25.546865 238.0Q25.546865 238.46875 25.796865 238.89062Q26.03124 239.29688 26.453115 239.48438Q26.859365 239.65625 27.59374 239.65625L30.99999 239.65625L30.99999 240.70312ZM30.99999 233.71875L24.78124 233.71875L24.78124 232.76562L25.71874 232.76562Q25.06249 232.40625 24.859365 232.10938Q24.640615 231.79688 24.640615 231.42188Q24.640615 230.89062 24.96874 230.34375L25.953115 230.70312Q25.71874 231.09375 25.71874 231.46875Q25.71874 231.82812 25.93749 232.10938Q26.140615 232.375 26.515615 232.48438Q27.078115 232.67188 27.734365 232.67188L30.99999 232.67188L30.99999 233.71875ZM27.890615 230.09375Q26.15624 230.09375 25.328115 229.14062Q24.640615 228.34375 24.640615 227.1875Q24.640615 225.90625 25.484365 225.09375Q26.31249 224.26562 27.796865 224.26562Q28.99999 224.26562 29.68749 224.625Q30.37499 224.98438 30.765615 225.6875Q31.140615 226.375 31.140615 227.1875Q31.140615 228.48438 30.31249 229.29688Q29.46874 230.09375 27.890615 230.09375ZM27.890615 229.01562Q29.078115 229.01562 29.671865 228.5Q30.265615 227.96875 30.265615 227.1875Q30.265615 226.39062 29.671865 225.875Q29.078115 225.35938 27.859365 225.35938Q26.703115 225.35938 26.109365 225.89062Q25.515615 226.40625 25.515615 227.1875Q25.515615 227.96875 26.109365 228.5Q26.68749 229.01562 27.890615 229.01562ZM30.99999 218.625L30.078115 218.625Q31.140615 219.35938 31.140615 220.60938Q31.140615 221.15625 30.93749 221.64062Q30.71874 222.10938 30.40624 222.34375Q30.078115 222.57812 29.609365 222.67188Q29.31249 222.73438 28.62499 222.73438L24.78124 222.73438L24.78124 221.67188L28.234365 221.67188Q29.046865 221.67188 29.34374 221.60938Q29.74999 221.51562 29.99999 221.20312Q30.234365 220.875 30.234365 220.39062Q30.234365 219.92188 29.99999 219.51562Q29.74999 219.09375 29.328115 218.92188Q28.90624 218.73438 28.109365 218.73438L24.78124 218.73438L24.78124 217.6875L30.99999 217.6875L30.99999 218.625ZM31.515615 215.90625L31.671865 214.875Q32.140614 214.8125 32.359364 214.51562Q32.65624 214.125 32.65624 213.45312Q32.65624 212.71875 32.359364 212.32814Q32.06249 211.92189 31.546865 211.78127Q31.21874 211.68752 30.18749 211.70314Q30.99999 212.39064 30.99999 213.42188Q30.99999 214.70312 30.078115 215.40625Q29.140615 216.10938 27.859365 216.10938Q26.96874 216.10938 26.21874 215.79688Q25.453115 215.46875 25.046865 214.85938Q24.640615 214.25 24.640615 213.42188Q24.640615 212.31252 25.53124 211.59377L24.78124 211.59377L24.78124 210.62502L30.15624 210.62502Q31.609365 210.62502 32.21874 210.92189Q32.828114 211.21877 33.171864 211.85939Q33.53124 212.50002 33.53124 213.4375Q33.53124 214.54688 33.03124 215.23438Q32.53124 215.92188 31.515615 215.90625ZM27.78124 215.03125Q28.99999 215.03125 29.56249 214.54688Q30.12499 214.0625 30.12499 213.32812Q30.12499 212.59377 29.56249 212.10939Q28.99999 211.60939 27.81249 211.60939Q26.671865 211.60939 26.09374 212.12502Q25.515615 212.62502 25.515615 213.34375Q25.515615 214.04688 26.09374 214.54688Q26.65624 215.03125 27.78124 215.03125ZM30.99999 208.70314L22.40624 208.70314L22.40624 207.65627L25.484365 207.65627Q24.640615 206.92189 24.640615 205.79689Q24.640615 205.09377 24.921865 204.59377Q25.18749 204.07814 25.671865 203.85939Q26.140615 203.64064 27.06249 203.64064L30.99999 203.64064L30.99999 204.68752L27.06249 204.68752Q26.265615 204.68752 25.90624 205.03127Q25.546865 205.37502 25.546865 206.00002Q25.546865 206.46877 25.796865 206.89064Q26.03124 207.29689 26.453115 207.48439Q26.859365 207.65627 27.59374 207.65627L30.99999 207.65627L30.99999 208.70314ZM33.390614 201.70314L24.78124 201.70314L24.78124 200.75002L25.578115 200.75002Q25.109365 200.40627 24.87499 199.98439Q24.640615 199.54689 24.640615 198.93752Q24.640615 198.14064 25.046865 197.53127Q25.453115 196.92189 26.203115 196.62502Q26.953115 196.31252 27.84374 196.31252Q28.796865 196.31252 29.56249 196.65627Q30.328115 196.98439 30.734365 197.64064Q31.140615 198.29689 31.140615 199.01564Q31.140615 199.54689 30.921865 199.96877Q30.68749 200.39064 30.359365 200.65627L33.390614 200.65627L33.390614 201.70314ZM27.921865 200.75002Q29.12499 200.75002 29.703115 200.26564Q30.265615 199.78127 30.265615 199.09377Q30.265615 198.39064 29.671865 197.89064Q29.078115 197.39064 27.828115 197.39064Q26.640615 197.39064 26.06249 197.87502Q25.46874 198.35939 25.46874 199.04689Q25.46874 199.71877 26.09374 200.23439Q26.71874 200.75002 27.921865 200.75002ZM30.99999 190.62502L30.078115 190.62502Q31.140615 191.35939 31.140615 192.60939Q31.140615 193.15627 30.93749 193.64064Q30.71874 194.10939 30.40624 194.34377Q30.078115 194.57814 29.609365 194.67189Q29.31249 194.73439 28.62499 194.73439L24.78124 194.73439L24.78124 193.67189L28.234365 193.67189Q29.046865 193.67189 29.34374 193.60939Q29.74999 193.51564 29.99999 193.20314Q30.234365 192.87502 30.234365 192.39064Q30.234365 191.92189 29.99999 191.51564Q29.74999 191.09377 29.328115 190.92189Q28.90624 190.73439 28.109365 190.73439L24.78124 190.73439L24.78124 189.68752L30.99999 189.68752L30.99999 190.62502ZM30.06249 185.40627L30.984365 185.25002Q31.078115 185.70314 31.078115 186.04689Q31.078115 186.62502 30.90624 186.93752Q30.71874 187.25002 30.421865 187.39064Q30.12499 187.51564 29.171865 187.51564L25.59374 187.51564L25.59374 188.28127L24.78124 188.28127L24.78124 187.51564L23.234365 187.51564L22.609365 186.46877L24.78124 186.46877L24.78124 185.40627L25.59374 185.40627L25.59374 186.46877L29.234365 186.46877Q29.68749 186.46877 29.81249 186.42189Q29.93749 186.35939 30.015615 186.23439Q30.09374 186.10939 30.09374 185.87502Q30.09374 185.68752 30.06249 185.40627ZM33.53124 179.68752Q32.421864 180.56252 30.953115 181.17189Q29.46874 181.76564 27.890615 181.76564Q26.49999 181.76564 25.21874 181.32814Q23.734365 180.79689 22.265615 179.68752L22.265615 178.93752Q23.484365 179.64064 23.99999 179.87502Q24.81249 180.23439 25.68749 180.43752Q26.78124 180.68752 27.890615 180.68752Q30.71874 180.68752 33.53124 178.93752L33.53124 179.68752ZM30.99999 177.56252L22.40624 177.56252L22.40624 173.75002Q22.40624 172.59377 22.640615 172.00002Q22.87499 171.40627 23.46874 171.04689Q24.046865 170.68752 24.74999 170.68752Q25.671865 170.68752 26.296865 171.28127Q26.921865 171.87502 27.09374 173.10939Q27.31249 172.65627 27.515615 172.42189Q27.96874 171.92189 28.65624 171.48439L30.99999 169.98439L30.99999 171.42189L29.21874 172.54689Q28.43749 173.04689 28.03124 173.37502Q27.62499 173.68752 27.46874 173.95314Q27.296865 174.20314 27.21874 174.46877Q27.18749 174.65627 27.18749 175.09377L27.18749 176.42189L30.99999 176.42189L30.99999 177.56252ZM26.203115 176.42189L26.203115 173.96877Q26.203115 173.20314 26.046865 172.76564Q25.87499 172.31252 25.53124 172.09377Q25.171865 171.85939 24.74999 171.85939Q24.140615 171.85939 23.74999 172.31252Q23.359365 172.75002 23.359365 173.70314L23.359365 176.42189L26.203115 176.42189ZM28.99999 164.45314L29.12499 163.35939Q30.078115 163.60939 30.609365 164.31252Q31.140615 165.01564 31.140615 166.09377Q31.140615 167.45314 30.296865 168.26564Q29.453115 169.06252 27.93749 169.06252Q26.37499 169.06252 25.515615 168.25002Q24.640615 167.43752 24.640615 166.15627Q24.640615 164.90627 25.484365 164.12502Q26.328115 163.32814 27.87499 163.32814Q27.96874 163.32814 28.15624 163.32814L28.15624 167.96877Q29.18749 167.90627 29.734365 167.39064Q30.265615 166.87502 30.265615 166.09377Q30.265615 165.51564 29.96874 165.10939Q29.65624 164.68752 28.99999 164.45314ZM27.296865 167.90627L27.296865 164.43752Q26.49999 164.50002 26.109365 164.82814Q25.49999 165.34377 25.49999 166.14064Q25.49999 166.87502 25.984365 167.37502Q26.46874 167.85939 27.296865 167.90627ZM33.390614 157.73439L30.34374 157.73439Q30.68749 157.98439 30.921865 158.43752Q31.140615 158.87502 31.140615 159.37502Q31.140615 160.48439 30.265615 161.28127Q29.37499 162.07814 27.828115 162.07814Q26.890615 162.07814 26.15624 161.75002Q25.40624 161.42189 25.03124 160.81252Q24.640615 160.18752 24.640615 159.45314Q24.640615 158.29689 25.609365 157.64064L24.78124 157.64064L24.78124 156.68752L33.390614 156.68752L33.390614 157.73439ZM27.87499 161.00002Q29.078115 161.00002 29.671865 160.50002Q30.265615 159.98439 30.265615 159.28127Q30.265615 158.60939 29.703115 158.12502Q29.12499 157.64064 27.96874 157.64064Q26.71874 157.64064 26.09374 158.15627Q25.46874 158.65627 25.46874 159.35939Q25.46874 160.03127 26.06249 160.51564Q26.640615 161.00002 27.87499 161.00002ZM31.140615 155.50002L22.265615 153.01564L22.265615 152.17189L31.140615 154.65627L31.140615 155.50002ZM29.140615 152.12502L28.984365 151.09377Q29.609365 151.00002 29.93749 150.60939Q30.265615 150.20314 30.265615 149.46877Q30.265615 148.75002 29.984365 148.40627Q29.68749 148.04689 29.28124 148.04689Q28.921865 148.04689 28.71874 148.35939Q28.578115 148.57814 28.359365 149.43752Q28.06249 150.59377 27.859365 151.04689Q27.640615 151.48439 27.265615 151.71877Q26.890615 151.95314 26.421865 151.95314Q26.015615 151.95314 25.65624 151.76564Q25.296865 151.57814 25.06249 151.25002Q24.890615 151.00002 24.765615 150.57814Q24.640615 150.15627 24.640615 149.65627Q24.640615 148.93752 24.859365 148.39064Q25.06249 147.82814 25.421865 147.56252Q25.78124 147.29689 26.37499 147.20314L26.515615 148.23439Q26.046865 148.29689 25.78124 148.64064Q25.49999 148.96877 25.49999 149.59377Q25.49999 150.31252 25.74999 150.62502Q25.984365 150.93752 26.31249 150.93752Q26.515615 150.93752 26.671865 150.81252Q26.84374 150.67189 26.953115 150.40627Q27.015615 150.25002 27.21874 149.46877Q27.53124 148.34377 27.71874 147.90627Q27.90624 147.46877 28.265615 147.21877Q28.62499 146.96877 29.171865 146.96877Q29.703115 146.96877 30.171865 147.28127Q30.62499 147.57814 30.890615 148.15627Q31.140615 148.73439 31.140615 149.46877Q31.140615 150.68752 30.640615 151.32814Q30.12499 151.95314 29.140615 152.12502ZM28.99999 141.45314L29.12499 140.35939Q30.078115 140.60939 30.609365 141.31252Q31.140615 142.01564 31.140615 143.09377Q31.140615 144.45314 30.296865 145.26564Q29.453115 146.06252 27.93749 146.06252Q26.37499 146.06252 25.515615 145.25002Q24.640615 144.43752 24.640615 143.15627Q24.640615 141.90627 25.484365 141.12502Q26.328115 140.32814 27.87499 140.32814Q27.96874 140.32814 28.15624 140.32814L28.15624 144.96877Q29.18749 144.90627 29.734365 144.39064Q30.265615 143.87502 30.265615 143.09377Q30.265615 142.51564 29.96874 142.10939Q29.65624 141.68752 28.99999 141.45314ZM27.296865 144.90627L27.296865 141.43752Q26.49999 141.50002 26.109365 141.82814Q25.49999 142.34377 25.49999 143.14064Q25.49999 143.87502 25.984365 144.37502Q26.46874 144.85939 27.296865 144.90627ZM28.71874 134.64064L28.859365 133.60939Q29.921865 133.78127 30.53124 134.48439Q31.140615 135.18752 31.140615 136.20314Q31.140615 137.48439 30.31249 138.26564Q29.46874 139.03127 27.90624 139.03127Q26.90624 139.03127 26.15624 138.70314Q25.390615 138.35939 25.015615 137.68752Q24.640615 137.00002 24.640615 136.18752Q24.640615 135.18752 25.15624 134.54689Q25.65624 133.89064 26.609365 133.70314L26.765615 134.73439Q26.140615 134.87502 25.828115 135.25002Q25.49999 135.62502 25.49999 136.15627Q25.49999 136.95314 26.078115 137.45314Q26.640615 137.95314 27.87499 137.95314Q29.140615 137.95314 29.703115 137.46877Q30.265615 136.98439 30.265615 136.21877Q30.265615 135.59377 29.890615 135.18752Q29.515615 134.76564 28.71874 134.64064ZM33.53124 132.01564L33.53124 132.76564Q30.71874 131.01564 27.890615 131.01564Q26.796865 131.01564 25.703115 131.26564Q24.828115 131.46877 24.015615 131.82814Q23.49999 132.06252 22.265615 132.76564L22.265615 132.01564Q23.734365 130.92189 25.21874 130.39064Q26.49999 129.93752 27.890615 129.93752Q29.46874 129.93752 30.953115 130.54689Q32.421864 131.15627 33.53124 132.01564Z" fill-rule="nonzero"/><path fill="#000000" d="M73.5 300.43228Q73.5 298.90103 73.8125 297.97916Q74.125 297.04166 74.734375 296.54166Q75.359375 296.04166 76.296875 296.04166Q76.984375 296.04166 77.5 296.3229Q78.03125 296.60416 78.375 297.1354Q78.71875 297.65103 78.90625 298.40103Q79.09375 299.15103 79.09375 300.43228Q79.09375 301.9479 78.78125 302.86978Q78.484375 303.79166 77.859375 304.30728Q77.25 304.80728 76.296875 304.80728Q75.0625 304.80728 74.34375 303.91666Q73.5 302.85416 73.5 300.43228ZM74.578125 300.43228Q74.578125 302.54166 75.078125 303.24478Q75.578125 303.9479 76.296875 303.9479Q77.03125 303.9479 77.515625 303.24478Q78.015625 302.54166 78.015625 300.43228Q78.015625 298.30728 77.515625 297.61978Q77.03125 296.91666 76.28125 296.91666Q75.5625 296.91666 75.125 297.52603Q74.578125 298.30728 74.578125 300.43228Z" fill-rule="nonzero"/><path fill="#000000" d="M58.046875 224.87326L58.046875 225.88889L52.359375 225.88889Q52.359375 225.51389 52.484375 225.15451Q52.703125 224.57639 53.171875 224.01389Q53.65625 223.45139 54.5625 222.71701Q55.96875 221.56076 56.453125 220.88889Q56.953125 220.21701 56.953125 219.62326Q56.953125 218.99826 56.5 218.57639Q56.046875 218.13889 55.328125 218.13889Q54.5625 218.13889 54.109375 218.59201Q53.65625 219.04514 53.640625 219.85764L52.5625 219.74826Q52.671875 218.52951 53.390625 217.90451Q54.125 217.26389 55.359375 217.26389Q56.59375 217.26389 57.3125 217.95139Q58.03125 218.63889 58.03125 219.65451Q58.03125 220.17014 57.8125 220.67014Q57.609375 221.15451 57.109375 221.71701Q56.625 222.26389 55.5 223.21701Q54.546875 224.01389 54.265625 224.31076Q54.0 224.59201 53.828125 224.87326L58.046875 224.87326ZM59.5 221.65451Q59.5 220.12326 59.8125 219.20139Q60.125 218.26389 60.734375 217.76389Q61.359375 217.26389 62.296875 217.26389Q62.984375 217.26389 63.5 217.54514Q64.03125 217.82639 64.375 218.35764Q64.71875 218.87326 64.90625 219.62326Q65.09375 220.37326 65.09375 221.65451Q65.09375 223.17014 64.78125 224.09201Q64.484375 225.01389 63.859375 225.52951Q63.25 226.02951 62.296875 226.02951Q61.0625 226.02951 60.34375 225.13889Q59.5 224.07639 59.5 221.65451ZM60.578125 221.65451Q60.578125 223.76389 61.078125 224.46701Q61.578125 225.17014 62.296875 225.17014Q63.03125 225.17014 63.515625 224.46701Q64.015625 223.76389 64.015625 221.65451Q64.015625 219.52951 63.515625 218.84201Q63.03125 218.13889 62.28125 218.13889Q61.5625 218.13889 61.125 218.74826Q60.578125 219.52951 60.578125 221.65451ZM66.5 221.65451Q66.5 220.12326 66.8125 219.20139Q67.125 218.26389 67.734375 217.76389Q68.359375 217.26389 69.296875 217.26389Q69.984375 217.26389 70.5 217.54514Q71.03125 217.82639 71.375 218.35764Q71.71875 218.87326 71.90625 219.62326Q72.09375 220.37326 72.09375 221.65451Q72.09375 223.17014 71.78125 224.09201Q71.484375 225.01389 70.859375 225.52951Q70.25 226.02951 69.296875 226.02951Q68.0625 226.02951 67.34375 225.13889Q66.5 224.07639 66.5 221.65451ZM67.578125 221.65451Q67.578125 223.76389 68.078125 224.46701Q68.578125 225.17014 69.296875 225.17014Q70.03125 225.17014 70.515625 224.46701Q71.015625 223.76389 71.015625 221.65451Q71.015625 219.52951 70.515625 218.84201Q70.03125 218.13889 69.28125 218.13889Q68.5625 218.13889 68.125 218.74826Q67.578125 219.52951 67.578125 221.65451ZM73.5 221.65451Q73.5 220.12326 73.8125 219.20139Q74.125 218.26389 74.734375 217.76389Q75.359375 217.26389 76.296875 217.26389Q76.984375 217.26389 77.5 217.54514Q78.03125 217.82639 78.375 218.35764Q78.71875 218.87326 78.90625 219.62326Q79.09375 220.37326 79.09375 221.65451Q79.09375 223.17014 78.78125 224.09201Q78.484375 225.01389 77.859375 225.52951Q77.25 226.02951 76.296875 226.02951Q75.0625 226.02951 74.34375 225.13889Q73.5 224.07639 73.5 221.65451ZM74.578125 221.65451Q74.578125 223.76389 75.078125 224.46701Q75.578125 225.17014 76.296875 225.17014Q77.03125 225.17014 77.515625 224.46701Q78.015625 223.76389 78.015625 221.65451Q78.015625 219.52951 77.515625 218.84201Q77.03125 218.13889 76.28125 218.13889Q75.5625 218.13889 75.125 218.74826Q74.578125 219.52951 74.578125 221.65451Z" fill-rule="nonzero"/><path fill="#000000" d="M55.875 147.11111L55.875 145.04861L52.15625 145.04861L52.15625 144.07986L56.078125 138.51736L56.9375 138.51736L56.9375 144.07986L58.09375 144.07986L58.09375 145.04861L56.9375 145.04861L56.9375 147.11111L55.875 147.11111ZM55.875 144.07986L55.875 140.22049L53.1875 144.07986L55.875 144.07986ZM59.5 142.87674Q59.5 141.34549 59.8125 140.42361Q60.125 139.48611 60.734375 138.98611Q61.359375 138.48611 62.296875 138.48611Q62.984375 138.48611 63.5 138.76736Q64.03125 139.04861 64.375 139.57986Q64.71875 140.09549 64.90625 140.84549Q65.09375 141.59549 65.09375 142.87674Q65.09375 144.39236 64.78125 145.31424Q64.484375 146.23611 63.859375 146.75174Q63.25 147.25174 62.296875 147.25174Q61.0625 147.25174 60.34375 146.36111Q59.5 145.29861 59.5 142.87674ZM60.578125 142.87674Q60.578125 144.98611 61.078125 145.68924Q61.578125 146.39236 62.296875 146.39236Q63.03125 146.39236 63.515625 145.68924Q64.015625 144.98611 64.015625 142.87674Q64.015625 140.75174 63.515625 140.06424Q63.03125 139.36111 62.28125 139.36111Q61.5625 139.36111 61.125 139.97049Q60.578125 140.75174 60.578125 142.87674ZM66.5 142.87674Q66.5 141.34549 66.8125 140.42361Q67.125 139.48611 67.734375 138.98611Q68.359375 138.48611 69.296875 138.48611Q69.984375 138.48611 70.5 138.76736Q71.03125 139.04861 71.375 139.57986Q71.71875 140.09549 71.90625 140.84549Q72.09375 141.59549 72.09375 142.87674Q72.09375 144.39236 71.78125 145.31424Q71.484375 146.23611 70.859375 146.75174Q70.25 147.25174 69.296875 147.25174Q68.0625 147.25174 67.34375 146.36111Q66.5 145.29861 66.5 142.87674ZM67.578125 142.87674Q67.578125 144.98611 68.078125 145.68924Q68.578125 146.39236 69.296875 146.39236Q70.03125 146.39236 70.515625 145.68924Q71.015625 144.98611 71.015625 142.87674Q71.015625 140.75174 70.515625 140.06424Q70.03125 139.36111 69.28125 139.36111Q68.5625 139.36111 68.125 139.97049Q67.578125 140.75174 67.578125 142.87674ZM73.5 142.87674Q73.5 141.34549 73.8125 140.42361Q74.125 139.48611 74.734375 138.98611Q75.359375 138.48611 76.296875 138.48611Q76.984375 138.48611 77.5 138.76736Q78.03125 139.04861 78.375 139.57986Q78.71875 140.09549 78.90625 140.84549Q79.09375 141.59549 79.09375 142.87674Q79.09375 144.39236 78.78125 145.31424Q78.484375 146.23611 77.859375 146.75174Q77.25 147.25174 76.296875 147.25174Q75.0625 147.25174 74.34375 146.36111Q73.5 145.29861 73.5 142.87674ZM74.578125 142.87674Q74.578125 144.98611 75.078125 145.68924Q75.578125 146.39236 76.296875 146.39236Q77.03125 146.39236 77.515625 145.68924Q78.015625 144.98611 78.015625 142.87674Q78.015625 140.75174 77.515625 140.06424Q77.03125 139.36111 76.28125 139.36111Q75.5625 139.36111 75.125 139.97049Q74.578125 140.75174 74.578125 142.87674Z" fill-rule="nonzero"/><path fill="#000000" d="M57.96875 61.84896L56.921875 61.927086Q56.78125 61.302086 56.53125 61.020836Q56.09375 60.56771 55.46875 60.56771Q54.96875 60.56771 54.578125 60.84896Q54.09375 61.22396 53.796875 61.927086Q53.515625 62.614586 53.5 63.895836Q53.875 63.31771 54.421875 63.03646Q54.984375 62.75521 55.59375 62.75521Q56.640625 62.75521 57.375 63.53646Q58.125 64.31771 58.125 65.53646Q58.125 66.34896 57.765625 67.052086Q57.421875 67.739586 56.8125 68.114586Q56.203125 68.47396 55.4375 68.47396Q54.109375 68.47396 53.28125 67.50521Q52.453125 66.53646 52.453125 64.31771Q52.453125 61.81771 53.375 60.69271Q54.171875 59.708336 55.53125 59.708336Q56.546875 59.708336 57.1875 60.28646Q57.84375 60.84896 57.96875 61.84896ZM53.671875 65.552086Q53.671875 66.09896 53.890625 66.59896Q54.125 67.083336 54.53125 67.34896Q54.953125 67.614586 55.421875 67.614586Q56.078125 67.614586 56.5625 67.083336Q57.046875 66.53646 57.046875 65.614586Q57.046875 64.72396 56.5625 64.208336Q56.09375 63.69271 55.375 63.69271Q54.65625 63.69271 54.15625 64.208336Q53.671875 64.72396 53.671875 65.552086ZM59.5 64.09896Q59.5 62.56771 59.8125 61.645836Q60.125 60.708336 60.734375 60.208336Q61.359375 59.708336 62.296875 59.708336Q62.984375 59.708336 63.5 59.989586Q64.03125 60.270836 64.375 60.802086Q64.71875 61.31771 64.90625 62.06771Q65.09375 62.81771 65.09375 64.09896Q65.09375 65.614586 64.78125 66.53646Q64.484375 67.458336 63.859375 67.97396Q63.25 68.47396 62.296875 68.47396Q61.0625 68.47396 60.34375 67.583336Q59.5 66.520836 59.5 64.09896ZM60.578125 64.09896Q60.578125 66.208336 61.078125 66.91146Q61.578125 67.614586 62.296875 67.614586Q63.03125 67.614586 63.515625 66.91146Q64.015625 66.208336 64.015625 64.09896Q64.015625 61.97396 63.515625 61.28646Q63.03125 60.583336 62.28125 60.583336Q61.5625 60.583336 61.125 61.19271Q60.578125 61.97396 60.578125 64.09896ZM66.5 64.09896Q66.5 62.56771 66.8125 61.645836Q67.125 60.708336 67.734375 60.208336Q68.359375 59.708336 69.296875 59.708336Q69.984375 59.708336 70.5 59.989586Q71.03125 60.270836 71.375 60.802086Q71.71875 61.31771 71.90625 62.06771Q72.09375 62.81771 72.09375 64.09896Q72.09375 65.614586 71.78125 66.53646Q71.484375 67.458336 70.859375 67.97396Q70.25 68.47396 69.296875 68.47396Q68.0625 68.47396 67.34375 67.583336Q66.5 66.520836 66.5 64.09896ZM67.578125 64.09896Q67.578125 66.208336 68.078125 66.91146Q68.578125 67.614586 69.296875 67.614586Q70.03125 67.614586 70.515625 66.91146Q71.015625 66.208336 71.015625 64.09896Q71.015625 61.97396 70.515625 61.28646Q70.03125 60.583336 69.28125 60.583336Q68.5625 60.583336 68.125 61.19271Q67.578125 61.97396 67.578125 64.09896ZM73.5 64.09896Q73.5 62.56771 73.8125 61.645836Q74.125 60.708336 74.734375 60.208336Q75.359375 59.708336 76.296875 59.708336Q76.984375 59.708336 77.5 59.989586Q78.03125 60.270836 78.375 60.802086Q78.71875 61.31771 78.90625 62.06771Q79.09375 62.81771 79.09375 64.09896Q79.09375 65.614586 78.78125 66.53646Q78.484375 67.458336 77.859375 67.97396Q77.25 68.47396 76.296875 68.47396Q75.0625 68.47396 74.34375 67.583336Q73.5 66.520836 73.5 64.09896ZM74.578125 64.09896Q74.578125 66.208336 75.078125 66.91146Q75.578125 67.614586 76.296875 67.614586Q77.03125 67.614586 77.515625 66.91146Q78.015625 66.208336 78.015625 64.09896Q78.015625 61.97396 77.515625 61.28646Q77.03125 60.583336 76.28125 60.583336Q75.5625 60.583336 75.125 61.19271Q74.578125 61.97396 74.578125 64.09896Z" fill-rule="nonzero"/><path fill="#000000" d="M136.43576 316.65103L136.43576 317.66666L130.74826 317.66666Q130.74826 317.29166 130.87326 316.93228Q131.09201 316.35416 131.56076 315.79166Q132.04514 315.22916 132.95139 314.49478Q134.35764 313.33853 134.84201 312.66666Q135.34201 311.99478 135.34201 311.40103Q135.34201 310.77603 134.88889 310.35416Q134.43576 309.91666 133.71701 309.91666Q132.95139 309.91666 132.49826 310.36978Q132.04514 310.8229 132.02951 311.6354L130.95139 311.52603Q131.06076 310.30728 131.77951 309.68228Q132.51389 309.04166 133.74826 309.04166Q134.98264 309.04166 135.70139 309.72916Q136.42014 310.41666 136.42014 311.43228Q136.42014 311.9479 136.20139 312.4479Q135.99826 312.93228 135.49826 313.49478Q135.01389 314.04166 133.88889 314.99478Q132.93576 315.79166 132.65451 316.08853Q132.38889 316.36978 132.21701 316.65103L136.43576 316.65103ZM137.88889 313.43228Q137.88889 311.90103 138.20139 310.97916Q138.51389 310.04166 139.12326 309.54166Q139.74826 309.04166 140.68576 309.04166Q141.37326 309.04166 141.88889 309.3229Q142.42014 309.60416 142.76389 310.1354Q143.10764 310.65103 143.29514 311.40103Q143.48264 312.15103 143.48264 313.43228Q143.48264 314.9479 143.17014 315.86978Q142.87326 316.79166 142.24826 317.30728Q141.63889 317.80728 140.68576 317.80728Q139.45139 317.80728 138.73264 316.91666Q137.88889 315.85416 137.88889 313.43228ZM138.96701 313.43228Q138.96701 315.54166 139.46701 316.24478Q139.96701 316.9479 140.68576 316.9479Q141.42014 316.9479 141.90451 316.24478Q142.40451 315.54166 142.40451 313.43228Q142.40451 311.30728 141.90451 310.61978Q141.42014 309.91666 140.67014 309.91666Q139.95139 309.91666 139.51389 310.52603Q138.96701 311.30728 138.96701 313.43228ZM144.88889 313.43228Q144.88889 311.90103 145.20139 310.97916Q145.51389 310.04166 146.12326 309.54166Q146.74826 309.04166 147.68576 309.04166Q148.37326 309.04166 148.88889 309.3229Q149.42014 309.60416 149.76389 310.1354Q150.10764 310.65103 150.29514 311.40103Q150.48264 312.15103 150.48264 313.43228Q150.48264 314.9479 150.17014 315.86978Q149.87326 316.79166 149.24826 317.30728Q148.63889 317.80728 147.68576 317.80728Q146.45139 317.80728 145.73264 316.91666Q144.88889 315.85416 144.88889 313.43228ZM145.96701 313.43228Q145.96701 315.54166 146.46701 316.24478Q146.96701 316.9479 147.68576 316.9479Q148.42014 316.9479 148.90451 316.24478Q149.40451 315.54166 149.40451 313.43228Q149.40451 311.30728 148.90451 310.61978Q148.42014 309.91666 147.67014 309.91666Q146.95139 309.91666 146.51389 310.52603Q145.96701 311.30728 145.96701 313.43228Z" fill-rule="nonzero"/><path fill="#000000" d="M244.04167 317.66666L244.04167 315.60416L240.32292 315.60416L240.32292 314.6354L244.2448 309.0729L245.10417 309.0729L245.10417 314.6354L246.26042 314.6354L246.26042 315.60416L245.10417 315.60416L245.10417 317.66666L244.04167 317.66666ZM244.04167 314.6354L244.04167 310.77603L241.35417 314.6354L244.04167 314.6354ZM247.66667 313.43228Q247.66667 311.90103 247.97917 310.97916Q248.29167 310.04166 248.90105 309.54166Q249.52605 309.04166 250.46355 309.04166Q251.15105 309.04166 251.66667 309.3229Q252.19792 309.60416 252.54167 310.1354Q252.88542 310.65103 253.07292 311.40103Q253.26042 312.15103 253.26042 313.43228Q253.26042 314.9479 252.94792 315.86978Q252.65105 316.79166 252.02605 317.30728Q251.41667 317.80728 250.46355 317.80728Q249.22917 317.80728 248.51042 316.91666Q247.66667 315.85416 247.66667 313.43228ZM248.7448 313.43228Q248.7448 315.54166 249.2448 316.24478Q249.7448 316.9479 250.46355 316.9479Q251.19792 316.9479 251.6823 316.24478Q252.1823 315.54166 252.1823 313.43228Q252.1823 311.30728 251.6823 310.61978Q251.19792 309.91666 250.44792 309.91666Q249.72917 309.91666 249.29167 310.52603Q248.7448 311.30728 248.7448 313.43228ZM254.66667 313.43228Q254.66667 311.90103 254.97917 310.97916Q255.29167 310.04166 255.90105 309.54166Q256.52606 309.04166 257.46356 309.04166Q258.15106 309.04166 258.6667 309.3229Q259.19794 309.60416 259.5417 310.1354Q259.88544 310.65103 260.07294 311.40103Q260.26044 312.15103 260.26044 313.43228Q260.26044 314.9479 259.94794 315.86978Q259.65106 316.79166 259.02606 317.30728Q258.4167 317.80728 257.46356 317.80728Q256.2292 317.80728 255.51042 316.91666Q254.66667 315.85416 254.66667 313.43228ZM255.7448 313.43228Q255.7448 315.54166 256.2448 316.24478Q256.7448 316.9479 257.46356 316.9479Q258.19794 316.9479 258.6823 316.24478Q259.1823 315.54166 259.1823 313.43228Q259.1823 311.30728 258.6823 310.61978Q258.19794 309.91666 257.44794 309.91666Q256.7292 309.91666 256.2917 310.52603Q255.7448 311.30728 255.7448 313.43228Z" fill-rule="nonzero"/><path fill="#000000" d="M355.9132 311.18228L354.86633 311.2604Q354.7257 310.6354 354.4757 310.35416Q354.0382 309.90103 353.4132 309.90103Q352.9132 309.90103 352.52258 310.18228Q352.0382 310.55728 351.74133 311.2604Q351.46008 311.9479 351.44446 313.22916Q351.81946 312.65103 352.36633 312.36978Q352.92883 312.08853 353.5382 312.08853Q354.58508 312.08853 355.31946 312.86978Q356.06946 313.65103 356.06946 314.86978Q356.06946 315.68228 355.71008 316.3854Q355.36633 317.0729 354.75696 317.4479Q354.14758 317.80728 353.38196 317.80728Q352.05383 317.80728 351.2257 316.83853Q350.39758 315.86978 350.39758 313.65103Q350.39758 311.15103 351.31946 310.02603Q352.11633 309.04166 353.4757 309.04166Q354.49133 309.04166 355.13196 309.61978Q355.7882 310.18228 355.9132 311.18228ZM351.61633 314.8854Q351.61633 315.43228 351.83508 315.93228Q352.06946 316.41666 352.4757 316.68228Q352.89758 316.9479 353.36633 316.9479Q354.02258 316.9479 354.50696 316.41666Q354.99133 315.86978 354.99133 314.9479Q354.99133 314.05728 354.50696 313.54166Q354.0382 313.02603 353.31946 313.02603Q352.6007 313.02603 352.1007 313.54166Q351.61633 314.05728 351.61633 314.8854ZM357.44446 313.43228Q357.44446 311.90103 357.75696 310.97916Q358.06946 310.04166 358.67883 309.54166Q359.30383 309.04166 360.24133 309.04166Q360.92883 309.04166 361.44446 309.3229Q361.9757 309.60416 362.31946 310.1354Q362.6632 310.65103 362.8507 311.40103Q363.0382 312.15103 363.0382 313.43228Q363.0382 314.9479 362.7257 315.86978Q362.42883 316.79166 361.80383 317.30728Q361.19446 317.80728 360.24133 317.80728Q359.00696 317.80728 358.2882 316.91666Q357.44446 315.85416 357.44446 313.43228ZM358.52258 313.43228Q358.52258 315.54166 359.02258 316.24478Q359.52258 316.9479 360.24133 316.9479Q360.9757 316.9479 361.46008 316.24478Q361.96008 315.54166 361.96008 313.43228Q361.96008 311.30728 361.46008 310.61978Q360.9757 309.91666 360.2257 309.91666Q359.50696 309.91666 359.06946 310.52603Q358.52258 311.30728 358.52258 313.43228ZM364.44446 313.43228Q364.44446 311.90103 364.75696 310.97916Q365.06946 310.04166 365.67883 309.54166Q366.30383 309.04166 367.24133 309.04166Q367.92883 309.04166 368.44446 309.3229Q368.9757 309.60416 369.31946 310.1354Q369.6632 310.65103 369.8507 311.40103Q370.0382 312.15103 370.0382 313.43228Q370.0382 314.9479 369.7257 315.86978Q369.42883 316.79166 368.80383 317.30728Q368.19446 317.80728 367.24133 317.80728Q366.00696 317.80728 365.2882 316.91666Q364.44446 315.85416 364.44446 313.43228ZM365.52258 313.43228Q365.52258 315.54166 366.02258 316.24478Q366.52258 316.9479 367.24133 316.9479Q367.9757 316.9479 368.46008 316.24478Q368.96008 315.54166 368.96008 313.43228Q368.96008 311.30728 368.46008 310.61978Q367.9757 309.91666 367.2257 309.91666Q366.50696 309.91666 366.06946 310.52603Q365.52258 311.30728 365.52258 313.43228Z" fill-rule="nonzero"/><path fill="#000000" d="M461.84723 313.0104Q461.19098 312.7604 460.86285 312.3229Q460.55035 311.86978 460.55035 311.2604Q460.55035 310.3229 461.22223 309.68228Q461.90973 309.04166 463.0191 309.04166Q464.1441 309.04166 464.8316 309.6979Q465.5191 310.35416 465.5191 311.29166Q465.5191 311.8854 465.2066 312.3229Q464.8941 312.7604 464.25348 313.0104Q465.05035 313.2604 465.4566 313.83853Q465.86285 314.41666 465.86285 315.21353Q465.86285 316.30728 465.0816 317.05728Q464.31598 317.80728 463.03473 317.80728Q461.7691 317.80728 460.98785 317.05728Q460.2066 316.30728 460.2066 315.18228Q460.2066 314.33853 460.62848 313.77603Q461.06598 313.21353 461.84723 313.0104ZM461.62848 311.21353Q461.62848 311.8229 462.0191 312.21353Q462.42535 312.60416 463.05035 312.60416Q463.65973 312.60416 464.05035 312.22916Q464.44098 311.83853 464.44098 311.27603Q464.44098 310.6979 464.03473 310.30728Q463.62848 309.90103 463.03473 309.90103Q462.42535 309.90103 462.0191 310.29166Q461.62848 310.68228 461.62848 311.21353ZM461.30035 315.18228Q461.30035 315.6354 461.50348 316.05728Q461.72223 316.47916 462.1441 316.71353Q462.56598 316.9479 463.05035 316.9479Q463.80035 316.9479 464.28473 316.46353Q464.78473 315.97916 464.78473 315.22916Q464.78473 314.46353 464.28473 313.96353Q463.78473 313.46353 463.0191 313.46353Q462.2691 313.46353 461.78473 313.96353Q461.30035 314.4479 461.30035 315.18228ZM467.22223 313.43228Q467.22223 311.90103 467.53473 310.97916Q467.84723 310.04166 468.4566 309.54166Q469.0816 309.04166 470.0191 309.04166Q470.7066 309.04166 471.22223 309.3229Q471.75348 309.60416 472.09723 310.1354Q472.44098 310.65103 472.62848 311.40103Q472.81598 312.15103 472.81598 313.43228Q472.81598 314.9479 472.50348 315.86978Q472.2066 316.79166 471.5816 317.30728Q470.97223 317.80728 470.0191 317.80728Q468.78473 317.80728 468.06598 316.91666Q467.22223 315.85416 467.22223 313.43228ZM468.30035 313.43228Q468.30035 315.54166 468.80035 316.24478Q469.30035 316.9479 470.0191 316.9479Q470.75348 316.9479 471.23785 316.24478Q471.73785 315.54166 471.73785 313.43228Q471.73785 311.30728 471.23785 310.61978Q470.75348 309.91666 470.00348 309.91666Q469.28473 309.91666 468.84723 310.52603Q468.30035 311.30728 468.30035 313.43228ZM474.22223 313.43228Q474.22223 311.90103 474.53473 310.97916Q474.84723 310.04166 475.4566 309.54166Q476.0816 309.04166 477.0191 309.04166Q477.7066 309.04166 478.22223 309.3229Q478.75348 309.60416 479.09723 310.1354Q479.44098 310.65103 479.62848 311.40103Q479.81598 312.15103 479.81598 313.43228Q479.81598 314.9479 479.50348 315.86978Q479.2066 316.79166 478.5816 317.30728Q477.97223 317.80728 477.0191 317.80728Q475.78473 317.80728 475.06598 316.91666Q474.22223 315.85416 474.22223 313.43228ZM475.30035 313.43228Q475.30035 315.54166 475.80035 316.24478Q476.30035 316.9479 477.0191 316.9479Q477.75348 316.9479 478.23785 316.24478Q478.73785 315.54166 478.73785 313.43228Q478.73785 311.30728 478.23785 310.61978Q477.75348 309.91666 477.00348 309.91666Q476.28473 309.91666 475.84723 310.52603Q475.30035 311.30728 475.30035 313.43228Z" fill-rule="nonzero"/><path fill="#000000" d="M570.46875 317.66666L569.4219 317.66666L569.4219 310.9479Q569.03125 311.30728 568.40625 311.68228Q567.7969 312.04166 567.3125 312.21353L567.3125 311.1979Q568.1875 310.77603 568.84375 310.1979Q569.5156 309.60416 569.7969 309.04166L570.46875 309.04166L570.46875 317.66666ZM573.5 313.43228Q573.5 311.90103 573.8125 310.97916Q574.125 310.04166 574.7344 309.54166Q575.3594 309.04166 576.2969 309.04166Q576.9844 309.04166 577.5 309.3229Q578.03125 309.60416 578.375 310.1354Q578.71875 310.65103 578.90625 311.40103Q579.09375 312.15103 579.09375 313.43228Q579.09375 314.9479 578.78125 315.86978Q578.4844 316.79166 577.8594 317.30728Q577.25 317.80728 576.2969 317.80728Q575.0625 317.80728 574.34375 316.91666Q573.5 315.85416 573.5 313.43228ZM574.5781 313.43228Q574.5781 315.54166 575.0781 316.24478Q575.5781 316.9479 576.2969 316.9479Q577.03125 316.9479 577.5156 316.24478Q578.0156 315.54166 578.0156 313.43228Q578.0156 311.30728 577.5156 310.61978Q577.03125 309.91666 576.28125 309.91666Q575.5625 309.91666 575.125 310.52603Q574.5781 311.30728 574.5781 313.43228ZM580.5 313.43228Q580.5 311.90103 580.8125 310.97916Q581.125 310.04166 581.7344 309.54166Q582.3594 309.04166 583.2969 309.04166Q583.9844 309.04166 584.5 309.3229Q585.03125 309.60416 585.375 310.1354Q585.71875 310.65103 585.90625 311.40103Q586.09375 312.15103 586.09375 313.43228Q586.09375 314.9479 585.78125 315.86978Q585.4844 316.79166 584.8594 317.30728Q584.25 317.80728 583.2969 317.80728Q582.0625 317.80728 581.34375 316.91666Q580.5 315.85416 580.5 313.43228ZM581.5781 313.43228Q581.5781 315.54166 582.0781 316.24478Q582.5781 316.9479 583.2969 316.9479Q584.03125 316.9479 584.5156 316.24478Q585.0156 315.54166 585.0156 313.43228Q585.0156 311.30728 584.5156 310.61978Q584.03125 309.91666 583.28125 309.91666Q582.5625 309.91666 582.125 310.52603Q581.5781 311.30728 581.5781 313.43228ZM587.5 313.43228Q587.5 311.90103 587.8125 310.97916Q588.125 310.04166 588.7344 309.54166Q589.3594 309.04166 590.2969 309.04166Q590.9844 309.04166 591.5 309.3229Q592.03125 309.60416 592.375 310.1354Q592.71875 310.65103 592.90625 311.40103Q593.09375 312.15103 593.09375 313.43228Q593.09375 314.9479 592.78125 315.86978Q592.4844 316.79166 591.8594 317.30728Q591.25 317.80728 590.2969 317.80728Q589.0625 317.80728 588.34375 316.91666Q587.5 315.85416 587.5 313.43228ZM588.5781 313.43228Q588.5781 315.54166 589.0781 316.24478Q589.5781 316.9479 590.2969 316.9479Q591.03125 316.9479 591.5156 316.24478Q592.0156 315.54166 592.0156 313.43228Q592.0156 311.30728 591.5156 310.61978Q591.03125 309.91666 590.28125 309.91666Q589.5625 309.91666 589.125 310.52603Q588.5781 311.30728 588.5781 313.43228Z" fill-rule="nonzero"/><path stroke="#4285f4" stroke-width="4.0" stroke-linecap="butt" d="M169.5 373.0L181.5 373.0" fill-rule="nonzero"/><path fill="#1a1a1a" d="M190.0 374.75L191.10938 374.65625Q191.23438 375.46875 191.67188 375.875Q192.125 376.28125 192.76562 376.28125Q193.51562 376.28125 194.04688 375.70312Q194.57812 375.125 194.57812 374.1875Q194.57812 373.28125 194.0625 372.76562Q193.5625 372.23438 192.73438 372.23438Q192.23438 372.23438 191.8125 372.46875Q191.40625 372.70312 191.17188 373.0625L190.1875 372.9375L191.01562 368.53125L195.29688 368.53125L195.29688 369.53125L191.85938 369.53125L191.40625 371.84375Q192.17188 371.29688 193.01562 371.29688Q194.14062 371.29688 194.90625 372.07812Q195.6875 372.85938 195.6875 374.09375Q195.6875 375.25 195.01562 376.10938Q194.1875 377.14062 192.76562 377.14062Q191.59375 377.14062 190.84375 376.48438Q190.10938 375.82812 190.0 374.75ZM197.0 372.76562Q197.0 371.23438 197.3125 370.3125Q197.625 369.375 198.23438 368.875Q198.85938 368.375 199.79688 368.375Q200.48438 368.375 201.0 368.65625Q201.53125 368.9375 201.875 369.46875Q202.21875 369.98438 202.40625 370.73438Q202.59375 371.48438 202.59375 372.76562Q202.59375 374.28125 202.28125 375.20312Q201.98438 376.125 201.35938 376.64062Q200.75 377.14062 199.79688 377.14062Q198.5625 377.14062 197.84375 376.25Q197.0 375.1875 197.0 372.76562ZM198.07812 372.76562Q198.07812 374.875 198.57812 375.57812Q199.07812 376.28125 199.79688 376.28125Q200.53125 376.28125 201.01562 375.57812Q201.51562 374.875 201.51562 372.76562Q201.51562 370.64062 201.01562 369.95312Q200.53125 369.25 199.78125 369.25Q199.0625 369.25 198.625 369.85938Q198.07812 370.64062 198.07812 372.76562ZM207.375 377.0L207.375 368.40625L210.60938 368.40625Q211.59375 368.40625 212.1875 368.67188Q212.78125 368.9375 213.10938 369.48438Q213.45312 370.01562 213.45312 370.60938Q213.45312 371.15625 213.15625 371.64062Q212.85938 372.125 212.25 372.42188Q213.03125 372.65625 213.4375 373.21875Q213.85938 373.76562 213.85938 374.51562Q213.85938 375.10938 213.60938 375.64062Q213.35938 376.15625 212.98438 376.4375Q212.60938 376.71875 212.03125 376.85938Q211.46875 377.0 210.65625 377.0L207.375 377.0ZM208.51562 372.01562L210.375 372.01562Q211.125 372.01562 211.45312 371.92188Q211.89062 371.79688 212.10938 371.5Q212.32812 371.1875 212.32812 370.73438Q212.32812 370.3125 212.125 369.98438Q211.92188 369.65625 211.53125 369.54688Q211.15625 369.42188 210.23438 369.42188L208.51562 369.42188L208.51562 372.01562ZM208.51562 375.98438L210.65625 375.98438Q211.20312 375.98438 211.42188 375.9375Q211.82812 375.875 212.07812 375.71875Q212.34375 375.54688 212.51562 375.23438Q212.6875 374.92188 212.6875 374.51562Q212.6875 374.03125 212.4375 373.67188Q212.20312 373.3125 211.76562 373.17188Q211.32812 373.03125 210.5 373.03125L208.51562 373.03125L208.51562 375.98438Z" fill-rule="nonzero"/><path stroke="#ea4335" stroke-width="4.0" stroke-linecap="butt" d="M230.5 373.0L242.5 373.0" fill-rule="nonzero"/><path fill="#1a1a1a" d="M254.96875 377.0L253.92188 377.0L253.92188 370.28125Q253.53125 370.64062 252.90625 371.01562Q252.29688 371.375 251.8125 371.54688L251.8125 370.53125Q252.6875 370.10938 253.34375 369.53125Q254.01562 368.9375 254.29688 368.375L254.96875 368.375L254.96875 377.0ZM261.375 377.0L261.375 368.40625L262.51562 368.40625L262.51562 372.67188L266.78125 368.40625L268.32812 368.40625L264.71875 371.89062L268.48438 377.0L266.98438 377.0L263.92188 372.65625L262.51562 374.01562L262.51562 377.0L261.375 377.0ZM269.29688 369.625L269.29688 368.40625L270.35938 368.40625L270.35938 369.625L269.29688 369.625ZM269.29688 377.0L269.29688 370.78125L270.35938 370.78125L270.35938 377.0L269.29688 377.0ZM272.375 377.0L272.375 368.40625L275.60938 368.40625Q276.59375 368.40625 277.1875 368.67188Q277.78125 368.9375 278.10938 369.48438Q278.45312 370.01562 278.45312 370.60938Q278.45312 371.15625 278.15625 371.64062Q277.85938 372.125 277.25 372.42188Q278.03125 372.65625 278.4375 373.21875Q278.85938 373.76562 278.85938 374.51562Q278.85938 375.10938 278.60938 375.64062Q278.35938 376.15625 277.98438 376.4375Q277.60938 376.71875 277.03125 376.85938Q276.46875 377.0 275.65625 377.0L272.375 377.0ZM273.51562 372.01562L275.375 372.01562Q276.125 372.01562 276.45312 371.92188Q276.89062 371.79688 277.10938 371.5Q277.32812 371.1875 277.32812 370.73438Q277.32812 370.3125 277.125 369.98438Q276.92188 369.65625 276.53125 369.54688Q276.15625 369.42188 275.23438 369.42188L273.51562 369.42188L273.51562 372.01562ZM273.51562 375.98438L275.65625 375.98438Q276.20312 375.98438 276.42188 375.9375Q276.82812 375.875 277.07812 375.71875Q277.34375 375.54688 277.51562 375.23438Q277.6875 374.92188 277.6875 374.51562Q277.6875 374.03125 277.4375 373.67188Q277.20312 373.3125 276.76562 373.17188Q276.32812 373.03125 275.5 373.03125L273.51562 373.03125L273.51562 375.98438Z" fill-rule="nonzero"/><path stroke="#fbbc04" stroke-width="4.0" stroke-linecap="butt" d="M295.5 373.0L307.5 373.0" fill-rule="nonzero"/><path fill="#1a1a1a" d="M319.96875 377.0L318.92188 377.0L318.92188 370.28125Q318.53125 370.64062 317.90625 371.01562Q317.29688 371.375 316.8125 371.54688L316.8125 370.53125Q317.6875 370.10938 318.34375 369.53125Q319.01562 368.9375 319.29688 368.375L319.96875 368.375L319.96875 377.0ZM323.0 372.76562Q323.0 371.23438 323.3125 370.3125Q323.625 369.375 324.23438 368.875Q324.85938 368.375 325.79688 368.375Q326.48438 368.375 327.0 368.65625Q327.53125 368.9375 327.875 369.46875Q328.21875 369.98438 328.40625 370.73438Q328.59375 371.48438 328.59375 372.76562Q328.59375 374.28125 328.28125 375.20312Q327.98438 376.125 327.35938 376.64062Q326.75 377.14062 325.79688 377.14062Q324.5625 377.14062 323.84375 376.25Q323.0 375.1875 323.0 372.76562ZM324.07812 372.76562Q324.07812 374.875 324.57812 375.57812Q325.07812 376.28125 325.79688 376.28125Q326.53125 376.28125 327.01562 375.57812Q327.51562 374.875 327.51562 372.76562Q327.51562 370.64062 327.01562 369.95312Q326.53125 369.25 325.78125 369.25Q325.0625 369.25 324.625 369.85938Q324.07812 370.64062 324.07812 372.76562ZM333.375 377.0L333.375 368.40625L334.51562 368.40625L334.51562 372.67188L338.78125 368.40625L340.32812 368.40625L336.71875 371.89062L340.48438 377.0L338.98438 377.0L335.92188 372.65625L334.51562 374.01562L334.51562 377.0L333.375 377.0ZM341.29688 369.625L341.29688 368.40625L342.35938 368.40625L342.35938 369.625L341.29688 369.625ZM341.29688 377.0L341.29688 370.78125L342.35938 370.78125L342.35938 377.0L341.29688 377.0ZM344.375 377.0L344.375 368.40625L347.60938 368.40625Q348.59375 368.40625 349.1875 368.67188Q349.78125 368.9375 350.10938 369.48438Q350.45312 370.01562 350.45312 370.60938Q350.45312 371.15625 350.15625 371.64062Q349.85938 372.125 349.25 372.42188Q350.03125 372.65625 350.4375 373.21875Q350.85938 373.76562 350.85938 374.51562Q350.85938 375.10938 350.60938 375.64062Q350.35938 376.15625 349.98438 376.4375Q349.60938 376.71875 349.03125 376.85938Q348.46875 377.0 347.65625 377.0L344.375 377.0ZM345.51562 372.01562L347.375 372.01562Q348.125 372.01562 348.45312 371.92188Q348.89062 371.79688 349.10938 371.5Q349.32812 371.1875 349.32812 370.73438Q349.32812 370.3125 349.125 369.98438Q348.92188 369.65625 348.53125 369.54688Q348.15625 369.42188 347.23438 369.42188L345.51562 369.42188L345.51562 372.01562ZM345.51562 375.98438L347.65625 375.98438Q348.20312 375.98438 348.42188 375.9375Q348.82812 375.875 349.07812 375.71875Q349.34375 375.54688 349.51562 375.23438Q349.6875 374.92188 349.6875 374.51562Q349.6875 374.03125 349.4375 373.67188Q349.20312 373.3125 348.76562 373.17188Q348.32812 373.03125 347.5 373.03125L345.51562 373.03125L345.51562 375.98438Z" fill-rule="nonzero"/><path stroke="#34a853" stroke-width="4.0" stroke-linecap="butt" d="M367.5 373.0L379.5 373.0" fill-rule="nonzero"/><path fill="#1a1a1a" d="M391.96875 377.0L390.92188 377.0L390.92188 370.28125Q390.53125 370.64062 389.90625 371.01562Q389.29688 371.375 388.8125 371.54688L388.8125 370.53125Q389.6875 370.10938 390.34375 369.53125Q391.01562 368.9375 391.29688 368.375L391.96875 368.375L391.96875 377.0ZM395.0 372.76562Q395.0 371.23438 395.3125 370.3125Q395.625 369.375 396.23438 368.875Q396.85938 368.375 397.79688 368.375Q398.48438 368.375 399.0 368.65625Q399.53125 368.9375 399.875 369.46875Q400.21875 369.98438 400.40625 370.73438Q400.59375 371.48438 400.59375 372.76562Q400.59375 374.28125 400.28125 375.20312Q399.98438 376.125 399.35938 376.64062Q398.75 377.14062 397.79688 377.14062Q396.5625 377.14062 395.84375 376.25Q395.0 375.1875 395.0 372.76562ZM396.07812 372.76562Q396.07812 374.875 396.57812 375.57812Q397.07812 376.28125 397.79688 376.28125Q398.53125 376.28125 399.01562 375.57812Q399.51562 374.875 399.51562 372.76562Q399.51562 370.64062 399.01562 369.95312Q398.53125 369.25 397.78125 369.25Q397.0625 369.25 396.625 369.85938Q396.07812 370.64062 396.07812 372.76562ZM402.0 372.76562Q402.0 371.23438 402.3125 370.3125Q402.625 369.375 403.23438 368.875Q403.85938 368.375 404.79688 368.375Q405.48438 368.375 406.0 368.65625Q406.53125 368.9375 406.875 369.46875Q407.21875 369.98438 407.40625 370.73438Q407.59375 371.48438 407.59375 372.76562Q407.59375 374.28125 407.28125 375.20312Q406.98438 376.125 406.35938 376.64062Q405.75 377.14062 404.79688 377.14062Q403.5625 377.14062 402.84375 376.25Q402.0 375.1875 402.0 372.76562ZM403.07812 372.76562Q403.07812 374.875 403.57812 375.57812Q404.07812 376.28125 404.79688 376.28125Q405.53125 376.28125 406.01562 375.57812Q406.51562 374.875 406.51562 372.76562Q406.51562 370.64062 406.01562 369.95312Q405.53125 369.25 404.78125 369.25Q404.0625 369.25 403.625 369.85938Q403.07812 370.64062 403.07812 372.76562ZM412.375 377.0L412.375 368.40625L413.51562 368.40625L413.51562 372.67188L417.78125 368.40625L419.32812 368.40625L415.71875 371.89062L419.48438 377.0L417.98438 377.0L414.92188 372.65625L413.51562 374.01562L413.51562 377.0L412.375 377.0ZM420.29688 369.625L420.29688 368.40625L421.35938 368.40625L421.35938 369.625L420.29688 369.625ZM420.29688 377.0L420.29688 370.78125L421.35938 370.78125L421.35938 377.0L420.29688 377.0ZM423.375 377.0L423.375 368.40625L426.60938 368.40625Q427.59375 368.40625 428.1875 368.67188Q428.78125 368.9375 429.10938 369.48438Q429.45312 370.01562 429.45312 370.60938Q429.45312 371.15625 429.15625 371.64062Q428.85938 372.125 428.25 372.42188Q429.03125 372.65625 429.4375 373.21875Q429.85938 373.76562 429.85938 374.51562Q429.85938 375.10938 429.60938 375.64062Q429.35938 376.15625 428.98438 376.4375Q428.60938 376.71875 428.03125 376.85938Q427.46875 377.0 426.65625 377.0L423.375 377.0ZM424.51562 372.01562L426.375 372.01562Q427.125 372.01562 427.45312 371.92188Q427.89062 371.79688 428.10938 371.5Q428.32812 371.1875 428.32812 370.73438Q428.32812 370.3125 428.125 369.98438Q427.92188 369.65625 427.53125 369.54688Q427.15625 369.42188 426.23438 369.42188L424.51562 369.42188L424.51562 372.01562ZM424.51562 375.98438L426.65625 375.98438Q427.20312 375.98438 427.42188 375.9375Q427.82812 375.875 428.07812 375.71875Q428.34375 375.54688 428.51562 375.23438Q428.6875 374.92188 428.6875 374.51562Q428.6875 374.03125 428.4375 373.67188Q428.20312 373.3125 427.76562 373.17188Q427.32812 373.03125 426.5 373.03125L424.51562 373.03125L424.51562 375.98438Z" fill-rule="nonzero"/><path fill="#444746" d="M82.6875 39.0L82.6875 26.375L77.96875 26.375L77.96875 24.6875L89.3125 24.6875L89.3125 26.375L84.578125 26.375L84.578125 39.0L82.6875 39.0ZM90.8125 39.0L90.8125 24.6875L92.578125 24.6875L92.578125 29.8125Q93.8125 28.390625 95.6875 28.390625Q96.828125 28.390625 97.671875 28.84375Q98.53125 29.296875 98.890625 30.109375Q99.265625 30.90625 99.265625 32.421875L99.265625 39.0L97.515625 39.0L97.515625 32.421875Q97.515625 31.109375 96.9375 30.515625Q96.359375 29.90625 95.328125 29.90625Q94.546875 29.90625 93.84375 30.3125Q93.15625 30.71875 92.859375 31.421875Q92.578125 32.109375 92.578125 33.328125L92.578125 39.0L90.8125 39.0ZM101.796875 39.0L101.796875 28.625L103.375 28.625L103.375 30.203125Q103.984375 29.09375 104.5 28.75Q105.015625 28.390625 105.625 28.390625Q106.515625 28.390625 107.4375 28.953125L106.828125 30.59375Q106.1875 30.203125 105.546875 30.203125Q104.96875 30.203125 104.5 30.5625Q104.046875 30.90625 103.84375 31.515625Q103.5625 32.453125 103.5625 33.5625L103.5625 39.0L101.796875 39.0ZM108.171875 33.8125Q108.171875 30.9375 109.765625 29.546875Q111.109375 28.390625 113.03125 28.390625Q115.171875 28.390625 116.515625 29.796875Q117.875 31.203125 117.875 33.671875Q117.875 35.671875 117.28125 36.828125Q116.6875 37.96875 115.53125 38.609375Q114.390625 39.234375 113.03125 39.234375Q110.84375 39.234375 109.5 37.84375Q108.171875 36.4375 108.171875 33.8125ZM109.96875 33.8125Q109.96875 35.8125 110.828125 36.796875Q111.703125 37.78125 113.03125 37.78125Q114.34375 37.78125 115.203125 36.796875Q116.078125 35.796875 116.078125 33.75Q116.078125 31.828125 115.203125 30.84375Q114.328125 29.84375 113.03125 29.84375Q111.703125 29.84375 110.828125 30.84375Q109.96875 31.828125 109.96875 33.8125ZM126.609375 39.0L126.609375 37.46875Q125.40625 39.234375 123.328125 39.234375Q122.40625 39.234375 121.609375 38.890625Q120.8125 38.53125 120.421875 38.0Q120.046875 37.46875 119.890625 36.6875Q119.78125 36.171875 119.78125 35.046875L119.78125 28.625L121.53125 28.625L121.53125 34.375Q121.53125 35.75 121.640625 36.234375Q121.8125 36.921875 122.34375 37.328125Q122.890625 37.71875 123.671875 37.71875Q124.46875 37.71875 125.15625 37.3125Q125.859375 36.90625 126.140625 36.21875Q126.4375 35.515625 126.4375 34.1875L126.4375 28.625L128.1875 28.625L128.1875 39.0L126.609375 39.0ZM130.5 39.859375L132.20312 40.109375Q132.3125 40.90625 132.79688 41.265625Q133.45312 41.75 134.59375 41.75Q135.8125 41.75 136.46875 41.265625Q137.14062 40.78125 137.375 39.90625Q137.51562 39.359375 137.5 37.640625Q136.34375 39.0 134.625 39.0Q132.48438 39.0 131.3125 37.453125Q130.14062 35.90625 130.14062 33.75Q130.14062 32.265625 130.67188 31.015625Q131.21875 29.765625 132.23438 29.078125Q133.26562 28.390625 134.64062 28.390625Q136.46875 28.390625 137.67188 29.875L137.67188 28.625L139.28125 28.625L139.28125 37.59375Q139.28125 40.015625 138.78125 41.015625Q138.29688 42.03125 137.21875 42.609375Q136.15625 43.203125 134.59375 43.203125Q132.75 43.203125 131.59375 42.375Q130.45312 41.546875 130.5 39.859375ZM131.95312 33.625Q131.95312 35.671875 132.76562 36.609375Q133.57812 37.546875 134.79688 37.546875Q136.0 37.546875 136.8125 36.609375Q137.64062 35.671875 137.64062 33.6875Q137.64062 31.78125 136.79688 30.8125Q135.95312 29.84375 134.76562 29.84375Q133.59375 29.84375 132.76562 30.796875Q131.95312 31.75 131.95312 33.625ZM141.8125 39.0L141.8125 24.6875L143.57812 24.6875L143.57812 29.8125Q144.8125 28.390625 146.6875 28.390625Q147.82812 28.390625 148.67188 28.84375Q149.53125 29.296875 149.89062 30.109375Q150.26562 30.90625 150.26562 32.421875L150.26562 39.0L148.51562 39.0L148.51562 32.421875Q148.51562 31.109375 147.9375 30.515625Q147.35938 29.90625 146.32812 29.90625Q145.54688 29.90625 144.84375 30.3125Q144.15625 30.71875 143.85938 31.421875Q143.57812 32.109375 143.57812 33.328125L143.57812 39.0L141.8125 39.0ZM152.8125 42.96875L152.8125 28.625L154.42188 28.625L154.42188 29.96875Q154.98438 29.1875 155.6875 28.796875Q156.40625 28.390625 157.42188 28.390625Q158.75 28.390625 159.76562 29.078125Q160.78125 29.765625 161.29688 31.015625Q161.82812 32.25 161.82812 33.734375Q161.82812 35.328125 161.25 36.609375Q160.6875 37.875 159.59375 38.5625Q158.5 39.234375 157.29688 39.234375Q156.42188 39.234375 155.71875 38.859375Q155.03125 38.484375 154.57812 37.921875L154.57812 42.96875L152.8125 42.96875ZM154.40625 33.875Q154.40625 35.875 155.21875 36.828125Q156.03125 37.78125 157.1875 37.78125Q158.35938 37.78125 159.1875 36.796875Q160.03125 35.8125 160.03125 33.71875Q160.03125 31.75 159.20312 30.765625Q158.39062 29.765625 157.26562 29.765625Q156.14062 29.765625 155.26562 30.828125Q154.40625 31.875 154.40625 33.875ZM170.60938 39.0L170.60938 37.46875Q169.40625 39.234375 167.32812 39.234375Q166.40625 39.234375 165.60938 38.890625Q164.8125 38.53125 164.42188 38.0Q164.04688 37.46875 163.89062 36.6875Q163.78125 36.171875 163.78125 35.046875L163.78125 28.625L165.53125 28.625L165.53125 34.375Q165.53125 35.75 165.64062 36.234375Q165.8125 36.921875 166.34375 37.328125Q166.89062 37.71875 167.67188 37.71875Q168.46875 37.71875 169.15625 37.3125Q169.85938 36.90625 170.14062 36.21875Q170.4375 35.515625 170.4375 34.1875L170.4375 28.625L172.1875 28.625L172.1875 39.0L170.60938 39.0ZM178.65625 37.421875L178.90625 38.984375Q178.17188 39.140625 177.57812 39.140625Q176.625 39.140625 176.09375 38.84375Q175.57812 38.53125 175.35938 38.046875Q175.14062 37.546875 175.14062 35.96875L175.14062 30.0L173.85938 30.0L173.85938 28.625L175.14062 28.625L175.14062 26.0625L176.89062 25.0L176.89062 28.625L178.65625 28.625L178.65625 30.0L176.89062 30.0L176.89062 36.0625Q176.89062 36.8125 176.98438 37.03125Q177.07812 37.234375 177.28125 37.375Q177.5 37.5 177.89062 37.5Q178.17188 37.5 178.65625 37.421875ZM189.70312 39.0L185.75 28.625L187.60938 28.625L189.84375 34.84375Q190.20312 35.84375 190.5 36.921875Q190.73438 36.109375 191.15625 34.953125L193.45312 28.625L195.26562 28.625L191.34375 39.0L189.70312 39.0ZM196.10938 35.90625L197.85938 35.625Q198.0 36.671875 198.67188 37.234375Q199.34375 37.78125 200.54688 37.78125Q201.75 37.78125 202.32812 37.296875Q202.92188 36.796875 202.92188 36.140625Q202.92188 35.546875 202.40625 35.203125Q202.04688 34.96875 200.60938 34.609375Q198.67188 34.109375 197.92188 33.765625Q197.1875 33.40625 196.79688 32.78125Q196.40625 32.140625 196.40625 31.375Q196.40625 30.6875 196.71875 30.09375Q197.04688 29.5 197.59375 29.109375Q198.0 28.8125 198.70312 28.609375Q199.42188 28.390625 200.23438 28.390625Q201.45312 28.390625 202.375 28.75Q203.29688 29.09375 203.73438 29.703125Q204.17188 30.296875 204.34375 31.296875L202.625 31.53125Q202.5 30.734375 201.9375 30.296875Q201.375 29.84375 200.35938 29.84375Q199.14062 29.84375 198.625 30.25Q198.10938 30.640625 198.10938 31.171875Q198.10938 31.515625 198.32812 31.796875Q198.53125 32.078125 199.0 32.265625Q199.26562 32.359375 200.54688 32.703125Q202.42188 33.203125 203.15625 33.53125Q203.89062 33.84375 204.3125 34.453125Q204.73438 35.046875 204.73438 35.953125Q204.73438 36.828125 204.21875 37.609375Q203.70312 38.390625 202.73438 38.8125Q201.76562 39.234375 200.54688 39.234375Q198.53125 39.234375 197.46875 38.390625Q196.40625 37.546875 196.10938 35.90625ZM207.3125 39.0L207.3125 37.0L209.3125 37.0L209.3125 39.0L207.3125 39.0ZM229.26562 33.984375L231.15625 34.453125Q230.5625 36.796875 229.01562 38.03125Q227.46875 39.25 225.21875 39.25Q222.90625 39.25 221.45312 38.3125Q220.01562 37.359375 219.25 35.578125Q218.5 33.78125 218.5 31.734375Q218.5 29.5 219.34375 27.84375Q220.20312 26.171875 221.78125 25.3125Q223.35938 24.4375 225.25 24.4375Q227.40625 24.4375 228.85938 25.53125Q230.32812 26.625 230.90625 28.609375L229.04688 29.046875Q228.54688 27.484375 227.59375 26.78125Q226.65625 26.0625 225.21875 26.0625Q223.5625 26.0625 222.45312 26.859375Q221.34375 27.640625 220.89062 28.984375Q220.45312 30.3125 220.45312 31.71875Q220.45312 33.546875 220.98438 34.921875Q221.51562 36.28125 222.64062 36.953125Q223.76562 37.625 225.0625 37.625Q226.65625 37.625 227.76562 36.703125Q228.875 35.78125 229.26562 33.984375ZM232.17188 33.8125Q232.17188 30.9375 233.76562 29.546875Q235.10938 28.390625 237.03125 28.390625Q239.17188 28.390625 240.51562 29.796875Q241.875 31.203125 241.875 33.671875Q241.875 35.671875 241.28125 36.828125Q240.6875 37.96875 239.53125 38.609375Q238.39062 39.234375 237.03125 39.234375Q234.84375 39.234375 233.5 37.84375Q232.17188 36.4375 232.17188 33.8125ZM233.96875 33.8125Q233.96875 35.8125 234.82812 36.796875Q235.70312 37.78125 237.03125 37.78125Q238.34375 37.78125 239.20312 36.796875Q240.07812 35.796875 240.07812 33.75Q240.07812 31.828125 239.20312 30.84375Q238.32812 29.84375 237.03125 29.84375Q235.70312 29.84375 234.82812 30.84375Q233.96875 31.828125 233.96875 33.8125ZM243.8125 39.0L243.8125 28.625L245.40625 28.625L245.40625 30.109375Q246.54688 28.390625 248.70312 28.390625Q249.64062 28.390625 250.42188 28.734375Q251.21875 29.0625 251.60938 29.609375Q252.0 30.15625 252.15625 30.90625Q252.25 31.40625 252.25 32.625L252.25 39.0L250.48438 39.0L250.48438 32.6875Q250.48438 31.609375 250.28125 31.078125Q250.07812 30.546875 249.54688 30.234375Q249.03125 29.921875 248.32812 29.921875Q247.20312 29.921875 246.39062 30.640625Q245.57812 31.34375 245.57812 33.328125L245.57812 39.0L243.8125 39.0ZM261.59375 35.203125L263.3125 35.421875Q263.03125 37.21875 261.85938 38.234375Q260.70312 39.234375 259.0 39.234375Q256.875 39.234375 255.57812 37.84375Q254.28125 36.453125 254.28125 33.859375Q254.28125 32.171875 254.82812 30.921875Q255.39062 29.65625 256.53125 29.03125Q257.67188 28.390625 259.01562 28.390625Q260.70312 28.390625 261.76562 29.25Q262.84375 30.109375 263.15625 31.671875L261.4375 31.9375Q261.20312 30.890625 260.57812 30.375Q259.95312 29.84375 259.07812 29.84375Q257.75 29.84375 256.92188 30.796875Q256.09375 31.75 256.09375 33.796875Q256.09375 35.890625 256.89062 36.84375Q257.6875 37.78125 258.98438 37.78125Q260.01562 37.78125 260.70312 37.15625Q261.40625 36.515625 261.59375 35.203125ZM271.60938 39.0L271.60938 37.46875Q270.40625 39.234375 268.32812 39.234375Q267.40625 39.234375 266.60938 38.890625Q265.8125 38.53125 265.42188 38.0Q265.04688 37.46875 264.89062 36.6875Q264.78125 36.171875 264.78125 35.046875L264.78125 28.625L266.53125 28.625L266.53125 34.375Q266.53125 35.75 266.64062 36.234375Q266.8125 36.921875 267.34375 37.328125Q267.89062 37.71875 268.67188 37.71875Q269.46875 37.71875 270.15625 37.3125Q270.85938 36.90625 271.14062 36.21875Q271.4375 35.515625 271.4375 34.1875L271.4375 28.625L273.1875 28.625L273.1875 39.0L271.60938 39.0ZM275.79688 39.0L275.79688 28.625L277.375 28.625L277.375 30.203125Q277.98438 29.09375 278.5 28.75Q279.01562 28.390625 279.625 28.390625Q280.51562 28.390625 281.4375 28.953125L280.82812 30.59375Q280.1875 30.203125 279.54688 30.203125Q278.96875 30.203125 278.5 30.5625Q278.04688 30.90625 277.84375 31.515625Q277.5625 32.453125 277.5625 33.5625L277.5625 39.0L275.79688 39.0ZM282.79688 39.0L282.79688 28.625L284.375 28.625L284.375 30.203125Q284.98438 29.09375 285.5 28.75Q286.01562 28.390625 286.625 28.390625Q287.51562 28.390625 288.4375 28.953125L287.82812 30.59375Q287.1875 30.203125 286.54688 30.203125Q285.96875 30.203125 285.5 30.5625Q285.04688 30.90625 284.84375 31.515625Q284.5625 32.453125 284.5625 33.5625L284.5625 39.0L282.79688 39.0ZM296.92188 35.65625L298.73438 35.890625Q298.3125 37.46875 297.14062 38.359375Q295.98438 39.234375 294.17188 39.234375Q291.90625 39.234375 290.5625 37.84375Q289.23438 36.4375 289.23438 33.90625Q289.23438 31.28125 290.57812 29.84375Q291.92188 28.390625 294.07812 28.390625Q296.15625 28.390625 297.46875 29.8125Q298.79688 31.21875 298.79688 33.796875Q298.79688 33.953125 298.78125 34.265625L291.04688 34.265625Q291.14062 35.96875 292.01562 36.875Q292.89062 37.78125 294.1875 37.78125Q295.15625 37.78125 295.82812 37.28125Q296.51562 36.765625 296.92188 35.65625ZM291.14062 32.8125L296.9375 32.8125Q296.82812 31.515625 296.28125 30.859375Q295.4375 29.84375 294.09375 29.84375Q292.89062 29.84375 292.0625 30.65625Q291.23438 31.453125 291.14062 32.8125ZM300.8125 39.0L300.8125 28.625L302.40625 28.625L302.40625 30.109375Q303.54688 28.390625 305.70312 28.390625Q306.64062 28.390625 307.42188 28.734375Q308.21875 29.0625 308.60938 29.609375Q309.0 30.15625 309.15625 30.90625Q309.25 31.40625 309.25 32.625L309.25 39.0L307.48438 39.0L307.48438 32.6875Q307.48438 31.609375 307.28125 31.078125Q307.07812 30.546875 306.54688 30.234375Q306.03125 29.921875 305.32812 29.921875Q304.20312 29.921875 303.39062 30.640625Q302.57812 31.34375 302.57812 33.328125L302.57812 39.0L300.8125 39.0ZM315.65625 37.421875L315.90625 38.984375Q315.17188 39.140625 314.57812 39.140625Q313.625 39.140625 313.09375 38.84375Q312.57812 38.53125 312.35938 38.046875Q312.14062 37.546875 312.14062 35.96875L312.14062 30.0L310.85938 30.0L310.85938 28.625L312.14062 28.625L312.14062 26.0625L313.89062 25.0L313.89062 28.625L315.65625 28.625L315.65625 30.0L313.89062 30.0L313.89062 36.0625Q313.89062 36.8125 313.98438 37.03125Q314.07812 37.234375 314.28125 37.375Q314.5 37.5 314.89062 37.5Q315.17188 37.5 315.65625 37.421875ZM333.4375 24.6875L335.32812 24.6875L335.32812 32.953125Q335.32812 35.109375 334.84375 36.390625Q334.35938 37.65625 333.07812 38.453125Q331.8125 39.25 329.73438 39.25Q327.71875 39.25 326.4375 38.5625Q325.17188 37.859375 324.625 36.546875Q324.07812 35.234375 324.07812 32.953125L324.07812 24.6875L325.96875 24.6875L325.96875 32.9375Q325.96875 34.8125 326.3125 35.703125Q326.65625 36.578125 327.5 37.0625Q328.34375 37.53125 329.57812 37.53125Q331.65625 37.53125 332.54688 36.59375Q333.4375 35.640625 333.4375 32.9375L333.4375 24.6875ZM337.10938 35.90625L338.85938 35.625Q339.0 36.671875 339.67188 37.234375Q340.34375 37.78125 341.54688 37.78125Q342.75 37.78125 343.32812 37.296875Q343.92188 36.796875 343.92188 36.140625Q343.92188 35.546875 343.40625 35.203125Q343.04688 34.96875 341.60938 34.609375Q339.67188 34.109375 338.92188 33.765625Q338.1875 33.40625 337.79688 32.78125Q337.40625 32.140625 337.40625 31.375Q337.40625 30.6875 337.71875 30.09375Q338.04688 29.5 338.59375 29.109375Q339.0 28.8125 339.70312 28.609375Q340.42188 28.390625 341.23438 28.390625Q342.45312 28.390625 343.375 28.75Q344.29688 29.09375 344.73438 29.703125Q345.17188 30.296875 345.34375 31.296875L343.625 31.53125Q343.5 30.734375 342.9375 30.296875Q342.375 29.84375 341.35938 29.84375Q340.14062 29.84375 339.625 30.25Q339.10938 30.640625 339.10938 31.171875Q339.10938 31.515625 339.32812 31.796875Q339.53125 32.078125 340.0 32.265625Q340.26562 32.359375 341.54688 32.703125Q343.42188 33.203125 344.15625 33.53125Q344.89062 33.84375 345.3125 34.453125Q345.73438 35.046875 345.73438 35.953125Q345.73438 36.828125 345.21875 37.609375Q344.70312 38.390625 343.73438 38.8125Q342.76562 39.234375 341.54688 39.234375Q339.53125 39.234375 338.46875 38.390625Q337.40625 37.546875 337.10938 35.90625ZM354.92188 35.65625L356.73438 35.890625Q356.3125 37.46875 355.14062 38.359375Q353.98438 39.234375 352.17188 39.234375Q349.90625 39.234375 348.5625 37.84375Q347.23438 36.4375 347.23438 33.90625Q347.23438 31.28125 348.57812 29.84375Q349.92188 28.390625 352.07812 28.390625Q354.15625 28.390625 355.46875 29.8125Q356.79688 31.21875 356.79688 33.796875Q356.79688 33.953125 356.78125 34.265625L349.04688 34.265625Q349.14062 35.96875 350.01562 36.875Q350.89062 37.78125 352.1875 37.78125Q353.15625 37.78125 353.82812 37.28125Q354.51562 36.765625 354.92188 35.65625ZM349.14062 32.8125L354.9375 32.8125Q354.82812 31.515625 354.28125 30.859375Q353.4375 29.84375 352.09375 29.84375Q350.89062 29.84375 350.0625 30.65625Q349.23438 31.453125 349.14062 32.8125ZM358.79688 39.0L358.79688 28.625L360.375 28.625L360.375 30.203125Q360.98438 29.09375 361.5 28.75Q362.01562 28.390625 362.625 28.390625Q363.51562 28.390625 364.4375 28.953125L363.82812 30.59375Q363.1875 30.203125 362.54688 30.203125Q361.96875 30.203125 361.5 30.5625Q361.04688 30.90625 360.84375 31.515625Q360.5625 32.453125 360.5625 33.5625L360.5625 39.0L358.79688 39.0ZM365.10938 35.90625L366.85938 35.625Q367.0 36.671875 367.67188 37.234375Q368.34375 37.78125 369.54688 37.78125Q370.75 37.78125 371.32812 37.296875Q371.92188 36.796875 371.92188 36.140625Q371.92188 35.546875 371.40625 35.203125Q371.04688 34.96875 369.60938 34.609375Q367.67188 34.109375 366.92188 33.765625Q366.1875 33.40625 365.79688 32.78125Q365.40625 32.140625 365.40625 31.375Q365.40625 30.6875 365.71875 30.09375Q366.04688 29.5 366.59375 29.109375Q367.0 28.8125 367.70312 28.609375Q368.42188 28.390625 369.23438 28.390625Q370.45312 28.390625 371.375 28.75Q372.29688 29.09375 372.73438 29.703125Q373.17188 30.296875 373.34375 31.296875L371.625 31.53125Q371.5 30.734375 370.9375 30.296875Q370.375 29.84375 369.35938 29.84375Q368.14062 29.84375 367.625 30.25Q367.10938 30.640625 367.10938 31.171875Q367.10938 31.515625 367.32812 31.796875Q367.53125 32.078125 368.0 32.265625Q368.26562 32.359375 369.54688 32.703125Q371.42188 33.203125 372.15625 33.53125Q372.89062 33.84375 373.3125 34.453125Q373.73438 35.046875 373.73438 35.953125Q373.73438 36.828125 373.21875 37.609375Q372.70312 38.390625 371.73438 38.8125Q370.76562 39.234375 369.54688 39.234375Q367.53125 39.234375 366.46875 38.390625Q365.40625 37.546875 365.10938 35.90625ZM383.4375 39.0L381.8125 39.0L381.8125 24.6875L383.5625 24.6875L383.5625 29.796875Q384.6875 28.390625 386.40625 28.390625Q387.35938 28.390625 388.21875 28.78125Q389.07812 29.171875 389.625 29.875Q390.17188 30.5625 390.48438 31.546875Q390.79688 32.53125 390.79688 33.65625Q390.79688 36.328125 389.48438 37.78125Q388.17188 39.234375 386.32812 39.234375Q384.48438 39.234375 383.4375 37.703125L383.4375 39.0ZM383.42188 33.734375Q383.42188 35.59375 383.92188 36.4375Q384.76562 37.78125 386.17188 37.78125Q387.32812 37.78125 388.15625 36.78125Q389.0 35.78125 389.0 33.796875Q389.0 31.765625 388.1875 30.8125Q387.39062 29.84375 386.25 29.84375Q385.09375 29.84375 384.25 30.84375Q383.42188 31.84375 383.42188 33.734375ZM392.73438 43.0L392.54688 41.34375Q393.125 41.5 393.54688 41.5Q394.14062 41.5 394.48438 41.296875Q394.84375 41.109375 395.0625 40.765625Q395.23438 40.5 395.60938 39.453125Q395.65625 39.296875 395.76562 39.015625L391.82812 28.625L393.71875 28.625L395.875 34.640625Q396.29688 35.78125 396.625 37.03125Q396.9375 35.828125 397.34375 34.671875L399.5625 28.625L401.32812 28.625L397.375 39.171875Q396.75 40.890625 396.39062 41.53125Q395.92188 42.40625 395.3125 42.796875Q394.71875 43.203125 393.875 43.203125Q393.35938 43.203125 392.73438 43.0ZM409.04688 39.0L409.04688 24.6875L414.4375 24.6875Q415.875 24.6875 416.625 24.8125Q417.67188 25.0 418.39062 25.5Q419.10938 25.984375 419.53125 26.875Q419.96875 27.765625 419.96875 28.828125Q419.96875 30.65625 418.79688 31.921875Q417.64062 33.171875 414.60938 33.171875L410.9375 33.171875L410.9375 39.0L409.04688 39.0ZM410.9375 31.484375L414.64062 31.484375Q416.46875 31.484375 417.23438 30.8125Q418.01562 30.125 418.01562 28.875Q418.01562 27.984375 417.5625 27.34375Q417.10938 26.703125 416.375 26.5Q415.89062 26.375 414.59375 26.375L410.9375 26.375L410.9375 31.484375ZM428.59375 37.71875Q427.60938 38.546875 426.70312 38.890625Q425.79688 39.234375 424.76562 39.234375Q423.0625 39.234375 422.14062 38.40625Q421.21875 37.5625 421.21875 36.265625Q421.21875 35.5 421.5625 34.875Q421.92188 34.25 422.48438 33.875Q423.04688 33.484375 423.75 33.28125Q424.26562 33.15625 425.3125 33.015625Q427.4375 32.765625 428.4375 32.421875Q428.45312 32.0625 428.45312 31.953125Q428.45312 30.890625 427.95312 30.4375Q427.28125 29.84375 425.95312 29.84375Q424.70312 29.84375 424.10938 30.28125Q423.53125 30.71875 423.25 31.828125L421.53125 31.59375Q421.76562 30.484375 422.29688 29.8125Q422.82812 29.125 423.84375 28.765625Q424.85938 28.390625 426.20312 28.390625Q427.53125 28.390625 428.35938 28.703125Q429.1875 29.015625 429.57812 29.5Q429.96875 29.96875 430.125 30.6875Q430.21875 31.140625 430.21875 32.3125L430.21875 34.65625Q430.21875 37.109375 430.32812 37.765625Q430.4375 38.40625 430.78125 39.0L428.9375 39.0Q428.67188 38.453125 428.59375 37.71875ZM428.4375 33.796875Q427.48438 34.1875 425.5625 34.453125Q424.48438 34.609375 424.03125 34.8125Q423.59375 35.0 423.34375 35.375Q423.09375 35.75 423.09375 36.21875Q423.09375 36.921875 423.625 37.390625Q424.15625 37.859375 425.1875 37.859375Q426.20312 37.859375 426.98438 37.421875Q427.78125 36.96875 428.15625 36.203125Q428.4375 35.59375 428.4375 34.4375L428.4375 33.796875ZM432.73438 43.0L432.54688 41.34375Q433.125 41.5 433.54688 41.5Q434.14062 41.5 434.48438 41.296875Q434.84375 41.109375 435.0625 40.765625Q435.23438 40.5 435.60938 39.453125Q435.65625 39.296875 435.76562 39.015625L431.82812 28.625L433.71875 28.625L435.875 34.640625Q436.29688 35.78125 436.625 37.03125Q436.9375 35.828125 437.34375 34.671875L439.5625 28.625L441.32812 28.625L437.375 39.171875Q436.75 40.890625 436.39062 41.53125Q435.92188 42.40625 435.3125 42.796875Q434.71875 43.203125 433.875 43.203125Q433.35938 43.203125 432.73438 43.0ZM442.78125 39.0L442.78125 24.6875L444.53125 24.6875L444.53125 39.0L442.78125 39.0ZM446.17188 33.8125Q446.17188 30.9375 447.76562 29.546875Q449.10938 28.390625 451.03125 28.390625Q453.17188 28.390625 454.51562 29.796875Q455.875 31.203125 455.875 33.671875Q455.875 35.671875 455.28125 36.828125Q454.6875 37.96875 453.53125 38.609375Q452.39062 39.234375 451.03125 39.234375Q448.84375 39.234375 447.5 37.84375Q446.17188 36.4375 446.17188 33.8125ZM447.96875 33.8125Q447.96875 35.8125 448.82812 36.796875Q449.70312 37.78125 451.03125 37.78125Q452.34375 37.78125 453.20312 36.796875Q454.07812 35.796875 454.07812 33.75Q454.07812 31.828125 453.20312 30.84375Q452.32812 29.84375 451.03125 29.84375Q449.70312 29.84375 448.82812 30.84375Q447.96875 31.828125 447.96875 33.8125ZM464.59375 37.71875Q463.60938 38.546875 462.70312 38.890625Q461.79688 39.234375 460.76562 39.234375Q459.0625 39.234375 458.14062 38.40625Q457.21875 37.5625 457.21875 36.265625Q457.21875 35.5 457.5625 34.875Q457.92188 34.25 458.48438 33.875Q459.04688 33.484375 459.75 33.28125Q460.26562 33.15625 461.3125 33.015625Q463.4375 32.765625 464.4375 32.421875Q464.45312 32.0625 464.45312 31.953125Q464.45312 30.890625 463.95312 30.4375Q463.28125 29.84375 461.95312 29.84375Q460.70312 29.84375 460.10938 30.28125Q459.53125 30.71875 459.25 31.828125L457.53125 31.59375Q457.76562 30.484375 458.29688 29.8125Q458.82812 29.125 459.84375 28.765625Q460.85938 28.390625 462.20312 28.390625Q463.53125 28.390625 464.35938 28.703125Q465.1875 29.015625 465.57812 29.5Q465.96875 29.96875 466.125 30.6875Q466.21875 31.140625 466.21875 32.3125L466.21875 34.65625Q466.21875 37.109375 466.32812 37.765625Q466.4375 38.40625 466.78125 39.0L464.9375 39.0Q464.67188 38.453125 464.59375 37.71875ZM464.4375 33.796875Q463.48438 34.1875 461.5625 34.453125Q460.48438 34.609375 460.03125 34.8125Q459.59375 35.0 459.34375 35.375Q459.09375 35.75 459.09375 36.21875Q459.09375 36.921875 459.625 37.390625Q460.15625 37.859375 461.1875 37.859375Q462.20312 37.859375 462.98438 37.421875Q463.78125 36.96875 464.15625 36.203125Q464.4375 35.59375 464.4375 34.4375L464.4375 33.796875ZM475.54688 39.0L475.54688 37.6875Q474.5625 39.234375 472.64062 39.234375Q471.40625 39.234375 470.35938 38.546875Q469.32812 37.859375 468.75 36.640625Q468.1875 35.421875 468.1875 33.828125Q468.1875 32.265625 468.70312 31.0Q469.21875 29.734375 470.25 29.0625Q471.29688 28.390625 472.5625 28.390625Q473.5 28.390625 474.23438 28.796875Q474.96875 29.1875 475.4375 29.8125L475.4375 24.6875L477.17188 24.6875L477.17188 39.0L475.54688 39.0ZM469.98438 33.828125Q469.98438 35.8125 470.82812 36.796875Q471.67188 37.78125 472.8125 37.78125Q473.96875 37.78125 474.76562 36.84375Q475.57812 35.90625 475.57812 33.96875Q475.57812 31.84375 474.75 30.84375Q473.9375 29.84375 472.73438 29.84375Q471.5625 29.84375 470.76562 30.8125Q469.98438 31.765625 469.98438 33.828125ZM485.40625 34.40625L487.1875 34.25Q487.3125 35.3125 487.76562 36.0Q488.23438 36.6875 489.20312 37.125Q490.1875 37.546875 491.42188 37.546875Q492.5 37.546875 493.32812 37.234375Q494.15625 36.90625 494.5625 36.34375Q494.96875 35.78125 494.96875 35.109375Q494.96875 34.4375 494.57812 33.9375Q494.1875 33.4375 493.29688 33.09375Q492.71875 32.859375 490.73438 32.390625Q488.76562 31.921875 487.98438 31.5Q486.95312 30.96875 486.45312 30.171875Q485.95312 29.375 485.95312 28.390625Q485.95312 27.296875 486.5625 26.359375Q487.17188 25.421875 488.35938 24.9375Q489.54688 24.4375 490.98438 24.4375Q492.57812 24.4375 493.79688 24.953125Q495.01562 25.46875 495.65625 26.46875Q496.3125 27.453125 496.35938 28.71875L494.54688 28.859375Q494.40625 27.5 493.5625 26.8125Q492.71875 26.109375 491.0625 26.109375Q489.34375 26.109375 488.54688 26.75Q487.76562 27.375 487.76562 28.25Q487.76562 29.03125 488.32812 29.53125Q488.875 30.03125 491.1875 30.546875Q493.5 31.0625 494.35938 31.453125Q495.60938 32.03125 496.20312 32.921875Q496.79688 33.796875 496.79688 34.953125Q496.79688 36.09375 496.14062 37.109375Q495.48438 38.125 494.25 38.6875Q493.03125 39.25 491.5 39.25Q489.5625 39.25 488.25 38.6875Q486.9375 38.109375 486.1875 36.96875Q485.4375 35.828125 485.40625 34.40625ZM498.82812 26.703125L498.82812 24.6875L500.59375 24.6875L500.59375 26.703125L498.82812 26.703125ZM498.82812 39.0L498.82812 28.625L500.59375 28.625L500.59375 39.0L498.82812 39.0ZM501.89062 39.0L501.89062 37.578125L508.5 30.0Q507.375 30.046875 506.51562 30.046875L502.28125 30.046875L502.28125 28.625L510.76562 28.625L510.76562 29.796875L505.14062 36.375L504.0625 37.578125Q505.23438 37.484375 506.28125 37.484375L511.07812 37.484375L511.07812 39.0L501.89062 39.0ZM519.9219 35.65625L521.7344 35.890625Q521.3125 37.46875 520.1406 38.359375Q518.9844 39.234375 517.1719 39.234375Q514.90625 39.234375 513.5625 37.84375Q512.2344 36.4375 512.2344 33.90625Q512.2344 31.28125 513.5781 29.84375Q514.9219 28.390625 517.0781 28.390625Q519.15625 28.390625 520.46875 29.8125Q521.7969 31.21875 521.7969 33.796875Q521.7969 33.953125 521.78125 34.265625L514.0469 34.265625Q514.1406 35.96875 515.0156 36.875Q515.8906 37.78125 517.1875 37.78125Q518.15625 37.78125 518.8281 37.28125Q519.5156 36.765625 519.9219 35.65625ZM514.1406 32.8125L519.9375 32.8125Q519.8281 31.515625 519.28125 30.859375Q518.4375 29.84375 517.09375 29.84375Q515.8906 29.84375 515.0625 30.65625Q514.2344 31.453125 514.1406 32.8125Z" fill-rule="nonzero"/></svg>