<svg version="1.1" viewBox="0.0 0.0 500.0 300.0" fill="none" stroke="none" stroke-linecap="square" stroke-miterlimit="10" width="500" height="300" xmlns:xlink="http://www.w3.org/1999/xlink" xmlns="http://www.w3.org/2000/svg"><path fill="#f0f4f9" d="M0 0L500.0 0L500.0 300.0L0 300.0L0 0Z" fill-rule="nonzero"/><path stroke="#bec1c5" stroke-width="1.0" stroke-linecap="butt" d="M132.5 56.5L132.5 209.5" fill-rule="nonzero"/><path stroke="#bec1c5" stroke-width="1.0" stroke-linecap="butt" d="M220.5 56.5L220.5 209.5" fill-rule="nonzero"/><path stroke="#bec1c5" stroke-width="1.0" stroke-linecap="butt" d="M308.5 56.5L308.5 209.5" fill-rule="nonzero"/><path stroke="#bec1c5" stroke-width="1.0" stroke-linecap="butt" d="M396.5 56.5L396.5 209.5" fill-rule="nonzero"/><path stroke="#bec1c5" stroke-width="1.0" stroke-linecap="butt" d="M485.5 56.5L485.5 209.5" fill-rule="nonzero"/><path stroke="#272728" stroke-width="1.0" stroke-linecap="butt" d="M88.5 209.5L485.5 209.5" fill-rule="nonzero"/><path stroke="#bec1c5" stroke-width="1.0" stroke-linecap="butt" d="M88.5 170.5L485.5 170.5" fill-rule="nonzero"/><path stroke="#bec1c5" stroke-width="1.0" stroke-linecap="butt" d="M88.5 132.5L485.5 132.5" fill-rule="nonzero"/><path stroke="#bec1c5" stroke-width="1.0" stroke-linecap="butt" d="M88.5 94.5L485.5 94.5" fill-rule="nonzero"/><path stroke="#bec1c5" stroke-width="1.0" stroke-linecap="butt" d="M88.5 56.5L485.5 56.5" fill-rule="nonzero"/><clipPath id="id_0"><path d="M88.0 56.0L485.0 56.0L485.0 209.0L88.0 209.0L88.0 56.0Z" clip-rule="nonzero"/></clipPath><path stroke="#0000ff" stroke-width="2.0" stroke-linecap="butt" clip-path="url(#id_0)" d="M88.0 59.133595L264.44446 67.11285L396.77777 70.451004L485.0 69.66137" fill-rule="nonzero"/><path stroke="#ff9900" stroke-width="2.0" stroke-linecap="butt" clip-path="url(#id_0)" d="M88.0 80.30757L264.44446 87.26433L396.77777 89.51495L485.0 88.92652" fill-rule="nonzero"/><path fill="#000000" fill-opacity="0.0" clip-path="url(#id_0)" d="M91.0 59.133595C91.0 60.790447 89.65685 62.133595 88.0 62.133595C86.34315 62.133595 85.0 60.790447 85.0 59.133595C85.0 57.476738 86.34315 56.133595 88.0 56.133595C89.65685 56.133595 91.0 57.476738 91.0 59.133595Z" fill-rule="nonzero"/><path fill="#000000" fill-opacity="0.0" clip-path="url(#id_0)" d="M267.44446 67.11285C267.44446 68.76971 266.1013 70.11285 264.44446 70.11285C262.7876 70.11285 261.44446 68.76971 261.44446 67.11285C261.44446 65.45599 262.7876 64.11285 264.44446 64.11285C266.1013 64.11285 267.44446 65.45599 267.44446 67.11285Z" fill-rule="nonzero"/><path fill="#000000" fill-opacity="0.0" clip-path="url(#id_0)" d="M399.77777 70.451004C399.77777 72.10786 398.43463 73.451004 396.77777 73.451004C395.1209 73.451004 393.77777 72.10786 393.77777 70.451004C393.77777 68.79415 395.1209 67.451004 396.77777 67.451004C398.43463 67.451004 399.77777 68.79415 399.77777 70.451004Z" fill-rule="nonzero"/><path fill="#000000" fill-opacity="0.0" clip-path="url(#id_0)" d="M488.0 69.66137C488.0 71.31822 486.65686 72.66137 485.0 72.66137C483.34314 72.66137 482.0 71.31822 482.0 69.66137C482.0 68.00452 483.34314 66.66137 485.0 66.66137C486.65686 66.66137 488.0 68.00452 488.0 69.66137Z" fill-rule="nonzero"/><path fill="#000000" fill-opacity="0.0" clip-path="url(#id_0)" d="M91.0 80.30757C91.0 81.964424 89.65685 83.30757 88.0 83.30757C86.34315 83.30757 85.0 81.964424 85.0 80.30757C85.0 78.65071 86.34315 77.30757 88.0 77.30757C89.65685 77.30757 91.0 78.65071 91.0 80.30757Z" fill-rule="nonzero"/><path fill="#000000" fill-opacity="0.0" clip-path="url(#id_0)" d="M267.44446 87.26433C267.44446 88.92118 266.1013 90.26433 264.44446 90.26433C262.7876 90.26433 261.44446 88.92118 261.44446 87.26433C261.44446 85.607475 262.7876 84.26433 264.44446 84.26433C266.1013 84.26433 267.44446 85.607475 267.44446 87.26433Z" fill-rule="nonzero"/><path fill="#000000" fill-opacity="0.0" clip-path="url(#id_0)" d="M399.77777 89.51495C399.77777 91.171814 398.43463 92.51495 396.77777 92.51495C395.1209 92.51495 393.77777 91.171814 393.77777 89.51495C393.77777 87.8581 395.1209 86.51495 396.77777 86.51495C398.43463 86.51495 399.77777 87.8581 399.77777 89.51495Z" fill-rule="nonzero"/><path fill="#000000" fill-opacity="0.0" clip-path="url(#id_0)" d="M488.0 88.92652C488.0 90.583374 486.65686 91.92652 485.0 91.92652C483.34314 91.92652 482.0 90.583374 482.0 88.92652C482.0 87.26966 483.34314 85.92652 485.0 85.92652C486.65686 85.92652 488.0 87.26966 488.0 88.92652Z" fill-rule="nonzero"/><path fill="#000000" d="M245.5625 254.98438L246.6875 255.28125Q246.32812 256.67188 245.40625 257.40625Q244.48438 258.14062 243.14062 258.14062Q241.75 258.14062 240.875 257.57812Q240.0 257.01562 239.54688 255.95312Q239.09375 254.875 239.09375 253.64062Q239.09375 252.29688 239.60938 251.29688Q240.125 250.29688 241.0625 249.78125Q242.01562 249.26562 243.15625 249.26562Q244.4375 249.26562 245.3125 249.92188Q246.20312 250.57812 246.54688 251.76562L245.42188 252.03125Q245.125 251.09375 244.54688 250.67188Q243.98438 250.23438 243.125 250.23438Q242.14062 250.23438 241.46875 250.71875Q240.8125 251.1875 240.53125 251.98438Q240.26562 252.78125 240.26562 253.64062Q240.26562 254.73438 240.57812 255.54688Q240.90625 256.35938 241.57812 256.76562Q242.25 257.17188 243.04688 257.17188Q244.0 257.17188 244.65625 256.625Q245.32812 256.07812 245.5625 254.98438ZM247.90625 254.89062Q247.90625 253.15625 248.85938 252.32812Q249.65625 251.64062 250.8125 251.64062Q252.09375 251.64062 252.90625 252.48438Q253.73438 253.3125 253.73438 254.79688Q253.73438 256.0 253.375 256.6875Q253.01562 257.375 252.3125 257.76562Q251.625 258.14062 250.8125 258.14062Q249.51562 258.14062 248.70312 257.3125Q247.90625 256.46875 247.90625 254.89062ZM248.98438 254.89062Q248.98438 256.07812 249.5 256.67188Q250.03125 257.26562 250.8125 257.26562Q251.60938 257.26562 252.125 256.67188Q252.64062 256.07812 252.64062 254.85938Q252.64062 253.70312 252.10938 253.10938Q251.59375 252.51562 250.8125 252.51562Q250.03125 252.51562 249.5 253.10938Q248.98438 253.6875 248.98438 254.89062ZM255.29688 258.0L255.29688 251.78125L256.23438 251.78125L256.23438 252.65625Q256.92188 251.64062 258.21875 251.64062Q258.78125 251.64062 259.25 251.84375Q259.73438 252.04688 259.96875 252.375Q260.20312 252.70312 260.29688 253.14062Q260.34375 253.4375 260.34375 254.17188L260.34375 258.0L259.29688 258.0L259.29688 254.21875Q259.29688 253.5625 259.17188 253.25Q259.04688 252.9375 258.73438 252.75Q258.42188 252.54688 258.0 252.54688Q257.32812 252.54688 256.82812 252.98438Q256.34375 253.40625 256.34375 254.59375L256.34375 258.0L255.29688 258.0ZM266.35938 255.71875L267.39062 255.85938Q267.21875 256.92188 266.51562 257.53125Q265.8125 258.14062 264.79688 258.14062Q263.51562 258.14062 262.73438 257.3125Q261.96875 256.46875 261.96875 254.90625Q261.96875 253.90625 262.29688 253.15625Q262.64062 252.39062 263.3125 252.01562Q264.0 251.64062 264.8125 251.64062Q265.8125 251.64062 266.45312 252.15625Q267.10938 252.65625 267.29688 253.60938L266.26562 253.76562Q266.125 253.14062 265.75 252.82812Q265.375 252.5 264.84375 252.5Q264.04688 252.5 263.54688 253.07812Q263.04688 253.64062 263.04688 254.875Q263.04688 256.14062 263.53125 256.70312Q264.01562 257.26562 264.78125 257.26562Q265.40625 257.26562 265.8125 256.89062Q266.23438 256.51562 266.35938 255.71875ZM272.375 258.0L272.375 257.07812Q271.64062 258.14062 270.39062 258.14062Q269.84375 258.14062 269.35938 257.9375Q268.89062 257.71875 268.65625 257.40625Q268.42188 257.07812 268.32812 256.60938Q268.26562 256.3125 268.26562 255.625L268.26562 251.78125L269.32812 251.78125L269.32812 255.23438Q269.32812 256.04688 269.39062 256.34375Q269.48438 256.75 269.79688 257.0Q270.125 257.23438 270.60938 257.23438Q271.07812 257.23438 271.48438 257.0Q271.90625 256.75 272.07812 256.32812Q272.26562 255.90625 272.26562 255.10938L272.26562 251.78125L273.3125 251.78125L273.3125 258.0L272.375 258.0ZM275.28125 258.0L275.28125 251.78125L276.23438 251.78125L276.23438 252.71875Q276.59375 252.0625 276.89062 251.85938Q277.20312 251.64062 277.57812 251.64062Q278.10938 251.64062 278.65625 251.96875L278.29688 252.95312Q277.90625 252.71875 277.53125 252.71875Q277.17188 252.71875 276.89062 252.9375Q276.625 253.14062 276.51562 253.51562Q276.32812 254.07812 276.32812 254.73438L276.32812 258.0L275.28125 258.0ZM279.28125 258.0L279.28125 251.78125L280.23438 251.78125L280.23438 252.71875Q280.59375 252.0625 280.89062 251.85938Q281.20312 251.64062 281.57812 251.64062Q282.10938 251.64062 282.65625 251.96875L282.29688 252.95312Q281.90625 252.71875 281.53125 252.71875Q281.17188 252.71875 280.89062 252.9375Q280.625 253.14062 280.51562 253.51562Q280.32812 254.07812 280.32812 254.73438L280.32812 258.0L279.28125 258.0ZM287.54688 256.0L288.64062 256.125Q288.39062 257.07812 287.6875 257.60938Q286.98438 258.14062 285.90625 258.14062Q284.54688 258.14062 283.73438 257.29688Q282.9375 256.45312 282.9375 254.9375Q282.9375 253.375 283.75 252.51562Q284.5625 251.64062 285.84375 251.64062Q287.09375 251.64062 287.875 252.48438Q288.67188 253.32812 288.67188 254.875Q288.67188 254.96875 288.67188 255.15625L284.03125 255.15625Q284.09375 256.1875 284.60938 256.73438Q285.125 257.26562 285.90625 257.26562Q286.48438 257.26562 286.89062 256.96875Q287.3125 256.65625 287.54688 256.0ZM284.09375 254.29688L287.5625 254.29688Q287.5 253.5 287.17188 253.10938Q286.65625 252.5 285.85938 252.5Q285.125 252.5 284.625 252.98438Q284.14062 253.46875 284.09375 254.29688ZM290.29688 258.0L290.29688 251.78125L291.23438 251.78125L291.23438 252.65625Q291.92188 251.64062 293.21875 251.64062Q293.78125 251.64062 294.25 251.84375Q294.73438 252.04688 294.96875 252.375Q295.20312 252.70312 295.29688 253.14062Q295.34375 253.4375 295.34375 254.17188L295.34375 258.0L294.29688 258.0L294.29688 254.21875Q294.29688 253.5625 294.17188 253.25Q294.04688 252.9375 293.73438 252.75Q293.42188 252.54688 293.0 252.54688Q292.32812 252.54688 291.82812 252.98438Q291.34375 253.40625 291.34375 254.59375L291.34375 258.0L290.29688 258.0ZM299.59375 257.0625L299.75 257.98438Q299.29688 258.07812 298.95312 258.07812Q298.375 258.07812 298.0625 257.90625Q297.75 257.71875 297.60938 257.42188Q297.48438 257.125 297.48438 256.17188L297.48438 252.59375L296.71875 252.59375L296.71875 251.78125L297.48438 251.78125L297.48438 250.23438L298.53125 249.60938L298.53125 251.78125L299.59375 251.78125L299.59375 252.59375L298.53125 252.59375L298.53125 256.23438Q298.53125 256.6875 298.57812 256.8125Q298.64062 256.9375 298.76562 257.01562Q298.89062 257.09375 299.125 257.09375Q299.3125 257.09375 299.59375 257.0625ZM309.0625 249.40625L310.20312 249.40625L310.20312 254.375Q310.20312 255.67188 309.90625 256.4375Q309.60938 257.1875 308.84375 257.67188Q308.07812 258.14062 306.84375 258.14062Q305.64062 258.14062 304.85938 257.73438Q304.09375 257.3125 303.76562 256.53125Q303.4375 255.73438 303.4375 254.375L303.4375 249.40625L304.57812 249.40625L304.57812 254.35938Q304.57812 255.48438 304.78125 256.01562Q305.0 256.54688 305.5 256.84375Q306.01562 257.125 306.75 257.125Q308.0 257.125 308.53125 256.5625Q309.0625 255.98438 309.0625 254.35938L309.0625 249.40625ZM311.875 256.14062L312.90625 255.98438Q313.0 256.60938 313.39062 256.9375Q313.79688 257.26562 314.53125 257.26562Q315.25 257.26562 315.59375 256.98438Q315.95312 256.6875 315.95312 256.28125Q315.95312 255.92188 315.64062 255.71875Q315.42188 255.57812 314.5625 255.35938Q313.40625 255.0625 312.95312 254.85938Q312.51562 254.64062 312.28125 254.26562Q312.04688 253.89062 312.04688 253.42188Q312.04688 253.01562 312.23438 252.65625Q312.42188 252.29688 312.75 252.0625Q313.0 251.89062 313.42188 251.76562Q313.84375 251.64062 314.34375 251.64062Q315.0625 251.64062 315.60938 251.85938Q316.17188 252.0625 316.4375 252.42188Q316.70312 252.78125 316.79688 253.375L315.76562 253.51562Q315.70312 253.04688 315.35938 252.78125Q315.03125 252.5 314.40625 252.5Q313.6875 252.5 313.375 252.75Q313.0625 252.98438 313.0625 253.3125Q313.0625 253.51562 313.1875 253.67188Q313.32812 253.84375 313.59375 253.95312Q313.75 254.01562 314.53125 254.21875Q315.65625 254.53125 316.09375 254.71875Q316.53125 254.90625 316.78125 255.26562Q317.03125 255.625 317.03125 256.17188Q317.03125 256.70312 316.71875 257.17188Q316.42188 257.625 315.84375 257.89062Q315.26562 258.14062 314.53125 258.14062Q313.3125 258.14062 312.67188 257.64062Q312.04688 257.125 311.875 256.14062ZM322.54688 256.0L323.64062 256.125Q323.39062 257.07812 322.6875 257.60938Q321.98438 258.14062 320.90625 258.14062Q319.54688 258.14062 318.73438 257.29688Q317.9375 256.45312 317.9375 254.9375Q317.9375 253.375 318.75 252.51562Q319.5625 251.64062 320.84375 251.64062Q322.09375 251.64062 322.875 252.48438Q323.67188 253.32812 323.67188 254.875Q323.67188 254.96875 323.67188 255.15625L319.03125 255.15625Q319.09375 256.1875 319.60938 256.73438Q320.125 257.26562 320.90625 257.26562Q321.48438 257.26562 321.89062 256.96875Q322.3125 256.65625 322.54688 256.0ZM319.09375 254.29688L322.5625 254.29688Q322.5 253.5 322.17188 253.10938Q321.65625 252.5 320.85938 252.5Q320.125 252.5 319.625 252.98438Q319.14062 253.46875 319.09375 254.29688ZM325.28125 258.0L325.28125 251.78125L326.23438 251.78125L326.23438 252.71875Q326.59375 252.0625 326.89062 251.85938Q327.20312 251.64062 327.57812 251.64062Q328.10938 251.64062 328.65625 251.96875L328.29688 252.95312Q327.90625 252.71875 327.53125 252.71875Q327.17188 252.71875 326.89062 252.9375Q326.625 253.14062 326.51562 253.51562Q326.32812 254.07812 326.32812 254.73438L326.32812 258.0L325.28125 258.0ZM328.875 256.14062L329.90625 255.98438Q330.0 256.60938 330.39062 256.9375Q330.79688 257.26562 331.53125 257.26562Q332.25 257.26562 332.59375 256.98438Q332.95312 256.6875 332.95312 256.28125Q332.95312 255.92188 332.64062 255.71875Q332.42188 255.57812 331.5625 255.35938Q330.40625 255.0625 329.95312 254.85938Q329.51562 254.64062 329.28125 254.26562Q329.04688 253.89062 329.04688 253.42188Q329.04688 253.01562 329.23438 252.65625Q329.42188 252.29688 329.75 252.0625Q330.0 251.89062 330.42188 251.76562Q330.84375 251.64062 331.34375 251.64062Q332.0625 251.64062 332.60938 251.85938Q333.17188 252.0625 333.4375 252.42188Q333.70312 252.78125 333.79688 253.375L332.76562 253.51562Q332.70312 253.04688 332.35938 252.78125Q332.03125 252.5 331.40625 252.5Q330.6875 252.5 330.375 252.75Q330.0625 252.98438 330.0625 253.3125Q330.0625 253.51562 330.1875 253.67188Q330.32812 253.84375 330.59375 253.95312Q330.75 254.01562 331.53125 254.21875Q332.65625 254.53125 333.09375 254.71875Q333.53125 254.90625 333.78125 255.26562Q334.03125 255.625 334.03125 256.17188Q334.03125 256.70312 333.71875 257.17188Q333.42188 257.625 332.84375 257.89062Q332.26562 258.14062 331.53125 258.14062Q330.3125 258.14062 329.67188 257.64062Q329.04688 257.125 328.875 256.14062Z" fill-rule="nonzero"/><path fill="#000000" d="M26.0 209.89062L18.421875 209.89062L18.421875 212.71875L17.40625 212.71875L17.40625 205.90625L18.421875 205.90625L18.421875 208.75L26.0 208.75L26.0 209.89062ZM26.0 205.20312L17.40625 205.20312L17.40625 204.15625L20.484375 204.15625Q19.640625 203.42188 19.640625 202.29688Q19.640625 201.59375 19.921875 201.09375Q20.1875 200.57812 20.671875 200.35938Q21.140625 200.14062 22.0625 200.14062L26.0 200.14062L26.0 201.1875L22.0625 201.1875Q21.265625 201.1875 20.90625 201.53125Q20.546875 201.875 20.546875 202.5Q20.546875 202.96875 20.796875 203.39062Q21.03125 203.79688 21.453125 203.98438Q21.859375 204.15625 22.59375 204.15625L26.0 204.15625L26.0 205.20312ZM26.0 198.21875L19.78125 198.21875L19.78125 197.26562L20.71875 197.26562Q20.0625 196.90625 19.859375 196.60938Q19.640625 196.29688 19.640625 195.92188Q19.640625 195.39062 19.96875 194.84375L20.953125 195.20312Q20.71875 195.59375 20.71875 195.96875Q20.71875 196.32812 20.9375 196.60938Q21.140625 196.875 21.515625 196.98438Q22.078125 197.17188 22.734375 197.17188L26.0 197.17188L26.0 198.21875ZM22.890625 194.59375Q21.15625 194.59375 20.328125 193.64062Q19.640625 192.84375 19.640625 191.6875Q19.640625 190.40625 20.484375 189.59375Q21.3125 188.76562 22.796875 188.76562Q24.0 188.76562 24.6875 189.125Q25.375 189.48438 25.765625 190.1875Q26.140625 190.875 26.140625 191.6875Q26.140625 192.98438 25.3125 193.79688Q24.46875 194.59375 22.890625 194.59375ZM22.890625 193.51562Q24.078125 193.51562 24.671875 193.0Q25.265625 192.46875 25.265625 191.6875Q25.265625 190.89062 24.671875 190.375Q24.078125 189.85938 22.859375 189.85938Q21.703125 189.85938 21.109375 190.39062Q20.515625 190.90625 20.515625 191.6875Q20.515625 192.46875 21.109375 193.0Q21.6875 193.51562 22.890625 193.51562ZM26.0 183.125L25.078125 183.125Q26.140625 183.85938 26.140625 185.10938Q26.140625 185.65625 25.9375 186.14062Q25.71875 186.60938 25.40625 186.84375Q25.078125 187.07812 24.609375 187.17188Q24.3125 187.23438 23.625 187.23438L19.78125 187.23438L19.78125 186.17188L23.234375 186.17188Q24.046875 186.17188 24.34375 186.10938Q24.75 186.01562 25.0 185.70312Q25.234375 185.375 25.234375 184.89062Q25.234375 184.42188 25.0 184.01562Q24.75 183.59375 24.328125 183.42188Q23.90625 183.23438 23.109375 183.23438L19.78125 183.23438L19.78125 182.1875L26.0 182.1875L26.0 183.125ZM26.515625 180.40625L26.671875 179.375Q27.140625 179.3125 27.359375 179.01562Q27.65625 178.625 27.65625 177.95312Q27.65625 177.21875 27.359375 176.82812Q27.0625 176.42188 26.546875 176.28125Q26.21875 176.1875 25.1875 176.20312Q26.0 176.89062 26.0 177.92188Q26.0 179.20312 25.078125 179.90625Q24.140625 180.60938 22.859375 180.60938Q21.96875 180.60938 21.21875 180.29688Q20.453125 179.96875 20.046875 179.35938Q19.640625 178.75 19.640625 177.92188Q19.640625 176.8125 20.53125 176.09375L19.78125 176.09375L19.78125 175.125L25.15625 175.125Q26.609375 175.125 27.21875 175.42188Q27.828125 175.71875 28.171875 176.35938Q28.53125 177.0 28.53125 177.9375Q28.53125 179.04688 28.03125 179.73438Q27.53125 180.42188 26.515625 180.40625ZM22.78125 179.53125Q24.0 179.53125 24.5625 179.04688Q25.125 178.5625 25.125 177.82812Q25.125 177.09375 24.5625 176.60938Q24.0 176.10938 22.8125 176.10938Q21.671875 176.10938 21.09375 176.625Q20.515625 177.125 20.515625 177.84375Q20.515625 178.54688 21.09375 179.04688Q21.65625 179.53125 22.78125 179.53125ZM26.0 173.20312L17.40625 173.20312L17.40625 172.15625L20.484375 172.15625Q19.640625 171.42188 19.640625 170.29688Q19.640625 169.59375 19.921875 169.09375Q20.1875 168.57812 20.671875 168.35938Q21.140625 168.14062 22.0625 168.14062L26.0 168.14062L26.0 169.1875L22.0625 169.1875Q21.265625 169.1875 20.90625 169.53125Q20.546875 169.875 20.546875 170.5Q20.546875 170.96875 20.796875 171.39062Q21.03125 171.79688 21.453125 171.98438Q21.859375 172.15625 22.59375 172.15625L26.0 172.15625L26.0 173.20312ZM28.390625 166.20312L19.78125 166.20312L19.78125 165.25L20.578125 165.25Q20.109375 164.90625 19.875 164.48438Q19.640625 164.04688 19.640625 163.4375Q19.640625 162.64062 20.046875 162.03125Q20.453125 161.42188 21.203125 161.125Q21.953125 160.8125 22.84375 160.8125Q23.796875 160.8125 24.5625 161.15625Q25.328125 161.48438 25.734375 162.14062Q26.140625 162.79688 26.140625 163.51562Q26.140625 164.04688 25.921875 164.46875Q25.6875 164.89062 25.359375 165.15625L28.390625 165.15625L28.390625 166.20312ZM22.921875 165.25Q24.125 165.25 24.703125 164.76562Q25.265625 164.28125 25.265625 163.59375Q25.265625 162.89062 24.671875 162.39062Q24.078125 161.89062 22.828125 161.89062Q21.640625 161.89062 21.0625 162.375Q20.46875 162.85938 20.46875 163.54688Q20.46875 164.21875 21.09375 164.73438Q21.71875 165.25 22.921875 165.25ZM26.0 155.125L25.078125 155.125Q26.140625 155.85938 26.140625 157.10938Q26.140625 157.65625 25.9375 158.14062Q25.71875 158.60938 25.40625 158.84375Q25.078125 159.07812 24.609375 159.17188Q24.3125 159.23438 23.625 159.23438L19.78125 159.23438L19.78125 158.17188L23.234375 158.17188Q24.046875 158.17188 24.34375 158.10938Q24.75 158.01562 25.0 157.70312Q25.234375 157.375 25.234375 156.89062Q25.234375 156.42188 25.0 156.01562Q24.75 155.59375 24.328125 155.42188Q23.90625 155.23438 23.109375 155.23438L19.78125 155.23438L19.78125 154.1875L26.0 154.1875L26.0 155.125ZM25.0625 149.90625L25.984375 149.75Q26.078125 150.20312 26.078125 150.54688Q26.078125 151.125 25.90625 151.4375Q25.71875 151.75 25.421875 151.89062Q25.125 152.01562 24.171875 152.01562L20.59375 152.01562L20.59375 152.78125L19.78125 152.78125L19.78125 152.01562L18.234375 152.01562L17.609375 150.96875L19.78125 150.96875L19.78125 149.90625L20.59375 149.90625L20.59375 150.96875L24.234375 150.96875Q24.6875 150.96875 24.8125 150.92188Q24.9375 150.85938 25.015625 150.73438Q25.09375 150.60938 25.09375 150.375Q25.09375 150.1875 25.0625 149.90625ZM28.53125 144.1875Q27.421875 145.0625 25.953125 145.67188Q24.46875 146.26562 22.890625 146.26562Q21.5 146.26562 20.21875 145.82812Q18.734375 145.29688 17.265625 144.1875L17.265625 143.4375Q18.484375 144.14062 19.0 144.375Q19.8125 144.73438 20.6875 144.9375Q21.78125 145.1875 22.890625 145.1875Q25.71875 145.1875 28.53125 143.4375L28.53125 144.1875ZM26.0 142.0625L17.40625 142.0625L17.40625 138.25Q17.40625 137.09375 17.640625 136.5Q17.875 135.90625 18.46875 135.54688Q19.046875 135.1875 19.75 135.1875Q20.671875 135.1875 21.296875 135.78125Q21.921875 136.375 22.09375 137.60938Q22.3125 137.15625 22.515625 136.92188Q22.96875 136.42188 23.65625 135.98438L26.0 134.48438L26.0 135.92188L24.21875 137.04688Q23.4375 137.54688 23.03125 137.875Q22.625 138.1875 22.46875 138.45312Q22.296875 138.70312 22.21875 138.96875Q22.1875 139.15625 22.1875 139.59375L22.1875 140.92188L26.0 140.92188L26.0 142.0625ZM21.203125 140.92188L21.203125 138.46875Q21.203125 137.70312 21.046875 137.26562Q20.875 136.8125 20.53125 136.59375Q20.171875 136.35938 19.75 136.35938Q19.140625 136.35938 18.75 136.8125Q18.359375 137.25 18.359375 138.20312L18.359375 140.92188L21.203125 140.92188ZM24.0 128.95312L24.125 127.859375Q25.078125 128.10938 25.609375 128.8125Q26.140625 129.51562 26.140625 130.59375Q26.140625 131.95312 25.296875 132.76562Q24.453125 133.5625 22.9375 133.5625Q21.375 133.5625 20.515625 132.75Q19.640625 131.9375 19.640625 130.65625Q19.640625 129.40625 20.484375 128.625Q21.328125 127.828125 22.875 127.828125Q22.96875 127.828125 23.15625 127.828125L23.15625 132.46875Q24.1875 132.40625 24.734375 131.89062Q25.265625 131.375 25.265625 130.59375Q25.265625 130.01562 24.96875 129.60938Q24.65625 129.1875 24.0 128.95312ZM22.296875 132.40625L22.296875 128.9375Q21.5 129.0 21.109375 129.32812Q20.5 129.84375 20.5 130.64062Q20.5 131.375 20.984375 131.875Q21.46875 132.35938 22.296875 132.40625ZM28.390625 122.234375L25.34375 122.234375Q25.6875 122.484375 25.921875 122.9375Q26.140625 123.375 26.140625 123.875Q26.140625 124.984375 25.265625 125.78125Q24.375 126.578125 22.828125 126.578125Q21.890625 126.578125 21.15625 126.25Q20.40625 125.921875 20.03125 125.3125Q19.640625 124.6875 19.640625 123.953125Q19.640625 122.796875 20.609375 122.140625L19.78125 122.140625L19.78125 121.1875L28.390625 121.1875L28.390625 122.234375ZM22.875 125.5Q24.078125 125.5 24.671875 125.0Q25.265625 124.484375 25.265625 123.78125Q25.265625 123.109375 24.703125 122.625Q24.125 122.140625 22.96875 122.140625Q21.71875 122.140625 21.09375 122.65625Q20.46875 123.15625 20.46875 123.859375Q20.46875 124.53125 21.0625 125.015625Q21.640625 125.5 22.875 125.5ZM26.0 115.125L25.078125 115.125Q26.140625 115.859375 26.140625 117.109375Q26.140625 117.65625 25.9375 118.140625Q25.71875 118.609375 25.40625 118.84375Q25.078125 119.078125 24.609375 119.171875Q24.3125 119.234375 23.625 119.234375L19.78125 119.234375L19.78125 118.171875L23.234375 118.171875Q24.046875 118.171875 24.34375 118.109375Q24.75 118.015625 25.0 117.703125Q25.234375 117.375 25.234375 116.890625Q25.234375 116.421875 25.0 116.015625Q24.75 115.59375 24.328125 115.421875Q23.90625 115.234375 23.109375 115.234375L19.78125 115.234375L19.78125 114.1875L26.0 114.1875L26.0 115.125ZM24.0 107.953125L24.125 106.859375Q25.078125 107.109375 25.609375 107.8125Q26.140625 108.515625 26.140625 109.59375Q26.140625 110.953125 25.296875 111.765625Q24.453125 112.5625 22.9375 112.5625Q21.375 112.5625 20.515625 111.75Q19.640625 110.9375 19.640625 109.65625Q19.640625 108.40625 20.484375 107.625Q21.328125 106.828125 22.875 106.828125Q22.96875 106.828125 23.15625 106.828125L23.15625 111.46875Q24.1875 111.40625 24.734375 110.890625Q25.265625 110.375 25.265625 109.59375Q25.265625 109.015625 24.96875 108.609375Q24.65625 108.1875 24.0 107.953125ZM22.296875 111.40625L22.296875 107.9375Q21.5 108.0 21.109375 108.328125Q20.5 108.84375 20.5 109.640625Q20.5 110.375 20.984375 110.875Q21.46875 111.359375 22.296875 111.40625ZM24.140625 105.625L23.984375 104.59375Q24.609375 104.5 24.9375 104.109375Q25.265625 103.703125 25.265625 102.96875Q25.265625 102.25 24.984375 101.90625Q24.6875 101.546875 24.28125 101.546875Q23.921875 101.546875 23.71875 101.859375Q23.578125 102.078125 23.359375 102.9375Q23.0625 104.09375 22.859375 104.546875Q22.640625 104.984375 22.265625 105.21875Q21.890625 105.453125 21.421875 105.453125Q21.015625 105.453125 20.65625 105.265625Q20.296875 105.078125 20.0625 104.75Q19.890625 104.5 19.765625 104.078125Q19.640625 103.65625 19.640625 103.15625Q19.640625 102.4375 19.859375 101.890625Q20.0625 101.328125 20.421875 101.0625Q20.78125 100.796875 21.375 100.703125L21.515625 101.734375Q21.046875 101.796875 20.78125 102.140625Q20.5 102.46875 20.5 103.09375Q20.5 103.8125 20.75 104.125Q20.984375 104.4375 21.3125 104.4375Q21.515625 104.4375 21.671875 104.3125Q21.84375 104.171875 21.953125 103.90625Q22.015625 103.75 22.21875 102.96875Q22.53125 101.84375 22.71875 101.40625Q22.90625 100.96875 23.265625 100.71875Q23.625 100.46875 24.171875 100.46875Q24.703125 100.46875 25.171875 100.78125Q25.625 101.078125 25.890625 101.65625Q26.140625 102.234375 26.140625 102.96875Q26.140625 104.1875 25.640625 104.828125Q25.125 105.453125 24.140625 105.625ZM25.0625 96.90625L25.984375 96.75Q26.078125 97.203125 26.078125 97.546875Q26.078125 98.125 25.90625 98.4375Q25.71875 98.75 25.421875 98.890625Q25.125 99.015625 24.171875 99.015625L20.59375 99.015625L20.59375 99.78125L19.78125 99.78125L19.78125 99.015625L18.234375 99.015625L17.609375 97.96875L19.78125 97.96875L19.78125 96.90625L20.59375 96.90625L20.59375 97.96875L24.234375 97.96875Q24.6875 97.96875 24.8125 97.921875Q24.9375 97.859375 25.015625 97.734375Q25.09375 97.609375 25.09375 97.375Q25.09375 97.1875 25.0625 96.90625ZM24.140625 96.625L23.984375 95.59375Q24.609375 95.5 24.9375 95.109375Q25.265625 94.703125 25.265625 93.96875Q25.265625 93.25 24.984375 92.90625Q24.6875 92.546875 24.28125 92.546875Q23.921875 92.546875 23.71875 92.859375Q23.578125 93.078125 23.359375 93.9375Q23.0625 95.09375 22.859375 95.546875Q22.640625 95.984375 22.265625 96.21875Q21.890625 96.453125 21.421875 96.453125Q21.015625 96.453125 20.65625 96.265625Q20.296875 96.078125 20.0625 95.75Q19.890625 95.5 19.765625 95.078125Q19.640625 94.65625 19.640625 94.15625Q19.640625 93.4375 19.859375 92.890625Q20.0625 92.328125 20.421875 92.0625Q20.78125 91.796875 21.375 91.703125L21.515625 92.734375Q21.046875 92.796875 20.78125 93.140625Q20.5 93.46875 20.5 94.09375Q20.5 94.8125 20.75 95.125Q20.984375 95.4375 21.3125 95.4375Q21.515625 95.4375 21.671875 95.3125Q21.84375 95.171875 21.953125 94.90625Q22.015625 94.75 22.21875 93.96875Q22.53125 92.84375 22.71875 92.40625Q22.90625 91.96875 23.265625 91.71875Q23.625 91.46875 24.171875 91.46875Q24.703125 91.46875 25.171875 91.78125Q25.625 92.078125 25.890625 92.65625Q26.140625 93.234375 26.140625 93.96875Q26.140625 95.1875 25.640625 95.828125Q25.125 96.453125 24.140625 96.625ZM26.140625 91.0L17.265625 88.515625L17.265625 87.671875L26.140625 90.15625L26.140625 91.0ZM24.140625 87.625L23.984375 86.59375Q24.609375 86.5 24.9375 86.109375Q25.265625 85.703125 25.265625 84.96875Q25.265625 84.25 24.984375 83.90625Q24.6875 83.546875 24.28125 83.546875Q23.921875 83.546875 23.71875 83.859375Q23.578125 84.078125 23.359375 84.9375Q23.0625 86.09375 22.859375 86.546875Q22.640625 86.984375 22.265625 87.21875Q21.890625 87.453125 21.421875 87.453125Q21.015625 87.453125 20.65625 87.265625Q20.296875 87.078125 20.0625 86.75Q19.890625 86.5 19.765625 86.078125Q19.640625 85.65625 19.640625 85.15625Q19.640625 84.4375 19.859375 83.890625Q20.0625 83.328125 20.421875 83.0625Q20.78125 82.796875 21.375 82.703125L21.515625 83.734375Q21.046875 83.796875 20.78125 84.140625Q20.5 84.46875 20.5 85.09375Q20.5 85.8125 20.75 86.125Q20.984375 86.4375 21.3125 86.4375Q21.515625 86.4375 21.671875 86.3125Q21.84375 86.171875 21.953125 85.90625Q22.015625 85.75 22.21875 84.96875Q22.53125 83.84375 22.71875 83.40625Q22.90625 82.96875 23.265625 82.71875Q23.625 82.46875 24.171875 82.46875Q24.703125 82.46875 25.171875 82.78125Q25.625 83.078125 25.890625 83.65625Q26.140625 84.234375 26.140625 84.96875Q26.140625 86.1875 25.640625 86.828125Q25.125 87.453125 24.140625 87.625ZM24.0 76.953125L24.125 75.859375Q25.078125 76.109375 25.609375 76.8125Q26.140625 77.515625 26.140625 78.59375Q26.140625 79.953125 25.296875 80.765625Q24.453125 81.5625 22.9375 81.5625Q21.375 81.5625 20.515625 80.75Q19.640625 79.9375 19.640625 78.65625Q19.640625 77.40625 20.484375 76.625Q21.328125 75.828125 22.875 75.828125Q22.96875 75.828125 23.15625 75.828125L23.15625 80.46875Q24.1875 80.40625 24.734375 79.890625Q25.265625 79.375 25.265625 78.59375Q25.265625 78.015625 24.96875 77.609375Q24.65625 77.1875 24.0 76.953125ZM22.296875 80.40625L22.296875 76.9375Q21.5 77.0 21.109375 77.328125Q20.5 77.84375 20.5 78.640625Q20.5 79.375 20.984375 79.875Q21.46875 80.359375 22.296875 80.40625ZM23.71875 70.140625L23.859375 69.109375Q24.921875 69.28125 25.53125 69.984375Q26.140625 70.6875 26.140625 71.703125Q26.140625 72.984375 25.3125 73.765625Q24.46875 74.53125 22.90625 74.53125Q21.90625 74.53125 21.15625 74.203125Q20.390625 73.859375 20.015625 73.1875Q19.640625 72.5 19.640625 71.6875Q19.640625 70.6875 20.15625 70.046875Q20.65625 69.390625 21.609375 69.203125L21.765625 70.234375Q21.140625 70.375 20.828125 70.75Q20.5 71.125 20.5 71.65625Q20.5 72.453125 21.078125 72.953125Q21.640625 73.453125 22.875 73.453125Q24.140625 73.453125 24.703125 72.96875Q25.265625 72.484375 25.265625 71.71875Q25.265625 71.09375 24.890625 70.6875Q24.515625 70.265625 23.71875 70.140625ZM28.53125 67.515625L28.53125 68.265625Q25.71875 66.515625 22.890625 66.515625Q21.796875 66.515625 20.703125 66.765625Q19.828125 66.96875 19.015625 67.328125Q18.5 67.5625 17.265625 68.265625L17.265625 67.515625Q18.734375 66.421875 20.21875 65.890625Q21.5 65.4375 22.890625 65.4375Q24.46875 65.4375 25.953125 66.046875Q27.421875 66.65625 28.53125 67.515625Z" fill-rule="nonzero"/><path fill="#000000" d="M75.5 208.76562Q75.5 207.23438 75.8125 206.3125Q76.125 205.375 76.734375 204.875Q77.359375 204.375 78.296875 204.375Q78.984375 204.375 79.5 204.65625Q80.03125 204.9375 80.375 205.46875Q80.71875 205.98438 80.90625 206.73438Q81.09375 207.48438 81.09375 208.76562Q81.09375 210.28125 80.78125 211.20312Q80.484375 212.125 79.859375 212.64062Q79.25 213.14062 78.296875 213.14062Q77.0625 213.14062 76.34375 212.25Q75.5 211.1875 75.5 208.76562ZM76.578125 208.76562Q76.578125 210.875 77.078125 211.57812Q77.578125 212.28125 78.296875 212.28125Q79.03125 212.28125 79.515625 211.57812Q80.015625 210.875 80.015625 208.76562Q80.015625 206.64062 79.515625 205.95312Q79.03125 205.25 78.28125 205.25Q77.5625 205.25 77.125 205.85938Q76.578125 206.64062 76.578125 208.76562Z" fill-rule="nonzero"/><path fill="#000000" d="M60.046875 173.73438L60.046875 174.75L54.359375 174.75Q54.359375 174.375 54.484375 174.01562Q54.703125 173.4375 55.171875 172.875Q55.65625 172.3125 56.5625 171.57812Q57.96875 170.42188 58.453125 169.75Q58.953125 169.07812 58.953125 168.48438Q58.953125 167.85938 58.5 167.4375Q58.046875 167.0 57.328125 167.0Q56.5625 167.0 56.109375 167.45312Q55.65625 167.90625 55.640625 168.71875L54.5625 168.60938Q54.671875 167.39062 55.390625 166.76562Q56.125 166.125 57.359375 166.125Q58.59375 166.125 59.3125 166.8125Q60.03125 167.5 60.03125 168.51562Q60.03125 169.03125 59.8125 169.53125Q59.609375 170.01562 59.109375 170.57812Q58.625 171.125 57.5 172.07812Q56.546875 172.875 56.265625 173.17188Q56.0 173.45312 55.828125 173.73438L60.046875 173.73438ZM61.5 172.5L62.609375 172.40625Q62.734375 173.21875 63.171875 173.625Q63.625 174.03125 64.265625 174.03125Q65.015625 174.03125 65.546875 173.45312Q66.078125 172.875 66.078125 171.9375Q66.078125 171.03125 65.5625 170.51562Q65.0625 169.98438 64.234375 169.98438Q63.734375 169.98438 63.3125 170.21875Q62.90625 170.45312 62.671875 170.8125L61.6875 170.6875L62.515625 166.28125L66.796875 166.28125L66.796875 167.28125L63.359375 167.28125L62.90625 169.59375Q63.671875 169.04688 64.515625 169.04688Q65.640625 169.04688 66.40625 169.82812Q67.1875 170.60938 67.1875 171.84375Q67.1875 173.0 66.515625 173.85938Q65.6875 174.89062 64.265625 174.89062Q63.09375 174.89062 62.34375 174.23438Q61.609375 173.57812 61.5 172.5ZM68.5 170.51562Q68.5 168.98438 68.8125 168.0625Q69.125 167.125 69.734375 166.625Q70.359375 166.125 71.296875 166.125Q71.984375 166.125 72.5 166.40625Q73.03125 166.6875 73.375 167.21875Q73.71875 167.73438 73.90625 168.48438Q74.09375 169.23438 74.09375 170.51562Q74.09375 172.03125 73.78125 172.95312Q73.484375 173.875 72.859375 174.39062Q72.25 174.89062 71.296875 174.89062Q70.0625 174.89062 69.34375 174.0Q68.5 172.9375 68.5 170.51562ZM69.578125 170.51562Q69.578125 172.625 70.078125 173.32812Q70.578125 174.03125 71.296875 174.03125Q72.03125 174.03125 72.515625 173.32812Q73.015625 172.625 73.015625 170.51562Q73.015625 168.39062 72.515625 167.70312Q72.03125 167.0 71.28125 167.0Q70.5625 167.0 70.125 167.60938Q69.578125 168.39062 69.578125 170.51562ZM75.5 170.51562Q75.5 168.98438 75.8125 168.0625Q76.125 167.125 76.734375 166.625Q77.359375 166.125 78.296875 166.125Q78.984375 166.125 79.5 166.40625Q80.03125 166.6875 80.375 167.21875Q80.71875 167.73438 80.90625 168.48438Q81.09375 169.23438 81.09375 170.51562Q81.09375 172.03125 80.78125 172.95312Q80.484375 173.875 79.859375 174.39062Q79.25 174.89062 78.296875 174.89062Q77.0625 174.89062 76.34375 174.0Q75.5 172.9375 75.5 170.51562ZM76.578125 170.51562Q76.578125 172.625 77.078125 173.32812Q77.578125 174.03125 78.296875 174.03125Q79.03125 174.03125 79.515625 173.32812Q80.015625 172.625 80.015625 170.51562Q80.015625 168.39062 79.515625 167.70312Q79.03125 167.0 78.28125 167.0Q77.5625 167.0 77.125 167.60938Q76.578125 168.39062 76.578125 170.51562Z" fill-rule="nonzero"/><path fill="#000000" d="M54.5 134.25L55.609375 134.15625Q55.734375 134.96875 56.171875 135.375Q56.625 135.78125 57.265625 135.78125Q58.015625 135.78125 58.546875 135.20312Q59.078125 134.625 59.078125 133.6875Q59.078125 132.78125 58.5625 132.26562Q58.0625 131.73438 57.234375 131.73438Q56.734375 131.73438 56.3125 131.96875Q55.90625 132.20312 55.671875 132.5625L54.6875 132.4375L55.515625 128.03125L59.796875 128.03125L59.796875 129.03125L56.359375 129.03125L55.90625 131.34375Q56.671875 130.79688 57.515625 130.79688Q58.640625 130.79688 59.40625 131.57812Q60.1875 132.35938 60.1875 133.59375Q60.1875 134.75 59.515625 135.60938Q58.6875 136.64062 57.265625 136.64062Q56.09375 136.64062 55.34375 135.98438Q54.609375 135.32812 54.5 134.25ZM61.5 132.26562Q61.5 130.73438 61.8125 129.8125Q62.125 128.875 62.734375 128.375Q63.359375 127.875 64.296875 127.875Q64.984375 127.875 65.5 128.15625Q66.03125 128.4375 66.375 128.96875Q66.71875 129.48438 66.90625 130.23438Q67.09375 130.98438 67.09375 132.26562Q67.09375 133.78125 66.78125 134.70312Q66.484375 135.625 65.859375 136.14062Q65.25 136.64062 64.296875 136.64062Q63.0625 136.64062 62.34375 135.75Q61.5 134.6875 61.5 132.26562ZM62.578125 132.26562Q62.578125 134.375 63.078125 135.07812Q63.578125 135.78125 64.296875 135.78125Q65.03125 135.78125 65.515625 135.07812Q66.015625 134.375 66.015625 132.26562Q66.015625 130.14062 65.515625 129.45312Q65.03125 128.75 64.28125 128.75Q63.5625 128.75 63.125 129.35938Q62.578125 130.14062 62.578125 132.26562ZM68.5 132.26562Q68.5 130.73438 68.8125 129.8125Q69.125 128.875 69.734375 128.375Q70.359375 127.875 71.296875 127.875Q71.984375 127.875 72.5 128.15625Q73.03125 128.4375 73.375 128.96875Q73.71875 129.48438 73.90625 130.23438Q74.09375 130.98438 74.09375 132.26562Q74.09375 133.78125 73.78125 134.70312Q73.484375 135.625 72.859375 136.14062Q72.25 136.64062 71.296875 136.64062Q70.0625 136.64062 69.34375 135.75Q68.5 134.6875 68.5 132.26562ZM69.578125 132.26562Q69.578125 134.375 70.078125 135.07812Q70.578125 135.78125 71.296875 135.78125Q72.03125 135.78125 72.515625 135.07812Q73.015625 134.375 73.015625 132.26562Q73.015625 130.14062 72.515625 129.45312Q72.03125 128.75 71.28125 128.75Q70.5625 128.75 70.125 129.35938Q69.578125 130.14062 69.578125 132.26562ZM75.5 132.26562Q75.5 130.73438 75.8125 129.8125Q76.125 128.875 76.734375 128.375Q77.359375 127.875 78.296875 127.875Q78.984375 127.875 79.5 128.15625Q80.03125 128.4375 80.375 128.96875Q80.71875 129.48438 80.90625 130.23438Q81.09375 130.98438 81.09375 132.26562Q81.09375 133.78125 80.78125 134.70312Q80.484375 135.625 79.859375 136.14062Q79.25 136.64062 78.296875 136.64062Q77.0625 136.64062 76.34375 135.75Q75.5 134.6875 75.5 132.26562ZM76.578125 132.26562Q76.578125 134.375 77.078125 135.07812Q77.578125 135.78125 78.296875 135.78125Q79.03125 135.78125 79.515625 135.07812Q80.015625 134.375 80.015625 132.26562Q80.015625 130.14062 79.515625 129.45312Q79.03125 128.75 78.28125 128.75Q77.5625 128.75 77.125 129.35938Q76.578125 130.14062 76.578125 132.26562Z" fill-rule="nonzero"/><path fill="#000000" d="M54.5625 90.78125L54.5625 89.765625L60.125 89.765625L60.125 90.59375Q59.3125 91.46875 58.5 92.921875Q57.703125 94.359375 57.265625 95.890625Q56.9375 96.96875 56.859375 98.25L55.765625 98.25Q55.78125 97.234375 56.15625 95.796875Q56.546875 94.359375 57.25 93.03125Q57.96875 91.703125 58.78125 90.78125L54.5625 90.78125ZM61.5 96.0L62.609375 95.90625Q62.734375 96.71875 63.171875 97.125Q63.625 97.53125 64.265625 97.53125Q65.015625 97.53125 65.546875 96.953125Q66.078125 96.375 66.078125 95.4375Q66.078125 94.53125 65.5625 94.015625Q65.0625 93.484375 64.234375 93.484375Q63.734375 93.484375 63.3125 93.71875Q62.90625 93.953125 62.671875 94.3125L61.6875 94.1875L62.515625 89.78125L66.796875 89.78125L66.796875 90.78125L63.359375 90.78125L62.90625 93.09375Q63.671875 92.546875 64.515625 92.546875Q65.640625 92.546875 66.40625 93.328125Q67.1875 94.109375 67.1875 95.34375Q67.1875 96.5 66.515625 97.359375Q65.6875 98.390625 64.265625 98.390625Q63.09375 98.390625 62.34375 97.734375Q61.609375 97.078125 61.5 96.0ZM68.5 94.015625Q68.5 92.484375 68.8125 91.5625Q69.125 90.625 69.734375 90.125Q70.359375 89.625 71.296875 89.625Q71.984375 89.625 72.5 89.90625Q73.03125 90.1875 73.375 90.71875Q73.71875 91.234375 73.90625 91.984375Q74.09375 92.734375 74.09375 94.015625Q74.09375 95.53125 73.78125 96.453125Q73.484375 97.375 72.859375 97.890625Q72.25 98.390625 71.296875 98.390625Q70.0625 98.390625 69.34375 97.5Q68.5 96.4375 68.5 94.015625ZM69.578125 94.015625Q69.578125 96.125 70.078125 96.828125Q70.578125 97.53125 71.296875 97.53125Q72.03125 97.53125 72.515625 96.828125Q73.015625 96.125 73.015625 94.015625Q73.015625 91.890625 72.515625 91.203125Q72.03125 90.5 71.28125 90.5Q70.5625 90.5 70.125 91.109375Q69.578125 91.890625 69.578125 94.015625ZM75.5 94.015625Q75.5 92.484375 75.8125 91.5625Q76.125 90.625 76.734375 90.125Q77.359375 89.625 78.296875 89.625Q78.984375 89.625 79.5 89.90625Q80.03125 90.1875 80.375 90.71875Q80.71875 91.234375 80.90625 91.984375Q81.09375 92.734375 81.09375 94.015625Q81.09375 95.53125 80.78125 96.453125Q80.484375 97.375 79.859375 97.890625Q79.25 98.390625 78.296875 98.390625Q77.0625 98.390625 76.34375 97.5Q75.5 96.4375 75.5 94.015625ZM76.578125 94.015625Q76.578125 96.125 77.078125 96.828125Q77.578125 97.53125 78.296875 97.53125Q79.03125 97.53125 79.515625 96.828125Q80.015625 96.125 80.015625 94.015625Q80.015625 91.890625 79.515625 91.203125Q79.03125 90.5 78.28125 90.5Q77.5625 90.5 77.125 91.109375Q76.578125 91.890625 76.578125 94.015625Z" fill-rule="nonzero"/><path fill="#000000" d="M51.46875 60.0L50.421875 60.0L50.421875 53.28125Q50.03125 53.640625 49.40625 54.015625Q48.796875 54.375 48.3125 54.546875L48.3125 53.53125Q49.1875 53.109375 49.84375 52.53125Q50.515625 51.9375 50.796875 51.375L51.46875 51.375L51.46875 60.0ZM54.5 55.765625Q54.5 54.234375 54.8125 53.3125Q55.125 52.375 55.734375 51.875Q56.359375 51.375 57.296875 51.375Q57.984375 51.375 58.5 51.65625Q59.03125 51.9375 59.375 52.46875Q59.71875 52.984375 59.90625 53.734375Q60.09375 54.484375 60.09375 55.765625Q60.09375 57.28125 59.78125 58.203125Q59.484375 59.125 58.859375 59.640625Q58.25 60.140625 57.296875 60.140625Q56.0625 60.140625 55.34375 59.25Q54.5 58.1875 54.5 55.765625ZM55.578125 55.765625Q55.578125 57.875 56.078125 58.578125Q56.578125 59.28125 57.296875 59.28125Q58.03125 59.28125 58.515625 58.578125Q59.015625 57.875 59.015625 55.765625Q59.015625 53.640625 58.515625 52.953125Q58.03125 52.25 57.28125 52.25Q56.5625 52.25 56.125 52.859375Q55.578125 53.640625 55.578125 55.765625ZM61.5 55.765625Q61.5 54.234375 61.8125 53.3125Q62.125 52.375 62.734375 51.875Q63.359375 51.375 64.296875 51.375Q64.984375 51.375 65.5 51.65625Q66.03125 51.9375 66.375 52.46875Q66.71875 52.984375 66.90625 53.734375Q67.09375 54.484375 67.09375 55.765625Q67.09375 57.28125 66.78125 58.203125Q66.484375 59.125 65.859375 59.640625Q65.25 60.140625 64.296875 60.140625Q63.0625 60.140625 62.34375 59.25Q61.5 58.1875 61.5 55.765625ZM62.578125 55.765625Q62.578125 57.875 63.078125 58.578125Q63.578125 59.28125 64.296875 59.28125Q65.03125 59.28125 65.515625 58.578125Q66.015625 57.875 66.015625 55.765625Q66.015625 53.640625 65.515625 52.953125Q65.03125 52.25 64.28125 52.25Q63.5625 52.25 63.125 52.859375Q62.578125 53.640625 62.578125 55.765625ZM68.5 55.765625Q68.5 54.234375 68.8125 53.3125Q69.125 52.375 69.734375 51.875Q70.359375 51.375 71.296875 51.375Q71.984375 51.375 72.5 51.65625Q73.03125 51.9375 73.375 52.46875Q73.71875 52.984375 73.90625 53.734375Q74.09375 54.484375 74.09375 55.765625Q74.09375 57.28125 73.78125 58.203125Q73.484375 59.125 72.859375 59.640625Q72.25 60.140625 71.296875 60.140625Q70.0625 60.140625 69.34375 59.25Q68.5 58.1875 68.5 55.765625ZM69.578125 55.765625Q69.578125 57.875 70.078125 58.578125Q70.578125 59.28125 71.296875 59.28125Q72.03125 59.28125 72.515625 58.578125Q73.015625 57.875 73.015625 55.765625Q73.015625 53.640625 72.515625 52.953125Q72.03125 52.25 71.28125 52.25Q70.5625 52.25 70.125 52.859375Q69.578125 53.640625 69.578125 55.765625ZM75.5 55.765625Q75.5 54.234375 75.8125 53.3125Q76.125 52.375 76.734375 51.875Q77.359375 51.375 78.296875 51.375Q78.984375 51.375 79.5 51.65625Q80.03125 51.9375 80.375 52.46875Q80.71875 52.984375 80.90625 53.734375Q81.09375 54.484375 81.09375 55.765625Q81.09375 57.28125 80.78125 58.203125Q80.484375 59.125 79.859375 59.640625Q79.25 60.140625 78.296875 60.140625Q77.0625 60.140625 76.34375 59.25Q75.5 58.1875 75.5 55.765625ZM76.578125 55.765625Q76.578125 57.875 77.078125 58.578125Q77.578125 59.28125 78.296875 59.28125Q79.03125 59.28125 79.515625 58.578125Q80.015625 57.875 80.015625 55.765625Q80.015625 53.640625 79.515625 52.953125Q79.03125 52.25 78.28125 52.25Q77.5625 52.25 77.125 52.859375Q76.578125 53.640625 76.578125 55.765625Z" fill-rule="nonzero"/><path fill="#000000" d="M127.65799 224.98438L127.65799 226.0L121.97049 226.0Q121.97049 225.625 122.09549 225.26562Q122.31424 224.6875 122.78299 224.125Q123.267365 223.5625 124.173615 222.82812Q125.579865 221.67188 126.06424 221.0Q126.56424 220.32812 126.56424 219.73438Q126.56424 219.10938 126.111115 218.6875Q125.65799 218.25 124.93924 218.25Q124.173615 218.25 123.72049 218.70312Q123.267365 219.15625 123.25174 219.96875L122.173615 219.85938Q122.28299 218.64062 123.00174 218.01562Q123.736115 217.375 124.97049 217.375Q126.204865 217.375 126.923615 218.0625Q127.642365 218.75 127.642365 219.76562Q127.642365 220.28125 127.423615 220.78125Q127.22049 221.26562 126.72049 221.82812Q126.236115 222.375 125.111115 223.32812Q124.15799 224.125 123.87674 224.42188Q123.611115 224.70312 123.43924 224.98438L127.65799 224.98438ZM129.11111 221.76562Q129.11111 220.23438 129.42361 219.3125Q129.73611 218.375 130.34549 217.875Q130.97049 217.375 131.90799 217.375Q132.59549 217.375 133.11111 217.65625Q133.64236 217.9375 133.98611 218.46875Q134.32986 218.98438 134.51736 219.73438Q134.70486 220.48438 134.70486 221.76562Q134.70486 223.28125 134.39236 224.20312Q134.09549 225.125 133.47049 225.64062Q132.86111 226.14062 131.90799 226.14062Q130.67361 226.14062 129.95486 225.25Q129.11111 224.1875 129.11111 221.76562ZM130.18924 221.76562Q130.18924 223.875 130.68924 224.57812Q131.18924 225.28125 131.90799 225.28125Q132.64236 225.28125 133.12674 224.57812Q133.62674 223.875 133.62674 221.76562Q133.62674 219.64062 133.12674 218.95312Q132.64236 218.25 131.89236 218.25Q131.17361 218.25 130.73611 218.85938Q130.18924 219.64062 130.18924 221.76562ZM136.11111 221.76562Q136.11111 220.23438 136.42361 219.3125Q136.73611 218.375 137.34549 217.875Q137.97049 217.375 138.90799 217.375Q139.59549 217.375 140.11111 217.65625Q140.64236 217.9375 140.98611 218.46875Q141.32986 218.98438 141.51736 219.73438Q141.70486 220.48438 141.70486 221.76562Q141.70486 223.28125 141.39236 224.20312Q141.09549 225.125 140.47049 225.64062Q139.86111 226.14062 138.90799 226.14062Q137.67361 226.14062 136.95486 225.25Q136.11111 224.1875 136.11111 221.76562ZM137.18924 221.76562Q137.18924 223.875 137.68924 224.57812Q138.18924 225.28125 138.90799 225.28125Q139.64236 225.28125 140.12674 224.57812Q140.62674 223.875 140.62674 221.76562Q140.62674 219.64062 140.12674 218.95312Q139.64236 218.25 138.89236 218.25Q138.17361 218.25 137.73611 218.85938Q137.18924 219.64062 137.18924 221.76562Z" fill-rule="nonzero"/><path fill="#000000" d="M213.70833 226.0L213.70833 223.9375L209.98958 223.9375L209.98958 222.96875L213.91145 217.40625L214.77083 217.40625L214.77083 222.96875L215.92708 222.96875L215.92708 223.9375L214.77083 223.9375L214.77083 226.0L213.70833 226.0ZM213.70833 222.96875L213.70833 219.10938L211.02083 222.96875L213.70833 222.96875ZM217.33333 221.76562Q217.33333 220.23438 217.64583 219.3125Q217.95833 218.375 218.5677 217.875Q219.1927 217.375 220.1302 217.375Q220.8177 217.375 221.33333 217.65625Q221.86458 217.9375 222.20833 218.46875Q222.55208 218.98438 222.73958 219.73438Q222.92708 220.48438 222.92708 221.76562Q222.92708 223.28125 222.61458 224.20312Q222.3177 225.125 221.6927 225.64062Q221.08333 226.14062 220.1302 226.14062Q218.89583 226.14062 218.17708 225.25Q217.33333 224.1875 217.33333 221.76562ZM218.41145 221.76562Q218.41145 223.875 218.91145 224.57812Q219.41145 225.28125 220.1302 225.28125Q220.86458 225.28125 221.34895 224.57812Q221.84895 223.875 221.84895 221.76562Q221.84895 219.64062 221.34895 218.95312Q220.86458 218.25 220.11458 218.25Q219.39583 218.25 218.95833 218.85938Q218.41145 219.64062 218.41145 221.76562ZM224.33333 221.76562Q224.33333 220.23438 224.64583 219.3125Q224.95833 218.375 225.5677 217.875Q226.1927 217.375 227.1302 217.375Q227.8177 217.375 228.33333 217.65625Q228.86458 217.9375 229.20833 218.46875Q229.55208 218.98438 229.73958 219.73438Q229.92708 220.48438 229.92708 221.76562Q229.92708 223.28125 229.61458 224.20312Q229.3177 225.125 228.6927 225.64062Q228.08333 226.14062 227.1302 226.14062Q225.89583 226.14062 225.17708 225.25Q224.33333 224.1875 224.33333 221.76562ZM225.41145 221.76562Q225.41145 223.875 225.91145 224.57812Q226.41145 225.28125 227.1302 225.28125Q227.86458 225.28125 228.34895 224.57812Q228.84895 223.875 228.84895 221.76562Q228.84895 219.64062 228.34895 218.95312Q227.86458 218.25 227.11458 218.25Q226.39583 218.25 225.95833 218.85938Q225.41145 219.64062 225.41145 221.76562Z" fill-rule="nonzero"/><path fill="#000000" d="M304.0243 219.51562L302.97742 219.59375Q302.8368 218.96875 302.5868 218.6875Q302.1493 218.23438 301.5243 218.23438Q301.0243 218.23438 300.63367 218.51562Q300.1493 218.89062 299.85242 219.59375Q299.57117 220.28125 299.55554 221.5625Q299.93054 220.98438 300.47742 220.70312Q301.03992 220.42188 301.6493 220.42188Q302.69617 220.42188 303.43054 221.20312Q304.18054 221.98438 304.18054 223.20312Q304.18054 224.01562 303.82117 224.71875Q303.47742 225.40625 302.86804 225.78125Q302.25867 226.14062 301.49304 226.14062Q300.16492 226.14062 299.3368 225.17188Q298.50867 224.20312 298.50867 221.98438Q298.50867 219.48438 299.43054 218.35938Q300.22742 217.375 301.5868 217.375Q302.60242 217.375 303.24304 217.95312Q303.8993 218.51562 304.0243 219.51562ZM299.72742 223.21875Q299.72742 223.76562 299.94617 224.26562Q300.18054 224.75 300.5868 225.01562Q301.00867 225.28125 301.47742 225.28125Q302.13367 225.28125 302.61804 224.75Q303.10242 224.20312 303.10242 223.28125Q303.10242 222.39062 302.61804 221.875Q302.1493 221.35938 301.43054 221.35938Q300.7118 221.35938 300.2118 221.875Q299.72742 222.39062 299.72742 223.21875ZM305.55554 221.76562Q305.55554 220.23438 305.86804 219.3125Q306.18054 218.375 306.78992 217.875Q307.41492 217.375 308.35242 217.375Q309.03992 217.375 309.55554 217.65625Q310.0868 217.9375 310.43054 218.46875Q310.7743 218.98438 310.9618 219.73438Q311.1493 220.48438 311.1493 221.76562Q311.1493 223.28125 310.8368 224.20312Q310.53992 225.125 309.91492 225.64062Q309.30554 226.14062 308.35242 226.14062Q307.11804 226.14062 306.3993 225.25Q305.55554 224.1875 305.55554 221.76562ZM306.63367 221.76562Q306.63367 223.875 307.13367 224.57812Q307.63367 225.28125 308.35242 225.28125Q309.0868 225.28125 309.57117 224.57812Q310.07117 223.875 310.07117 221.76562Q310.07117 219.64062 309.57117 218.95312Q309.0868 218.25 308.3368 218.25Q307.61804 218.25 307.18054 218.85938Q306.63367 219.64062 306.63367 221.76562ZM312.55554 221.76562Q312.55554 220.23438 312.86804 219.3125Q313.18054 218.375 313.78992 217.875Q314.41492 217.375 315.35242 217.375Q316.03992 217.375 316.55554 217.65625Q317.0868 217.9375 317.43054 218.46875Q317.7743 218.98438 317.9618 219.73438Q318.1493 220.48438 318.1493 221.76562Q318.1493 223.28125 317.8368 224.20312Q317.53992 225.125 316.91492 225.64062Q316.30554 226.14062 315.35242 226.14062Q314.11804 226.14062 313.3993 225.25Q312.55554 224.1875 312.55554 221.76562ZM313.63367 221.76562Q313.63367 223.875 314.13367 224.57812Q314.63367 225.28125 315.35242 225.28125Q316.0868 225.28125 316.57117 224.57812Q317.07117 223.875 317.07117 221.76562Q317.07117 219.64062 316.57117 218.95312Q316.0868 218.25 315.3368 218.25Q314.61804 218.25 314.18054 218.85938Q313.63367 219.64062 313.63367 221.76562Z" fill-rule="nonzero"/><path fill="#000000" d="M388.40277 221.34375Q387.74652 221.09375 387.4184 220.65625Q387.1059 220.20312 387.1059 219.59375Q387.1059 218.65625 387.77777 218.01562Q388.46527 217.375 389.57465 217.375Q390.69965 217.375 391.38715 218.03125Q392.07465 218.6875 392.07465 219.625Q392.07465 220.21875 391.76215 220.65625Q391.44965 221.09375 390.80902 221.34375Q391.6059 221.59375 392.01215 222.17188Q392.4184 222.75 392.4184 223.54688Q392.4184 224.64062 391.63715 225.39062Q390.87152 226.14062 389.59027 226.14062Q388.32465 226.14062 387.5434 225.39062Q386.76215 224.64062 386.76215 223.51562Q386.76215 222.67188 387.18402 222.10938Q387.62152 221.54688 388.40277 221.34375ZM388.18402 219.54688Q388.18402 220.15625 388.57465 220.54688Q388.9809 220.9375 389.6059 220.9375Q390.21527 220.9375 390.6059 220.5625Q390.99652 220.17188 390.99652 219.60938Q390.99652 219.03125 390.59027 218.64062Q390.18402 218.23438 389.59027 218.23438Q388.9809 218.23438 388.57465 218.625Q388.18402 219.01562 388.18402 219.54688ZM387.8559 223.51562Q387.8559 223.96875 388.05902 224.39062Q388.27777 224.8125 388.69965 225.04688Q389.12152 225.28125 389.6059 225.28125Q390.3559 225.28125 390.84027 224.79688Q391.34027 224.3125 391.34027 223.5625Q391.34027 222.79688 390.84027 222.29688Q390.34027 221.79688 389.57465 221.79688Q388.82465 221.79688 388.34027 222.29688Q387.8559 222.78125 387.8559 223.51562ZM393.77777 221.76562Q393.77777 220.23438 394.09027 219.3125Q394.40277 218.375 395.01215 217.875Q395.63715 217.375 396.57465 217.375Q397.26215 217.375 397.77777 217.65625Q398.30902 217.9375 398.65277 218.46875Q398.99652 218.98438 399.18402 219.73438Q399.37152 220.48438 399.37152 221.76562Q399.37152 223.28125 399.05902 224.20312Q398.76215 225.125 398.13715 225.64062Q397.52777 226.14062 396.57465 226.14062Q395.34027 226.14062 394.62152 225.25Q393.77777 224.1875 393.77777 221.76562ZM394.8559 221.76562Q394.8559 223.875 395.3559 224.57812Q395.8559 225.28125 396.57465 225.28125Q397.30902 225.28125 397.7934 224.57812Q398.2934 223.875 398.2934 221.76562Q398.2934 219.64062 397.7934 218.95312Q397.30902 218.25 396.55902 218.25Q395.84027 218.25 395.40277 218.85938Q394.8559 219.64062 394.8559 221.76562ZM400.77777 221.76562Q400.77777 220.23438 401.09027 219.3125Q401.40277 218.375 402.01215 217.875Q402.63715 217.375 403.57465 217.375Q404.26215 217.375 404.77777 217.65625Q405.30902 217.9375 405.65277 218.46875Q405.99652 218.98438 406.18402 219.73438Q406.37152 220.48438 406.37152 221.76562Q406.37152 223.28125 406.05902 224.20312Q405.76215 225.125 405.13715 225.64062Q404.52777 226.14062 403.57465 226.14062Q402.34027 226.14062 401.62152 225.25Q400.77777 224.1875 400.77777 221.76562ZM401.8559 221.76562Q401.8559 223.875 402.3559 224.57812Q402.8559 225.28125 403.57465 225.28125Q404.30902 225.28125 404.7934 224.57812Q405.2934 223.875 405.2934 221.76562Q405.2934 219.64062 404.7934 218.95312Q404.30902 218.25 403.55902 218.25Q402.84027 218.25 402.40277 218.85938Q401.8559 219.64062 401.8559 221.76562Z" fill-rule="nonzero"/><path fill="#000000" d="M475.46875 226.0L474.42188 226.0L474.42188 219.28125Q474.03125 219.64062 473.40625 220.01562Q472.79688 220.375 472.3125 220.54688L472.3125 219.53125Q473.1875 219.10938 473.84375 218.53125Q474.51562 217.9375 474.79688 217.375L475.46875 217.375L475.46875 226.0ZM478.5 221.76562Q478.5 220.23438 478.8125 219.3125Q479.125 218.375 479.73438 217.875Q480.35938 217.375 481.29688 217.375Q481.98438 217.375 482.5 217.65625Q483.03125 217.9375 483.375 218.46875Q483.71875 218.98438 483.90625 219.73438Q484.09375 220.48438 484.09375 221.76562Q484.09375 223.28125 483.78125 224.20312Q483.48438 225.125 482.85938 225.64062Q482.25 226.14062 481.29688 226.14062Q480.0625 226.14062 479.34375 225.25Q478.5 224.1875 478.5 221.76562ZM479.57812 221.76562Q479.57812 223.875 480.07812 224.57812Q480.57812 225.28125 481.29688 225.28125Q482.03125 225.28125 482.51562 224.57812Q483.01562 223.875 483.01562 221.76562Q483.01562 219.64062 482.51562 218.95312Q482.03125 218.25 481.28125 218.25Q480.5625 218.25 480.125 218.85938Q479.57812 219.64062 479.57812 221.76562ZM485.5 221.76562Q485.5 220.23438 485.8125 219.3125Q486.125 218.375 486.73438 217.875Q487.35938 217.375 488.29688 217.375Q488.98438 217.375 489.5 217.65625Q490.03125 217.9375 490.375 218.46875Q490.71875 218.98438 490.90625 219.73438Q491.09375 220.48438 491.09375 221.76562Q491.09375 223.28125 490.78125 224.20312Q490.48438 225.125 489.85938 225.64062Q489.25 226.14062 488.29688 226.14062Q487.0625 226.14062 486.34375 225.25Q485.5 224.1875 485.5 221.76562ZM486.57812 221.76562Q486.57812 223.875 487.07812 224.57812Q487.57812 225.28125 488.29688 225.28125Q489.03125 225.28125 489.51562 224.57812Q490.01562 223.875 490.01562 221.76562Q490.01562 219.64062 489.51562 218.95312Q489.03125 218.25 488.28125 218.25Q487.5625 218.25 487.125 218.85938Q486.57812 219.64062 486.57812 221.76562ZM492.5 221.76562Q492.5 220.23438 492.8125 219.3125Q493.125 218.375 493.73438 217.875Q494.35938 217.375 495.29688 217.375Q495.98438 217.375 496.5 217.65625Q497.03125 217.9375 497.375 218.46875Q497.71875 218.98438 497.90625 219.73438Q498.09375 220.48438 498.09375 221.76562Q498.09375 223.28125 497.78125 224.20312Q497.48438 225.125 496.85938 225.64062Q496.25 226.14062 495.29688 226.14062Q494.0625 226.14062 493.34375 225.25Q492.5 224.1875 492.5 221.76562ZM493.57812 221.76562Q493.57812 223.875 494.07812 224.57812Q494.57812 225.28125 495.29688 225.28125Q496.03125 225.28125 496.51562 224.57812Q497.01562 223.875 497.01562 221.76562Q497.01562 219.64062 496.51562 218.95312Q496.03125 218.25 495.28125 218.25Q494.5625 218.25 494.125 218.85938Q493.57812 219.64062 493.57812 221.76562Z" fill-rule="nonzero"/><path stroke="#0000ff" stroke-width="4.0" stroke-linecap="butt" d="M80.0 278.0L92.0 278.0" fill-rule="nonzero"/><path fill="#1a1a1a" d="M99.984375 282.0L103.28125 273.40625L104.5 273.40625L108.015625 282.0L106.734375 282.0L105.71875 279.39062L102.140625 279.39062L101.1875 282.0L99.984375 282.0ZM102.46875 278.46875L105.375 278.46875L104.484375 276.09375Q104.0625 275.01562 103.875 274.3125Q103.703125 275.14062 103.40625 275.95312L102.46875 278.46875ZM108.921875 282.0L108.921875 273.40625L112.171875 273.40625Q113.015625 273.40625 113.46875 273.48438Q114.109375 273.59375 114.53125 273.89062Q114.96875 274.1875 115.21875 274.71875Q115.484375 275.25 115.484375 275.89062Q115.484375 276.98438 114.78125 277.75Q114.09375 278.5 112.265625 278.5L110.0625 278.5L110.0625 282.0L108.921875 282.0ZM110.0625 277.5L112.28125 277.5Q113.390625 277.5 113.84375 277.09375Q114.3125 276.67188 114.3125 275.92188Q114.3125 275.39062 114.03125 275.01562Q113.765625 274.625 113.328125 274.5Q113.03125 274.42188 112.265625 274.42188L110.0625 274.42188L110.0625 277.5ZM117.125 282.0L117.125 273.40625L118.25 273.40625L118.25 282.0L117.125 282.0ZM123.9375 282.0L122.03125 275.78125L123.125 275.78125L124.109375 279.375L124.484375 280.70312Q124.515625 280.60938 124.8125 279.42188L125.796875 275.78125L126.875 275.78125L127.8125 279.39062L128.125 280.57812L128.48438 279.375L129.54688 275.78125L130.57812 275.78125L128.625 282.0L127.53125 282.0L126.546875 278.26562L126.296875 277.21875L125.046875 282.0L123.9375 282.0ZM131.79688 274.625L131.79688 273.40625L132.85938 273.40625L132.85938 274.625L131.79688 274.625ZM131.79688 282.0L131.79688 275.78125L132.85938 275.78125L132.85938 282.0L131.79688 282.0ZM137.09375 281.0625L137.25 281.98438Q136.79688 282.07812 136.45312 282.07812Q135.875 282.07812 135.5625 281.90625Q135.25 281.71875 135.10938 281.42188Q134.98438 281.125 134.98438 280.17188L134.98438 276.59375L134.21875 276.59375L134.21875 275.78125L134.98438 275.78125L134.98438 274.23438L136.03125 273.60938L136.03125 275.78125L137.09375 275.78125L137.09375 276.59375L136.03125 276.59375L136.03125 280.23438Q136.03125 280.6875 136.07812 280.8125Q136.14062 280.9375 136.26562 281.01562Q136.39062 281.09375 136.625 281.09375Q136.8125 281.09375 137.09375 281.0625ZM137.79688 282.0L137.79688 273.40625L138.84375 273.40625L138.84375 276.48438Q139.57812 275.64062 140.70312 275.64062Q141.40625 275.64062 141.90625 275.92188Q142.42188 276.1875 142.64062 276.67188Q142.85938 277.14062 142.85938 278.0625L142.85938 282.0L141.8125 282.0L141.8125 278.0625Q141.8125 277.26562 141.46875 276.90625Q141.125 276.54688 140.5 276.54688Q140.03125 276.54688 139.60938 276.79688Q139.20312 277.03125 139.01562 277.45312Q138.84375 277.85938 138.84375 278.59375L138.84375 282.0L137.79688 282.0ZM149.125 277.34375Q148.46875 277.09375 148.14062 276.65625Q147.82812 276.20312 147.82812 275.59375Q147.82812 274.65625 148.5 274.01562Q149.1875 273.375 150.29688 273.375Q151.42188 273.375 152.10938 274.03125Q152.79688 274.6875 152.79688 275.625Q152.79688 276.21875 152.48438 276.65625Q152.17188 277.09375 151.53125 277.34375Q152.32812 277.59375 152.73438 278.17188Q153.14062 278.75 153.14062 279.54688Q153.14062 280.64062 152.35938 281.39062Q151.59375 282.14062 150.3125 282.14062Q149.04688 282.14062 148.26562 281.39062Q147.48438 280.64062 147.48438 279.51562Q147.48438 278.67188 147.90625 278.10938Q148.34375 277.54688 149.125 277.34375ZM148.90625 275.54688Q148.90625 276.15625 149.29688 276.54688Q149.70312 276.9375 150.32812 276.9375Q150.9375 276.9375 151.32812 276.5625Q151.71875 276.17188 151.71875 275.60938Q151.71875 275.03125 151.3125 274.64062Q150.90625 274.23438 150.3125 274.23438Q149.70312 274.23438 149.29688 274.625Q148.90625 275.01562 148.90625 275.54688ZM148.57812 279.51562Q148.57812 279.96875 148.78125 280.39062Q149.0 280.8125 149.42188 281.04688Q149.84375 281.28125 150.32812 281.28125Q151.07812 281.28125 151.5625 280.79688Q152.0625 280.3125 152.0625 279.5625Q152.0625 278.79688 151.5625 278.29688Q151.0625 277.79688 150.29688 277.79688Q149.54688 277.79688 149.0625 278.29688Q148.57812 278.78125 148.57812 279.51562ZM157.78125 282.0L157.78125 275.78125L158.73438 275.78125L158.73438 276.71875Q159.09375 276.0625 159.39062 275.85938Q159.70312 275.64062 160.07812 275.64062Q160.60938 275.64062 161.15625 275.96875L160.79688 276.95312Q160.40625 276.71875 160.03125 276.71875Q159.67188 276.71875 159.39062 276.9375Q159.125 277.14062 159.01562 277.51562Q158.82812 278.07812 158.82812 278.73438L158.82812 282.0L157.78125 282.0ZM161.40625 278.89062Q161.40625 277.15625 162.35938 276.32812Q163.15625 275.64062 164.3125 275.64062Q165.59375 275.64062 166.40625 276.48438Q167.23438 277.3125 167.23438 278.79688Q167.23438 280.0 166.875 280.6875Q166.51562 281.375 165.8125 281.76562Q165.125 282.14062 164.3125 282.14062Q163.01562 282.14062 162.20312 281.3125Q161.40625 280.46875 161.40625 278.89062ZM162.48438 278.89062Q162.48438 280.07812 163.0 280.67188Q163.53125 281.26562 164.3125 281.26562Q165.10938 281.26562 165.625 280.67188Q166.14062 280.07812 166.14062 278.85938Q166.14062 277.70312 165.60938 277.10938Q165.09375 276.51562 164.3125 276.51562Q163.53125 276.51562 163.0 277.10938Q162.48438 277.6875 162.48438 278.89062ZM172.875 282.0L172.875 281.07812Q172.14062 282.14062 170.89062 282.14062Q170.34375 282.14062 169.85938 281.9375Q169.39062 281.71875 169.15625 281.40625Q168.92188 281.07812 168.82812 280.60938Q168.76562 280.3125 168.76562 279.625L168.76562 275.78125L169.82812 275.78125L169.82812 279.23438Q169.82812 280.04688 169.89062 280.34375Q169.98438 280.75 170.29688 281.0Q170.625 281.23438 171.10938 281.23438Q171.57812 281.23438 171.98438 281.0Q172.40625 280.75 172.57812 280.32812Q172.76562 279.90625 172.76562 279.10938L172.76562 275.78125L173.8125 275.78125L173.8125 282.0L172.875 282.0ZM178.09375 281.0625L178.25 281.98438Q177.79688 282.07812 177.45312 282.07812Q176.875 282.07812 176.5625 281.90625Q176.25 281.71875 176.10938 281.42188Q175.98438 281.125 175.98438 280.17188L175.98438 276.59375L175.21875 276.59375L175.21875 275.78125L175.98438 275.78125L175.98438 274.23438L177.03125 273.60938L177.03125 275.78125L178.09375 275.78125L178.09375 276.59375L177.03125 276.59375L177.03125 280.23438Q177.03125 280.6875 177.07812 280.8125Q177.14062 280.9375 177.26562 281.01562Q177.39062 281.09375 177.625 281.09375Q177.8125 281.09375 178.09375 281.0625ZM183.04688 280.0L184.14062 280.125Q183.89062 281.07812 183.1875 281.60938Q182.48438 282.14062 181.40625 282.14062Q180.04688 282.14062 179.23438 281.29688Q178.4375 280.45312 178.4375 278.9375Q178.4375 277.375 179.25 276.51562Q180.0625 275.64062 181.34375 275.64062Q182.59375 275.64062 183.375 276.48438Q184.17188 277.32812 184.17188 278.875Q184.17188 278.96875 184.17188 279.15625L179.53125 279.15625Q179.59375 280.1875 180.10938 280.73438Q180.625 281.26562 181.40625 281.26562Q181.98438 281.26562 182.39062 280.96875Q182.8125 280.65625 183.04688 280.0ZM179.59375 278.29688L183.0625 278.29688Q183.0 277.5 182.67188 277.10938Q182.15625 276.5 181.35938 276.5Q180.625 276.5 180.125 276.98438Q179.64062 277.46875 179.59375 278.29688ZM185.375 280.14062L186.40625 279.98438Q186.5 280.60938 186.89062 280.9375Q187.29688 281.26562 188.03125 281.26562Q188.75 281.26562 189.09375 280.98438Q189.45312 280.6875 189.45312 280.28125Q189.45312 279.92188 189.14062 279.71875Q188.92188 279.57812 188.0625 279.35938Q186.90625 279.0625 186.45312 278.85938Q186.01562 278.64062 185.78125 278.26562Q185.54688 277.89062 185.54688 277.42188Q185.54688 277.01562 185.73438 276.65625Q185.92188 276.29688 186.25 276.0625Q186.5 275.89062 186.92188 275.76562Q187.34375 275.64062 187.84375 275.64062Q188.5625 275.64062 189.10938 275.85938Q189.67188 276.0625 189.9375 276.42188Q190.20312 276.78125 190.29688 277.375L189.26562 277.51562Q189.20312 277.04688 188.85938 276.78125Q188.53125 276.5 187.90625 276.5Q187.1875 276.5 186.875 276.75Q186.5625 276.98438 186.5625 277.3125Q186.5625 277.51562 186.6875 277.67188Q186.82812 277.84375 187.09375 277.95312Q187.25 278.01562 188.03125 278.21875Q189.15625 278.53125 189.59375 278.71875Q190.03125 278.90625 190.28125 279.26562Q190.53125 279.625 190.53125 280.17188Q190.53125 280.70312 190.21875 281.17188Q189.92188 281.625 189.34375 281.89062Q188.76562 282.14062 188.03125 282.14062Q186.8125 282.14062 186.17188 281.64062Q185.54688 281.125 185.375 280.14062Z" fill-rule="nonzero"/><path stroke="#ff9900" stroke-width="4.0" stroke-linecap="butt" d="M207.0 278.0L219.0 278.0" fill-rule="nonzero"/><path fill="#1a1a1a" d="M226.98438 282.0L230.28125 273.40625L231.5 273.40625L235.01562 282.0L233.73438 282.0L232.71875 279.39062L229.14062 279.39062L228.1875 282.0L226.98438 282.0ZM229.46875 278.46875L232.375 278.46875L231.48438 276.09375Q231.0625 275.01562 230.875 274.3125Q230.70312 275.14062 230.40625 275.95312L229.46875 278.46875ZM235.92188 282.0L235.92188 273.40625L239.17188 273.40625Q240.01562 273.40625 240.46875 273.48438Q241.10938 273.59375 241.53125 273.89062Q241.96875 274.1875 242.21875 274.71875Q242.48438 275.25 242.48438 275.89062Q242.48438 276.98438 241.78125 277.75Q241.09375 278.5 239.26562 278.5L237.0625 278.5L237.0625 282.0L235.92188 282.0ZM237.0625 277.5L239.28125 277.5Q240.39062 277.5 240.84375 277.09375Q241.3125 276.67188 241.3125 275.92188Q241.3125 275.39062 241.03125 275.01562Q240.76562 274.625 240.32812 274.5Q240.03125 274.42188 239.26562 274.42188L237.0625 274.42188L237.0625 277.5ZM244.125 282.0L244.125 273.40625L245.25 273.40625L245.25 282.0L244.125 282.0ZM250.9375 282.0L249.03125 275.78125L250.125 275.78125L251.10938 279.375L251.48438 280.70312Q251.51562 280.60938 251.8125 279.42188L252.79688 275.78125L253.875 275.78125L254.8125 279.39062L255.125 280.57812L255.48438 279.375L256.54688 275.78125L257.57812 275.78125L255.625 282.0L254.53125 282.0L253.54688 278.26562L253.29688 277.21875L252.04688 282.0L250.9375 282.0ZM258.79688 274.625L258.79688 273.40625L259.85938 273.40625L259.85938 274.625L258.79688 274.625ZM258.79688 282.0L258.79688 275.78125L259.85938 275.78125L259.85938 282.0L258.79688 282.0ZM264.09375 281.0625L264.25 281.98438Q263.79688 282.07812 263.45312 282.07812Q262.875 282.07812 262.5625 281.90625Q262.25 281.71875 262.10938 281.42188Q261.98438 281.125 261.98438 280.17188L261.98438 276.59375L261.21875 276.59375L261.21875 275.78125L261.98438 275.78125L261.98438 274.23438L263.03125 273.60938L263.03125 275.78125L264.09375 275.78125L264.09375 276.59375L263.03125 276.59375L263.03125 280.23438Q263.03125 280.6875 263.07812 280.8125Q263.14062 280.9375 263.26562 281.01562Q263.39062 281.09375 263.625 281.09375Q263.8125 281.09375 264.09375 281.0625ZM264.79688 282.0L264.79688 273.40625L265.84375 273.40625L265.84375 276.48438Q266.57812 275.64062 267.70312 275.64062Q268.40625 275.64062 268.90625 275.92188Q269.42188 276.1875 269.64062 276.67188Q269.85938 277.14062 269.85938 278.0625L269.85938 282.0L268.8125 282.0L268.8125 278.0625Q268.8125 277.26562 268.46875 276.90625Q268.125 276.54688 267.5 276.54688Q267.03125 276.54688 266.60938 276.79688Q266.20312 277.03125 266.01562 277.45312Q265.84375 277.85938 265.84375 278.59375L265.84375 282.0L264.79688 282.0ZM276.125 277.34375Q275.46875 277.09375 275.14062 276.65625Q274.82812 276.20312 274.82812 275.59375Q274.82812 274.65625 275.5 274.01562Q276.1875 273.375 277.29688 273.375Q278.42188 273.375 279.10938 274.03125Q279.79688 274.6875 279.79688 275.625Q279.79688 276.21875 279.48438 276.65625Q279.17188 277.09375 278.53125 277.34375Q279.32812 277.59375 279.73438 278.17188Q280.14062 278.75 280.14062 279.54688Q280.14062 280.64062 279.35938 281.39062Q278.59375 282.14062 277.3125 282.14062Q276.04688 282.14062 275.26562 281.39062Q274.48438 280.64062 274.48438 279.51562Q274.48438 278.67188 274.90625 278.10938Q275.34375 277.54688 276.125 277.34375ZM275.90625 275.54688Q275.90625 276.15625 276.29688 276.54688Q276.70312 276.9375 277.32812 276.9375Q277.9375 276.9375 278.32812 276.5625Q278.71875 276.17188 278.71875 275.60938Q278.71875 275.03125 278.3125 274.64062Q277.90625 274.23438 277.3125 274.23438Q276.70312 274.23438 276.29688 274.625Q275.90625 275.01562 275.90625 275.54688ZM275.57812 279.51562Q275.57812 279.96875 275.78125 280.39062Q276.0 280.8125 276.42188 281.04688Q276.84375 281.28125 277.32812 281.28125Q278.07812 281.28125 278.5625 280.79688Q279.0625 280.3125 279.0625 279.5625Q279.0625 278.79688 278.5625 278.29688Q278.0625 277.79688 277.29688 277.79688Q276.54688 277.79688 276.0625 278.29688Q275.57812 278.78125 275.57812 279.51562ZM284.78125 282.0L284.78125 275.78125L285.73438 275.78125L285.73438 276.71875Q286.09375 276.0625 286.39062 275.85938Q286.70312 275.64062 287.07812 275.64062Q287.60938 275.64062 288.15625 275.96875L287.79688 276.95312Q287.40625 276.71875 287.03125 276.71875Q286.67188 276.71875 286.39062 276.9375Q286.125 277.14062 286.01562 277.51562Q285.82812 278.07812 285.82812 278.73438L285.82812 282.0L284.78125 282.0ZM288.40625 278.89062Q288.40625 277.15625 289.35938 276.32812Q290.15625 275.64062 291.3125 275.64062Q292.59375 275.64062 293.40625 276.48438Q294.23438 277.3125 294.23438 278.79688Q294.23438 280.0 293.875 280.6875Q293.51562 281.375 292.8125 281.76562Q292.125 282.14062 291.3125 282.14062Q290.01562 282.14062 289.20312 281.3125Q288.40625 280.46875 288.40625 278.89062ZM289.48438 278.89062Q289.48438 280.07812 290.0 280.67188Q290.53125 281.26562 291.3125 281.26562Q292.10938 281.26562 292.625 280.67188Q293.14062 280.07812 293.14062 278.85938Q293.14062 277.70312 292.60938 277.10938Q292.09375 276.51562 291.3125 276.51562Q290.53125 276.51562 290.0 277.10938Q289.48438 277.6875 289.48438 278.89062ZM299.875 282.0L299.875 281.07812Q299.14062 282.14062 297.89062 282.14062Q297.34375 282.14062 296.85938 281.9375Q296.39062 281.71875 296.15625 281.40625Q295.92188 281.07812 295.82812 280.60938Q295.76562 280.3125 295.76562 279.625L295.76562 275.78125L296.82812 275.78125L296.82812 279.23438Q296.82812 280.04688 296.89062 280.34375Q296.98438 280.75 297.29688 281.0Q297.625 281.23438 298.10938 281.23438Q298.57812 281.23438 298.98438 281.0Q299.40625 280.75 299.57812 280.32812Q299.76562 279.90625 299.76562 279.10938L299.76562 275.78125L300.8125 275.78125L300.8125 282.0L299.875 282.0ZM305.09375 281.0625L305.25 281.98438Q304.79688 282.07812 304.45312 282.07812Q303.875 282.07812 303.5625 281.90625Q303.25 281.71875 303.10938 281.42188Q302.98438 281.125 302.98438 280.17188L302.98438 276.59375L302.21875 276.59375L302.21875 275.78125L302.98438 275.78125L302.98438 274.23438L304.03125 273.60938L304.03125 275.78125L305.09375 275.78125L305.09375 276.59375L304.03125 276.59375L304.03125 280.23438Q304.03125 280.6875 304.07812 280.8125Q304.14062 280.9375 304.26562 281.01562Q304.39062 281.09375 304.625 281.09375Q304.8125 281.09375 305.09375 281.0625ZM310.04688 280.0L311.14062 280.125Q310.89062 281.07812 310.1875 281.60938Q309.48438 282.14062 308.40625 282.14062Q307.04688 282.14062 306.23438 281.29688Q305.4375 280.45312 305.4375 278.9375Q305.4375 277.375 306.25 276.51562Q307.0625 275.64062 308.34375 275.64062Q309.59375 275.64062 310.375 276.48438Q311.17188 277.32812 311.17188 278.875Q311.17188 278.96875 311.17188 279.15625L306.53125 279.15625Q306.59375 280.1875 307.10938 280.73438Q307.625 281.26562 308.40625 281.26562Q308.98438 281.26562 309.39062 280.96875Q309.8125 280.65625 310.04688 280.0ZM306.59375 278.29688L310.0625 278.29688Q310.0 277.5 309.67188 277.10938Q309.15625 276.5 308.35938 276.5Q307.625 276.5 307.125 276.98438Q306.64062 277.46875 306.59375 278.29688ZM312.375 280.14062L313.40625 279.98438Q313.5 280.60938 313.89062 280.9375Q314.29688 281.26562 315.03125 281.26562Q315.75 281.26562 316.09375 280.98438Q316.45312 280.6875 316.45312 280.28125Q316.45312 279.92188 316.14062 279.71875Q315.92188 279.57812 315.0625 279.35938Q313.90625 279.0625 313.45312 278.85938Q313.01562 278.64062 312.78125 278.26562Q312.54688 277.89062 312.54688 277.42188Q312.54688 277.01562 312.73438 276.65625Q312.92188 276.29688 313.25 276.0625Q313.5 275.89062 313.92188 275.76562Q314.34375 275.64062 314.84375 275.64062Q315.5625 275.64062 316.10938 275.85938Q316.67188 276.0625 316.9375 276.42188Q317.20312 276.78125 317.29688 277.375L316.26562 277.51562Q316.20312 277.04688 315.85938 276.78125Q315.53125 276.5 314.90625 276.5Q314.1875 276.5 313.875 276.75Q313.5625 276.98438 313.5625 277.3125Q313.5625 277.51562 313.6875 277.67188Q313.82812 277.84375 314.09375 277.95312Q314.25 278.01562 315.03125 278.21875Q316.15625 278.53125 316.59375 278.71875Q317.03125 278.90625 317.28125 279.26562Q317.53125 279.625 317.53125 280.17188Q317.53125 280.70312 317.21875 281.17188Q316.92188 281.625 316.34375 281.89062Q315.76562 282.14062 315.03125 282.14062Q313.8125 282.14062 313.17188 281.64062Q312.54688 281.125 312.375 280.14062ZM324.0 280.60938L324.0 278.25L321.67188 278.25L321.67188 277.26562L324.0 277.26562L324.0 274.9375L325.0 274.9375L325.0 277.26562L327.34375 277.26562L327.34375 278.25L325.0 278.25L325.0 280.60938L324.0 280.60938ZM331.89062 282.0L331.89062 273.40625L333.60938 273.40625L335.64062 279.48438Q335.92188 280.34375 336.04688 280.76562Q336.1875 280.29688 336.5 279.39062L338.5625 273.40625L340.09375 273.40625L340.09375 282.0L339.0 282.0L339.0 274.8125L336.5 282.0L335.46875 282.0L332.98438 274.6875L332.98438 282.0L331.89062 282.0ZM346.04688 280.0L347.14062 280.125Q346.89062 281.07812 346.1875 281.60938Q345.48438 282.14062 344.40625 282.14062Q343.04688 282.14062 342.23438 281.29688Q341.4375 280.45312 341.4375 278.9375Q341.4375 277.375 342.25 276.51562Q343.0625 275.64062 344.34375 275.64062Q345.59375 275.64062 346.375 276.48438Q347.17188 277.32812 347.17188 278.875Q347.17188 278.96875 347.17188 279.15625L342.53125 279.15625Q342.59375 280.1875 343.10938 280.73438Q343.625 281.26562 344.40625 281.26562Q344.98438 281.26562 345.39062 280.96875Q345.8125 280.65625 346.04688 280.0ZM342.59375 278.29688L346.0625 278.29688Q346.0 277.5 345.67188 277.10938Q345.15625 276.5 344.35938 276.5Q343.625 276.5 343.125 276.98438Q342.64062 277.46875 342.59375 278.29688ZM352.82812 282.0L352.82812 281.21875Q352.23438 282.14062 351.09375 282.14062Q350.34375 282.14062 349.71875 281.73438Q349.09375 281.3125 348.75 280.57812Q348.40625 279.84375 348.40625 278.89062Q348.40625 277.96875 348.71875 277.20312Q349.03125 276.4375 349.65625 276.04688Q350.28125 275.64062 351.04688 275.64062Q351.60938 275.64062 352.04688 275.875Q352.48438 276.10938 352.76562 276.48438L352.76562 273.40625L353.8125 273.40625L353.8125 282.0L352.82812 282.0ZM349.5 278.89062Q349.5 280.09375 350.0 280.6875Q350.5 281.26562 351.1875 281.26562Q351.875 281.26562 352.35938 280.70312Q352.84375 280.14062 352.84375 278.98438Q352.84375 277.70312 352.34375 277.10938Q351.85938 276.51562 351.14062 276.51562Q350.4375 276.51562 349.96875 277.09375Q349.5 277.65625 349.5 278.89062ZM355.79688 274.625L355.79688 273.40625L356.85938 273.40625L356.85938 274.625L355.79688 274.625ZM355.79688 282.0L355.79688 275.78125L356.85938 275.78125L356.85938 282.0L355.79688 282.0ZM362.85938 281.23438Q362.26562 281.73438 361.71875 281.9375Q361.1875 282.14062 360.5625 282.14062Q359.53125 282.14062 358.98438 281.64062Q358.4375 281.14062 358.4375 280.35938Q358.4375 279.90625 358.64062 279.53125Q358.84375 279.14062 359.1875 278.92188Q359.53125 278.6875 359.95312 278.57812Q360.25 278.48438 360.89062 278.40625Q362.15625 278.26562 362.76562 278.04688Q362.76562 277.82812 362.76562 277.78125Q362.76562 277.125 362.46875 276.85938Q362.0625 276.51562 361.26562 276.51562Q360.53125 276.51562 360.17188 276.78125Q359.8125 277.03125 359.64062 277.6875L358.60938 277.54688Q358.75 276.89062 359.07812 276.48438Q359.40625 276.07812 360.01562 275.85938Q360.625 275.64062 361.42188 275.64062Q362.21875 275.64062 362.71875 275.82812Q363.21875 276.01562 363.45312 276.29688Q363.6875 276.57812 363.78125 277.01562Q363.82812 277.28125 363.82812 277.98438L363.82812 279.39062Q363.82812 280.85938 363.89062 281.25Q363.96875 281.64062 364.17188 282.0L363.0625 282.0Q362.90625 281.67188 362.85938 281.23438ZM362.76562 278.875Q362.1875 279.10938 361.04688 279.28125Q360.39062 279.375 360.125 279.5Q359.85938 279.60938 359.70312 279.82812Q359.5625 280.04688 359.5625 280.32812Q359.5625 280.75 359.875 281.03125Q360.20312 281.3125 360.8125 281.3125Q361.42188 281.3125 361.89062 281.04688Q362.375 280.78125 362.59375 280.3125Q362.76562 279.95312 362.76562 279.26562L362.76562 278.875ZM368.09375 281.0625L368.25 281.98438Q367.79688 282.07812 367.45312 282.07812Q366.875 282.07812 366.5625 281.90625Q366.25 281.71875 366.10938 281.42188Q365.98438 281.125 365.98438 280.17188L365.98438 276.59375L365.21875 276.59375L365.21875 275.78125L365.98438 275.78125L365.98438 274.23438L367.03125 273.60938L367.03125 275.78125L368.09375 275.78125L368.09375 276.59375L367.03125 276.59375L367.03125 280.23438Q367.03125 280.6875 367.07812 280.8125Q367.14062 280.9375 367.26562 281.01562Q367.39062 281.09375 367.625 281.09375Q367.8125 281.09375 368.09375 281.0625ZM368.79688 274.625L368.79688 273.40625L369.85938 273.40625L369.85938 274.625L368.79688 274.625ZM368.79688 282.0L368.79688 275.78125L369.85938 275.78125L369.85938 282.0L368.79688 282.0ZM371.40625 278.89062Q371.40625 277.15625 372.35938 276.32812Q373.15625 275.64062 374.3125 275.64062Q375.59375 275.64062 376.40625 276.48438Q377.23438 277.3125 377.23438 278.79688Q377.23438 280.0 376.875 280.6875Q376.51562 281.375 375.8125 281.76562Q375.125 282.14062 374.3125 282.14062Q373.01562 282.14062 372.20312 281.3125Q371.40625 280.46875 371.40625 278.89062ZM372.48438 278.89062Q372.48438 280.07812 373.0 280.67188Q373.53125 281.26562 374.3125 281.26562Q375.10938 281.26562 375.625 280.67188Q376.14062 280.07812 376.14062 278.85938Q376.14062 277.70312 375.60938 277.10938Q375.09375 276.51562 374.3125 276.51562Q373.53125 276.51562 373.0 277.10938Q372.48438 277.6875 372.48438 278.89062ZM378.79688 282.0L378.79688 275.78125L379.73438 275.78125L379.73438 276.65625Q380.42188 275.64062 381.71875 275.64062Q382.28125 275.64062 382.75 275.84375Q383.23438 276.04688 383.46875 276.375Q383.70312 276.70312 383.79688 277.14062Q383.84375 277.4375 383.84375 278.17188L383.84375 282.0L382.79688 282.0L382.79688 278.21875Q382.79688 277.5625 382.67188 277.25Q382.54688 276.9375 382.23438 276.75Q381.92188 276.54688 381.5 276.54688Q380.82812 276.54688 380.32812 276.98438Q379.84375 277.40625 379.84375 278.59375L379.84375 282.0L378.79688 282.0ZM388.79688 284.39062L388.79688 275.78125L389.75 275.78125L389.75 276.57812Q390.09375 276.10938 390.51562 275.875Q390.95312 275.64062 391.5625 275.64062Q392.35938 275.64062 392.96875 276.04688Q393.57812 276.45312 393.875 277.20312Q394.1875 277.95312 394.1875 278.84375Q394.1875 279.79688 393.84375 280.5625Q393.51562 281.32812 392.85938 281.73438Q392.20312 282.14062 391.48438 282.14062Q390.95312 282.14062 390.53125 281.92188Q390.10938 281.6875 389.84375 281.35938L389.84375 284.39062L388.79688 284.39062ZM389.75 278.92188Q389.75 280.125 390.23438 280.70312Q390.71875 281.26562 391.40625 281.26562Q392.10938 281.26562 392.60938 280.67188Q393.10938 280.07812 393.10938 278.82812Q393.10938 277.64062 392.625 277.0625Q392.14062 276.46875 391.45312 276.46875Q390.78125 276.46875 390.26562 277.09375Q389.75 277.71875 389.75 278.92188ZM395.40625 278.89062Q395.40625 277.15625 396.35938 276.32812Q397.15625 275.64062 398.3125 275.64062Q399.59375 275.64062 400.40625 276.48438Q401.23438 277.3125 401.23438 278.79688Q401.23438 280.0 400.875 280.6875Q400.51562 281.375 399.8125 281.76562Q399.125 282.14062 398.3125 282.14062Q397.01562 282.14062 396.20312 281.3125Q395.40625 280.46875 395.40625 278.89062ZM396.48438 278.89062Q396.48438 280.07812 397.0 280.67188Q397.53125 281.26562 398.3125 281.26562Q399.10938 281.26562 399.625 280.67188Q400.14062 280.07812 400.14062 278.85938Q400.14062 277.70312 399.60938 277.10938Q399.09375 276.51562 398.3125 276.51562Q397.53125 276.51562 397.0 277.10938Q396.48438 277.6875 396.48438 278.89062ZM402.76562 282.0L402.76562 273.40625L403.82812 273.40625L403.82812 282.0L402.76562 282.0ZM405.79688 274.625L405.79688 273.40625L406.85938 273.40625L406.85938 274.625L405.79688 274.625ZM405.79688 282.0L405.79688 275.78125L406.85938 275.78125L406.85938 282.0L405.79688 282.0ZM412.85938 279.71875L413.89062 279.85938Q413.71875 280.92188 413.01562 281.53125Q412.3125 282.14062 411.29688 282.14062Q410.01562 282.14062 409.23438 281.3125Q408.46875 280.46875 408.46875 278.90625Q408.46875 277.90625 408.79688 277.15625Q409.14062 276.39062 409.8125 276.01562Q410.5 275.64062 411.3125 275.64062Q412.3125 275.64062 412.95312 276.15625Q413.60938 276.65625 413.79688 277.60938L412.76562 277.76562Q412.625 277.14062 412.25 276.82812Q411.875 276.5 411.34375 276.5Q410.54688 276.5 410.04688 277.07812Q409.54688 277.64062 409.54688 278.875Q409.54688 280.14062 410.03125 280.70312Q410.51562 281.26562 411.28125 281.26562Q411.90625 281.26562 412.3125 280.89062Q412.73438 280.51562 412.85938 279.71875ZM414.75 284.39062L414.625 283.40625Q414.96875 283.5 415.23438 283.5Q415.57812 283.5 415.78125 283.375Q416.0 283.26562 416.14062 283.0625Q416.23438 282.89062 416.46875 282.26562Q416.48438 282.1875 416.5625 282.01562L414.1875 275.78125L415.32812 275.78125L416.625 279.375Q416.875 280.0625 417.07812 280.82812Q417.26562 280.09375 417.51562 279.40625L418.84375 275.78125L419.89062 275.78125L417.53125 282.10938Q417.14062 283.125 416.9375 283.51562Q416.65625 284.04688 416.28125 284.28125Q415.92188 284.53125 415.42188 284.53125Q415.125 284.53125 414.75 284.39062Z" fill-rule="nonzero"/><path fill="#444746" d="M109.6875 34.0L109.6875 21.375L104.96875 21.375L104.96875 19.6875L116.3125 19.6875L116.3125 21.375L111.578125 21.375L111.578125 34.0L109.6875 34.0ZM117.8125 34.0L117.8125 19.6875L119.578125 19.6875L119.578125 24.8125Q120.8125 23.390625 122.6875 23.390625Q123.828125 23.390625 124.671875 23.84375Q125.53125 24.296875 125.890625 25.109375Q126.265625 25.90625 126.265625 27.421875L126.265625 34.0L124.515625 34.0L124.515625 27.421875Q124.515625 26.109375 123.9375 25.515625Q123.359375 24.90625 122.328125 24.90625Q121.546875 24.90625 120.84375 25.3125Q120.15625 25.71875 119.859375 26.421875Q119.578125 27.109375 119.578125 28.328125L119.578125 34.0L117.8125 34.0ZM128.79688 34.0L128.79688 23.625L130.375 23.625L130.375 25.203125Q130.98438 24.09375 131.5 23.75Q132.01562 23.390625 132.625 23.390625Q133.51562 23.390625 134.4375 23.953125L133.82812 25.59375Q133.1875 25.203125 132.54688 25.203125Q131.96875 25.203125 131.5 25.5625Q131.04688 25.90625 130.84375 26.515625Q130.5625 27.453125 130.5625 28.5625L130.5625 34.0L128.79688 34.0ZM135.17188 28.8125Q135.17188 25.9375 136.76562 24.546875Q138.10938 23.390625 140.03125 23.390625Q142.17188 23.390625 143.51562 24.796875Q144.875 26.203125 144.875 28.671875Q144.875 30.671875 144.28125 31.828125Q143.6875 32.96875 142.53125 33.609375Q141.39062 34.234375 140.03125 34.234375Q137.84375 34.234375 136.5 32.84375Q135.17188 31.4375 135.17188 28.8125ZM136.96875 28.8125Q136.96875 30.8125 137.82812 31.796875Q138.70312 32.78125 140.03125 32.78125Q141.34375 32.78125 142.20312 31.796875Q143.07812 30.796875 143.07812 28.75Q143.07812 26.828125 142.20312 25.84375Q141.32812 24.84375 140.03125 24.84375Q138.70312 24.84375 137.82812 25.84375Q136.96875 26.828125 136.96875 28.8125ZM153.60938 34.0L153.60938 32.46875Q152.40625 34.234375 150.32812 34.234375Q149.40625 34.234375 148.60938 33.890625Q147.8125 33.53125 147.42188 33.0Q147.04688 32.46875 146.89062 31.6875Q146.78125 31.171875 146.78125 30.046875L146.78125 23.625L148.53125 23.625L148.53125 29.375Q148.53125 30.75 148.64062 31.234375Q148.8125 31.921875 149.34375 32.328125Q149.89062 32.71875 150.67188 32.71875Q151.46875 32.71875 152.15625 32.3125Q152.85938 31.90625 153.14062 31.21875Q153.4375 30.515625 153.4375 29.1875L153.4375 23.625L155.1875 23.625L155.1875 34.0L153.60938 34.0ZM157.5 34.859375L159.20312 35.109375Q159.3125 35.90625 159.79688 36.265625Q160.45312 36.75 161.59375 36.75Q162.8125 36.75 163.46875 36.265625Q164.14062 35.78125 164.375 34.90625Q164.51562 34.359375 164.5 32.640625Q163.34375 34.0 161.625 34.0Q159.48438 34.0 158.3125 32.453125Q157.14062 30.90625 157.14062 28.75Q157.14062 27.265625 157.67188 26.015625Q158.21875 24.765625 159.23438 24.078125Q160.26562 23.390625 161.64062 23.390625Q163.46875 23.390625 164.67188 24.875L164.67188 23.625L166.28125 23.625L166.28125 32.59375Q166.28125 35.015625 165.78125 36.015625Q165.29688 37.03125 164.21875 37.609375Q163.15625 38.203125 161.59375 38.203125Q159.75 38.203125 158.59375 37.375Q157.45312 36.546875 157.5 34.859375ZM158.95312 28.625Q158.95312 30.671875 159.76562 31.609375Q160.57812 32.546875 161.79688 32.546875Q163.0 32.546875 163.8125 31.609375Q164.64062 30.671875 164.64062 28.6875Q164.64062 26.78125 163.79688 25.8125Q162.95312 24.84375 161.76562 24.84375Q160.59375 24.84375 159.76562 25.796875Q158.95312 26.75 158.95312 28.625ZM168.8125 34.0L168.8125 19.6875L170.57812 19.6875L170.57812 24.8125Q171.8125 23.390625 173.6875 23.390625Q174.82812 23.390625 175.67188 23.84375Q176.53125 24.296875 176.89062 25.109375Q177.26562 25.90625 177.26562 27.421875L177.26562 34.0L175.51562 34.0L175.51562 27.421875Q175.51562 26.109375 174.9375 25.515625Q174.35938 24.90625 173.32812 24.90625Q172.54688 24.90625 171.84375 25.3125Q171.15625 25.71875 170.85938 26.421875Q170.57812 27.109375 170.57812 28.328125L170.57812 34.0L168.8125 34.0ZM179.8125 37.96875L179.8125 23.625L181.42188 23.625L181.42188 24.96875Q181.98438 24.1875 182.6875 23.796875Q183.40625 23.390625 184.42188 23.390625Q185.75 23.390625 186.76562 24.078125Q187.78125 24.765625 188.29688 26.015625Q188.82812 27.25 188.82812 28.734375Q188.82812 30.328125 188.25 31.609375Q187.6875 32.875 186.59375 33.5625Q185.5 34.234375 184.29688 34.234375Q183.42188 34.234375 182.71875 33.859375Q182.03125 33.484375 181.57812 32.921875L181.57812 37.96875L179.8125 37.96875ZM181.40625 28.875Q181.40625 30.875 182.21875 31.828125Q183.03125 32.78125 184.1875 32.78125Q185.35938 32.78125 186.1875 31.796875Q187.03125 30.8125 187.03125 28.71875Q187.03125 26.75 186.20312 25.765625Q185.39062 24.765625 184.26562 24.765625Q183.14062 24.765625 182.26562 25.828125Q181.40625 26.875 181.40625 28.875ZM197.60938 34.0L197.60938 32.46875Q196.40625 34.234375 194.32812 34.234375Q193.40625 34.234375 192.60938 33.890625Q191.8125 33.53125 191.42188 33.0Q191.04688 32.46875 190.89062 31.6875Q190.78125 31.171875 190.78125 30.046875L190.78125 23.625L192.53125 23.625L192.53125 29.375Q192.53125 30.75 192.64062 31.234375Q192.8125 31.921875 193.34375 32.328125Q193.89062 32.71875 194.67188 32.71875Q195.46875 32.71875 196.15625 32.3125Q196.85938 31.90625 197.14062 31.21875Q197.4375 30.515625 197.4375 29.1875L197.4375 23.625L199.1875 23.625L199.1875 34.0L197.60938 34.0ZM205.65625 32.421875L205.90625 33.984375Q205.17188 34.140625 204.57812 34.140625Q203.625 34.140625 203.09375 33.84375Q202.57812 33.53125 202.35938 33.046875Q202.14062 32.546875 202.14062 30.96875L202.14062 25.0L200.85938 25.0L200.85938 23.625L202.14062 23.625L202.14062 21.0625L203.89062 20.0L203.89062 23.625L205.65625 23.625L205.65625 25.0L203.89062 25.0L203.89062 31.0625Q203.89062 31.8125 203.98438 32.03125Q204.07812 32.234375 204.28125 32.375Q204.5 32.5 204.89062 32.5Q205.17188 32.5 205.65625 32.421875ZM216.70312 34.0L212.75 23.625L214.60938 23.625L216.84375 29.84375Q217.20312 30.84375 217.5 31.921875Q217.73438 31.109375 218.15625 29.953125L220.45312 23.625L222.26562 23.625L218.34375 34.0L216.70312 34.0ZM223.10938 30.90625L224.85938 30.625Q225.0 31.671875 225.67188 32.234375Q226.34375 32.78125 227.54688 32.78125Q228.75 32.78125 229.32812 32.296875Q229.92188 31.796875 229.92188 31.140625Q229.92188 30.546875 229.40625 30.203125Q229.04688 29.96875 227.60938 29.609375Q225.67188 29.109375 224.92188 28.765625Q224.1875 28.40625 223.79688 27.78125Q223.40625 27.140625 223.40625 26.375Q223.40625 25.6875 223.71875 25.09375Q224.04688 24.5 224.59375 24.109375Q225.0 23.8125 225.70312 23.609375Q226.42188 23.390625 227.23438 23.390625Q228.45312 23.390625 229.375 23.75Q230.29688 24.09375 230.73438 24.703125Q231.17188 25.296875 231.34375 26.296875L229.625 26.53125Q229.5 25.734375 228.9375 25.296875Q228.375 24.84375 227.35938 24.84375Q226.14062 24.84375 225.625 25.25Q225.10938 25.640625 225.10938 26.171875Q225.10938 26.515625 225.32812 26.796875Q225.53125 27.078125 226.0 27.265625Q226.26562 27.359375 227.54688 27.703125Q229.42188 28.203125 230.15625 28.53125Q230.89062 28.84375 231.3125 29.453125Q231.73438 30.046875 231.73438 30.953125Q231.73438 31.828125 231.21875 32.609375Q230.70312 33.390625 229.73438 33.8125Q228.76562 34.234375 227.54688 34.234375Q225.53125 34.234375 224.46875 33.390625Q223.40625 32.546875 223.10938 30.90625ZM250.26562 28.984375L252.15625 29.453125Q251.5625 31.796875 250.01562 33.03125Q248.46875 34.25 246.21875 34.25Q243.90625 34.25 242.45312 33.3125Q241.01562 32.359375 240.25 30.578125Q239.5 28.78125 239.5 26.734375Q239.5 24.5 240.34375 22.84375Q241.20312 21.171875 242.78125 20.3125Q244.35938 19.4375 246.25 19.4375Q248.40625 19.4375 249.85938 20.53125Q251.32812 21.625 251.90625 23.609375L250.04688 24.046875Q249.54688 22.484375 248.59375 21.78125Q247.65625 21.0625 246.21875 21.0625Q244.5625 21.0625 243.45312 21.859375Q242.34375 22.640625 241.89062 23.984375Q241.45312 25.3125 241.45312 26.71875Q241.45312 28.546875 241.98438 29.921875Q242.51562 31.28125 243.64062 31.953125Q244.76562 32.625 246.0625 32.625Q247.65625 32.625 248.76562 31.703125Q249.875 30.78125 250.26562 28.984375ZM253.17188 28.8125Q253.17188 25.9375 254.76562 24.546875Q256.10938 23.390625 258.03125 23.390625Q260.17188 23.390625 261.51562 24.796875Q262.875 26.203125 262.875 28.671875Q262.875 30.671875 262.28125 31.828125Q261.6875 32.96875 260.53125 33.609375Q259.39062 34.234375 258.03125 34.234375Q255.84375 34.234375 254.5 32.84375Q253.17188 31.4375 253.17188 28.8125ZM254.96875 28.8125Q254.96875 30.8125 255.82812 31.796875Q256.70312 32.78125 258.03125 32.78125Q259.34375 32.78125 260.20312 31.796875Q261.07812 30.796875 261.07812 28.75Q261.07812 26.828125 260.20312 25.84375Q259.32812 24.84375 258.03125 24.84375Q256.70312 24.84375 255.82812 25.84375Q254.96875 26.828125 254.96875 28.8125ZM264.8125 34.0L264.8125 23.625L266.40625 23.625L266.40625 25.109375Q267.54688 23.390625 269.70312 23.390625Q270.64062 23.390625 271.42188 23.734375Q272.21875 24.0625 272.60938 24.609375Q273.0 25.15625 273.15625 25.90625Q273.25 26.40625 273.25 27.625L273.25 34.0L271.48438 34.0L271.48438 27.6875Q271.48438 26.609375 271.28125 26.078125Q271.07812 25.546875 270.54688 25.234375Q270.03125 24.921875 269.32812 24.921875Q268.20312 24.921875 267.39062 25.640625Q266.57812 26.34375 266.57812 28.328125L266.57812 34.0L264.8125 34.0ZM282.59375 30.203125L284.3125 30.421875Q284.03125 32.21875 282.85938 33.234375Q281.70312 34.234375 280.0 34.234375Q277.875 34.234375 276.57812 32.84375Q275.28125 31.453125 275.28125 28.859375Q275.28125 27.171875 275.82812 25.921875Q276.39062 24.65625 277.53125 24.03125Q278.67188 23.390625 280.01562 23.390625Q281.70312 23.390625 282.76562 24.25Q283.84375 25.109375 284.15625 26.671875L282.4375 26.9375Q282.20312 25.890625 281.57812 25.375Q280.95312 24.84375 280.07812 24.84375Q278.75 24.84375 277.92188 25.796875Q277.09375 26.75 277.09375 28.796875Q277.09375 30.890625 277.89062 31.84375Q278.6875 32.78125 279.98438 32.78125Q281.01562 32.78125 281.70312 32.15625Q282.40625 31.515625 282.59375 30.203125ZM292.60938 34.0L292.60938 32.46875Q291.40625 34.234375 289.32812 34.234375Q288.40625 34.234375 287.60938 33.890625Q286.8125 33.53125 286.42188 33.0Q286.04688 32.46875 285.89062 31.6875Q285.78125 31.171875 285.78125 30.046875L285.78125 23.625L287.53125 23.625L287.53125 29.375Q287.53125 30.75 287.64062 31.234375Q287.8125 31.921875 288.34375 32.328125Q288.89062 32.71875 289.67188 32.71875Q290.46875 32.71875 291.15625 32.3125Q291.85938 31.90625 292.14062 31.21875Q292.4375 30.515625 292.4375 29.1875L292.4375 23.625L294.1875 23.625L294.1875 34.0L292.60938 34.0ZM296.79688 34.0L296.79688 23.625L298.375 23.625L298.375 25.203125Q298.98438 24.09375 299.5 23.75Q300.01562 23.390625 300.625 23.390625Q301.51562 23.390625 302.4375 23.953125L301.82812 25.59375Q301.1875 25.203125 300.54688 25.203125Q299.96875 25.203125 299.5 25.5625Q299.04688 25.90625 298.84375 26.515625Q298.5625 27.453125 298.5625 28.5625L298.5625 34.0L296.79688 34.0ZM303.79688 34.0L303.79688 23.625L305.375 23.625L305.375 25.203125Q305.98438 24.09375 306.5 23.75Q307.01562 23.390625 307.625 23.390625Q308.51562 23.390625 309.4375 23.953125L308.82812 25.59375Q308.1875 25.203125 307.54688 25.203125Q306.96875 25.203125 306.5 25.5625Q306.04688 25.90625 305.84375 26.515625Q305.5625 27.453125 305.5625 28.5625L305.5625 34.0L303.79688 34.0ZM317.92188 30.65625L319.73438 30.890625Q319.3125 32.46875 318.14062 33.359375Q316.98438 34.234375 315.17188 34.234375Q312.90625 34.234375 311.5625 32.84375Q310.23438 31.4375 310.23438 28.90625Q310.23438 26.28125 311.57812 24.84375Q312.92188 23.390625 315.07812 23.390625Q317.15625 23.390625 318.46875 24.8125Q319.79688 26.21875 319.79688 28.796875Q319.79688 28.953125 319.78125 29.265625L312.04688 29.265625Q312.14062 30.96875 313.01562 31.875Q313.89062 32.78125 315.1875 32.78125Q316.15625 32.78125 316.82812 32.28125Q317.51562 31.765625 317.92188 30.65625ZM312.14062 27.8125L317.9375 27.8125Q317.82812 26.515625 317.28125 25.859375Q316.4375 24.84375 315.09375 24.84375Q313.89062 24.84375 313.0625 25.65625Q312.23438 26.453125 312.14062 27.8125ZM321.8125 34.0L321.8125 23.625L323.40625 23.625L323.40625 25.109375Q324.54688 23.390625 326.70312 23.390625Q327.64062 23.390625 328.42188 23.734375Q329.21875 24.0625 329.60938 24.609375Q330.0 25.15625 330.15625 25.90625Q330.25 26.40625 330.25 27.625L330.25 34.0L328.48438 34.0L328.48438 27.6875Q328.48438 26.609375 328.28125 26.078125Q328.07812 25.546875 327.54688 25.234375Q327.03125 24.921875 326.32812 24.921875Q325.20312 24.921875 324.39062 25.640625Q323.57812 26.34375 323.57812 28.328125L323.57812 34.0L321.8125 34.0ZM336.65625 32.421875L336.90625 33.984375Q336.17188 34.140625 335.57812 34.140625Q334.625 34.140625 334.09375 33.84375Q333.57812 33.53125 333.35938 33.046875Q333.14062 32.546875 333.14062 30.96875L333.14062 25.0L331.85938 25.0L331.85938 23.625L333.14062 23.625L333.14062 21.0625L334.89062 20.0L334.89062 23.625L336.65625 23.625L336.65625 25.0L334.89062 25.0L334.89062 31.0625Q334.89062 31.8125 334.98438 32.03125Q335.07812 32.234375 335.28125 32.375Q335.5 32.5 335.89062 32.5Q336.17188 32.5 336.65625 32.421875ZM354.4375 19.6875L356.32812 19.6875L356.32812 27.953125Q356.32812 30.109375 355.84375 31.390625Q355.35938 32.65625 354.07812 33.453125Q352.8125 34.25 350.73438 34.25Q348.71875 34.25 347.4375 33.5625Q346.17188 32.859375 345.625 31.546875Q345.07812 30.234375 345.07812 27.953125L345.07812 19.6875L346.96875 19.6875L346.96875 27.9375Q346.96875 29.8125 347.3125 30.703125Q347.65625 31.578125 348.5 32.0625Q349.34375 32.53125 350.57812 32.53125Q352.65625 32.53125 353.54688 31.59375Q354.4375 30.640625 354.4375 27.9375L354.4375 19.6875ZM358.10938 30.90625L359.85938 30.625Q360.0 31.671875 360.67188 32.234375Q361.34375 32.78125 362.54688 32.78125Q363.75 32.78125 364.32812 32.296875Q364.92188 31.796875 364.92188 31.140625Q364.92188 30.546875 364.40625 30.203125Q364.04688 29.96875 362.60938 29.609375Q360.67188 29.109375 359.92188 28.765625Q359.1875 28.40625 358.79688 27.78125Q358.40625 27.140625 358.40625 26.375Q358.40625 25.6875 358.71875 25.09375Q359.04688 24.5 359.59375 24.109375Q360.0 23.8125 360.70312 23.609375Q361.42188 23.390625 362.23438 23.390625Q363.45312 23.390625 364.375 23.75Q365.29688 24.09375 365.73438 24.703125Q366.17188 25.296875 366.34375 26.296875L364.625 26.53125Q364.5 25.734375 363.9375 25.296875Q363.375 24.84375 362.35938 24.84375Q361.14062 24.84375 360.625 25.25Q360.10938 25.640625 360.10938 26.171875Q360.10938 26.515625 360.32812 26.796875Q360.53125 27.078125 361.0 27.265625Q361.26562 27.359375 362.54688 27.703125Q364.42188 28.203125 365.15625 28.53125Q365.89062 28.84375 366.3125 29.453125Q366.73438 30.046875 366.73438 30.953125Q366.73438 31.828125 366.21875 32.609375Q365.70312 33.390625 364.73438 33.8125Q363.76562 34.234375 362.54688 34.234375Q360.53125 34.234375 359.46875 33.390625Q358.40625 32.546875 358.10938 30.90625ZM375.92188 30.65625L377.73438 30.890625Q377.3125 32.46875 376.14062 33.359375Q374.98438 34.234375 373.17188 34.234375Q370.90625 34.234375 369.5625 32.84375Q368.23438 31.4375 368.23438 28.90625Q368.23438 26.28125 369.57812 24.84375Q370.92188 23.390625 373.07812 23.390625Q375.15625 23.390625 376.46875 24.8125Q377.79688 26.21875 377.79688 28.796875Q377.79688 28.953125 377.78125 29.265625L370.04688 29.265625Q370.14062 30.96875 371.01562 31.875Q371.89062 32.78125 373.1875 32.78125Q374.15625 32.78125 374.82812 32.28125Q375.51562 31.765625 375.92188 30.65625ZM370.14062 27.8125L375.9375 27.8125Q375.82812 26.515625 375.28125 25.859375Q374.4375 24.84375 373.09375 24.84375Q371.89062 24.84375 371.0625 25.65625Q370.23438 26.453125 370.14062 27.8125ZM379.79688 34.0L379.79688 23.625L381.375 23.625L381.375 25.203125Q381.98438 24.09375 382.5 23.75Q383.01562 23.390625 383.625 23.390625Q384.51562 23.390625 385.4375 23.953125L384.82812 25.59375Q384.1875 25.203125 383.54688 25.203125Q382.96875 25.203125 382.5 25.5625Q382.04688 25.90625 381.84375 26.515625Q381.5625 27.453125 381.5625 28.5625L381.5625 34.0L379.79688 34.0ZM386.10938 30.90625L387.85938 30.625Q388.0 31.671875 388.67188 32.234375Q389.34375 32.78125 390.54688 32.78125Q391.75 32.78125 392.32812 32.296875Q392.92188 31.796875 392.92188 31.140625Q392.92188 30.546875 392.40625 30.203125Q392.04688 29.96875 390.60938 29.609375Q388.67188 29.109375 387.92188 28.765625Q387.1875 28.40625 386.79688 27.78125Q386.40625 27.140625 386.40625 26.375Q386.40625 25.6875 386.71875 25.09375Q387.04688 24.5 387.59375 24.109375Q388.0 23.8125 388.70312 23.609375Q389.42188 23.390625 390.23438 23.390625Q391.45312 23.390625 392.375 23.75Q393.29688 24.09375 393.73438 24.703125Q394.17188 25.296875 394.34375 26.296875L392.625 26.53125Q392.5 25.734375 391.9375 25.296875Q391.375 24.84375 390.35938 24.84375Q389.14062 24.84375 388.625 25.25Q388.10938 25.640625 388.10938 26.171875Q388.10938 26.515625 388.32812 26.796875Q388.53125 27.078125 389.0 27.265625Q389.26562 27.359375 390.54688 27.703125Q392.42188 28.203125 393.15625 28.53125Q393.89062 28.84375 394.3125 29.453125Q394.73438 30.046875 394.73438 30.953125Q394.73438 31.828125 394.21875 32.609375Q393.70312 33.390625 392.73438 33.8125Q391.76562 34.234375 390.54688 34.234375Q388.53125 34.234375 387.46875 33.390625Q386.40625 32.546875 386.10938 30.90625Z" fill-rule="nonzero"/></svg>