<svg version="1.1" viewBox="0.0 0.0 666.0 399.0" fill="none" stroke="none" stroke-linecap="square" stroke-miterlimit="10" width="666" height="399" xmlns:xlink="http://www.w3.org/1999/xlink" xmlns="http://www.w3.org/2000/svg"><path fill="#f0f4f9" d="M0 0L666.0 0L666.0 399.0L0 399.0L0 0Z" fill-rule="nonzero"/><path stroke="#bec1c5" stroke-width="1.0" stroke-linecap="butt" d="M141.5 59.5L141.5 299.5" fill-rule="nonzero"/><path stroke="#bec1c5" stroke-width="1.0" stroke-linecap="butt" d="M267.5 59.5L267.5 299.5" fill-rule="nonzero"/><path stroke="#bec1c5" stroke-width="1.0" stroke-linecap="butt" d="M394.5 59.5L394.5 299.5" fill-rule="nonzero"/><path stroke="#bec1c5" stroke-width="1.0" stroke-linecap="butt" d="M520.5 59.5L520.5 299.5" fill-rule="nonzero"/><path stroke="#bec1c5" stroke-width="1.0" stroke-linecap="butt" d="M646.5 59.5L646.5 299.5" fill-rule="nonzero"/><path stroke="#272728" stroke-width="1.0" stroke-linecap="butt" d="M78.5 299.5L646.5 299.5" fill-rule="nonzero"/><path stroke="#bec1c5" stroke-width="1.0" stroke-linecap="butt" d="M78.5 219.5L646.5 219.5" fill-rule="nonzero"/><path stroke="#bec1c5" stroke-width="1.0" stroke-linecap="butt" d="M78.5 139.5L646.5 139.5" fill-rule="nonzero"/><path stroke="#bec1c5" stroke-width="1.0" stroke-linecap="butt" d="M78.5 59.5L646.5 59.5" fill-rule="nonzero"/><clipPath id="id_0"><path d="M78.95 59.25L646.05 59.25L646.05 299.75L78.95 299.75L78.95 59.25Z" clip-rule="nonzero"/></clipPath><path stroke="#0000ff" stroke-width="2.0" stroke-linecap="butt" clip-path="url(#id_0)" d="M78.95 283.5884L330.99445 213.5548L520.0278 158.3841L646.05 123.9926" fill-rule="nonzero"/><path stroke="#ff9900" stroke-width="2.0" stroke-linecap="butt" clip-path="url(#id_0)" d="M78.95 280.8948L330.99445 199.25307L520.0278 135.79314L646.05 95.74187" fill-rule="nonzero"/><path fill="#000000" fill-opacity="0.0" clip-path="url(#id_0)" d="M81.95 283.5884C81.95 285.24524 80.60686 286.5884 78.95 286.5884C77.293144 286.5884 75.95 285.24524 75.95 283.5884C75.95 281.93155 77.293144 280.5884 78.95 280.5884C80.60686 280.5884 81.95 281.93155 81.95 283.5884Z" fill-rule="nonzero"/><path fill="#000000" fill-opacity="0.0" clip-path="url(#id_0)" d="M333.99445 213.5548C333.99445 215.21165 332.6513 216.5548 330.99445 216.5548C329.3376 216.5548 327.99445 215.21165 327.99445 213.5548C327.99445 211.89795 329.3376 210.5548 330.99445 210.5548C332.6513 210.5548 333.99445 211.89795 333.99445 213.5548Z" fill-rule="nonzero"/><path fill="#000000" fill-opacity="0.0" clip-path="url(#id_0)" d="M523.0278 158.3841C523.0278 160.04095 521.68463 161.3841 520.0278 161.3841C518.3709 161.3841 517.0278 160.04095 517.0278 158.3841C517.0278 156.72725 518.3709 155.3841 520.0278 155.3841C521.68463 155.3841 523.0278 156.72725 523.0278 158.3841Z" fill-rule="nonzero"/><path fill="#000000" fill-opacity="0.0" clip-path="url(#id_0)" d="M649.05 123.9926C649.05 125.64945 647.70685 126.9926 646.05 126.9926C644.3931 126.9926 643.05 125.64945 643.05 123.9926C643.05 122.33575 644.3931 120.9926 646.05 120.9926C647.70685 120.9926 649.05 122.33575 649.05 123.9926Z" fill-rule="nonzero"/><path fill="#000000" fill-opacity="0.0" clip-path="url(#id_0)" d="M81.95 280.8948C81.95 282.55167 80.60686 283.8948 78.95 283.8948C77.293144 283.8948 75.95 282.55167 75.95 280.8948C75.95 279.23795 77.293144 277.8948 78.95 277.8948C80.60686 277.8948 81.95 279.23795 81.95 280.8948Z" fill-rule="nonzero"/><path fill="#000000" fill-opacity="0.0" clip-path="url(#id_0)" d="M333.99445 199.25307C333.99445 200.90993 332.6513 202.25307 330.99445 202.25307C329.3376 202.25307 327.99445 200.90993 327.99445 199.25307C327.99445 197.5962 329.3376 196.25307 330.99445 196.25307C332.6513 196.25307 333.99445 197.5962 333.99445 199.25307Z" fill-rule="nonzero"/><path fill="#000000" fill-opacity="0.0" clip-path="url(#id_0)" d="M523.0278 135.79314C523.0278 137.44998 521.68463 138.79314 520.0278 138.79314C518.3709 138.79314 517.0278 137.44998 517.0278 135.79314C517.0278 134.13628 518.3709 132.79314 520.0278 132.79314C521.68463 132.79314 523.0278 134.13628 523.0278 135.79314Z" fill-rule="nonzero"/><path fill="#000000" fill-opacity="0.0" clip-path="url(#id_0)" d="M649.05 95.74187C649.05 97.39872 647.70685 98.74187 646.05 98.74187C644.3931 98.74187 643.05 97.39872 643.05 95.74187C643.05 94.085014 644.3931 92.74187 646.05 92.74187C647.70685 92.74187 649.05 94.085014 649.05 95.74187Z" fill-rule="nonzero"/><path fill="#000000" d="M321.5625 345.73438L322.6875 346.03125Q322.32812 347.42188 321.40625 348.15625Q320.48438 348.89062 319.14062 348.89062Q317.75 348.89062 316.875 348.32812Q316.0 347.76562 315.54688 346.70312Q315.09375 345.625 315.09375 344.39062Q315.09375 343.04688 315.60938 342.04688Q316.125 341.04688 317.0625 340.53125Q318.01562 340.01562 319.15625 340.01562Q320.4375 340.01562 321.3125 340.67188Q322.20312 341.32812 322.54688 342.51562L321.42188 342.78125Q321.125 341.84375 320.54688 341.42188Q319.98438 340.98438 319.125 340.98438Q318.14062 340.98438 317.46875 341.46875Q316.8125 341.9375 316.53125 342.73438Q316.26562 343.53125 316.26562 344.39062Q316.26562 345.48438 316.57812 346.29688Q316.90625 347.10938 317.57812 347.51562Q318.25 347.92188 319.04688 347.92188Q320.0 347.92188 320.65625 347.375Q321.32812 346.82812 321.5625 345.73438ZM323.90625 345.64062Q323.90625 343.90625 324.85938 343.07812Q325.65625 342.39062 326.8125 342.39062Q328.09375 342.39062 328.90625 343.23438Q329.73438 344.0625 329.73438 345.54688Q329.73438 346.75 329.375 347.4375Q329.01562 348.125 328.3125 348.51562Q327.625 348.89062 326.8125 348.89062Q325.51562 348.89062 324.70312 348.0625Q323.90625 347.21875 323.90625 345.64062ZM324.98438 345.64062Q324.98438 346.82812 325.5 347.42188Q326.03125 348.01562 326.8125 348.01562Q327.60938 348.01562 328.125 347.42188Q328.64062 346.82812 328.64062 345.60938Q328.64062 344.45312 328.10938 343.85938Q327.59375 343.26562 326.8125 343.26562Q326.03125 343.26562 325.5 343.85938Q324.98438 344.4375 324.98438 345.64062ZM331.29688 348.75L331.29688 342.53125L332.23438 342.53125L332.23438 343.40625Q332.92188 342.39062 334.21875 342.39062Q334.78125 342.39062 335.25 342.59375Q335.73438 342.79688 335.96875 343.125Q336.20312 343.45312 336.29688 343.89062Q336.34375 344.1875 336.34375 344.92188L336.34375 348.75L335.29688 348.75L335.29688 344.96875Q335.29688 344.3125 335.17188 344.0Q335.04688 343.6875 334.73438 343.5Q334.42188 343.29688 334.0 343.29688Q333.32812 343.29688 332.82812 343.73438Q332.34375 344.15625 332.34375 345.34375L332.34375 348.75L331.29688 348.75ZM342.35938 346.46875L343.39062 346.60938Q343.21875 347.67188 342.51562 348.28125Q341.8125 348.89062 340.79688 348.89062Q339.51562 348.89062 338.73438 348.0625Q337.96875 347.21875 337.96875 345.65625Q337.96875 344.65625 338.29688 343.90625Q338.64062 343.14062 339.3125 342.76562Q340.0 342.39062 340.8125 342.39062Q341.8125 342.39062 342.45312 342.90625Q343.10938 343.40625 343.29688 344.35938L342.26562 344.51562Q342.125 343.89062 341.75 343.57812Q341.375 343.25 340.84375 343.25Q340.04688 343.25 339.54688 343.82812Q339.04688 344.39062 339.04688 345.625Q339.04688 346.89062 339.53125 347.45312Q340.01562 348.01562 340.78125 348.01562Q341.40625 348.01562 341.8125 347.64062Q342.23438 347.26562 342.35938 346.46875ZM348.375 348.75L348.375 347.82812Q347.64062 348.89062 346.39062 348.89062Q345.84375 348.89062 345.35938 348.6875Q344.89062 348.46875 344.65625 348.15625Q344.42188 347.82812 344.32812 347.35938Q344.26562 347.0625 344.26562 346.375L344.26562 342.53125L345.32812 342.53125L345.32812 345.98438Q345.32812 346.79688 345.39062 347.09375Q345.48438 347.5 345.79688 347.75Q346.125 347.98438 346.60938 347.98438Q347.07812 347.98438 347.48438 347.75Q347.90625 347.5 348.07812 347.07812Q348.26562 346.65625 348.26562 345.85938L348.26562 342.53125L349.3125 342.53125L349.3125 348.75L348.375 348.75ZM351.28125 348.75L351.28125 342.53125L352.23438 342.53125L352.23438 343.46875Q352.59375 342.8125 352.89062 342.60938Q353.20312 342.39062 353.57812 342.39062Q354.10938 342.39062 354.65625 342.71875L354.29688 343.70312Q353.90625 343.46875 353.53125 343.46875Q353.17188 343.46875 352.89062 343.6875Q352.625 343.89062 352.51562 344.26562Q352.32812 344.82812 352.32812 345.48438L352.32812 348.75L351.28125 348.75ZM355.28125 348.75L355.28125 342.53125L356.23438 342.53125L356.23438 343.46875Q356.59375 342.8125 356.89062 342.60938Q357.20312 342.39062 357.57812 342.39062Q358.10938 342.39062 358.65625 342.71875L358.29688 343.70312Q357.90625 343.46875 357.53125 343.46875Q357.17188 343.46875 356.89062 343.6875Q356.625 343.89062 356.51562 344.26562Q356.32812 344.82812 356.32812 345.48438L356.32812 348.75L355.28125 348.75ZM363.54688 346.75L364.64062 346.875Q364.39062 347.82812 363.6875 348.35938Q362.98438 348.89062 361.90625 348.89062Q360.54688 348.89062 359.73438 348.04688Q358.9375 347.20312 358.9375 345.6875Q358.9375 344.125 359.75 343.26562Q360.5625 342.39062 361.84375 342.39062Q363.09375 342.39062 363.875 343.23438Q364.67188 344.07812 364.67188 345.625Q364.67188 345.71875 364.67188 345.90625L360.03125 345.90625Q360.09375 346.9375 360.60938 347.48438Q361.125 348.01562 361.90625 348.01562Q362.48438 348.01562 362.89062 347.71875Q363.3125 347.40625 363.54688 346.75ZM360.09375 345.04688L363.5625 345.04688Q363.5 344.25 363.17188 343.85938Q362.65625 343.25 361.85938 343.25Q361.125 343.25 360.625 343.73438Q360.14062 344.21875 360.09375 345.04688ZM366.29688 348.75L366.29688 342.53125L367.23438 342.53125L367.23438 343.40625Q367.92188 342.39062 369.21875 342.39062Q369.78125 342.39062 370.25 342.59375Q370.73438 342.79688 370.96875 343.125Q371.20312 343.45312 371.29688 343.89062Q371.34375 344.1875 371.34375 344.92188L371.34375 348.75L370.29688 348.75L370.29688 344.96875Q370.29688 344.3125 370.17188 344.0Q370.04688 343.6875 369.73438 343.5Q369.42188 343.29688 369.0 343.29688Q368.32812 343.29688 367.82812 343.73438Q367.34375 344.15625 367.34375 345.34375L367.34375 348.75L366.29688 348.75ZM375.59375 347.8125L375.75 348.73438Q375.29688 348.82812 374.95312 348.82812Q374.375 348.82812 374.0625 348.65625Q373.75 348.46875 373.60938 348.17188Q373.48438 347.875 373.48438 346.92188L373.48438 343.34375L372.71875 343.34375L372.71875 342.53125L373.48438 342.53125L373.48438 340.98438L374.53125 340.35938L374.53125 342.53125L375.59375 342.53125L375.59375 343.34375L374.53125 343.34375L374.53125 346.98438Q374.53125 347.4375 374.57812 347.5625Q374.64062 347.6875 374.76562 347.76562Q374.89062 347.84375 375.125 347.84375Q375.3125 347.84375 375.59375 347.8125ZM385.0625 340.15625L386.20312 340.15625L386.20312 345.125Q386.20312 346.42188 385.90625 347.1875Q385.60938 347.9375 384.84375 348.42188Q384.07812 348.89062 382.84375 348.89062Q381.64062 348.89062 380.85938 348.48438Q380.09375 348.0625 379.76562 347.28125Q379.4375 346.48438 379.4375 345.125L379.4375 340.15625L380.57812 340.15625L380.57812 345.10938Q380.57812 346.23438 380.78125 346.76562Q381.0 347.29688 381.5 347.59375Q382.01562 347.875 382.75 347.875Q384.0 347.875 384.53125 347.3125Q385.0625 346.73438 385.0625 345.10938L385.0625 340.15625ZM387.875 346.89062L388.90625 346.73438Q389.0 347.35938 389.39062 347.6875Q389.79688 348.01562 390.53125 348.01562Q391.25 348.01562 391.59375 347.73438Q391.95312 347.4375 391.95312 347.03125Q391.95312 346.67188 391.64062 346.46875Q391.42188 346.32812 390.5625 346.10938Q389.40625 345.8125 388.95312 345.60938Q388.51562 345.39062 388.28125 345.01562Q388.04688 344.64062 388.04688 344.17188Q388.04688 343.76562 388.23438 343.40625Q388.42188 343.04688 388.75 342.8125Q389.0 342.64062 389.42188 342.51562Q389.84375 342.39062 390.34375 342.39062Q391.0625 342.39062 391.60938 342.60938Q392.17188 342.8125 392.4375 343.17188Q392.70312 343.53125 392.79688 344.125L391.76562 344.26562Q391.70312 343.79688 391.35938 343.53125Q391.03125 343.25 390.40625 343.25Q389.6875 343.25 389.375 343.5Q389.0625 343.73438 389.0625 344.0625Q389.0625 344.26562 389.1875 344.42188Q389.32812 344.59375 389.59375 344.70312Q389.75 344.76562 390.53125 344.96875Q391.65625 345.28125 392.09375 345.46875Q392.53125 345.65625 392.78125 346.01562Q393.03125 346.375 393.03125 346.92188Q393.03125 347.45312 392.71875 347.92188Q392.42188 348.375 391.84375 348.64062Q391.26562 348.89062 390.53125 348.89062Q389.3125 348.89062 388.67188 348.39062Q388.04688 347.875 387.875 346.89062ZM398.54688 346.75L399.64062 346.875Q399.39062 347.82812 398.6875 348.35938Q397.98438 348.89062 396.90625 348.89062Q395.54688 348.89062 394.73438 348.04688Q393.9375 347.20312 393.9375 345.6875Q393.9375 344.125 394.75 343.26562Q395.5625 342.39062 396.84375 342.39062Q398.09375 342.39062 398.875 343.23438Q399.67188 344.07812 399.67188 345.625Q399.67188 345.71875 399.67188 345.90625L395.03125 345.90625Q395.09375 346.9375 395.60938 347.48438Q396.125 348.01562 396.90625 348.01562Q397.48438 348.01562 397.89062 347.71875Q398.3125 347.40625 398.54688 346.75ZM395.09375 345.04688L398.5625 345.04688Q398.5 344.25 398.17188 343.85938Q397.65625 343.25 396.85938 343.25Q396.125 343.25 395.625 343.73438Q395.14062 344.21875 395.09375 345.04688ZM401.28125 348.75L401.28125 342.53125L402.23438 342.53125L402.23438 343.46875Q402.59375 342.8125 402.89062 342.60938Q403.20312 342.39062 403.57812 342.39062Q404.10938 342.39062 404.65625 342.71875L404.29688 343.70312Q403.90625 343.46875 403.53125 343.46875Q403.17188 343.46875 402.89062 343.6875Q402.625 343.89062 402.51562 344.26562Q402.32812 344.82812 402.32812 345.48438L402.32812 348.75L401.28125 348.75ZM404.875 346.89062L405.90625 346.73438Q406.0 347.35938 406.39062 347.6875Q406.79688 348.01562 407.53125 348.01562Q408.25 348.01562 408.59375 347.73438Q408.95312 347.4375 408.95312 347.03125Q408.95312 346.67188 408.64062 346.46875Q408.42188 346.32812 407.5625 346.10938Q406.40625 345.8125 405.95312 345.60938Q405.51562 345.39062 405.28125 345.01562Q405.04688 344.64062 405.04688 344.17188Q405.04688 343.76562 405.23438 343.40625Q405.42188 343.04688 405.75 342.8125Q406.0 342.64062 406.42188 342.51562Q406.84375 342.39062 407.34375 342.39062Q408.0625 342.39062 408.60938 342.60938Q409.17188 342.8125 409.4375 343.17188Q409.70312 343.53125 409.79688 344.125L408.76562 344.26562Q408.70312 343.79688 408.35938 343.53125Q408.03125 343.25 407.40625 343.25Q406.6875 343.25 406.375 343.5Q406.0625 343.73438 406.0625 344.0625Q406.0625 344.26562 406.1875 344.42188Q406.32812 344.59375 406.59375 344.70312Q406.75 344.76562 407.53125 344.96875Q408.65625 345.28125 409.09375 345.46875Q409.53125 345.65625 409.78125 346.01562Q410.03125 346.375 410.03125 346.92188Q410.03125 347.45312 409.71875 347.92188Q409.42188 348.375 408.84375 348.64062Q408.26562 348.89062 407.53125 348.89062Q406.3125 348.89062 405.67188 348.39062Q405.04688 347.875 404.875 346.89062Z" fill-rule="nonzero"/><path fill="#000000" d="M30.95 267.01562L22.35625 263.71875L22.35625 262.5L30.95 258.98438L30.95 260.26562L28.340626 261.28125L28.340626 264.85938L30.95 265.8125L30.95 267.01562ZM27.41875 264.53125L27.41875 261.625L25.04375 262.51562Q23.965626 262.9375 23.2625 263.125Q24.090626 263.29688 24.903126 263.59375L27.41875 264.53125ZM30.95 256.48438L24.73125 258.84375L24.73125 257.73438L28.45 256.39062Q29.059376 256.1875 29.7 256.0Q29.215626 255.85938 28.528126 255.60938L24.73125 254.21875L24.73125 253.14062L30.95 255.5L30.95 256.48438ZM28.95 247.95312L29.075 246.85938Q30.028126 247.10938 30.559376 247.8125Q31.090626 248.51562 31.090626 249.59375Q31.090626 250.95312 30.246876 251.76562Q29.403126 252.5625 27.8875 252.5625Q26.325 252.5625 25.465626 251.75Q24.590626 250.9375 24.590626 249.65625Q24.590626 248.40625 25.434376 247.625Q26.278126 246.82812 27.825 246.82812Q27.91875 246.82812 28.10625 246.82812L28.10625 251.46875Q29.1375 251.40625 29.684376 250.89062Q30.215626 250.375 30.215626 249.59375Q30.215626 249.01562 29.91875 248.60938Q29.60625 248.1875 28.95 247.95312ZM27.246876 251.40625L27.246876 247.9375Q26.45 248.0 26.059376 248.32812Q25.45 248.84375 25.45 249.64062Q25.45 250.375 25.934376 250.875Q26.41875 251.35938 27.246876 251.40625ZM30.95 245.21875L24.73125 245.21875L24.73125 244.26562L25.66875 244.26562Q25.0125 243.90625 24.809376 243.60938Q24.590626 243.29688 24.590626 242.92188Q24.590626 242.39062 24.91875 241.84375L25.903126 242.20312Q25.66875 242.59375 25.66875 242.96875Q25.66875 243.32812 25.8875 243.60938Q26.090626 243.875 26.465626 243.98438Q27.028126 244.17188 27.684376 244.17188L30.95 244.17188L30.95 245.21875ZM30.184376 237.14062Q30.684376 237.73438 30.8875 238.28125Q31.090626 238.8125 31.090626 239.4375Q31.090626 240.46875 30.590626 241.01562Q30.090626 241.5625 29.309376 241.5625Q28.85625 241.5625 28.48125 241.35938Q28.090626 241.15625 27.871876 240.8125Q27.6375 240.46875 27.528126 240.04688Q27.434376 239.75 27.35625 239.10938Q27.215626 237.84375 26.996876 237.23438Q26.778126 237.23438 26.73125 237.23438Q26.075 237.23438 25.809376 237.53125Q25.465626 237.9375 25.465626 238.73438Q25.465626 239.46875 25.73125 239.82812Q25.98125 240.1875 26.6375 240.35938L26.496876 241.39062Q25.840626 241.25 25.434376 240.92188Q25.028126 240.59375 24.809376 239.98438Q24.590626 239.375 24.590626 238.57812Q24.590626 237.78125 24.778126 237.28125Q24.965626 236.78125 25.246876 236.54688Q25.528126 236.3125 25.965626 236.21875Q26.23125 236.17188 26.934376 236.17188L28.340626 236.17188Q29.809376 236.17188 30.2 236.10938Q30.590626 236.03125 30.95 235.82812L30.95 236.9375Q30.621876 237.09375 30.184376 237.14062ZM27.825 237.23438Q28.059376 237.8125 28.23125 238.95312Q28.325 239.60938 28.45 239.875Q28.559376 240.14062 28.778126 240.29688Q28.996876 240.4375 29.278126 240.4375Q29.7 240.4375 29.98125 240.125Q30.2625 239.79688 30.2625 239.1875Q30.2625 238.57812 29.996876 238.10938Q29.73125 237.625 29.2625 237.40625Q28.903126 237.23438 28.215626 237.23438L27.825 237.23438ZM31.465626 234.40625L31.621876 233.375Q32.090626 233.3125 32.309376 233.01562Q32.60625 232.625 32.60625 231.95312Q32.60625 231.21875 32.309376 230.82812Q32.0125 230.42188 31.496876 230.28125Q31.16875 230.1875 30.1375 230.20312Q30.95 230.89062 30.95 231.92188Q30.95 233.20312 30.028126 233.90625Q29.090626 234.60938 27.809376 234.60938Q26.91875 234.60938 26.16875 234.29688Q25.403126 233.96875 24.996876 233.35938Q24.590626 232.75 24.590626 231.92188Q24.590626 230.8125 25.48125 230.09375L24.73125 230.09375L24.73125 229.125L30.10625 229.125Q31.559376 229.125 32.16875 229.42188Q32.778126 229.71875 33.121876 230.35938Q33.48125 231.0 33.48125 231.9375Q33.48125 233.04688 32.98125 233.73438Q32.48125 234.42188 31.465626 234.40625ZM27.73125 233.53125Q28.95 233.53125 29.5125 233.04688Q30.075 232.5625 30.075 231.82812Q30.075 231.09375 29.5125 230.60938Q28.95 230.10938 27.7625 230.10938Q26.621876 230.10938 26.04375 230.625Q25.465626 231.125 25.465626 231.84375Q25.465626 232.54688 26.04375 233.04688Q26.60625 233.53125 27.73125 233.53125ZM28.95 222.95312L29.075 221.85938Q30.028126 222.10938 30.559376 222.8125Q31.090626 223.51562 31.090626 224.59375Q31.090626 225.95312 30.246876 226.76562Q29.403126 227.5625 27.8875 227.5625Q26.325 227.5625 25.465626 226.75Q24.590626 225.9375 24.590626 224.65625Q24.590626 223.40625 25.434376 222.625Q26.278126 221.82812 27.825 221.82812Q27.91875 221.82812 28.10625 221.82812L28.10625 226.46875Q29.1375 226.40625 29.684376 225.89062Q30.215626 225.375 30.215626 224.59375Q30.215626 224.01562 29.91875 223.60938Q29.60625 223.1875 28.95 222.95312ZM27.246876 226.40625L27.246876 222.9375Q26.45 223.0 26.059376 223.32812Q25.45 223.84375 25.45 224.64062Q25.45 225.375 25.934376 225.875Q26.41875 226.35938 27.246876 226.40625ZM30.95 217.0625L22.35625 217.0625L22.35625 213.25Q22.35625 212.09375 22.590626 211.5Q22.825 210.90625 23.41875 210.54688Q23.996876 210.1875 24.7 210.1875Q25.621876 210.1875 26.246876 210.78125Q26.871876 211.375 27.04375 212.60938Q27.2625 212.15625 27.465626 211.92188Q27.91875 211.42188 28.60625 210.98438L30.95 209.48438L30.95 210.92188L29.16875 212.04688Q28.3875 212.54688 27.98125 212.875Q27.575 213.1875 27.41875 213.45312Q27.246876 213.70312 27.16875 213.96875Q27.1375 214.15625 27.1375 214.59375L27.1375 215.92188L30.95 215.92188L30.95 217.0625ZM26.153126 215.92188L26.153126 213.46875Q26.153126 212.70312 25.996876 212.26562Q25.825 211.8125 25.48125 211.59375Q25.121876 211.35938 24.7 211.35938Q24.090626 211.35938 23.7 211.8125Q23.309376 212.25 23.309376 213.20312L23.309376 215.92188L26.153126 215.92188ZM28.95 203.95312L29.075 202.85938Q30.028126 203.10938 30.559376 203.8125Q31.090626 204.51562 31.090626 205.59375Q31.090626 206.95312 30.246876 207.76562Q29.403126 208.5625 27.8875 208.5625Q26.325 208.5625 25.465626 207.75Q24.590626 206.9375 24.590626 205.65625Q24.590626 204.40625 25.434376 203.625Q26.278126 202.82812 27.825 202.82812Q27.91875 202.82812 28.10625 202.82812L28.10625 207.46875Q29.1375 207.40625 29.684376 206.89062Q30.215626 206.375 30.215626 205.59375Q30.215626 205.01562 29.91875 204.60938Q29.60625 204.1875 28.95 203.95312ZM27.246876 207.40625L27.246876 203.9375Q26.45 204.0 26.059376 204.32812Q25.45 204.84375 25.45 205.64062Q25.45 206.375 25.934376 206.875Q26.41875 207.35938 27.246876 207.40625ZM29.090626 201.625L28.934376 200.59375Q29.559376 200.5 29.8875 200.10938Q30.215626 199.70312 30.215626 198.96875Q30.215626 198.25 29.934376 197.90625Q29.6375 197.54688 29.23125 197.54688Q28.871876 197.54688 28.66875 197.85938Q28.528126 198.07812 28.309376 198.9375Q28.0125 200.09375 27.809376 200.54688Q27.590626 200.98438 27.215626 201.21875Q26.840626 201.45312 26.371876 201.45312Q25.965626 201.45312 25.60625 201.26562Q25.246876 201.07812 25.0125 200.75Q24.840626 200.5 24.715626 200.07812Q24.590626 199.65625 24.590626 199.15625Q24.590626 198.4375 24.809376 197.89062Q25.0125 197.32812 25.371876 197.0625Q25.73125 196.79688 26.325 196.70312L26.465626 197.73438Q25.996876 197.79688 25.73125 198.14062Q25.45 198.46875 25.45 199.09375Q25.45 199.8125 25.7 200.125Q25.934376 200.4375 26.2625 200.4375Q26.465626 200.4375 26.621876 200.3125Q26.79375 200.17188 26.903126 199.90625Q26.965626 199.75 27.16875 198.96875Q27.48125 197.84375 27.66875 197.40625Q27.85625 196.96875 28.215626 196.71875Q28.575 196.46875 29.121876 196.46875Q29.653126 196.46875 30.121876 196.78125Q30.575 197.07812 30.840626 197.65625Q31.090626 198.23438 31.090626 198.96875Q31.090626 200.1875 30.590626 200.82812Q30.075 201.45312 29.090626 201.625ZM33.340626 195.20312L24.73125 195.20312L24.73125 194.25L25.528126 194.25Q25.059376 193.90625 24.825 193.48438Q24.590626 193.04688 24.590626 192.4375Q24.590626 191.64062 24.996876 191.03125Q25.403126 190.42188 26.153126 190.125Q26.903126 189.8125 27.79375 189.8125Q28.746876 189.8125 29.5125 190.15625Q30.278126 190.48438 30.684376 191.14062Q31.090626 191.79688 31.090626 192.51562Q31.090626 193.04688 30.871876 193.46875Q30.6375 193.89062 30.309376 194.15625L33.340626 194.15625L33.340626 195.20312ZM27.871876 194.25Q29.075 194.25 29.653126 193.76562Q30.215626 193.28125 30.215626 192.59375Q30.215626 191.89062 29.621876 191.39062Q29.028126 190.89062 27.778126 190.89062Q26.590626 190.89062 26.0125 191.375Q25.41875 191.85938 25.41875 192.54688Q25.41875 193.21875 26.04375 193.73438Q26.66875 194.25 27.871876 194.25ZM27.840626 188.59375Q26.10625 188.59375 25.278126 187.64062Q24.590626 186.84375 24.590626 185.6875Q24.590626 184.40625 25.434376 183.59375Q26.2625 182.76562 27.746876 182.76562Q28.95 182.76562 29.6375 183.125Q30.325 183.48438 30.715626 184.1875Q31.090626 184.875 31.090626 185.6875Q31.090626 186.98438 30.2625 187.79688Q29.41875 188.59375 27.840626 188.59375ZM27.840626 187.51562Q29.028126 187.51562 29.621876 187.0Q30.215626 186.46875 30.215626 185.6875Q30.215626 184.89062 29.621876 184.375Q29.028126 183.85938 27.809376 183.85938Q26.653126 183.85938 26.059376 184.39062Q25.465626 184.90625 25.465626 185.6875Q25.465626 186.46875 26.059376 187.0Q26.6375 187.51562 27.840626 187.51562ZM30.95 181.20312L24.73125 181.20312L24.73125 180.26562L25.60625 180.26562Q24.590626 179.57812 24.590626 178.28125Q24.590626 177.71875 24.79375 177.25Q24.996876 176.76562 25.325 176.53125Q25.653126 176.29688 26.090626 176.20312Q26.3875 176.15625 27.121876 176.15625L30.95 176.15625L30.95 177.20312L27.16875 177.20312Q26.5125 177.20312 26.2 177.32812Q25.8875 177.45312 25.7 177.76562Q25.496876 178.07812 25.496876 178.5Q25.496876 179.17188 25.934376 179.67188Q26.35625 180.15625 27.54375 180.15625L30.95 180.15625L30.95 181.20312ZM29.090626 174.625L28.934376 173.59375Q29.559376 173.5 29.8875 173.10938Q30.215626 172.70312 30.215626 171.96875Q30.215626 171.25 29.934376 170.90625Q29.6375 170.54688 29.23125 170.54688Q28.871876 170.54688 28.66875 170.85938Q28.528126 171.07812 28.309376 171.9375Q28.0125 173.09375 27.809376 173.54688Q27.590626 173.98438 27.215626 174.21875Q26.840626 174.45312 26.371876 174.45312Q25.965626 174.45312 25.60625 174.26562Q25.246876 174.07812 25.0125 173.75Q24.840626 173.5 24.715626 173.07812Q24.590626 172.65625 24.590626 172.15625Q24.590626 171.4375 24.809376 170.89062Q25.0125 170.32812 25.371876 170.0625Q25.73125 169.79688 26.325 169.70312L26.465626 170.73438Q25.996876 170.79688 25.73125 171.14062Q25.45 171.46875 25.45 172.09375Q25.45 172.8125 25.7 173.125Q25.934376 173.4375 26.2625 173.4375Q26.465626 173.4375 26.621876 173.3125Q26.79375 173.17188 26.903126 172.90625Q26.965626 172.75 27.16875 171.96875Q27.48125 170.84375 27.66875 170.40625Q27.85625 169.96875 28.215626 169.71875Q28.575 169.46875 29.121876 169.46875Q29.653126 169.46875 30.121876 169.78125Q30.575 170.07812 30.840626 170.65625Q31.090626 171.23438 31.090626 171.96875Q31.090626 173.1875 30.590626 173.82812Q30.075 174.45312 29.090626 174.625ZM28.95 163.95312L29.075 162.85938Q30.028126 163.10938 30.559376 163.8125Q31.090626 164.51562 31.090626 165.59375Q31.090626 166.95312 30.246876 167.76562Q29.403126 168.5625 27.8875 168.5625Q26.325 168.5625 25.465626 167.75Q24.590626 166.9375 24.590626 165.65625Q24.590626 164.40625 25.434376 163.625Q26.278126 162.82812 27.825 162.82812Q27.91875 162.82812 28.10625 162.82812L28.10625 167.46875Q29.1375 167.40625 29.684376 166.89062Q30.215626 166.375 30.215626 165.59375Q30.215626 165.01562 29.91875 164.60938Q29.60625 164.1875 28.95 163.95312ZM27.246876 167.40625L27.246876 163.9375Q26.45 164.0 26.059376 164.32812Q25.45 164.84375 25.45 165.64062Q25.45 166.375 25.934376 166.875Q26.41875 167.35938 27.246876 167.40625ZM30.95 155.89062L23.371876 155.89062L23.371876 158.71875L22.35625 158.71875L22.35625 151.90625L23.371876 151.90625L23.371876 154.75L30.95 154.75L30.95 155.89062ZM23.575 151.20312L22.35625 151.20312L22.35625 150.14062L23.575 150.14062L23.575 151.20312ZM30.95 151.20312L24.73125 151.20312L24.73125 150.14062L30.95 150.14062L30.95 151.20312ZM30.95 148.20312L24.73125 148.20312L24.73125 147.26562L25.60625 147.26562Q25.1375 146.96875 24.871876 146.48438Q24.590626 146.0 24.590626 145.375Q24.590626 144.6875 24.871876 144.25Q25.153126 143.79688 25.66875 143.625Q24.590626 142.875 24.590626 141.70312Q24.590626 140.76562 25.10625 140.28125Q25.60625 139.78125 26.684376 139.78125L30.95 139.78125L30.95 140.82812L27.028126 140.82812Q26.403126 140.82812 26.121876 140.9375Q25.840626 141.03125 25.66875 141.29688Q25.496876 141.5625 25.496876 141.9375Q25.496876 142.59375 25.934376 143.03125Q26.371876 143.45312 27.340626 143.45312L30.95 143.45312L30.95 144.51562L26.903126 144.51562Q26.2 144.51562 25.85625 144.78125Q25.496876 145.03125 25.496876 145.60938Q25.496876 146.0625 25.73125 146.4375Q25.965626 146.8125 26.41875 146.98438Q26.871876 147.15625 27.715626 147.15625L30.95 147.15625L30.95 148.20312ZM28.95 133.95312L29.075 132.85938Q30.028126 133.10938 30.559376 133.8125Q31.090626 134.51562 31.090626 135.59375Q31.090626 136.95312 30.246876 137.76562Q29.403126 138.5625 27.8875 138.5625Q26.325 138.5625 25.465626 137.75Q24.590626 136.9375 24.590626 135.65625Q24.590626 134.40625 25.434376 133.625Q26.278126 132.82812 27.825 132.82812Q27.91875 132.82812 28.10625 132.82812L28.10625 137.46875Q29.1375 137.40625 29.684376 136.89062Q30.215626 136.375 30.215626 135.59375Q30.215626 135.01562 29.91875 134.60938Q29.60625 134.1875 28.95 133.95312ZM27.246876 137.40625L27.246876 133.9375Q26.45 134.0 26.059376 134.32812Q25.45 134.84375 25.45 135.64062Q25.45 136.375 25.934376 136.875Q26.41875 137.35938 27.246876 137.40625ZM33.48125 126.1875Q32.371876 127.0625 30.903126 127.671875Q29.41875 128.26562 27.840626 128.26562Q26.45 128.26562 25.16875 127.828125Q23.684376 127.296875 22.215626 126.1875L22.215626 125.4375Q23.434376 126.140625 23.95 126.375Q24.7625 126.734375 25.6375 126.9375Q26.73125 127.1875 27.840626 127.1875Q30.66875 127.1875 33.48125 125.4375L33.48125 126.1875ZM30.95 124.203125L24.73125 124.203125L24.73125 123.265625L25.60625 123.265625Q25.1375 122.96875 24.871876 122.484375Q24.590626 122.0 24.590626 121.375Q24.590626 120.6875 24.871876 120.25Q25.153126 119.796875 25.66875 119.625Q24.590626 118.875 24.590626 117.703125Q24.590626 116.765625 25.10625 116.28125Q25.60625 115.78125 26.684376 115.78125L30.95 115.78125L30.95 116.828125L27.028126 116.828125Q26.403126 116.828125 26.121876 116.9375Q25.840626 117.03125 25.66875 117.296875Q25.496876 117.5625 25.496876 117.9375Q25.496876 118.59375 25.934376 119.03125Q26.371876 119.453125 27.340626 119.453125L30.95 119.453125L30.95 120.515625L26.903126 120.515625Q26.2 120.515625 25.85625 120.78125Q25.496876 121.03125 25.496876 121.609375Q25.496876 122.0625 25.73125 122.4375Q25.965626 122.8125 26.41875 122.984375Q26.871876 123.15625 27.715626 123.15625L30.95 123.15625L30.95 124.203125ZM29.090626 114.625L28.934376 113.59375Q29.559376 113.5 29.8875 113.109375Q30.215626 112.703125 30.215626 111.96875Q30.215626 111.25 29.934376 110.90625Q29.6375 110.546875 29.23125 110.546875Q28.871876 110.546875 28.66875 110.859375Q28.528126 111.078125 28.309376 111.9375Q28.0125 113.09375 27.809376 113.546875Q27.590626 113.984375 27.215626 114.21875Q26.840626 114.453125 26.371876 114.453125Q25.965626 114.453125 25.60625 114.265625Q25.246876 114.078125 25.0125 113.75Q24.840626 113.5 24.715626 113.078125Q24.590626 112.65625 24.590626 112.15625Q24.590626 111.4375 24.809376 110.890625Q25.0125 110.328125 25.371876 110.0625Q25.73125 109.796875 26.325 109.703125L26.465626 110.734375Q25.996876 110.796875 25.73125 111.140625Q25.45 111.46875 25.45 112.09375Q25.45 112.8125 25.7 113.125Q25.934376 113.4375 26.2625 113.4375Q26.465626 113.4375 26.621876 113.3125Q26.79375 113.171875 26.903126 112.90625Q26.965626 112.75 27.16875 111.96875Q27.48125 110.84375 27.66875 110.40625Q27.85625 109.96875 28.215626 109.71875Q28.575 109.46875 29.121876 109.46875Q29.653126 109.46875 30.121876 109.78125Q30.575 110.078125 30.840626 110.65625Q31.090626 111.234375 31.090626 111.96875Q31.090626 113.1875 30.590626 113.828125Q30.075 114.453125 29.090626 114.625ZM33.48125 107.515625L33.48125 108.265625Q30.66875 106.515625 27.840626 106.515625Q26.746876 106.515625 25.653126 106.765625Q24.778126 106.96875 23.965626 107.328125Q23.45 107.5625 22.215626 108.265625L22.215626 107.515625Q23.684376 106.421875 25.16875 105.890625Q26.45 105.4375 27.840626 105.4375Q29.41875 105.4375 30.903126 106.046875Q32.371876 106.65625 33.48125 107.515625Z" fill-rule="nonzero"/><path fill="#000000" d="M66.45 299.51562Q66.45 297.98438 66.7625 297.0625Q67.075 296.125 67.68437 295.625Q68.30937 295.125 69.24687 295.125Q69.93437 295.125 70.45 295.40625Q70.98125 295.6875 71.325 296.21875Q71.66875 296.73438 71.85625 297.48438Q72.04375 298.23438 72.04375 299.51562Q72.04375 301.03125 71.73125 301.95312Q71.43437 302.875 70.80937 303.39062Q70.2 303.89062 69.24687 303.89062Q68.0125 303.89062 67.29375 303.0Q66.45 301.9375 66.45 299.51562ZM67.52812 299.51562Q67.52812 301.625 68.02812 302.32812Q68.52812 303.03125 69.24687 303.03125Q69.98125 303.03125 70.46562 302.32812Q70.96562 301.625 70.96562 299.51562Q70.96562 297.39062 70.46562 296.70312Q69.98125 296.0 69.23125 296.0Q68.5125 296.0 68.075 296.60938Q67.52812 297.39062 67.52812 299.51562Z" fill-rule="nonzero"/><path fill="#000000" d="M59.45 221.33333L60.559376 221.23958Q60.684376 222.05208 61.121876 222.45833Q61.575 222.86458 62.215626 222.86458Q62.965626 222.86458 63.496876 222.28645Q64.02812 221.70833 64.02812 220.77083Q64.02812 219.86458 63.5125 219.34895Q63.0125 218.8177 62.184376 218.8177Q61.684376 218.8177 61.2625 219.05208Q60.85625 219.28645 60.621876 219.64583L59.6375 219.52083L60.465626 215.11458L64.74687 215.11458L64.74687 216.11458L61.309376 216.11458L60.85625 218.42708Q61.621876 217.8802 62.465626 217.8802Q63.590626 217.8802 64.35625 218.66145Q65.1375 219.4427 65.1375 220.67708Q65.1375 221.83333 64.46562 222.6927Q63.6375 223.72395 62.215626 223.72395Q61.04375 223.72395 60.29375 223.0677Q59.559376 222.41145 59.45 221.33333ZM66.45 219.34895Q66.45 217.8177 66.7625 216.89583Q67.075 215.95833 67.68437 215.45833Q68.30937 214.95833 69.24687 214.95833Q69.93437 214.95833 70.45 215.23958Q70.98125 215.52083 71.325 216.05208Q71.66875 216.5677 71.85625 217.3177Q72.04375 218.0677 72.04375 219.34895Q72.04375 220.86458 71.73125 221.78645Q71.43437 222.70833 70.80937 223.22395Q70.2 223.72395 69.24687 223.72395Q68.0125 223.72395 67.29375 222.83333Q66.45 221.77083 66.45 219.34895ZM67.52812 219.34895Q67.52812 221.45833 68.02812 222.16145Q68.52812 222.86458 69.24687 222.86458Q69.98125 222.86458 70.46562 222.16145Q70.96562 221.45833 70.96562 219.34895Q70.96562 217.22395 70.46562 216.53645Q69.98125 215.83333 69.23125 215.83333Q68.5125 215.83333 68.075 216.4427Q67.52812 217.22395 67.52812 219.34895Z" fill-rule="nonzero"/><path fill="#000000" d="M56.41875 143.41667L55.371876 143.41667L55.371876 136.69792Q54.98125 137.0573 54.35625 137.4323Q53.746876 137.79167 53.2625 137.96355L53.2625 136.94792Q54.1375 136.52605 54.79375 135.94792Q55.465626 135.35417 55.746876 134.79167L56.41875 134.79167L56.41875 143.41667ZM59.45 139.1823Q59.45 137.65105 59.7625 136.72917Q60.075 135.79167 60.684376 135.29167Q61.309376 134.79167 62.246876 134.79167Q62.934376 134.79167 63.45 135.07292Q63.98125 135.35417 64.325 135.88542Q64.66875 136.40105 64.85625 137.15105Q65.04375 137.90105 65.04375 139.1823Q65.04375 140.69792 64.73125 141.6198Q64.43437 142.54167 63.809376 143.0573Q63.2 143.5573 62.246876 143.5573Q61.0125 143.5573 60.29375 142.66667Q59.45 141.60417 59.45 139.1823ZM60.528126 139.1823Q60.528126 141.29167 61.028126 141.9948Q61.528126 142.69792 62.246876 142.69792Q62.98125 142.69792 63.465626 141.9948Q63.965626 141.29167 63.965626 139.1823Q63.965626 137.0573 63.465626 136.3698Q62.98125 135.66667 62.23125 135.66667Q61.5125 135.66667 61.075 136.27605Q60.528126 137.0573 60.528126 139.1823ZM66.45 139.1823Q66.45 137.65105 66.7625 136.72917Q67.075 135.79167 67.68437 135.29167Q68.30937 134.79167 69.24687 134.79167Q69.93437 134.79167 70.45 135.07292Q70.98125 135.35417 71.325 135.88542Q71.66875 136.40105 71.85625 137.15105Q72.04375 137.90105 72.04375 139.1823Q72.04375 140.69792 71.73125 141.6198Q71.43437 142.54167 70.80937 143.0573Q70.2 143.5573 69.24687 143.5573Q68.0125 143.5573 67.29375 142.66667Q66.45 141.60417 66.45 139.1823ZM67.52812 139.1823Q67.52812 141.29167 68.02812 141.9948Q68.52812 142.69792 69.24687 142.69792Q69.98125 142.69792 70.46562 141.9948Q70.96562 141.29167 70.96562 139.1823Q70.96562 137.0573 70.46562 136.3698Q69.98125 135.66667 69.23125 135.66667Q68.5125 135.66667 68.075 136.27605Q67.52812 137.0573 67.52812 139.1823Z" fill-rule="nonzero"/><path fill="#000000" d="M56.41875 63.25L55.371876 63.25L55.371876 56.53125Q54.98125 56.890625 54.35625 57.265625Q53.746876 57.625 53.2625 57.796875L53.2625 56.78125Q54.1375 56.359375 54.79375 55.78125Q55.465626 55.1875 55.746876 54.625L56.41875 54.625L56.41875 63.25ZM59.45 61.0L60.559376 60.90625Q60.684376 61.71875 61.121876 62.125Q61.575 62.53125 62.215626 62.53125Q62.965626 62.53125 63.496876 61.953125Q64.02812 61.375 64.02812 60.4375Q64.02812 59.53125 63.5125 59.015625Q63.0125 58.484375 62.184376 58.484375Q61.684376 58.484375 61.2625 58.71875Q60.85625 58.953125 60.621876 59.3125L59.6375 59.1875L60.465626 54.78125L64.74687 54.78125L64.74687 55.78125L61.309376 55.78125L60.85625 58.09375Q61.621876 57.546875 62.465626 57.546875Q63.590626 57.546875 64.35625 58.328125Q65.1375 59.109375 65.1375 60.34375Q65.1375 61.5 64.46562 62.359375Q63.6375 63.390625 62.215626 63.390625Q61.04375 63.390625 60.29375 62.734375Q59.559376 62.078125 59.45 61.0ZM66.45 59.015625Q66.45 57.484375 66.7625 56.5625Q67.075 55.625 67.68437 55.125Q68.30937 54.625 69.24687 54.625Q69.93437 54.625 70.45 54.90625Q70.98125 55.1875 71.325 55.71875Q71.66875 56.234375 71.85625 56.984375Q72.04375 57.734375 72.04375 59.015625Q72.04375 60.53125 71.73125 61.453125Q71.43437 62.375 70.80937 62.890625Q70.2 63.390625 69.24687 63.390625Q68.0125 63.390625 67.29375 62.5Q66.45 61.4375 66.45 59.015625ZM67.52812 59.015625Q67.52812 61.125 68.02812 61.828125Q68.52812 62.53125 69.24687 62.53125Q69.98125 62.53125 70.46562 61.828125Q70.96562 61.125 70.96562 59.015625Q70.96562 56.890625 70.46562 56.203125Q69.98125 55.5 69.23125 55.5Q68.5125 55.5 68.075 56.109375Q67.52812 56.890625 67.52812 59.015625Z" fill-rule="nonzero"/><path fill="#000000" d="M137.50798 315.73438L137.50798 316.75L131.82048 316.75Q131.82048 316.375 131.94548 316.01562Q132.16423 315.4375 132.63298 314.875Q133.11736 314.3125 134.0236 313.57812Q135.42986 312.42188 135.91423 311.75Q136.41423 311.07812 136.41423 310.48438Q136.41423 309.85938 135.9611 309.4375Q135.50798 309.0 134.78923 309.0Q134.0236 309.0 133.57048 309.45312Q133.11736 309.90625 133.10173 310.71875L132.0236 310.60938Q132.13298 309.39062 132.85173 308.76562Q133.5861 308.125 134.82048 308.125Q136.05486 308.125 136.7736 308.8125Q137.49236 309.5 137.49236 310.51562Q137.49236 311.03125 137.2736 311.53125Q137.07048 312.01562 136.57048 312.57812Q136.0861 313.125 134.9611 314.07812Q134.00798 314.875 133.72673 315.17188Q133.4611 315.45312 133.28923 315.73438L137.50798 315.73438ZM138.9611 312.51562Q138.9611 310.98438 139.2736 310.0625Q139.5861 309.125 140.19548 308.625Q140.82048 308.125 141.75798 308.125Q142.44548 308.125 142.9611 308.40625Q143.49236 308.6875 143.8361 309.21875Q144.17986 309.73438 144.36736 310.48438Q144.55486 311.23438 144.55486 312.51562Q144.55486 314.03125 144.24236 314.95312Q143.94548 315.875 143.32048 316.39062Q142.7111 316.89062 141.75798 316.89062Q140.5236 316.89062 139.80486 316.0Q138.9611 314.9375 138.9611 312.51562ZM140.03923 312.51562Q140.03923 314.625 140.53923 315.32812Q141.03923 316.03125 141.75798 316.03125Q142.49236 316.03125 142.97673 315.32812Q143.47673 314.625 143.47673 312.51562Q143.47673 310.39062 142.97673 309.70312Q142.49236 309.0 141.74236 309.0Q141.0236 309.0 140.5861 309.60938Q140.03923 310.39062 140.03923 312.51562ZM145.9611 312.51562Q145.9611 310.98438 146.2736 310.0625Q146.5861 309.125 147.19548 308.625Q147.82048 308.125 148.75798 308.125Q149.44548 308.125 149.9611 308.40625Q150.49236 308.6875 150.8361 309.21875Q151.17986 309.73438 151.36736 310.48438Q151.55486 311.23438 151.55486 312.51562Q151.55486 314.03125 151.24236 314.95312Q150.94548 315.875 150.32048 316.39062Q149.7111 316.89062 148.75798 316.89062Q147.5236 316.89062 146.80486 316.0Q145.9611 314.9375 145.9611 312.51562ZM147.03923 312.51562Q147.03923 314.625 147.53923 315.32812Q148.03923 316.03125 148.75798 316.03125Q149.49236 316.03125 149.97673 315.32812Q150.47673 314.625 150.47673 312.51562Q150.47673 310.39062 149.97673 309.70312Q149.49236 309.0 148.74236 309.0Q148.0236 309.0 147.5861 309.60938Q147.03923 310.39062 147.03923 312.51562Z" fill-rule="nonzero"/><path fill="#000000" d="M261.35834 316.75L261.35834 314.6875L257.6396 314.6875L257.6396 313.71875L261.56146 308.15625L262.42084 308.15625L262.42084 313.71875L263.5771 313.71875L263.5771 314.6875L262.42084 314.6875L262.42084 316.75L261.35834 316.75ZM261.35834 313.71875L261.35834 309.85938L258.67084 313.71875L261.35834 313.71875ZM264.98334 312.51562Q264.98334 310.98438 265.29584 310.0625Q265.60834 309.125 266.2177 308.625Q266.8427 308.125 267.7802 308.125Q268.4677 308.125 268.98334 308.40625Q269.5146 308.6875 269.85834 309.21875Q270.2021 309.73438 270.3896 310.48438Q270.5771 311.23438 270.5771 312.51562Q270.5771 314.03125 270.2646 314.95312Q269.9677 315.875 269.3427 316.39062Q268.73334 316.89062 267.7802 316.89062Q266.54584 316.89062 265.8271 316.0Q264.98334 314.9375 264.98334 312.51562ZM266.06146 312.51562Q266.06146 314.625 266.56146 315.32812Q267.06146 316.03125 267.7802 316.03125Q268.5146 316.03125 268.99896 315.32812Q269.49896 314.625 269.49896 312.51562Q269.49896 310.39062 268.99896 309.70312Q268.5146 309.0 267.7646 309.0Q267.04584 309.0 266.60834 309.60938Q266.06146 310.39062 266.06146 312.51562ZM271.98334 312.51562Q271.98334 310.98438 272.29584 310.0625Q272.60834 309.125 273.2177 308.625Q273.8427 308.125 274.7802 308.125Q275.4677 308.125 275.98334 308.40625Q276.5146 308.6875 276.85834 309.21875Q277.2021 309.73438 277.3896 310.48438Q277.5771 311.23438 277.5771 312.51562Q277.5771 314.03125 277.2646 314.95312Q276.9677 315.875 276.3427 316.39062Q275.73334 316.89062 274.7802 316.89062Q273.54584 316.89062 272.8271 316.0Q271.98334 314.9375 271.98334 312.51562ZM273.06146 312.51562Q273.06146 314.625 273.56146 315.32812Q274.06146 316.03125 274.7802 316.03125Q275.5146 316.03125 275.99896 315.32812Q276.49896 314.625 276.49896 312.51562Q276.49896 310.39062 275.99896 309.70312Q275.5146 309.0 274.7646 309.0Q274.04584 309.0 273.60834 309.60938Q273.06146 310.39062 273.06146 312.51562Z" fill-rule="nonzero"/><path fill="#000000" d="M389.4743 310.26562L388.42743 310.34375Q388.2868 309.71875 388.0368 309.4375Q387.5993 308.98438 386.9743 308.98438Q386.4743 308.98438 386.08368 309.26562Q385.5993 309.64062 385.30243 310.34375Q385.02118 311.03125 385.00555 312.3125Q385.38055 311.73438 385.92743 311.45312Q386.48993 311.17188 387.0993 311.17188Q388.14618 311.17188 388.88055 311.95312Q389.63055 312.73438 389.63055 313.95312Q389.63055 314.76562 389.27118 315.46875Q388.92743 316.15625 388.31805 316.53125Q387.70868 316.89062 386.94305 316.89062Q385.61493 316.89062 384.7868 315.92188Q383.95868 314.95312 383.95868 312.73438Q383.95868 310.23438 384.88055 309.10938Q385.67743 308.125 387.0368 308.125Q388.05243 308.125 388.69305 308.70312Q389.3493 309.26562 389.4743 310.26562ZM385.17743 313.96875Q385.17743 314.51562 385.39618 315.01562Q385.63055 315.5 386.0368 315.76562Q386.45868 316.03125 386.92743 316.03125Q387.58368 316.03125 388.06805 315.5Q388.55243 314.95312 388.55243 314.03125Q388.55243 313.14062 388.06805 312.625Q387.5993 312.10938 386.88055 312.10938Q386.1618 312.10938 385.6618 312.625Q385.17743 313.14062 385.17743 313.96875ZM391.00555 312.51562Q391.00555 310.98438 391.31805 310.0625Q391.63055 309.125 392.23993 308.625Q392.86493 308.125 393.80243 308.125Q394.48993 308.125 395.00555 308.40625Q395.5368 308.6875 395.88055 309.21875Q396.2243 309.73438 396.4118 310.48438Q396.5993 311.23438 396.5993 312.51562Q396.5993 314.03125 396.2868 314.95312Q395.98993 315.875 395.36493 316.39062Q394.75555 316.89062 393.80243 316.89062Q392.56805 316.89062 391.8493 316.0Q391.00555 314.9375 391.00555 312.51562ZM392.08368 312.51562Q392.08368 314.625 392.58368 315.32812Q393.08368 316.03125 393.80243 316.03125Q394.5368 316.03125 395.02118 315.32812Q395.52118 314.625 395.52118 312.51562Q395.52118 310.39062 395.02118 309.70312Q394.5368 309.0 393.7868 309.0Q393.06805 309.0 392.63055 309.60938Q392.08368 310.39062 392.08368 312.51562ZM398.00555 312.51562Q398.00555 310.98438 398.31805 310.0625Q398.63055 309.125 399.23993 308.625Q399.86493 308.125 400.80243 308.125Q401.48993 308.125 402.00555 308.40625Q402.5368 308.6875 402.88055 309.21875Q403.2243 309.73438 403.4118 310.48438Q403.5993 311.23438 403.5993 312.51562Q403.5993 314.03125 403.2868 314.95312Q402.98993 315.875 402.36493 316.39062Q401.75555 316.89062 400.80243 316.89062Q399.56805 316.89062 398.8493 316.0Q398.00555 314.9375 398.00555 312.51562ZM399.08368 312.51562Q399.08368 314.625 399.58368 315.32812Q400.08368 316.03125 400.80243 316.03125Q401.5368 316.03125 402.02118 315.32812Q402.52118 314.625 402.52118 312.51562Q402.52118 310.39062 402.02118 309.70312Q401.5368 309.0 400.7868 309.0Q400.06805 309.0 399.63055 309.60938Q399.08368 310.39062 399.08368 312.51562Z" fill-rule="nonzero"/><path fill="#000000" d="M511.65277 312.09375Q510.99652 311.84375 510.6684 311.40625Q510.3559 310.95312 510.3559 310.34375Q510.3559 309.40625 511.02777 308.76562Q511.71527 308.125 512.82465 308.125Q513.94965 308.125 514.63715 308.78125Q515.32465 309.4375 515.32465 310.375Q515.32465 310.96875 515.01215 311.40625Q514.69965 311.84375 514.059 312.09375Q514.8559 312.34375 515.26215 312.92188Q515.6684 313.5 515.6684 314.29688Q515.6684 315.39062 514.88715 316.14062Q514.1215 316.89062 512.8403 316.89062Q511.57465 316.89062 510.7934 316.14062Q510.01215 315.39062 510.01215 314.26562Q510.01215 313.42188 510.43402 312.85938Q510.87152 312.29688 511.65277 312.09375ZM511.43402 310.29688Q511.43402 310.90625 511.82465 311.29688Q512.2309 311.6875 512.8559 311.6875Q513.4653 311.6875 513.8559 311.3125Q514.2465 310.92188 514.2465 310.35938Q514.2465 309.78125 513.8403 309.39062Q513.434 308.98438 512.8403 308.98438Q512.2309 308.98438 511.82465 309.375Q511.43402 309.76562 511.43402 310.29688ZM511.1059 314.26562Q511.1059 314.71875 511.30902 315.14062Q511.52777 315.5625 511.94965 315.79688Q512.3715 316.03125 512.8559 316.03125Q513.6059 316.03125 514.0903 315.54688Q514.5903 315.0625 514.5903 314.3125Q514.5903 313.54688 514.0903 313.04688Q513.5903 312.54688 512.82465 312.54688Q512.07465 312.54688 511.59027 313.04688Q511.1059 313.53125 511.1059 314.26562ZM517.0278 312.51562Q517.0278 310.98438 517.3403 310.0625Q517.6528 309.125 518.26215 308.625Q518.88715 308.125 519.82465 308.125Q520.51215 308.125 521.0278 308.40625Q521.559 308.6875 521.9028 309.21875Q522.2465 309.73438 522.434 310.48438Q522.6215 311.23438 522.6215 312.51562Q522.6215 314.03125 522.309 314.95312Q522.01215 315.875 521.38715 316.39062Q520.7778 316.89062 519.82465 316.89062Q518.5903 316.89062 517.8715 316.0Q517.0278 314.9375 517.0278 312.51562ZM518.1059 312.51562Q518.1059 314.625 518.6059 315.32812Q519.1059 316.03125 519.82465 316.03125Q520.559 316.03125 521.0434 315.32812Q521.5434 314.625 521.5434 312.51562Q521.5434 310.39062 521.0434 309.70312Q520.559 309.0 519.809 309.0Q519.0903 309.0 518.6528 309.60938Q518.1059 310.39062 518.1059 312.51562ZM524.0278 312.51562Q524.0278 310.98438 524.3403 310.0625Q524.6528 309.125 525.26215 308.625Q525.88715 308.125 526.82465 308.125Q527.51215 308.125 528.0278 308.40625Q528.559 308.6875 528.9028 309.21875Q529.2465 309.73438 529.434 310.48438Q529.6215 311.23438 529.6215 312.51562Q529.6215 314.03125 529.309 314.95312Q529.01215 315.875 528.38715 316.39062Q527.7778 316.89062 526.82465 316.89062Q525.5903 316.89062 524.8715 316.0Q524.0278 314.9375 524.0278 312.51562ZM525.1059 312.51562Q525.1059 314.625 525.6059 315.32812Q526.1059 316.03125 526.82465 316.03125Q527.559 316.03125 528.0434 315.32812Q528.5434 314.625 528.5434 312.51562Q528.5434 310.39062 528.0434 309.70312Q527.559 309.0 526.809 309.0Q526.0903 309.0 525.6528 309.60938Q525.1059 310.39062 525.1059 312.51562Z" fill-rule="nonzero"/><path fill="#000000" d="M636.51874 316.75L635.47186 316.75L635.47186 310.03125Q635.08124 310.39062 634.45624 310.76562Q633.84686 311.125 633.3625 311.29688L633.3625 310.28125Q634.2375 309.85938 634.89374 309.28125Q635.5656 308.6875 635.84686 308.125L636.51874 308.125L636.51874 316.75ZM639.55 312.51562Q639.55 310.98438 639.8625 310.0625Q640.175 309.125 640.78436 308.625Q641.40936 308.125 642.34686 308.125Q643.03436 308.125 643.55 308.40625Q644.08124 308.6875 644.425 309.21875Q644.76874 309.73438 644.95624 310.48438Q645.14374 311.23438 645.14374 312.51562Q645.14374 314.03125 644.83124 314.95312Q644.53436 315.875 643.90936 316.39062Q643.3 316.89062 642.34686 316.89062Q641.1125 316.89062 640.39374 316.0Q639.55 314.9375 639.55 312.51562ZM640.6281 312.51562Q640.6281 314.625 641.1281 315.32812Q641.6281 316.03125 642.34686 316.03125Q643.08124 316.03125 643.5656 315.32812Q644.0656 314.625 644.0656 312.51562Q644.0656 310.39062 643.5656 309.70312Q643.08124 309.0 642.33124 309.0Q641.6125 309.0 641.175 309.60938Q640.6281 310.39062 640.6281 312.51562ZM646.55 312.51562Q646.55 310.98438 646.8625 310.0625Q647.175 309.125 647.78436 308.625Q648.40936 308.125 649.34686 308.125Q650.03436 308.125 650.55 308.40625Q651.08124 308.6875 651.425 309.21875Q651.76874 309.73438 651.95624 310.48438Q652.14374 311.23438 652.14374 312.51562Q652.14374 314.03125 651.83124 314.95312Q651.53436 315.875 650.90936 316.39062Q650.3 316.89062 649.34686 316.89062Q648.1125 316.89062 647.39374 316.0Q646.55 314.9375 646.55 312.51562ZM647.6281 312.51562Q647.6281 314.625 648.1281 315.32812Q648.6281 316.03125 649.34686 316.03125Q650.08124 316.03125 650.5656 315.32812Q651.0656 314.625 651.0656 312.51562Q651.0656 310.39062 650.5656 309.70312Q650.08124 309.0 649.33124 309.0Q648.6125 309.0 648.175 309.60938Q647.6281 310.39062 647.6281 312.51562ZM653.55 312.51562Q653.55 310.98438 653.8625 310.0625Q654.175 309.125 654.78436 308.625Q655.40936 308.125 656.34686 308.125Q657.03436 308.125 657.55 308.40625Q658.08124 308.6875 658.425 309.21875Q658.76874 309.73438 658.95624 310.48438Q659.14374 311.23438 659.14374 312.51562Q659.14374 314.03125 658.83124 314.95312Q658.53436 315.875 657.90936 316.39062Q657.3 316.89062 656.34686 316.89062Q655.1125 316.89062 654.39374 316.0Q653.55 314.9375 653.55 312.51562ZM654.6281 312.51562Q654.6281 314.625 655.1281 315.32812Q655.6281 316.03125 656.34686 316.03125Q657.08124 316.03125 657.5656 315.32812Q658.0656 314.625 658.0656 312.51562Q658.0656 310.39062 657.5656 309.70312Q657.08124 309.0 656.33124 309.0Q655.6125 309.0 655.175 309.60938Q654.6281 310.39062 654.6281 312.51562Z" fill-rule="nonzero"/><path stroke="#0000ff" stroke-width="4.0" stroke-linecap="butt" d="M163.0 372.05L175.0 372.05" fill-rule="nonzero"/><path fill="#1a1a1a" d="M182.98438 376.05L186.28125 367.45624L187.5 367.45624L191.01562 376.05L189.73438 376.05L188.71875 373.4406L185.14062 373.4406L184.1875 376.05L182.98438 376.05ZM185.46875 372.51874L188.375 372.51874L187.48438 370.14374Q187.0625 369.0656 186.875 368.3625Q186.70312 369.1906 186.40625 370.0031L185.46875 372.51874ZM191.92188 376.05L191.92188 367.45624L195.17188 367.45624Q196.01562 367.45624 196.46875 367.53436Q197.10938 367.64374 197.53125 367.9406Q197.96875 368.2375 198.21875 368.76874Q198.48438 369.3 198.48438 369.9406Q198.48438 371.03436 197.78125 371.8Q197.09375 372.55 195.26562 372.55L193.0625 372.55L193.0625 376.05L191.92188 376.05ZM193.0625 371.55L195.28125 371.55Q196.39062 371.55 196.84375 371.14374Q197.3125 370.72186 197.3125 369.97186Q197.3125 369.4406 197.03125 369.0656Q196.76562 368.675 196.32812 368.55Q196.03125 368.47186 195.26562 368.47186L193.0625 368.47186L193.0625 371.55ZM200.125 376.05L200.125 367.45624L201.25 367.45624L201.25 376.05L200.125 376.05ZM206.9375 376.05L205.03125 369.83124L206.125 369.83124L207.10938 373.425L207.48438 374.7531Q207.51562 374.65936 207.8125 373.47186L208.79688 369.83124L209.875 369.83124L210.8125 373.4406L211.125 374.6281L211.48438 373.425L212.54688 369.83124L213.57812 369.83124L211.625 376.05L210.53125 376.05L209.54688 372.3156L209.29688 371.26874L208.04688 376.05L206.9375 376.05ZM214.79688 368.675L214.79688 367.45624L215.85938 367.45624L215.85938 368.675L214.79688 368.675ZM214.79688 376.05L214.79688 369.83124L215.85938 369.83124L215.85938 376.05L214.79688 376.05ZM220.09375 375.1125L220.25 376.03436Q219.79688 376.1281 219.45312 376.1281Q218.875 376.1281 218.5625 375.95624Q218.25 375.76874 218.10938 375.47186Q217.98438 375.175 217.98438 374.22186L217.98438 370.64374L217.21875 370.64374L217.21875 369.83124L217.98438 369.83124L217.98438 368.28436L219.03125 367.65936L219.03125 369.83124L220.09375 369.83124L220.09375 370.64374L219.03125 370.64374L219.03125 374.28436Q219.03125 374.7375 219.07812 374.8625Q219.14062 374.9875 219.26562 375.0656Q219.39062 375.14374 219.625 375.14374Q219.8125 375.14374 220.09375 375.1125ZM220.79688 376.05L220.79688 367.45624L221.84375 367.45624L221.84375 370.53436Q222.57812 369.6906 223.70312 369.6906Q224.40625 369.6906 224.90625 369.97186Q225.42188 370.2375 225.64062 370.72186Q225.85938 371.1906 225.85938 372.1125L225.85938 376.05L224.8125 376.05L224.8125 372.1125Q224.8125 371.3156 224.46875 370.95624Q224.125 370.59686 223.5 370.59686Q223.03125 370.59686 222.60938 370.84686Q222.20312 371.08124 222.01562 371.5031Q221.84375 371.90936 221.84375 372.64374L221.84375 376.05L220.79688 376.05ZM232.125 371.39374Q231.46875 371.14374 231.14062 370.70624Q230.82812 370.2531 230.82812 369.64374Q230.82812 368.70624 231.5 368.0656Q232.1875 367.425 233.29688 367.425Q234.42188 367.425 235.10938 368.08124Q235.79688 368.7375 235.79688 369.675Q235.79688 370.26874 235.48438 370.70624Q235.17188 371.14374 234.53125 371.39374Q235.32812 371.64374 235.73438 372.22186Q236.14062 372.8 236.14062 373.59686Q236.14062 374.6906 235.35938 375.4406Q234.59375 376.1906 233.3125 376.1906Q232.04688 376.1906 231.26562 375.4406Q230.48438 374.6906 230.48438 373.5656Q230.48438 372.72186 230.90625 372.15936Q231.34375 371.59686 232.125 371.39374ZM231.90625 369.59686Q231.90625 370.20624 232.29688 370.59686Q232.70312 370.9875 233.32812 370.9875Q233.9375 370.9875 234.32812 370.6125Q234.71875 370.22186 234.71875 369.65936Q234.71875 369.08124 234.3125 368.6906Q233.90625 368.28436 233.3125 368.28436Q232.70312 368.28436 232.29688 368.675Q231.90625 369.0656 231.90625 369.59686ZM231.57812 373.5656Q231.57812 374.01874 231.78125 374.4406Q232.0 374.8625 232.42188 375.09686Q232.84375 375.33124 233.32812 375.33124Q234.07812 375.33124 234.5625 374.84686Q235.0625 374.3625 235.0625 373.6125Q235.0625 372.84686 234.5625 372.34686Q234.0625 371.84686 233.29688 371.84686Q232.54688 371.84686 232.0625 372.34686Q231.57812 372.83124 231.57812 373.5656ZM240.78125 376.05L240.78125 369.83124L241.73438 369.83124L241.73438 370.76874Q242.09375 370.1125 242.39062 369.90936Q242.70312 369.6906 243.07812 369.6906Q243.60938 369.6906 244.15625 370.01874L243.79688 371.0031Q243.40625 370.76874 243.03125 370.76874Q242.67188 370.76874 242.39062 370.9875Q242.125 371.1906 242.01562 371.5656Q241.82812 372.1281 241.82812 372.78436L241.82812 376.05L240.78125 376.05ZM244.40625 372.9406Q244.40625 371.20624 245.35938 370.3781Q246.15625 369.6906 247.3125 369.6906Q248.59375 369.6906 249.40625 370.53436Q250.23438 371.3625 250.23438 372.84686Q250.23438 374.05 249.875 374.7375Q249.51562 375.425 248.8125 375.8156Q248.125 376.1906 247.3125 376.1906Q246.01562 376.1906 245.20312 375.3625Q244.40625 374.51874 244.40625 372.9406ZM245.48438 372.9406Q245.48438 374.1281 246.0 374.72186Q246.53125 375.3156 247.3125 375.3156Q248.10938 375.3156 248.625 374.72186Q249.14062 374.1281 249.14062 372.90936Q249.14062 371.7531 248.60938 371.15936Q248.09375 370.5656 247.3125 370.5656Q246.53125 370.5656 246.0 371.15936Q245.48438 371.7375 245.48438 372.9406ZM255.875 376.05L255.875 375.1281Q255.14062 376.1906 253.89062 376.1906Q253.34375 376.1906 252.85938 375.9875Q252.39062 375.76874 252.15625 375.45624Q251.92188 375.1281 251.82812 374.65936Q251.76562 374.3625 251.76562 373.675L251.76562 369.83124L252.82812 369.83124L252.82812 373.28436Q252.82812 374.09686 252.89062 374.39374Q252.98438 374.8 253.29688 375.05Q253.625 375.28436 254.10938 375.28436Q254.57812 375.28436 254.98438 375.05Q255.40625 374.8 255.57812 374.3781Q255.76562 373.95624 255.76562 373.15936L255.76562 369.83124L256.8125 369.83124L256.8125 376.05L255.875 376.05ZM261.09375 375.1125L261.25 376.03436Q260.79688 376.1281 260.45312 376.1281Q259.875 376.1281 259.5625 375.95624Q259.25 375.76874 259.10938 375.47186Q258.98438 375.175 258.98438 374.22186L258.98438 370.64374L258.21875 370.64374L258.21875 369.83124L258.98438 369.83124L258.98438 368.28436L260.03125 367.65936L260.03125 369.83124L261.09375 369.83124L261.09375 370.64374L260.03125 370.64374L260.03125 374.28436Q260.03125 374.7375 260.07812 374.8625Q260.14062 374.9875 260.26562 375.0656Q260.39062 375.14374 260.625 375.14374Q260.8125 375.14374 261.09375 375.1125ZM266.04688 374.05L267.14062 374.175Q266.89062 375.1281 266.1875 375.65936Q265.48438 376.1906 264.40625 376.1906Q263.04688 376.1906 262.23438 375.34686Q261.4375 374.5031 261.4375 372.9875Q261.4375 371.425 262.25 370.5656Q263.0625 369.6906 264.34375 369.6906Q265.59375 369.6906 266.375 370.53436Q267.17188 371.3781 267.17188 372.925Q267.17188 373.01874 267.17188 373.20624L262.53125 373.20624Q262.59375 374.2375 263.10938 374.78436Q263.625 375.3156 264.40625 375.3156Q264.98438 375.3156 265.39062 375.01874Q265.8125 374.70624 266.04688 374.05ZM262.59375 372.34686L266.0625 372.34686Q266.0 371.55 265.67188 371.15936Q265.15625 370.55 264.35938 370.55Q263.625 370.55 263.125 371.03436Q262.64062 371.51874 262.59375 372.34686ZM268.375 374.1906L269.40625 374.03436Q269.5 374.65936 269.89062 374.9875Q270.29688 375.3156 271.03125 375.3156Q271.75 375.3156 272.09375 375.03436Q272.45312 374.7375 272.45312 374.33124Q272.45312 373.97186 272.14062 373.76874Q271.92188 373.6281 271.0625 373.40936Q269.90625 373.1125 269.45312 372.90936Q269.01562 372.6906 268.78125 372.3156Q268.54688 371.9406 268.54688 371.47186Q268.54688 371.0656 268.73438 370.70624Q268.92188 370.34686 269.25 370.1125Q269.5 369.9406 269.92188 369.8156Q270.34375 369.6906 270.84375 369.6906Q271.5625 369.6906 272.10938 369.90936Q272.67188 370.1125 272.9375 370.47186Q273.20312 370.83124 273.29688 371.425L272.26562 371.5656Q272.20312 371.09686 271.85938 370.83124Q271.53125 370.55 270.90625 370.55Q270.1875 370.55 269.875 370.8Q269.5625 371.03436 269.5625 371.3625Q269.5625 371.5656 269.6875 371.72186Q269.82812 371.89374 270.09375 372.0031Q270.25 372.0656 271.03125 372.26874Q272.15625 372.58124 272.59375 372.76874Q273.03125 372.95624 273.28125 373.3156Q273.53125 373.675 273.53125 374.22186Q273.53125 374.7531 273.21875 375.22186Q272.92188 375.675 272.34375 375.9406Q271.76562 376.1906 271.03125 376.1906Q269.8125 376.1906 269.17188 375.6906Q268.54688 375.175 268.375 374.1906Z" fill-rule="nonzero"/><path stroke="#ff9900" stroke-width="4.0" stroke-linecap="butt" d="M290.0 372.05L302.0 372.05" fill-rule="nonzero"/><path fill="#1a1a1a" d="M309.98438 376.05L313.28125 367.45624L314.5 367.45624L318.01562 376.05L316.73438 376.05L315.71875 373.4406L312.14062 373.4406L311.1875 376.05L309.98438 376.05ZM312.46875 372.51874L315.375 372.51874L314.48438 370.14374Q314.0625 369.0656 313.875 368.3625Q313.70312 369.1906 313.40625 370.0031L312.46875 372.51874ZM318.92188 376.05L318.92188 367.45624L322.17188 367.45624Q323.01562 367.45624 323.46875 367.53436Q324.10938 367.64374 324.53125 367.9406Q324.96875 368.2375 325.21875 368.76874Q325.48438 369.3 325.48438 369.9406Q325.48438 371.03436 324.78125 371.8Q324.09375 372.55 322.26562 372.55L320.0625 372.55L320.0625 376.05L318.92188 376.05ZM320.0625 371.55L322.28125 371.55Q323.39062 371.55 323.84375 371.14374Q324.3125 370.72186 324.3125 369.97186Q324.3125 369.4406 324.03125 369.0656Q323.76562 368.675 323.32812 368.55Q323.03125 368.47186 322.26562 368.47186L320.0625 368.47186L320.0625 371.55ZM327.125 376.05L327.125 367.45624L328.25 367.45624L328.25 376.05L327.125 376.05ZM333.9375 376.05L332.03125 369.83124L333.125 369.83124L334.10938 373.425L334.48438 374.7531Q334.51562 374.65936 334.8125 373.47186L335.79688 369.83124L336.875 369.83124L337.8125 373.4406L338.125 374.6281L338.48438 373.425L339.54688 369.83124L340.57812 369.83124L338.625 376.05L337.53125 376.05L336.54688 372.3156L336.29688 371.26874L335.04688 376.05L333.9375 376.05ZM341.79688 368.675L341.79688 367.45624L342.85938 367.45624L342.85938 368.675L341.79688 368.675ZM341.79688 376.05L341.79688 369.83124L342.85938 369.83124L342.85938 376.05L341.79688 376.05ZM347.09375 375.1125L347.25 376.03436Q346.79688 376.1281 346.45312 376.1281Q345.875 376.1281 345.5625 375.95624Q345.25 375.76874 345.10938 375.47186Q344.98438 375.175 344.98438 374.22186L344.98438 370.64374L344.21875 370.64374L344.21875 369.83124L344.98438 369.83124L344.98438 368.28436L346.03125 367.65936L346.03125 369.83124L347.09375 369.83124L347.09375 370.64374L346.03125 370.64374L346.03125 374.28436Q346.03125 374.7375 346.07812 374.8625Q346.14062 374.9875 346.26562 375.0656Q346.39062 375.14374 346.625 375.14374Q346.8125 375.14374 347.09375 375.1125ZM347.79688 376.05L347.79688 367.45624L348.84375 367.45624L348.84375 370.53436Q349.57812 369.6906 350.70312 369.6906Q351.40625 369.6906 351.90625 369.97186Q352.42188 370.2375 352.64062 370.72186Q352.85938 371.1906 352.85938 372.1125L352.85938 376.05L351.8125 376.05L351.8125 372.1125Q351.8125 371.3156 351.46875 370.95624Q351.125 370.59686 350.5 370.59686Q350.03125 370.59686 349.60938 370.84686Q349.20312 371.08124 349.01562 371.5031Q348.84375 371.90936 348.84375 372.64374L348.84375 376.05L347.79688 376.05ZM359.125 371.39374Q358.46875 371.14374 358.14062 370.70624Q357.82812 370.2531 357.82812 369.64374Q357.82812 368.70624 358.5 368.0656Q359.1875 367.425 360.29688 367.425Q361.42188 367.425 362.10938 368.08124Q362.79688 368.7375 362.79688 369.675Q362.79688 370.26874 362.48438 370.70624Q362.17188 371.14374 361.53125 371.39374Q362.32812 371.64374 362.73438 372.22186Q363.14062 372.8 363.14062 373.59686Q363.14062 374.6906 362.35938 375.4406Q361.59375 376.1906 360.3125 376.1906Q359.04688 376.1906 358.26562 375.4406Q357.48438 374.6906 357.48438 373.5656Q357.48438 372.72186 357.90625 372.15936Q358.34375 371.59686 359.125 371.39374ZM358.90625 369.59686Q358.90625 370.20624 359.29688 370.59686Q359.70312 370.9875 360.32812 370.9875Q360.9375 370.9875 361.32812 370.6125Q361.71875 370.22186 361.71875 369.65936Q361.71875 369.08124 361.3125 368.6906Q360.90625 368.28436 360.3125 368.28436Q359.70312 368.28436 359.29688 368.675Q358.90625 369.0656 358.90625 369.59686ZM358.57812 373.5656Q358.57812 374.01874 358.78125 374.4406Q359.0 374.8625 359.42188 375.09686Q359.84375 375.33124 360.32812 375.33124Q361.07812 375.33124 361.5625 374.84686Q362.0625 374.3625 362.0625 373.6125Q362.0625 372.84686 361.5625 372.34686Q361.0625 371.84686 360.29688 371.84686Q359.54688 371.84686 359.0625 372.34686Q358.57812 372.83124 358.57812 373.5656ZM367.78125 376.05L367.78125 369.83124L368.73438 369.83124L368.73438 370.76874Q369.09375 370.1125 369.39062 369.90936Q369.70312 369.6906 370.07812 369.6906Q370.60938 369.6906 371.15625 370.01874L370.79688 371.0031Q370.40625 370.76874 370.03125 370.76874Q369.67188 370.76874 369.39062 370.9875Q369.125 371.1906 369.01562 371.5656Q368.82812 372.1281 368.82812 372.78436L368.82812 376.05L367.78125 376.05ZM371.40625 372.9406Q371.40625 371.20624 372.35938 370.3781Q373.15625 369.6906 374.3125 369.6906Q375.59375 369.6906 376.40625 370.53436Q377.23438 371.3625 377.23438 372.84686Q377.23438 374.05 376.875 374.7375Q376.51562 375.425 375.8125 375.8156Q375.125 376.1906 374.3125 376.1906Q373.01562 376.1906 372.20312 375.3625Q371.40625 374.51874 371.40625 372.9406ZM372.48438 372.9406Q372.48438 374.1281 373.0 374.72186Q373.53125 375.3156 374.3125 375.3156Q375.10938 375.3156 375.625 374.72186Q376.14062 374.1281 376.14062 372.90936Q376.14062 371.7531 375.60938 371.15936Q375.09375 370.5656 374.3125 370.5656Q373.53125 370.5656 373.0 371.15936Q372.48438 371.7375 372.48438 372.9406ZM382.875 376.05L382.875 375.1281Q382.14062 376.1906 380.89062 376.1906Q380.34375 376.1906 379.85938 375.9875Q379.39062 375.76874 379.15625 375.45624Q378.92188 375.1281 378.82812 374.65936Q378.76562 374.3625 378.76562 373.675L378.76562 369.83124L379.82812 369.83124L379.82812 373.28436Q379.82812 374.09686 379.89062 374.39374Q379.98438 374.8 380.29688 375.05Q380.625 375.28436 381.10938 375.28436Q381.57812 375.28436 381.98438 375.05Q382.40625 374.8 382.57812 374.3781Q382.76562 373.95624 382.76562 373.15936L382.76562 369.83124L383.8125 369.83124L383.8125 376.05L382.875 376.05ZM388.09375 375.1125L388.25 376.03436Q387.79688 376.1281 387.45312 376.1281Q386.875 376.1281 386.5625 375.95624Q386.25 375.76874 386.10938 375.47186Q385.98438 375.175 385.98438 374.22186L385.98438 370.64374L385.21875 370.64374L385.21875 369.83124L385.98438 369.83124L385.98438 368.28436L387.03125 367.65936L387.03125 369.83124L388.09375 369.83124L388.09375 370.64374L387.03125 370.64374L387.03125 374.28436Q387.03125 374.7375 387.07812 374.8625Q387.14062 374.9875 387.26562 375.0656Q387.39062 375.14374 387.625 375.14374Q387.8125 375.14374 388.09375 375.1125ZM393.04688 374.05L394.14062 374.175Q393.89062 375.1281 393.1875 375.65936Q392.48438 376.1906 391.40625 376.1906Q390.04688 376.1906 389.23438 375.34686Q388.4375 374.5031 388.4375 372.9875Q388.4375 371.425 389.25 370.5656Q390.0625 369.6906 391.34375 369.6906Q392.59375 369.6906 393.375 370.53436Q394.17188 371.3781 394.17188 372.925Q394.17188 373.01874 394.17188 373.20624L389.53125 373.20624Q389.59375 374.2375 390.10938 374.78436Q390.625 375.3156 391.40625 375.3156Q391.98438 375.3156 392.39062 375.01874Q392.8125 374.70624 393.04688 374.05ZM389.59375 372.34686L393.0625 372.34686Q393.0 371.55 392.67188 371.15936Q392.15625 370.55 391.35938 370.55Q390.625 370.55 390.125 371.03436Q389.64062 371.51874 389.59375 372.34686ZM395.375 374.1906L396.40625 374.03436Q396.5 374.65936 396.89062 374.9875Q397.29688 375.3156 398.03125 375.3156Q398.75 375.3156 399.09375 375.03436Q399.45312 374.7375 399.45312 374.33124Q399.45312 373.97186 399.14062 373.76874Q398.92188 373.6281 398.0625 373.40936Q396.90625 373.1125 396.45312 372.90936Q396.01562 372.6906 395.78125 372.3156Q395.54688 371.9406 395.54688 371.47186Q395.54688 371.0656 395.73438 370.70624Q395.92188 370.34686 396.25 370.1125Q396.5 369.9406 396.92188 369.8156Q397.34375 369.6906 397.84375 369.6906Q398.5625 369.6906 399.10938 369.90936Q399.67188 370.1125 399.9375 370.47186Q400.20312 370.83124 400.29688 371.425L399.26562 371.5656Q399.20312 371.09686 398.85938 370.83124Q398.53125 370.55 397.90625 370.55Q397.1875 370.55 396.875 370.8Q396.5625 371.03436 396.5625 371.3625Q396.5625 371.5656 396.6875 371.72186Q396.82812 371.89374 397.09375 372.0031Q397.25 372.0656 398.03125 372.26874Q399.15625 372.58124 399.59375 372.76874Q400.03125 372.95624 400.28125 373.3156Q400.53125 373.675 400.53125 374.22186Q400.53125 374.7531 400.21875 375.22186Q399.92188 375.675 399.34375 375.9406Q398.76562 376.1906 398.03125 376.1906Q396.8125 376.1906 396.17188 375.6906Q395.54688 375.175 395.375 374.1906ZM407.0 374.65936L407.0 372.3L404.67188 372.3L404.67188 371.3156L407.0 371.3156L407.0 368.9875L408.0 368.9875L408.0 371.3156L410.34375 371.3156L410.34375 372.3L408.0 372.3L408.0 374.65936L407.0 374.65936ZM414.89062 376.05L414.89062 367.45624L416.60938 367.45624L418.64062 373.53436Q418.92188 374.39374 419.04688 374.8156Q419.1875 374.34686 419.5 373.4406L421.5625 367.45624L423.09375 367.45624L423.09375 376.05L422.0 376.05L422.0 368.8625L419.5 376.05L418.46875 376.05L415.98438 368.7375L415.98438 376.05L414.89062 376.05ZM429.04688 374.05L430.14062 374.175Q429.89062 375.1281 429.1875 375.65936Q428.48438 376.1906 427.40625 376.1906Q426.04688 376.1906 425.23438 375.34686Q424.4375 374.5031 424.4375 372.9875Q424.4375 371.425 425.25 370.5656Q426.0625 369.6906 427.34375 369.6906Q428.59375 369.6906 429.375 370.53436Q430.17188 371.3781 430.17188 372.925Q430.17188 373.01874 430.17188 373.20624L425.53125 373.20624Q425.59375 374.2375 426.10938 374.78436Q426.625 375.3156 427.40625 375.3156Q427.98438 375.3156 428.39062 375.01874Q428.8125 374.70624 429.04688 374.05ZM425.59375 372.34686L429.0625 372.34686Q429.0 371.55 428.67188 371.15936Q428.15625 370.55 427.35938 370.55Q426.625 370.55 426.125 371.03436Q425.64062 371.51874 425.59375 372.34686ZM435.82812 376.05L435.82812 375.26874Q435.23438 376.1906 434.09375 376.1906Q433.34375 376.1906 432.71875 375.78436Q432.09375 375.3625 431.75 374.6281Q431.40625 373.89374 431.40625 372.9406Q431.40625 372.01874 431.71875 371.2531Q432.03125 370.4875 432.65625 370.09686Q433.28125 369.6906 434.04688 369.6906Q434.60938 369.6906 435.04688 369.925Q435.48438 370.15936 435.76562 370.53436L435.76562 367.45624L436.8125 367.45624L436.8125 376.05L435.82812 376.05ZM432.5 372.9406Q432.5 374.14374 433.0 374.7375Q433.5 375.3156 434.1875 375.3156Q434.875 375.3156 435.35938 374.7531Q435.84375 374.1906 435.84375 373.03436Q435.84375 371.7531 435.34375 371.15936Q434.85938 370.5656 434.14062 370.5656Q433.4375 370.5656 432.96875 371.14374Q432.5 371.70624 432.5 372.9406ZM438.79688 368.675L438.79688 367.45624L439.85938 367.45624L439.85938 368.675L438.79688 368.675ZM438.79688 376.05L438.79688 369.83124L439.85938 369.83124L439.85938 376.05L438.79688 376.05ZM445.85938 375.28436Q445.26562 375.78436 444.71875 375.9875Q444.1875 376.1906 443.5625 376.1906Q442.53125 376.1906 441.98438 375.6906Q441.4375 375.1906 441.4375 374.40936Q441.4375 373.95624 441.64062 373.58124Q441.84375 373.1906 442.1875 372.97186Q442.53125 372.7375 442.95312 372.6281Q443.25 372.53436 443.89062 372.45624Q445.15625 372.3156 445.76562 372.09686Q445.76562 371.8781 445.76562 371.83124Q445.76562 371.175 445.46875 370.90936Q445.0625 370.5656 444.26562 370.5656Q443.53125 370.5656 443.17188 370.83124Q442.8125 371.08124 442.64062 371.7375L441.60938 371.59686Q441.75 370.9406 442.07812 370.53436Q442.40625 370.1281 443.01562 369.90936Q443.625 369.6906 444.42188 369.6906Q445.21875 369.6906 445.71875 369.8781Q446.21875 370.0656 446.45312 370.34686Q446.6875 370.6281 446.78125 371.0656Q446.82812 371.33124 446.82812 372.03436L446.82812 373.4406Q446.82812 374.90936 446.89062 375.3Q446.96875 375.6906 447.17188 376.05L446.0625 376.05Q445.90625 375.72186 445.85938 375.28436ZM445.76562 372.925Q445.1875 373.15936 444.04688 373.33124Q443.39062 373.425 443.125 373.55Q442.85938 373.65936 442.70312 373.8781Q442.5625 374.09686 442.5625 374.3781Q442.5625 374.8 442.875 375.08124Q443.20312 375.3625 443.8125 375.3625Q444.42188 375.3625 444.89062 375.09686Q445.375 374.83124 445.59375 374.3625Q445.76562 374.0031 445.76562 373.3156L445.76562 372.925ZM451.09375 375.1125L451.25 376.03436Q450.79688 376.1281 450.45312 376.1281Q449.875 376.1281 449.5625 375.95624Q449.25 375.76874 449.10938 375.47186Q448.98438 375.175 448.98438 374.22186L448.98438 370.64374L448.21875 370.64374L448.21875 369.83124L448.98438 369.83124L448.98438 368.28436L450.03125 367.65936L450.03125 369.83124L451.09375 369.83124L451.09375 370.64374L450.03125 370.64374L450.03125 374.28436Q450.03125 374.7375 450.07812 374.8625Q450.14062 374.9875 450.26562 375.0656Q450.39062 375.14374 450.625 375.14374Q450.8125 375.14374 451.09375 375.1125ZM451.79688 368.675L451.79688 367.45624L452.85938 367.45624L452.85938 368.675L451.79688 368.675ZM451.79688 376.05L451.79688 369.83124L452.85938 369.83124L452.85938 376.05L451.79688 376.05ZM454.40625 372.9406Q454.40625 371.20624 455.35938 370.3781Q456.15625 369.6906 457.3125 369.6906Q458.59375 369.6906 459.40625 370.53436Q460.23438 371.3625 460.23438 372.84686Q460.23438 374.05 459.875 374.7375Q459.51562 375.425 458.8125 375.8156Q458.125 376.1906 457.3125 376.1906Q456.01562 376.1906 455.20312 375.3625Q454.40625 374.51874 454.40625 372.9406ZM455.48438 372.9406Q455.48438 374.1281 456.0 374.72186Q456.53125 375.3156 457.3125 375.3156Q458.10938 375.3156 458.625 374.72186Q459.14062 374.1281 459.14062 372.90936Q459.14062 371.7531 458.60938 371.15936Q458.09375 370.5656 457.3125 370.5656Q456.53125 370.5656 456.0 371.15936Q455.48438 371.7375 455.48438 372.9406ZM461.79688 376.05L461.79688 369.83124L462.73438 369.83124L462.73438 370.70624Q463.42188 369.6906 464.71875 369.6906Q465.28125 369.6906 465.75 369.89374Q466.23438 370.09686 466.46875 370.425Q466.70312 370.7531 466.79688 371.1906Q466.84375 371.4875 466.84375 372.22186L466.84375 376.05L465.79688 376.05L465.79688 372.26874Q465.79688 371.6125 465.67188 371.3Q465.54688 370.9875 465.23438 370.8Q464.92188 370.59686 464.5 370.59686Q463.82812 370.59686 463.32812 371.03436Q462.84375 371.45624 462.84375 372.64374L462.84375 376.05L461.79688 376.05ZM471.79688 378.4406L471.79688 369.83124L472.75 369.83124L472.75 370.6281Q473.09375 370.15936 473.51562 369.925Q473.95312 369.6906 474.5625 369.6906Q475.35938 369.6906 475.96875 370.09686Q476.57812 370.5031 476.875 371.2531Q477.1875 372.0031 477.1875 372.89374Q477.1875 373.84686 476.84375 374.6125Q476.51562 375.3781 475.85938 375.78436Q475.20312 376.1906 474.48438 376.1906Q473.95312 376.1906 473.53125 375.97186Q473.10938 375.7375 472.84375 375.40936L472.84375 378.4406L471.79688 378.4406ZM472.75 372.97186Q472.75 374.175 473.23438 374.7531Q473.71875 375.3156 474.40625 375.3156Q475.10938 375.3156 475.60938 374.72186Q476.10938 374.1281 476.10938 372.8781Q476.10938 371.6906 475.625 371.1125Q475.14062 370.51874 474.45312 370.51874Q473.78125 370.51874 473.26562 371.14374Q472.75 371.76874 472.75 372.97186ZM478.40625 372.9406Q478.40625 371.20624 479.35938 370.3781Q480.15625 369.6906 481.3125 369.6906Q482.59375 369.6906 483.40625 370.53436Q484.23438 371.3625 484.23438 372.84686Q484.23438 374.05 483.875 374.7375Q483.51562 375.425 482.8125 375.8156Q482.125 376.1906 481.3125 376.1906Q480.01562 376.1906 479.20312 375.3625Q478.40625 374.51874 478.40625 372.9406ZM479.48438 372.9406Q479.48438 374.1281 480.0 374.72186Q480.53125 375.3156 481.3125 375.3156Q482.10938 375.3156 482.625 374.72186Q483.14062 374.1281 483.14062 372.90936Q483.14062 371.7531 482.60938 371.15936Q482.09375 370.5656 481.3125 370.5656Q480.53125 370.5656 480.0 371.15936Q479.48438 371.7375 479.48438 372.9406ZM485.76562 376.05L485.76562 367.45624L486.82812 367.45624L486.82812 376.05L485.76562 376.05ZM488.79688 368.675L488.79688 367.45624L489.85938 367.45624L489.85938 368.675L488.79688 368.675ZM488.79688 376.05L488.79688 369.83124L489.85938 369.83124L489.85938 376.05L488.79688 376.05ZM495.85938 373.76874L496.89062 373.90936Q496.71875 374.97186 496.01562 375.58124Q495.3125 376.1906 494.29688 376.1906Q493.01562 376.1906 492.23438 375.3625Q491.46875 374.51874 491.46875 372.95624Q491.46875 371.95624 491.79688 371.20624Q492.14062 370.4406 492.8125 370.0656Q493.5 369.6906 494.3125 369.6906Q495.3125 369.6906 495.95312 370.20624Q496.60938 370.70624 496.79688 371.65936L495.76562 371.8156Q495.625 371.1906 495.25 370.8781Q494.875 370.55 494.34375 370.55Q493.54688 370.55 493.04688 371.1281Q492.54688 371.6906 492.54688 372.925Q492.54688 374.1906 493.03125 374.7531Q493.51562 375.3156 494.28125 375.3156Q494.90625 375.3156 495.3125 374.9406Q495.73438 374.5656 495.85938 373.76874ZM497.75 378.4406L497.625 377.45624Q497.96875 377.55 498.23438 377.55Q498.57812 377.55 498.78125 377.425Q499.0 377.3156 499.14062 377.1125Q499.23438 376.9406 499.46875 376.3156Q499.48438 376.2375 499.5625 376.0656L497.1875 369.83124L498.32812 369.83124L499.625 373.425Q499.875 374.1125 500.07812 374.8781Q500.26562 374.14374 500.51562 373.45624L501.84375 369.83124L502.89062 369.83124L500.53125 376.15936Q500.14062 377.175 499.9375 377.5656Q499.65625 378.09686 499.28125 378.33124Q498.92188 378.58124 498.42188 378.58124Q498.125 378.58124 497.75 378.4406Z" fill-rule="nonzero"/><path fill="#444746" d="M169.96875 34.95L174.375 23.496876L176.01562 23.496876L180.70312 34.95L178.96875 34.95L177.64062 31.48125L172.84375 31.48125L171.59375 34.95L169.96875 34.95ZM173.28125 30.246876L177.17188 30.246876L175.96875 27.075Q175.42188 25.621876 175.15625 24.7Q174.9375 25.79375 174.54688 26.8875L173.28125 30.246876ZM184.35938 34.95L181.20312 26.653126L182.6875 26.653126L184.46875 31.621876Q184.76562 32.41875 185.0 33.29375Q185.1875 32.6375 185.53125 31.715626L187.375 26.653126L188.8125 26.653126L185.67188 34.95L184.35938 34.95ZM195.73438 32.278126L197.1875 32.45Q196.84375 33.73125 195.90625 34.434376Q194.98438 35.1375 193.54688 35.1375Q191.71875 35.1375 190.65625 34.0125Q189.59375 32.8875 189.59375 30.871876Q189.59375 28.778126 190.67188 27.621876Q191.75 26.465626 193.46875 26.465626Q195.125 26.465626 196.17188 27.60625Q197.23438 28.73125 197.23438 30.778126Q197.23438 30.903126 197.23438 31.153126L191.04688 31.153126Q191.125 32.528126 191.8125 33.2625Q192.51562 33.98125 193.54688 33.98125Q194.32812 33.98125 194.875 33.575Q195.42188 33.16875 195.73438 32.278126ZM191.125 29.996876L195.75 29.996876Q195.65625 28.95 195.21875 28.434376Q194.54688 27.621876 193.48438 27.621876Q192.51562 27.621876 191.84375 28.278126Q191.1875 28.91875 191.125 29.996876ZM199.04688 34.95L199.04688 26.653126L200.3125 26.653126L200.3125 27.903126Q200.79688 27.028126 201.20312 26.746876Q201.60938 26.465626 202.10938 26.465626Q202.8125 26.465626 203.54688 26.91875L203.0625 28.215626Q202.54688 27.91875 202.03125 27.91875Q201.57812 27.91875 201.20312 28.2Q200.84375 28.465626 200.6875 28.965626Q200.45312 29.715626 200.45312 30.60625L200.45312 34.95L199.04688 34.95ZM209.46875 33.91875Q208.6875 34.590626 207.96875 34.871876Q207.25 35.1375 206.42188 35.1375Q205.04688 35.1375 204.3125 34.465626Q203.57812 33.79375 203.57812 32.7625Q203.57812 32.153126 203.85938 31.653126Q204.14062 31.1375 204.57812 30.840626Q205.03125 30.528126 205.59375 30.371876Q206.01562 30.2625 206.84375 30.16875Q208.54688 29.965626 209.35938 29.684376Q209.35938 29.3875 209.35938 29.309376Q209.35938 28.45 208.96875 28.10625Q208.42188 27.621876 207.35938 27.621876Q206.375 27.621876 205.89062 27.98125Q205.42188 28.325 205.20312 29.2L203.82812 29.0125Q204.01562 28.1375 204.4375 27.590626Q204.875 27.04375 205.6875 26.7625Q206.5 26.465626 207.5625 26.465626Q208.625 26.465626 209.28125 26.715626Q209.95312 26.965626 210.26562 27.340626Q210.57812 27.715626 210.70312 28.29375Q210.78125 28.653126 210.78125 29.590626L210.78125 31.465626Q210.78125 33.434376 210.85938 33.95Q210.95312 34.465626 211.21875 34.95L209.75 34.95Q209.53125 34.5125 209.46875 33.91875ZM209.35938 30.778126Q208.59375 31.090626 207.0625 31.309376Q206.1875 31.434376 205.82812 31.590626Q205.46875 31.746876 205.26562 32.059376Q205.07812 32.35625 205.07812 32.715626Q205.07812 33.278126 205.5 33.653126Q205.9375 34.028126 206.75 34.028126Q207.5625 34.028126 208.1875 33.684376Q208.82812 33.325 209.125 32.7Q209.35938 32.23125 209.35938 31.29375L209.35938 30.778126ZM212.79688 35.6375L214.17188 35.840626Q214.25 36.48125 214.64062 36.7625Q215.17188 37.153126 216.07812 37.153126Q217.04688 37.153126 217.57812 36.7625Q218.10938 36.371876 218.29688 35.66875Q218.40625 35.246876 218.40625 33.85625Q217.48438 34.95 216.10938 34.95Q214.39062 34.95 213.45312 33.715626Q212.51562 32.48125 212.51562 30.746876Q212.51562 29.559376 212.9375 28.559376Q213.375 27.559376 214.1875 27.0125Q215.01562 26.465626 216.10938 26.465626Q217.57812 26.465626 218.53125 27.653126L218.53125 26.653126L219.82812 26.653126L219.82812 33.825Q219.82812 35.7625 219.4375 36.575Q219.04688 37.3875 218.1875 37.85625Q217.32812 38.325 216.07812 38.325Q214.59375 38.325 213.67188 37.653126Q212.76562 36.98125 212.79688 35.6375ZM213.96875 30.653126Q213.96875 32.278126 214.60938 33.028126Q215.26562 33.778126 216.23438 33.778126Q217.20312 33.778126 217.85938 33.04375Q218.51562 32.29375 218.51562 30.7Q218.51562 29.16875 217.84375 28.403126Q217.17188 27.621876 216.21875 27.621876Q215.28125 27.621876 214.625 28.3875Q213.96875 29.153126 213.96875 30.653126ZM227.73438 32.278126L229.1875 32.45Q228.84375 33.73125 227.90625 34.434376Q226.98438 35.1375 225.54688 35.1375Q223.71875 35.1375 222.65625 34.0125Q221.59375 32.8875 221.59375 30.871876Q221.59375 28.778126 222.67188 27.621876Q223.75 26.465626 225.46875 26.465626Q227.125 26.465626 228.17188 27.60625Q229.23438 28.73125 229.23438 30.778126Q229.23438 30.903126 229.23438 31.153126L223.04688 31.153126Q223.125 32.528126 223.8125 33.2625Q224.51562 33.98125 225.54688 33.98125Q226.32812 33.98125 226.875 33.575Q227.42188 33.16875 227.73438 32.278126ZM223.125 29.996876L227.75 29.996876Q227.65625 28.95 227.21875 28.434376Q226.54688 27.621876 225.48438 27.621876Q224.51562 27.621876 223.84375 28.278126Q223.1875 28.91875 223.125 29.996876ZM235.26562 34.95L235.26562 23.496876L240.34375 23.496876Q241.875 23.496876 242.67188 23.809376Q243.46875 24.10625 243.9375 24.8875Q244.42188 25.66875 244.42188 26.621876Q244.42188 27.840626 243.625 28.684376Q242.84375 29.5125 241.1875 29.73125Q241.79688 30.028126 242.10938 30.309376Q242.76562 30.91875 243.35938 31.825L245.35938 34.95L243.45312 34.95L241.9375 32.559376Q241.26562 31.528126 240.82812 30.98125Q240.40625 30.434376 240.0625 30.215626Q239.73438 29.996876 239.375 29.91875Q239.125 29.85625 238.53125 29.85625L236.78125 29.85625L236.78125 34.95L235.26562 34.95ZM236.78125 28.54375L240.03125 28.54375Q241.07812 28.54375 241.65625 28.340626Q242.25 28.121876 242.54688 27.653126Q242.85938 27.16875 242.85938 26.621876Q242.85938 25.809376 242.26562 25.29375Q241.67188 24.7625 240.40625 24.7625L236.78125 24.7625L236.78125 28.54375ZM252.73438 32.278126L254.1875 32.45Q253.84375 33.73125 252.90625 34.434376Q251.98438 35.1375 250.54688 35.1375Q248.71875 35.1375 247.65625 34.0125Q246.59375 32.8875 246.59375 30.871876Q246.59375 28.778126 247.67188 27.621876Q248.75 26.465626 250.46875 26.465626Q252.125 26.465626 253.17188 27.60625Q254.23438 28.73125 254.23438 30.778126Q254.23438 30.903126 254.23438 31.153126L248.04688 31.153126Q248.125 32.528126 248.8125 33.2625Q249.51562 33.98125 250.54688 33.98125Q251.32812 33.98125 251.875 33.575Q252.42188 33.16875 252.73438 32.278126ZM248.125 29.996876L252.75 29.996876Q252.65625 28.95 252.21875 28.434376Q251.54688 27.621876 250.48438 27.621876Q249.51562 27.621876 248.84375 28.278126Q248.1875 28.91875 248.125 29.996876ZM255.5 32.465626L256.89062 32.246876Q257.0 33.090626 257.53125 33.54375Q258.07812 33.98125 259.03125 33.98125Q260.0 33.98125 260.46875 33.590626Q260.9375 33.184376 260.9375 32.653126Q260.9375 32.184376 260.53125 31.903126Q260.23438 31.715626 259.09375 31.434376Q257.54688 31.04375 256.9375 30.7625Q256.34375 30.465626 256.03125 29.965626Q255.73438 29.465626 255.73438 28.85625Q255.73438 28.29375 255.98438 27.825Q256.23438 27.35625 256.67188 27.04375Q257.0 26.79375 257.5625 26.6375Q258.14062 26.465626 258.78125 26.465626Q259.76562 26.465626 260.5 26.746876Q261.23438 27.028126 261.57812 27.5125Q261.9375 27.98125 262.07812 28.79375L260.70312 28.98125Q260.60938 28.340626 260.15625 27.98125Q259.70312 27.621876 258.89062 27.621876Q257.92188 27.621876 257.5 27.95Q257.09375 28.2625 257.09375 28.684376Q257.09375 28.965626 257.26562 29.184376Q257.4375 29.403126 257.79688 29.559376Q258.01562 29.6375 259.04688 29.91875Q260.53125 30.309376 261.125 30.575Q261.71875 30.825 262.04688 31.309376Q262.39062 31.79375 262.39062 32.5125Q262.39062 33.215626 261.96875 33.840626Q261.5625 34.45 260.78125 34.79375Q260.01562 35.1375 259.04688 35.1375Q257.42188 35.1375 256.57812 34.465626Q255.73438 33.79375 255.5 32.465626ZM264.0625 38.1375L264.0625 26.653126L265.34375 26.653126L265.34375 27.73125Q265.79688 27.090626 266.35938 26.778126Q266.9375 26.465626 267.75 26.465626Q268.8125 26.465626 269.625 27.0125Q270.4375 27.559376 270.84375 28.559376Q271.26562 29.54375 271.26562 30.73125Q271.26562 32.0125 270.79688 33.028126Q270.34375 34.04375 269.46875 34.590626Q268.60938 35.1375 267.64062 35.1375Q266.9375 35.1375 266.375 34.840626Q265.82812 34.54375 265.46875 34.090626L265.46875 38.1375L264.0625 38.1375ZM265.32812 30.840626Q265.32812 32.45 265.96875 33.215626Q266.625 33.98125 267.54688 33.98125Q268.48438 33.98125 269.15625 33.184376Q269.82812 32.3875 269.82812 30.73125Q269.82812 29.1375 269.17188 28.35625Q268.51562 27.559376 267.60938 27.559376Q266.71875 27.559376 266.01562 28.403126Q265.32812 29.246876 265.32812 30.840626ZM272.53125 30.79375Q272.53125 28.496876 273.8125 27.3875Q274.89062 26.465626 276.42188 26.465626Q278.14062 26.465626 279.21875 27.590626Q280.3125 28.7 280.3125 30.684376Q280.3125 32.278126 279.82812 33.2Q279.34375 34.121876 278.42188 34.6375Q277.51562 35.1375 276.42188 35.1375Q274.6875 35.1375 273.60938 34.028126Q272.53125 32.903126 272.53125 30.79375ZM273.98438 30.79375Q273.98438 32.3875 274.67188 33.184376Q275.375 33.98125 276.42188 33.98125Q277.46875 33.98125 278.15625 33.184376Q278.85938 32.3875 278.85938 30.746876Q278.85938 29.215626 278.15625 28.41875Q277.46875 27.621876 276.42188 27.621876Q275.375 27.621876 274.67188 28.41875Q273.98438 29.2 273.98438 30.79375ZM282.0625 34.95L282.0625 26.653126L283.32812 26.653126L283.32812 27.825Q284.23438 26.465626 285.96875 26.465626Q286.71875 26.465626 287.34375 26.73125Q287.96875 26.996876 288.28125 27.434376Q288.59375 27.871876 288.71875 28.48125Q288.79688 28.871876 288.79688 29.840626L288.79688 34.95L287.39062 34.95L287.39062 29.903126Q287.39062 29.04375 287.21875 28.621876Q287.0625 28.184376 286.64062 27.934376Q286.23438 27.684376 285.67188 27.684376Q284.76562 27.684376 284.10938 28.2625Q283.46875 28.825 283.46875 30.41875L283.46875 34.95L282.0625 34.95ZM290.5 32.465626L291.89062 32.246876Q292.0 33.090626 292.53125 33.54375Q293.07812 33.98125 294.03125 33.98125Q295.0 33.98125 295.46875 33.590626Q295.9375 33.184376 295.9375 32.653126Q295.9375 32.184376 295.53125 31.903126Q295.23438 31.715626 294.09375 31.434376Q292.54688 31.04375 291.9375 30.7625Q291.34375 30.465626 291.03125 29.965626Q290.73438 29.465626 290.73438 28.85625Q290.73438 28.29375 290.98438 27.825Q291.23438 27.35625 291.67188 27.04375Q292.0 26.79375 292.5625 26.6375Q293.14062 26.465626 293.78125 26.465626Q294.76562 26.465626 295.5 26.746876Q296.23438 27.028126 296.57812 27.5125Q296.9375 27.98125 297.07812 28.79375L295.70312 28.98125Q295.60938 28.340626 295.15625 27.98125Q294.70312 27.621876 293.89062 27.621876Q292.92188 27.621876 292.5 27.95Q292.09375 28.2625 292.09375 28.684376Q292.09375 28.965626 292.26562 29.184376Q292.4375 29.403126 292.79688 29.559376Q293.01562 29.6375 294.04688 29.91875Q295.53125 30.309376 296.125 30.575Q296.71875 30.825 297.04688 31.309376Q297.39062 31.79375 297.39062 32.5125Q297.39062 33.215626 296.96875 33.840626Q296.5625 34.45 295.78125 34.79375Q295.01562 35.1375 294.04688 35.1375Q292.42188 35.1375 291.57812 34.465626Q290.73438 33.79375 290.5 32.465626ZM304.73438 32.278126L306.1875 32.45Q305.84375 33.73125 304.90625 34.434376Q303.98438 35.1375 302.54688 35.1375Q300.71875 35.1375 299.65625 34.0125Q298.59375 32.8875 298.59375 30.871876Q298.59375 28.778126 299.67188 27.621876Q300.75 26.465626 302.46875 26.465626Q304.125 26.465626 305.17188 27.60625Q306.23438 28.73125 306.23438 30.778126Q306.23438 30.903126 306.23438 31.153126L300.04688 31.153126Q300.125 32.528126 300.8125 33.2625Q301.51562 33.98125 302.54688 33.98125Q303.32812 33.98125 303.875 33.575Q304.42188 33.16875 304.73438 32.278126ZM300.125 29.996876L304.75 29.996876Q304.65625 28.95 304.21875 28.434376Q303.54688 27.621876 302.48438 27.621876Q301.51562 27.621876 300.84375 28.278126Q300.1875 28.91875 300.125 29.996876ZM315.15625 34.95L315.15625 24.840626L311.375 24.840626L311.375 23.496876L320.45312 23.496876L320.45312 24.840626L316.67188 24.840626L316.67188 34.95L315.15625 34.95ZM322.0625 25.10625L322.0625 23.496876L323.46875 23.496876L323.46875 25.10625L322.0625 25.10625ZM322.0625 34.95L322.0625 26.653126L323.46875 26.653126L323.46875 34.95L322.0625 34.95ZM326.0625 34.95L326.0625 26.653126L327.3125 26.653126L327.3125 27.809376Q327.70312 27.2 328.34375 26.840626Q329.0 26.465626 329.82812 26.465626Q330.75 26.465626 331.34375 26.85625Q331.9375 27.23125 332.17188 27.91875Q333.15625 26.465626 334.73438 26.465626Q335.96875 26.465626 336.625 27.153126Q337.29688 27.825 337.29688 29.246876L337.29688 34.95L335.90625 34.95L335.90625 29.715626Q335.90625 28.871876 335.76562 28.5125Q335.625 28.1375 335.26562 27.91875Q334.90625 27.684376 334.42188 27.684376Q333.54688 27.684376 332.96875 28.2625Q332.39062 28.840626 332.39062 30.121876L332.39062 34.95L330.98438 34.95L330.98438 29.559376Q330.98438 28.621876 330.64062 28.153126Q330.29688 27.684376 329.51562 27.684376Q328.92188 27.684376 328.42188 27.996876Q327.92188 28.309376 327.6875 28.91875Q327.46875 29.5125 327.46875 30.6375L327.46875 34.95L326.0625 34.95ZM344.73438 32.278126L346.1875 32.45Q345.84375 33.73125 344.90625 34.434376Q343.98438 35.1375 342.54688 35.1375Q340.71875 35.1375 339.65625 34.0125Q338.59375 32.8875 338.59375 30.871876Q338.59375 28.778126 339.67188 27.621876Q340.75 26.465626 342.46875 26.465626Q344.125 26.465626 345.17188 27.60625Q346.23438 28.73125 346.23438 30.778126Q346.23438 30.903126 346.23438 31.153126L340.04688 31.153126Q340.125 32.528126 340.8125 33.2625Q341.51562 33.98125 342.54688 33.98125Q343.32812 33.98125 343.875 33.575Q344.42188 33.16875 344.73438 32.278126ZM340.125 29.996876L344.75 29.996876Q344.65625 28.95 344.21875 28.434376Q343.54688 27.621876 342.48438 27.621876Q341.51562 27.621876 340.84375 28.278126Q340.1875 28.91875 340.125 29.996876ZM354.35938 34.95L351.20312 26.653126L352.6875 26.653126L354.46875 31.621876Q354.76562 32.41875 355.0 33.29375Q355.1875 32.6375 355.53125 31.715626L357.375 26.653126L358.8125 26.653126L355.67188 34.95L354.35938 34.95ZM359.5 32.465626L360.89062 32.246876Q361.0 33.090626 361.53125 33.54375Q362.07812 33.98125 363.03125 33.98125Q364.0 33.98125 364.46875 33.590626Q364.9375 33.184376 364.9375 32.653126Q364.9375 32.184376 364.53125 31.903126Q364.23438 31.715626 363.09375 31.434376Q361.54688 31.04375 360.9375 30.7625Q360.34375 30.465626 360.03125 29.965626Q359.73438 29.465626 359.73438 28.85625Q359.73438 28.29375 359.98438 27.825Q360.23438 27.35625 360.67188 27.04375Q361.0 26.79375 361.5625 26.6375Q362.14062 26.465626 362.78125 26.465626Q363.76562 26.465626 364.5 26.746876Q365.23438 27.028126 365.57812 27.5125Q365.9375 27.98125 366.07812 28.79375L364.70312 28.98125Q364.60938 28.340626 364.15625 27.98125Q363.70312 27.621876 362.89062 27.621876Q361.92188 27.621876 361.5 27.95Q361.09375 28.2625 361.09375 28.684376Q361.09375 28.965626 361.26562 29.184376Q361.4375 29.403126 361.79688 29.559376Q362.01562 29.6375 363.04688 29.91875Q364.53125 30.309376 365.125 30.575Q365.71875 30.825 366.04688 31.309376Q366.39062 31.79375 366.39062 32.5125Q366.39062 33.215626 365.96875 33.840626Q365.5625 34.45 364.78125 34.79375Q364.01562 35.1375 363.04688 35.1375Q361.42188 35.1375 360.57812 34.465626Q359.73438 33.79375 359.5 32.465626ZM380.40625 30.934376L381.92188 31.309376Q381.45312 33.184376 380.20312 34.16875Q378.96875 35.153126 377.1875 35.153126Q375.32812 35.153126 374.17188 34.403126Q373.01562 33.6375 372.40625 32.215626Q371.79688 30.778126 371.79688 29.1375Q371.79688 27.340626 372.48438 26.0125Q373.17188 24.684376 374.42188 23.996876Q375.6875 23.29375 377.20312 23.29375Q378.92188 23.29375 380.09375 24.16875Q381.26562 25.04375 381.73438 26.6375L380.23438 26.98125Q379.84375 25.73125 379.07812 25.16875Q378.32812 24.590626 377.17188 24.590626Q375.85938 24.590626 374.96875 25.23125Q374.07812 25.85625 373.71875 26.934376Q373.35938 27.996876 373.35938 29.121876Q373.35938 30.590626 373.78125 31.684376Q374.21875 32.7625 375.10938 33.309376Q376.01562 33.840626 377.0625 33.840626Q378.32812 33.840626 379.20312 33.10625Q380.09375 32.371876 380.40625 30.934376ZM383.53125 30.79375Q383.53125 28.496876 384.8125 27.3875Q385.89062 26.465626 387.42188 26.465626Q389.14062 26.465626 390.21875 27.590626Q391.3125 28.7 391.3125 30.684376Q391.3125 32.278126 390.82812 33.2Q390.34375 34.121876 389.42188 34.6375Q388.51562 35.1375 387.42188 35.1375Q385.6875 35.1375 384.60938 34.028126Q383.53125 32.903126 383.53125 30.79375ZM384.98438 30.79375Q384.98438 32.3875 385.67188 33.184376Q386.375 33.98125 387.42188 33.98125Q388.46875 33.98125 389.15625 33.184376Q389.85938 32.3875 389.85938 30.746876Q389.85938 29.215626 389.15625 28.41875Q388.46875 27.621876 387.42188 27.621876Q386.375 27.621876 385.67188 28.41875Q384.98438 29.2 384.98438 30.79375ZM393.0625 34.95L393.0625 26.653126L394.32812 26.653126L394.32812 27.825Q395.23438 26.465626 396.96875 26.465626Q397.71875 26.465626 398.34375 26.73125Q398.96875 26.996876 399.28125 27.434376Q399.59375 27.871876 399.71875 28.48125Q399.79688 28.871876 399.79688 29.840626L399.79688 34.95L398.39062 34.95L398.39062 29.903126Q398.39062 29.04375 398.21875 28.621876Q398.0625 28.184376 397.64062 27.934376Q397.23438 27.684376 396.67188 27.684376Q395.76562 27.684376 395.10938 28.2625Q394.46875 28.825 394.46875 30.41875L394.46875 34.95L393.0625 34.95ZM407.46875 31.903126L408.85938 32.090626Q408.625 33.5125 407.6875 34.325Q406.76562 35.1375 405.40625 35.1375Q403.70312 35.1375 402.65625 34.028126Q401.625 32.903126 401.625 30.825Q401.625 29.48125 402.0625 28.48125Q402.51562 27.465626 403.42188 26.965626Q404.34375 26.465626 405.40625 26.465626Q406.76562 26.465626 407.625 27.153126Q408.48438 27.825 408.71875 29.090626L407.35938 29.29375Q407.15625 28.465626 406.65625 28.04375Q406.17188 27.621876 405.46875 27.621876Q404.40625 27.621876 403.73438 28.3875Q403.07812 29.1375 403.07812 30.79375Q403.07812 32.465626 403.71875 33.23125Q404.35938 33.98125 405.39062 33.98125Q406.21875 33.98125 406.76562 33.48125Q407.32812 32.965626 407.46875 31.903126ZM415.5 34.95L415.5 33.73125Q414.53125 35.1375 412.85938 35.1375Q412.125 35.1375 411.48438 34.85625Q410.85938 34.575 410.54688 34.153126Q410.23438 33.715626 410.10938 33.10625Q410.03125 32.684376 410.03125 31.79375L410.03125 26.653126L411.4375 26.653126L411.4375 31.246876Q411.4375 32.35625 411.51562 32.73125Q411.65625 33.29375 412.07812 33.60625Q412.51562 33.91875 413.14062 33.91875Q413.78125 33.91875 414.32812 33.60625Q414.89062 33.278126 415.10938 32.715626Q415.34375 32.153126 415.34375 31.090626L415.34375 26.653126L416.75 26.653126L416.75 34.95L415.5 34.95ZM419.04688 34.95L419.04688 26.653126L420.3125 26.653126L420.3125 27.903126Q420.79688 27.028126 421.20312 26.746876Q421.60938 26.465626 422.10938 26.465626Q422.8125 26.465626 423.54688 26.91875L423.0625 28.215626Q422.54688 27.91875 422.03125 27.91875Q421.57812 27.91875 421.20312 28.2Q420.84375 28.465626 420.6875 28.965626Q420.45312 29.715626 420.45312 30.60625L420.45312 34.95L419.04688 34.95ZM424.04688 34.95L424.04688 26.653126L425.3125 26.653126L425.3125 27.903126Q425.79688 27.028126 426.20312 26.746876Q426.60938 26.465626 427.10938 26.465626Q427.8125 26.465626 428.54688 26.91875L428.0625 28.215626Q427.54688 27.91875 427.03125 27.91875Q426.57812 27.91875 426.20312 28.2Q425.84375 28.465626 425.6875 28.965626Q425.45312 29.715626 425.45312 30.60625L425.45312 34.95L424.04688 34.95ZM434.73438 32.278126L436.1875 32.45Q435.84375 33.73125 434.90625 34.434376Q433.98438 35.1375 432.54688 35.1375Q430.71875 35.1375 429.65625 34.0125Q428.59375 32.8875 428.59375 30.871876Q428.59375 28.778126 429.67188 27.621876Q430.75 26.465626 432.46875 26.465626Q434.125 26.465626 435.17188 27.60625Q436.23438 28.73125 436.23438 30.778126Q436.23438 30.903126 436.23438 31.153126L430.04688 31.153126Q430.125 32.528126 430.8125 33.2625Q431.51562 33.98125 432.54688 33.98125Q433.32812 33.98125 433.875 33.575Q434.42188 33.16875 434.73438 32.278126ZM430.125 29.996876L434.75 29.996876Q434.65625 28.95 434.21875 28.434376Q433.54688 27.621876 432.48438 27.621876Q431.51562 27.621876 430.84375 28.278126Q430.1875 28.91875 430.125 29.996876ZM438.0625 34.95L438.0625 26.653126L439.32812 26.653126L439.32812 27.825Q440.23438 26.465626 441.96875 26.465626Q442.71875 26.465626 443.34375 26.73125Q443.96875 26.996876 444.28125 27.434376Q444.59375 27.871876 444.71875 28.48125Q444.79688 28.871876 444.79688 29.840626L444.79688 34.95L443.39062 34.95L443.39062 29.903126Q443.39062 29.04375 443.21875 28.621876Q443.0625 28.184376 442.64062 27.934376Q442.23438 27.684376 441.67188 27.684376Q440.76562 27.684376 440.10938 28.2625Q439.46875 28.825 439.46875 30.41875L439.46875 34.95L438.0625 34.95ZM450.125 33.684376L450.32812 34.934376Q449.73438 35.059376 449.26562 35.059376Q448.5 35.059376 448.07812 34.825Q447.65625 34.575 447.48438 34.184376Q447.3125 33.778126 447.3125 32.5125L447.3125 27.746876L446.28125 27.746876L446.28125 26.653126L447.3125 26.653126L447.3125 24.590626L448.71875 23.746876L448.71875 26.653126L450.125 26.653126L450.125 27.746876L448.71875 27.746876L448.71875 32.590626Q448.71875 33.2 448.78125 33.371876Q448.85938 33.54375 449.03125 33.653126Q449.20312 33.746876 449.51562 33.746876Q449.75 33.746876 450.125 33.684376ZM462.75 23.496876L464.26562 23.496876L464.26562 30.10625Q464.26562 31.840626 463.875 32.85625Q463.48438 33.871876 462.46875 34.5125Q461.45312 35.153126 459.79688 35.153126Q458.1875 35.153126 457.15625 34.590626Q456.14062 34.028126 455.70312 32.98125Q455.26562 31.934376 455.26562 30.10625L455.26562 23.496876L456.78125 23.496876L456.78125 30.10625Q456.78125 31.590626 457.04688 32.309376Q457.32812 33.0125 458.0 33.403126Q458.6875 33.778126 459.65625 33.778126Q461.32812 33.778126 462.03125 33.028126Q462.75 32.2625 462.75 30.10625L462.75 23.496876ZM466.5 32.465626L467.89062 32.246876Q468.0 33.090626 468.53125 33.54375Q469.07812 33.98125 470.03125 33.98125Q471.0 33.98125 471.46875 33.590626Q471.9375 33.184376 471.9375 32.653126Q471.9375 32.184376 471.53125 31.903126Q471.23438 31.715626 470.09375 31.434376Q468.54688 31.04375 467.9375 30.7625Q467.34375 30.465626 467.03125 29.965626Q466.73438 29.465626 466.73438 28.85625Q466.73438 28.29375 466.98438 27.825Q467.23438 27.35625 467.67188 27.04375Q468.0 26.79375 468.5625 26.6375Q469.14062 26.465626 469.78125 26.465626Q470.76562 26.465626 471.5 26.746876Q472.23438 27.028126 472.57812 27.5125Q472.9375 27.98125 473.07812 28.79375L471.70312 28.98125Q471.60938 28.340626 471.15625 27.98125Q470.70312 27.621876 469.89062 27.621876Q468.92188 27.621876 468.5 27.95Q468.09375 28.2625 468.09375 28.684376Q468.09375 28.965626 468.26562 29.184376Q468.4375 29.403126 468.79688 29.559376Q469.01562 29.6375 470.04688 29.91875Q471.53125 30.309376 472.125 30.575Q472.71875 30.825 473.04688 31.309376Q473.39062 31.79375 473.39062 32.5125Q473.39062 33.215626 472.96875 33.840626Q472.5625 34.45 471.78125 34.79375Q471.01562 35.1375 470.04688 35.1375Q468.42188 35.1375 467.57812 34.465626Q466.73438 33.79375 466.5 32.465626ZM480.73438 32.278126L482.1875 32.45Q481.84375 33.73125 480.90625 34.434376Q479.98438 35.1375 478.54688 35.1375Q476.71875 35.1375 475.65625 34.0125Q474.59375 32.8875 474.59375 30.871876Q474.59375 28.778126 475.67188 27.621876Q476.75 26.465626 478.46875 26.465626Q480.125 26.465626 481.17188 27.60625Q482.23438 28.73125 482.23438 30.778126Q482.23438 30.903126 482.23438 31.153126L476.04688 31.153126Q476.125 32.528126 476.8125 33.2625Q477.51562 33.98125 478.54688 33.98125Q479.32812 33.98125 479.875 33.575Q480.42188 33.16875 480.73438 32.278126ZM476.125 29.996876L480.75 29.996876Q480.65625 28.95 480.21875 28.434376Q479.54688 27.621876 478.48438 27.621876Q477.51562 27.621876 476.84375 28.278126Q476.1875 28.91875 476.125 29.996876ZM484.04688 34.95L484.04688 26.653126L485.3125 26.653126L485.3125 27.903126Q485.79688 27.028126 486.20312 26.746876Q486.60938 26.465626 487.10938 26.465626Q487.8125 26.465626 488.54688 26.91875L488.0625 28.215626Q487.54688 27.91875 487.03125 27.91875Q486.57812 27.91875 486.20312 28.2Q485.84375 28.465626 485.6875 28.965626Q485.45312 29.715626 485.45312 30.60625L485.45312 34.95L484.04688 34.95ZM488.5 32.465626L489.89062 32.246876Q490.0 33.090626 490.53125 33.54375Q491.07812 33.98125 492.03125 33.98125Q493.0 33.98125 493.46875 33.590626Q493.9375 33.184376 493.9375 32.653126Q493.9375 32.184376 493.53125 31.903126Q493.23438 31.715626 492.09375 31.434376Q490.54688 31.04375 489.9375 30.7625Q489.34375 30.465626 489.03125 29.965626Q488.73438 29.465626 488.73438 28.85625Q488.73438 28.29375 488.98438 27.825Q489.23438 27.35625 489.67188 27.04375Q490.0 26.79375 490.5625 26.6375Q491.14062 26.465626 491.78125 26.465626Q492.76562 26.465626 493.5 26.746876Q494.23438 27.028126 494.57812 27.5125Q494.9375 27.98125 495.07812 28.79375L493.70312 28.98125Q493.60938 28.340626 493.15625 27.98125Q492.70312 27.621876 491.89062 27.621876Q490.92188 27.621876 490.5 27.95Q490.09375 28.2625 490.09375 28.684376Q490.09375 28.965626 490.26562 29.184376Q490.4375 29.403126 490.79688 29.559376Q491.01562 29.6375 492.04688 29.91875Q493.53125 30.309376 494.125 30.575Q494.71875 30.825 495.04688 31.309376Q495.39062 31.79375 495.39062 32.5125Q495.39062 33.215626 494.96875 33.840626Q494.5625 34.45 493.78125 34.79375Q493.01562 35.1375 492.04688 35.1375Q490.42188 35.1375 489.57812 34.465626Q488.73438 33.79375 488.5 32.465626Z" fill-rule="nonzero"/></svg>