<svg version="1.1" viewBox="0.0 0.0 711.0 426.0" fill="none" stroke="none" stroke-linecap="square" stroke-miterlimit="10" width="711" height="426" xmlns:xlink="http://www.w3.org/1999/xlink" xmlns="http://www.w3.org/2000/svg"><path fill="#f0f4f9" d="M0 0L711.0 0L711.0 426.0L0 426.0L0 0Z" fill-rule="nonzero"/><path stroke="#bec1c5" stroke-width="1.0" stroke-linecap="butt" d="M202.5 66.5L202.5 324.5" fill-rule="nonzero"/><path stroke="#bec1c5" stroke-width="1.0" stroke-linecap="butt" d="M324.5 66.5L324.5 324.5" fill-rule="nonzero"/><path stroke="#bec1c5" stroke-width="1.0" stroke-linecap="butt" d="M446.5 66.5L446.5 324.5" fill-rule="nonzero"/><path stroke="#bec1c5" stroke-width="1.0" stroke-linecap="butt" d="M568.5 66.5L568.5 324.5" fill-rule="nonzero"/><path stroke="#bec1c5" stroke-width="1.0" stroke-linecap="butt" d="M689.5 66.5L689.5 324.5" fill-rule="nonzero"/><path stroke="#272728" stroke-width="1.0" stroke-linecap="butt" d="M87.5 324.5L689.5 324.5" fill-rule="nonzero"/><path stroke="#bec1c5" stroke-width="1.0" stroke-linecap="butt" d="M87.5 238.5L689.5 238.5" fill-rule="nonzero"/><path stroke="#bec1c5" stroke-width="1.0" stroke-linecap="butt" d="M87.5 152.5L689.5 152.5" fill-rule="nonzero"/><path stroke="#bec1c5" stroke-width="1.0" stroke-linecap="butt" d="M87.5 66.5L689.5 66.5" fill-rule="nonzero"/><clipPath id="id_0"><path d="M87.3 66.5L689.7 66.5L689.7 324.5L87.3 324.5L87.3 66.5Z" clip-rule="nonzero"/></clipPath><path stroke="#0000ff" stroke-width="2.0" stroke-linecap="butt" clip-path="url(#id_0)" d="M87.3 123.42598L111.6394 86.27269L142.06363 74.86823L385.45758 93.4051L568.00305 106.78498L689.7 100.16083" fill-rule="nonzero"/><path stroke="#f49301" stroke-width="2.0" stroke-linecap="butt" clip-path="url(#id_0)" d="M87.3 142.3477L111.6394 113.95222L142.06363 109.95236L385.45758 119.99157L568.00305 128.1362L689.7 127.1773" fill-rule="nonzero"/><path fill="#000000" fill-opacity="0.0" clip-path="url(#id_0)" d="M90.3 123.42598C90.3 125.08283 88.956856 126.42598 87.3 126.42598C85.64314 126.42598 84.3 125.08283 84.3 123.42598C84.3 121.76913 85.64314 120.42598 87.3 120.42598C88.956856 120.42598 90.3 121.76913 90.3 123.42598Z" fill-rule="nonzero"/><path fill="#000000" fill-opacity="0.0" clip-path="url(#id_0)" d="M114.6394 86.27269C114.6394 87.92954 113.29625 89.27269 111.6394 89.27269C109.98254 89.27269 108.6394 87.92954 108.6394 86.27269C108.6394 84.61584 109.98254 83.27269 111.6394 83.27269C113.29625 83.27269 114.6394 84.61584 114.6394 86.27269Z" fill-rule="nonzero"/><path fill="#000000" fill-opacity="0.0" clip-path="url(#id_0)" d="M145.06363 74.86823C145.06363 76.525085 143.72049 77.86823 142.06363 77.86823C140.40678 77.86823 139.06363 76.525085 139.06363 74.86823C139.06363 73.21137 140.40678 71.86823 142.06363 71.86823C143.72049 71.86823 145.06363 73.21137 145.06363 74.86823Z" fill-rule="nonzero"/><path fill="#000000" fill-opacity="0.0" clip-path="url(#id_0)" d="M388.45758 93.4051C388.45758 95.06195 387.11444 96.4051 385.45758 96.4051C383.80072 96.4051 382.45758 95.06195 382.45758 93.4051C382.45758 91.748245 383.80072 90.4051 385.45758 90.4051C387.11444 90.4051 388.45758 91.748245 388.45758 93.4051Z" fill-rule="nonzero"/><path fill="#000000" fill-opacity="0.0" clip-path="url(#id_0)" d="M571.00305 106.78498C571.00305 108.44183 569.6599 109.78498 568.00305 109.78498C566.3462 109.78498 565.00305 108.44183 565.00305 106.78498C565.00305 105.12813 566.3462 103.78498 568.00305 103.78498C569.6599 103.78498 571.00305 105.12813 571.00305 106.78498Z" fill-rule="nonzero"/><path fill="#000000" fill-opacity="0.0" clip-path="url(#id_0)" d="M692.7 100.16083C692.7 101.81769 691.3569 103.16083 689.7 103.16083C688.04315 103.16083 686.7 101.81769 686.7 100.16083C686.7 98.503975 688.04315 97.16083 689.7 97.16083C691.3569 97.16083 692.7 98.503975 692.7 100.16083Z" fill-rule="nonzero"/><path fill="#000000" fill-opacity="0.0" clip-path="url(#id_0)" d="M90.3 142.3477C90.3 144.00455 88.956856 145.3477 87.3 145.3477C85.64314 145.3477 84.3 144.00455 84.3 142.3477C84.3 140.69084 85.64314 139.3477 87.3 139.3477C88.956856 139.3477 90.3 140.69084 90.3 142.3477Z" fill-rule="nonzero"/><path fill="#000000" fill-opacity="0.0" clip-path="url(#id_0)" d="M114.6394 113.95222C114.6394 115.60908 113.29625 116.95222 111.6394 116.95222C109.98254 116.95222 108.6394 115.60908 108.6394 113.95222C108.6394 112.295364 109.98254 110.95222 111.6394 110.95222C113.29625 110.95222 114.6394 112.295364 114.6394 113.95222Z" fill-rule="nonzero"/><path fill="#000000" fill-opacity="0.0" clip-path="url(#id_0)" d="M145.06363 109.95236C145.06363 111.609215 143.72049 112.95236 142.06363 112.95236C140.40678 112.95236 139.06363 111.609215 139.06363 109.95236C139.06363 108.29551 140.40678 106.95236 142.06363 106.95236C143.72049 106.95236 145.06363 108.29551 145.06363 109.95236Z" fill-rule="nonzero"/><path fill="#000000" fill-opacity="0.0" clip-path="url(#id_0)" d="M388.45758 119.99157C388.45758 121.64842 387.11444 122.99157 385.45758 122.99157C383.80072 122.99157 382.45758 121.64842 382.45758 119.99157C382.45758 118.33472 383.80072 116.99157 385.45758 116.99157C387.11444 116.99157 388.45758 118.33472 388.45758 119.99157Z" fill-rule="nonzero"/><path fill="#000000" fill-opacity="0.0" clip-path="url(#id_0)" d="M571.00305 128.1362C571.00305 129.79306 569.6599 131.1362 568.00305 131.1362C566.3462 131.1362 565.00305 129.79306 565.00305 128.1362C565.00305 126.47935 566.3462 125.1362 568.00305 125.1362C569.6599 125.1362 571.00305 126.47935 571.00305 128.1362Z" fill-rule="nonzero"/><path fill="#000000" fill-opacity="0.0" clip-path="url(#id_0)" d="M692.7 127.1773C692.7 128.83415 691.3569 130.1773 689.7 130.1773C688.04315 130.1773 686.7 128.83415 686.7 127.1773C686.7 125.52045 688.04315 124.1773 689.7 124.1773C691.3569 124.1773 692.7 125.52045 692.7 127.1773Z" fill-rule="nonzero"/><path fill="#000000" d="M347.5625 370.48438L348.6875 370.78125Q348.32812 372.17188 347.40625 372.90625Q346.48438 373.64062 345.14062 373.64062Q343.75 373.64062 342.875 373.07812Q342.0 372.51562 341.54688 371.45312Q341.09375 370.375 341.09375 369.14062Q341.09375 367.79688 341.60938 366.79688Q342.125 365.79688 343.0625 365.28125Q344.01562 364.76562 345.15625 364.76562Q346.4375 364.76562 347.3125 365.42188Q348.20312 366.07812 348.54688 367.26562L347.42188 367.53125Q347.125 366.59375 346.54688 366.17188Q345.98438 365.73438 345.125 365.73438Q344.14062 365.73438 343.46875 366.21875Q342.8125 366.6875 342.53125 367.48438Q342.26562 368.28125 342.26562 369.14062Q342.26562 370.23438 342.57812 371.04688Q342.90625 371.85938 343.57812 372.26562Q344.25 372.67188 345.04688 372.67188Q346.0 372.67188 346.65625 372.125Q347.32812 371.57812 347.5625 370.48438ZM349.90625 370.39062Q349.90625 368.65625 350.85938 367.82812Q351.65625 367.14062 352.8125 367.14062Q354.09375 367.14062 354.90625 367.98438Q355.73438 368.8125 355.73438 370.29688Q355.73438 371.5 355.375 372.1875Q355.01562 372.875 354.3125 373.26562Q353.625 373.64062 352.8125 373.64062Q351.51562 373.64062 350.70312 372.8125Q349.90625 371.96875 349.90625 370.39062ZM350.98438 370.39062Q350.98438 371.57812 351.5 372.17188Q352.03125 372.76562 352.8125 372.76562Q353.60938 372.76562 354.125 372.17188Q354.64062 371.57812 354.64062 370.35938Q354.64062 369.20312 354.10938 368.60938Q353.59375 368.01562 352.8125 368.01562Q352.03125 368.01562 351.5 368.60938Q350.98438 369.1875 350.98438 370.39062ZM357.29688 373.5L357.29688 367.28125L358.23438 367.28125L358.23438 368.15625Q358.92188 367.14062 360.21875 367.14062Q360.78125 367.14062 361.25 367.34375Q361.73438 367.54688 361.96875 367.875Q362.20312 368.20312 362.29688 368.64062Q362.34375 368.9375 362.34375 369.67188L362.34375 373.5L361.29688 373.5L361.29688 369.71875Q361.29688 369.0625 361.17188 368.75Q361.04688 368.4375 360.73438 368.25Q360.42188 368.04688 360.0 368.04688Q359.32812 368.04688 358.82812 368.48438Q358.34375 368.90625 358.34375 370.09375L358.34375 373.5L357.29688 373.5ZM368.35938 371.21875L369.39062 371.35938Q369.21875 372.42188 368.51562 373.03125Q367.8125 373.64062 366.79688 373.64062Q365.51562 373.64062 364.73438 372.8125Q363.96875 371.96875 363.96875 370.40625Q363.96875 369.40625 364.29688 368.65625Q364.64062 367.89062 365.3125 367.51562Q366.0 367.14062 366.8125 367.14062Q367.8125 367.14062 368.45312 367.65625Q369.10938 368.15625 369.29688 369.10938L368.26562 369.26562Q368.125 368.64062 367.75 368.32812Q367.375 368.0 366.84375 368.0Q366.04688 368.0 365.54688 368.57812Q365.04688 369.14062 365.04688 370.375Q365.04688 371.64062 365.53125 372.20312Q366.01562 372.76562 366.78125 372.76562Q367.40625 372.76562 367.8125 372.39062Q368.23438 372.01562 368.35938 371.21875ZM374.375 373.5L374.375 372.57812Q373.64062 373.64062 372.39062 373.64062Q371.84375 373.64062 371.35938 373.4375Q370.89062 373.21875 370.65625 372.90625Q370.42188 372.57812 370.32812 372.10938Q370.26562 371.8125 370.26562 371.125L370.26562 367.28125L371.32812 367.28125L371.32812 370.73438Q371.32812 371.54688 371.39062 371.84375Q371.48438 372.25 371.79688 372.5Q372.125 372.73438 372.60938 372.73438Q373.07812 372.73438 373.48438 372.5Q373.90625 372.25 374.07812 371.82812Q374.26562 371.40625 374.26562 370.60938L374.26562 367.28125L375.3125 367.28125L375.3125 373.5L374.375 373.5ZM377.28125 373.5L377.28125 367.28125L378.23438 367.28125L378.23438 368.21875Q378.59375 367.5625 378.89062 367.35938Q379.20312 367.14062 379.57812 367.14062Q380.10938 367.14062 380.65625 367.46875L380.29688 368.45312Q379.90625 368.21875 379.53125 368.21875Q379.17188 368.21875 378.89062 368.4375Q378.625 368.64062 378.51562 369.01562Q378.32812 369.57812 378.32812 370.23438L378.32812 373.5L377.28125 373.5ZM381.28125 373.5L381.28125 367.28125L382.23438 367.28125L382.23438 368.21875Q382.59375 367.5625 382.89062 367.35938Q383.20312 367.14062 383.57812 367.14062Q384.10938 367.14062 384.65625 367.46875L384.29688 368.45312Q383.90625 368.21875 383.53125 368.21875Q383.17188 368.21875 382.89062 368.4375Q382.625 368.64062 382.51562 369.01562Q382.32812 369.57812 382.32812 370.23438L382.32812 373.5L381.28125 373.5ZM389.54688 371.5L390.64062 371.625Q390.39062 372.57812 389.6875 373.10938Q388.98438 373.64062 387.90625 373.64062Q386.54688 373.64062 385.73438 372.79688Q384.9375 371.95312 384.9375 370.4375Q384.9375 368.875 385.75 368.01562Q386.5625 367.14062 387.84375 367.14062Q389.09375 367.14062 389.875 367.98438Q390.67188 368.82812 390.67188 370.375Q390.67188 370.46875 390.67188 370.65625L386.03125 370.65625Q386.09375 371.6875 386.60938 372.23438Q387.125 372.76562 387.90625 372.76562Q388.48438 372.76562 388.89062 372.46875Q389.3125 372.15625 389.54688 371.5ZM386.09375 369.79688L389.5625 369.79688Q389.5 369.0 389.17188 368.60938Q388.65625 368.0 387.85938 368.0Q387.125 368.0 386.625 368.48438Q386.14062 368.96875 386.09375 369.79688ZM392.29688 373.5L392.29688 367.28125L393.23438 367.28125L393.23438 368.15625Q393.92188 367.14062 395.21875 367.14062Q395.78125 367.14062 396.25 367.34375Q396.73438 367.54688 396.96875 367.875Q397.20312 368.20312 397.29688 368.64062Q397.34375 368.9375 397.34375 369.67188L397.34375 373.5L396.29688 373.5L396.29688 369.71875Q396.29688 369.0625 396.17188 368.75Q396.04688 368.4375 395.73438 368.25Q395.42188 368.04688 395.0 368.04688Q394.32812 368.04688 393.82812 368.48438Q393.34375 368.90625 393.34375 370.09375L393.34375 373.5L392.29688 373.5ZM401.59375 372.5625L401.75 373.48438Q401.29688 373.57812 400.95312 373.57812Q400.375 373.57812 400.0625 373.40625Q399.75 373.21875 399.60938 372.92188Q399.48438 372.625 399.48438 371.67188L399.48438 368.09375L398.71875 368.09375L398.71875 367.28125L399.48438 367.28125L399.48438 365.73438L400.53125 365.10938L400.53125 367.28125L401.59375 367.28125L401.59375 368.09375L400.53125 368.09375L400.53125 371.73438Q400.53125 372.1875 400.57812 372.3125Q400.64062 372.4375 400.76562 372.51562Q400.89062 372.59375 401.125 372.59375Q401.3125 372.59375 401.59375 372.5625ZM411.0625 364.90625L412.20312 364.90625L412.20312 369.875Q412.20312 371.17188 411.90625 371.9375Q411.60938 372.6875 410.84375 373.17188Q410.07812 373.64062 408.84375 373.64062Q407.64062 373.64062 406.85938 373.23438Q406.09375 372.8125 405.76562 372.03125Q405.4375 371.23438 405.4375 369.875L405.4375 364.90625L406.57812 364.90625L406.57812 369.85938Q406.57812 370.98438 406.78125 371.51562Q407.0 372.04688 407.5 372.34375Q408.01562 372.625 408.75 372.625Q410.0 372.625 410.53125 372.0625Q411.0625 371.48438 411.0625 369.85938L411.0625 364.90625ZM413.875 371.64062L414.90625 371.48438Q415.0 372.10938 415.39062 372.4375Q415.79688 372.76562 416.53125 372.76562Q417.25 372.76562 417.59375 372.48438Q417.95312 372.1875 417.95312 371.78125Q417.95312 371.42188 417.64062 371.21875Q417.42188 371.07812 416.5625 370.85938Q415.40625 370.5625 414.95312 370.35938Q414.51562 370.14062 414.28125 369.76562Q414.04688 369.39062 414.04688 368.92188Q414.04688 368.51562 414.23438 368.15625Q414.42188 367.79688 414.75 367.5625Q415.0 367.39062 415.42188 367.26562Q415.84375 367.14062 416.34375 367.14062Q417.0625 367.14062 417.60938 367.35938Q418.17188 367.5625 418.4375 367.92188Q418.70312 368.28125 418.79688 368.875L417.76562 369.01562Q417.70312 368.54688 417.35938 368.28125Q417.03125 368.0 416.40625 368.0Q415.6875 368.0 415.375 368.25Q415.0625 368.48438 415.0625 368.8125Q415.0625 369.01562 415.1875 369.17188Q415.32812 369.34375 415.59375 369.45312Q415.75 369.51562 416.53125 369.71875Q417.65625 370.03125 418.09375 370.21875Q418.53125 370.40625 418.78125 370.76562Q419.03125 371.125 419.03125 371.67188Q419.03125 372.20312 418.71875 372.67188Q418.42188 373.125 417.84375 373.39062Q417.26562 373.64062 416.53125 373.64062Q415.3125 373.64062 414.67188 373.14062Q414.04688 372.625 413.875 371.64062ZM424.54688 371.5L425.64062 371.625Q425.39062 372.57812 424.6875 373.10938Q423.98438 373.64062 422.90625 373.64062Q421.54688 373.64062 420.73438 372.79688Q419.9375 371.95312 419.9375 370.4375Q419.9375 368.875 420.75 368.01562Q421.5625 367.14062 422.84375 367.14062Q424.09375 367.14062 424.875 367.98438Q425.67188 368.82812 425.67188 370.375Q425.67188 370.46875 425.67188 370.65625L421.03125 370.65625Q421.09375 371.6875 421.60938 372.23438Q422.125 372.76562 422.90625 372.76562Q423.48438 372.76562 423.89062 372.46875Q424.3125 372.15625 424.54688 371.5ZM421.09375 369.79688L424.5625 369.79688Q424.5 369.0 424.17188 368.60938Q423.65625 368.0 422.85938 368.0Q422.125 368.0 421.625 368.48438Q421.14062 368.96875 421.09375 369.79688ZM427.28125 373.5L427.28125 367.28125L428.23438 367.28125L428.23438 368.21875Q428.59375 367.5625 428.89062 367.35938Q429.20312 367.14062 429.57812 367.14062Q430.10938 367.14062 430.65625 367.46875L430.29688 368.45312Q429.90625 368.21875 429.53125 368.21875Q429.17188 368.21875 428.89062 368.4375Q428.625 368.64062 428.51562 369.01562Q428.32812 369.57812 428.32812 370.23438L428.32812 373.5L427.28125 373.5ZM430.875 371.64062L431.90625 371.48438Q432.0 372.10938 432.39062 372.4375Q432.79688 372.76562 433.53125 372.76562Q434.25 372.76562 434.59375 372.48438Q434.95312 372.1875 434.95312 371.78125Q434.95312 371.42188 434.64062 371.21875Q434.42188 371.07812 433.5625 370.85938Q432.40625 370.5625 431.95312 370.35938Q431.51562 370.14062 431.28125 369.76562Q431.04688 369.39062 431.04688 368.92188Q431.04688 368.51562 431.23438 368.15625Q431.42188 367.79688 431.75 367.5625Q432.0 367.39062 432.42188 367.26562Q432.84375 367.14062 433.34375 367.14062Q434.0625 367.14062 434.60938 367.35938Q435.17188 367.5625 435.4375 367.92188Q435.70312 368.28125 435.79688 368.875L434.76562 369.01562Q434.70312 368.54688 434.35938 368.28125Q434.03125 368.0 433.40625 368.0Q432.6875 368.0 432.375 368.25Q432.0625 368.48438 432.0625 368.8125Q432.0625 369.01562 432.1875 369.17188Q432.32812 369.34375 432.59375 369.45312Q432.75 369.51562 433.53125 369.71875Q434.65625 370.03125 435.09375 370.21875Q435.53125 370.40625 435.78125 370.76562Q436.03125 371.125 436.03125 371.67188Q436.03125 372.20312 435.71875 372.67188Q435.42188 373.125 434.84375 373.39062Q434.26562 373.64062 433.53125 373.64062Q432.3125 373.64062 431.67188 373.14062Q431.04688 372.625 430.875 371.64062Z" fill-rule="nonzero"/><path fill="#000000" d="M32.3 272.89062L24.721874 272.89062L24.721874 275.71875L23.70625 275.71875L23.70625 268.90625L24.721874 268.90625L24.721874 271.75L32.3 271.75L32.3 272.89062ZM32.3 268.20312L23.70625 268.20312L23.70625 267.15625L26.784374 267.15625Q25.940624 266.42188 25.940624 265.29688Q25.940624 264.59375 26.221874 264.09375Q26.4875 263.57812 26.971874 263.35938Q27.440624 263.14062 28.3625 263.14062L32.3 263.14062L32.3 264.1875L28.3625 264.1875Q27.565624 264.1875 27.20625 264.53125Q26.846874 264.875 26.846874 265.5Q26.846874 265.96875 27.096874 266.39062Q27.33125 266.79688 27.753124 266.98438Q28.159374 267.15625 28.89375 267.15625L32.3 267.15625L32.3 268.20312ZM32.3 261.21875L26.08125 261.21875L26.08125 260.26562L27.01875 260.26562Q26.3625 259.90625 26.159374 259.60938Q25.940624 259.29688 25.940624 258.92188Q25.940624 258.39062 26.26875 257.84375L27.253124 258.20312Q27.01875 258.59375 27.01875 258.96875Q27.01875 259.32812 27.2375 259.60938Q27.440624 259.875 27.815624 259.98438Q28.378124 260.17188 29.034374 260.17188L32.3 260.17188L32.3 261.21875ZM29.190624 257.59375Q27.45625 257.59375 26.628124 256.64062Q25.940624 255.84375 25.940624 254.6875Q25.940624 253.40625 26.784374 252.59375Q27.6125 251.76562 29.096874 251.76562Q30.3 251.76562 30.9875 252.125Q31.675 252.48438 32.065624 253.1875Q32.440624 253.875 32.440624 254.6875Q32.440624 255.98438 31.6125 256.79688Q30.76875 257.59375 29.190624 257.59375ZM29.190624 256.51562Q30.378124 256.51562 30.971874 256.0Q31.565624 255.46875 31.565624 254.6875Q31.565624 253.89062 30.971874 253.375Q30.378124 252.85938 29.159374 252.85938Q28.003124 252.85938 27.409374 253.39062Q26.815624 253.90625 26.815624 254.6875Q26.815624 255.46875 27.409374 256.0Q27.9875 256.51562 29.190624 256.51562ZM32.3 246.125L31.378124 246.125Q32.440624 246.85938 32.440624 248.10938Q32.440624 248.65625 32.2375 249.14062Q32.01875 249.60938 31.70625 249.84375Q31.378124 250.07812 30.909374 250.17188Q30.6125 250.23438 29.925 250.23438L26.08125 250.23438L26.08125 249.17188L29.534374 249.17188Q30.346874 249.17188 30.64375 249.10938Q31.05 249.01562 31.3 248.70312Q31.534374 248.375 31.534374 247.89062Q31.534374 247.42188 31.3 247.01562Q31.05 246.59375 30.628124 246.42188Q30.20625 246.23438 29.409374 246.23438L26.08125 246.23438L26.08125 245.1875L32.3 245.1875L32.3 246.125ZM32.815624 243.40625L32.971874 242.375Q33.440624 242.3125 33.659374 242.01562Q33.95625 241.625 33.95625 240.95312Q33.95625 240.21875 33.659374 239.82812Q33.3625 239.42188 32.846874 239.28125Q32.51875 239.1875 31.4875 239.20312Q32.3 239.89062 32.3 240.92188Q32.3 242.20312 31.378124 242.90625Q30.440624 243.60938 29.159374 243.60938Q28.26875 243.60938 27.51875 243.29688Q26.753124 242.96875 26.346874 242.35938Q25.940624 241.75 25.940624 240.92188Q25.940624 239.8125 26.83125 239.09375L26.08125 239.09375L26.08125 238.125L31.45625 238.125Q32.909374 238.125 33.51875 238.42188Q34.128124 238.71875 34.471874 239.35938Q34.83125 240.0 34.83125 240.9375Q34.83125 242.04688 34.33125 242.73438Q33.83125 243.42188 32.815624 243.40625ZM29.08125 242.53125Q30.3 242.53125 30.8625 242.04688Q31.425 241.5625 31.425 240.82812Q31.425 240.09375 30.8625 239.60938Q30.3 239.10938 29.1125 239.10938Q27.971874 239.10938 27.39375 239.625Q26.815624 240.125 26.815624 240.84375Q26.815624 241.54688 27.39375 242.04688Q27.95625 242.53125 29.08125 242.53125ZM32.3 236.20312L23.70625 236.20312L23.70625 235.15625L26.784374 235.15625Q25.940624 234.42188 25.940624 233.29688Q25.940624 232.59375 26.221874 232.09375Q26.4875 231.57812 26.971874 231.35938Q27.440624 231.14062 28.3625 231.14062L32.3 231.14062L32.3 232.1875L28.3625 232.1875Q27.565624 232.1875 27.20625 232.53125Q26.846874 232.875 26.846874 233.5Q26.846874 233.96875 27.096874 234.39062Q27.33125 234.79688 27.753124 234.98438Q28.159374 235.15625 28.89375 235.15625L32.3 235.15625L32.3 236.20312ZM34.690624 229.20312L26.08125 229.20312L26.08125 228.25L26.878124 228.25Q26.409374 227.90625 26.175 227.48438Q25.940624 227.04688 25.940624 226.4375Q25.940624 225.64062 26.346874 225.03125Q26.753124 224.42188 27.503124 224.125Q28.253124 223.8125 29.14375 223.8125Q30.096874 223.8125 30.8625 224.15625Q31.628124 224.48438 32.034374 225.14062Q32.440624 225.79688 32.440624 226.51562Q32.440624 227.04688 32.221874 227.46875Q31.9875 227.89062 31.659374 228.15625L34.690624 228.15625L34.690624 229.20312ZM29.221874 228.25Q30.425 228.25 31.003124 227.76562Q31.565624 227.28125 31.565624 226.59375Q31.565624 225.89062 30.971874 225.39062Q30.378124 224.89062 29.128124 224.89062Q27.940624 224.89062 27.3625 225.375Q26.76875 225.85938 26.76875 226.54688Q26.76875 227.21875 27.39375 227.73438Q28.01875 228.25 29.221874 228.25ZM32.3 218.125L31.378124 218.125Q32.440624 218.85938 32.440624 220.10938Q32.440624 220.65625 32.2375 221.14062Q32.01875 221.60938 31.70625 221.84375Q31.378124 222.07812 30.909374 222.17188Q30.6125 222.23438 29.925 222.23438L26.08125 222.23438L26.08125 221.17188L29.534374 221.17188Q30.346874 221.17188 30.64375 221.10938Q31.05 221.01562 31.3 220.70312Q31.534374 220.375 31.534374 219.89062Q31.534374 219.42188 31.3 219.01562Q31.05 218.59375 30.628124 218.42188Q30.20625 218.23438 29.409374 218.23438L26.08125 218.23438L26.08125 217.1875L32.3 217.1875L32.3 218.125ZM31.3625 212.90625L32.284374 212.75Q32.378124 213.20312 32.378124 213.54688Q32.378124 214.125 32.20625 214.4375Q32.01875 214.75 31.721874 214.89062Q31.425 215.01562 30.471874 215.01562L26.89375 215.01562L26.89375 215.78125L26.08125 215.78125L26.08125 215.01562L24.534374 215.01562L23.909374 213.96875L26.08125 213.96875L26.08125 212.90625L26.89375 212.90625L26.89375 213.96875L30.534374 213.96875Q30.9875 213.96875 31.1125 213.92188Q31.2375 213.85938 31.315624 213.73438Q31.39375 213.60938 31.39375 213.375Q31.39375 213.1875 31.3625 212.90625ZM34.83125 207.1875Q33.721874 208.0625 32.253124 208.67188Q30.76875 209.26562 29.190624 209.26562Q27.8 209.26562 26.51875 208.82812Q25.034374 208.29688 23.565624 207.1875L23.565624 206.4375Q24.784374 207.14062 25.3 207.375Q26.1125 207.73438 26.9875 207.9375Q28.08125 208.1875 29.190624 208.1875Q32.01875 208.1875 34.83125 206.4375L34.83125 207.1875ZM32.3 205.0625L23.70625 205.0625L23.70625 201.25Q23.70625 200.09375 23.940624 199.5Q24.175 198.90625 24.76875 198.54688Q25.346874 198.1875 26.05 198.1875Q26.971874 198.1875 27.596874 198.78125Q28.221874 199.375 28.39375 200.60938Q28.6125 200.15625 28.815624 199.92188Q29.26875 199.42188 29.95625 198.98438L32.3 197.48438L32.3 198.92188L30.51875 200.04688Q29.7375 200.54688 29.33125 200.875Q28.925 201.1875 28.76875 201.45312Q28.596874 201.70312 28.51875 201.96875Q28.4875 202.15625 28.4875 202.59375L28.4875 203.92188L32.3 203.92188L32.3 205.0625ZM27.503124 203.92188L27.503124 201.46875Q27.503124 200.70312 27.346874 200.26562Q27.175 199.8125 26.83125 199.59375Q26.471874 199.35938 26.05 199.35938Q25.440624 199.35938 25.05 199.8125Q24.659374 200.25 24.659374 201.20312L24.659374 203.92188L27.503124 203.92188ZM30.3 191.95312L30.425 190.85938Q31.378124 191.10938 31.909374 191.8125Q32.440624 192.51562 32.440624 193.59375Q32.440624 194.95312 31.596874 195.76562Q30.753124 196.5625 29.2375 196.5625Q27.675 196.5625 26.815624 195.75Q25.940624 194.9375 25.940624 193.65625Q25.940624 192.40625 26.784374 191.625Q27.628124 190.82812 29.175 190.82812Q29.26875 190.82812 29.45625 190.82812L29.45625 195.46875Q30.4875 195.40625 31.034374 194.89062Q31.565624 194.375 31.565624 193.59375Q31.565624 193.01562 31.26875 192.60938Q30.95625 192.1875 30.3 191.95312ZM28.596874 195.40625L28.596874 191.9375Q27.8 192.0 27.409374 192.32812Q26.8 192.84375 26.8 193.64062Q26.8 194.375 27.284374 194.875Q27.76875 195.35938 28.596874 195.40625ZM34.690624 185.23438L31.64375 185.23438Q31.9875 185.48438 32.221874 185.9375Q32.440624 186.375 32.440624 186.875Q32.440624 187.98438 31.565624 188.78125Q30.675 189.57812 29.128124 189.57812Q28.190624 189.57812 27.45625 189.25Q26.70625 188.92188 26.33125 188.3125Q25.940624 187.6875 25.940624 186.95312Q25.940624 185.79688 26.909374 185.14062L26.08125 185.14062L26.08125 184.1875L34.690624 184.1875L34.690624 185.23438ZM29.175 188.5Q30.378124 188.5 30.971874 188.0Q31.565624 187.48438 31.565624 186.78125Q31.565624 186.10938 31.003124 185.625Q30.425 185.14062 29.26875 185.14062Q28.01875 185.14062 27.39375 185.65625Q26.76875 186.15625 26.76875 186.85938Q26.76875 187.53125 27.3625 188.01562Q27.940624 188.5 29.175 188.5ZM32.3 178.125L31.378124 178.125Q32.440624 178.85938 32.440624 180.10938Q32.440624 180.65625 32.2375 181.14062Q32.01875 181.60938 31.70625 181.84375Q31.378124 182.07812 30.909374 182.17188Q30.6125 182.23438 29.925 182.23438L26.08125 182.23438L26.08125 181.17188L29.534374 181.17188Q30.346874 181.17188 30.64375 181.10938Q31.05 181.01562 31.3 180.70312Q31.534374 180.375 31.534374 179.89062Q31.534374 179.42188 31.3 179.01562Q31.05 178.59375 30.628124 178.42188Q30.20625 178.23438 29.409374 178.23438L26.08125 178.23438L26.08125 177.1875L32.3 177.1875L32.3 178.125ZM30.3 170.95312L30.425 169.85938Q31.378124 170.10938 31.909374 170.8125Q32.440624 171.51562 32.440624 172.59375Q32.440624 173.95312 31.596874 174.76562Q30.753124 175.5625 29.2375 175.5625Q27.675 175.5625 26.815624 174.75Q25.940624 173.9375 25.940624 172.65625Q25.940624 171.40625 26.784374 170.625Q27.628124 169.82812 29.175 169.82812Q29.26875 169.82812 29.45625 169.82812L29.45625 174.46875Q30.4875 174.40625 31.034374 173.89062Q31.565624 173.375 31.565624 172.59375Q31.565624 172.01562 31.26875 171.60938Q30.95625 171.1875 30.3 170.95312ZM28.596874 174.40625L28.596874 170.9375Q27.8 171.0 27.409374 171.32812Q26.8 171.84375 26.8 172.64062Q26.8 173.375 27.284374 173.875Q27.76875 174.35938 28.596874 174.40625ZM30.440624 168.625L30.284374 167.59375Q30.909374 167.5 31.2375 167.10938Q31.565624 166.70312 31.565624 165.96875Q31.565624 165.25 31.284374 164.90625Q30.9875 164.54688 30.58125 164.54688Q30.221874 164.54688 30.01875 164.85938Q29.878124 165.07812 29.659374 165.9375Q29.3625 167.09375 29.159374 167.54688Q28.940624 167.98438 28.565624 168.21875Q28.190624 168.45312 27.721874 168.45312Q27.315624 168.45312 26.95625 168.26562Q26.596874 168.07812 26.3625 167.75Q26.190624 167.5 26.065624 167.07812Q25.940624 166.65625 25.940624 166.15625Q25.940624 165.4375 26.159374 164.89062Q26.3625 164.32812 26.721874 164.0625Q27.08125 163.79688 27.675 163.70312L27.815624 164.73438Q27.346874 164.79688 27.08125 165.14062Q26.8 165.46875 26.8 166.09375Q26.8 166.8125 27.05 167.125Q27.284374 167.4375 27.6125 167.4375Q27.815624 167.4375 27.971874 167.3125Q28.14375 167.17188 28.253124 166.90625Q28.315624 166.75 28.51875 165.96875Q28.83125 164.84375 29.01875 164.40625Q29.20625 163.96875 29.565624 163.71875Q29.925 163.46875 30.471874 163.46875Q31.003124 163.46875 31.471874 163.78125Q31.925 164.07812 32.190624 164.65625Q32.440624 165.23438 32.440624 165.96875Q32.440624 167.1875 31.940624 167.82812Q31.425 168.45312 30.440624 168.625ZM31.3625 159.90625L32.284374 159.75Q32.378124 160.20312 32.378124 160.54688Q32.378124 161.125 32.20625 161.4375Q32.01875 161.75 31.721874 161.89062Q31.425 162.01562 30.471874 162.01562L26.89375 162.01562L26.89375 162.78125L26.08125 162.78125L26.08125 162.01562L24.534374 162.01562L23.909374 160.96875L26.08125 160.96875L26.08125 159.90625L26.89375 159.90625L26.89375 160.96875L30.534374 160.96875Q30.9875 160.96875 31.1125 160.92188Q31.2375 160.85938 31.315624 160.73438Q31.39375 160.60938 31.39375 160.375Q31.39375 160.1875 31.3625 159.90625ZM30.440624 159.625L30.284374 158.59375Q30.909374 158.5 31.2375 158.10938Q31.565624 157.70312 31.565624 156.96875Q31.565624 156.25 31.284374 155.90625Q30.9875 155.54688 30.58125 155.54688Q30.221874 155.54688 30.01875 155.85938Q29.878124 156.07812 29.659374 156.9375Q29.3625 158.09375 29.159374 158.54688Q28.940624 158.98438 28.565624 159.21875Q28.190624 159.45312 27.721874 159.45312Q27.315624 159.45312 26.95625 159.26562Q26.596874 159.07812 26.3625 158.75Q26.190624 158.5 26.065624 158.07812Q25.940624 157.65625 25.940624 157.15625Q25.940624 156.4375 26.159374 155.89062Q26.3625 155.32812 26.721874 155.0625Q27.08125 154.79688 27.675 154.70312L27.815624 155.73438Q27.346874 155.79688 27.08125 156.14062Q26.8 156.46875 26.8 157.09375Q26.8 157.8125 27.05 158.125Q27.284374 158.4375 27.6125 158.4375Q27.815624 158.4375 27.971874 158.3125Q28.14375 158.17188 28.253124 157.90625Q28.315624 157.75 28.51875 156.96875Q28.83125 155.84375 29.01875 155.40625Q29.20625 154.96875 29.565624 154.71875Q29.925 154.46875 30.471874 154.46875Q31.003124 154.46875 31.471874 154.78125Q31.925 155.07812 32.190624 155.65625Q32.440624 156.23438 32.440624 156.96875Q32.440624 158.1875 31.940624 158.82812Q31.425 159.45312 30.440624 159.625ZM32.440624 154.0L23.565624 151.51562L23.565624 150.67188L32.440624 153.15625L32.440624 154.0ZM30.440624 150.625L30.284374 149.59375Q30.909374 149.5 31.2375 149.10938Q31.565624 148.70312 31.565624 147.96875Q31.565624 147.25 31.284374 146.90625Q30.9875 146.54688 30.58125 146.54688Q30.221874 146.54688 30.01875 146.85938Q29.878124 147.07812 29.659374 147.9375Q29.3625 149.09375 29.159374 149.54688Q28.940624 149.98438 28.565624 150.21875Q28.190624 150.45312 27.721874 150.45312Q27.315624 150.45312 26.95625 150.26562Q26.596874 150.07812 26.3625 149.75Q26.190624 149.5 26.065624 149.07812Q25.940624 148.65625 25.940624 148.15625Q25.940624 147.4375 26.159374 146.89062Q26.3625 146.32812 26.721874 146.0625Q27.08125 145.79688 27.675 145.70312L27.815624 146.73438Q27.346874 146.79688 27.08125 147.14062Q26.8 147.46875 26.8 148.09375Q26.8 148.8125 27.05 149.125Q27.284374 149.4375 27.6125 149.4375Q27.815624 149.4375 27.971874 149.3125Q28.14375 149.17188 28.253124 148.90625Q28.315624 148.75 28.51875 147.96875Q28.83125 146.84375 29.01875 146.40625Q29.20625 145.96875 29.565624 145.71875Q29.925 145.46875 30.471874 145.46875Q31.003124 145.46875 31.471874 145.78125Q31.925 146.07812 32.190624 146.65625Q32.440624 147.23438 32.440624 147.96875Q32.440624 149.1875 31.940624 149.82812Q31.425 150.45312 30.440624 150.625ZM30.3 139.95312L30.425 138.85938Q31.378124 139.10938 31.909374 139.8125Q32.440624 140.51562 32.440624 141.59375Q32.440624 142.95312 31.596874 143.76562Q30.753124 144.5625 29.2375 144.5625Q27.675 144.5625 26.815624 143.75Q25.940624 142.9375 25.940624 141.65625Q25.940624 140.40625 26.784374 139.625Q27.628124 138.82812 29.175 138.82812Q29.26875 138.82812 29.45625 138.82812L29.45625 143.46875Q30.4875 143.40625 31.034374 142.89062Q31.565624 142.375 31.565624 141.59375Q31.565624 141.01562 31.26875 140.60938Q30.95625 140.1875 30.3 139.95312ZM28.596874 143.40625L28.596874 139.9375Q27.8 140.0 27.409374 140.32812Q26.8 140.84375 26.8 141.64062Q26.8 142.375 27.284374 142.875Q27.76875 143.35938 28.596874 143.40625ZM30.01875 133.14062L30.159374 132.10938Q31.221874 132.28125 31.83125 132.98438Q32.440624 133.6875 32.440624 134.70312Q32.440624 135.98438 31.6125 136.76562Q30.76875 137.53125 29.20625 137.53125Q28.20625 137.53125 27.45625 137.20312Q26.690624 136.85938 26.315624 136.1875Q25.940624 135.5 25.940624 134.6875Q25.940624 133.6875 26.45625 133.04688Q26.95625 132.39062 27.909374 132.20312L28.065624 133.23438Q27.440624 133.375 27.128124 133.75Q26.8 134.125 26.8 134.65625Q26.8 135.45312 27.378124 135.95312Q27.940624 136.45312 29.175 136.45312Q30.440624 136.45312 31.003124 135.96875Q31.565624 135.48438 31.565624 134.71875Q31.565624 134.09375 31.190624 133.6875Q30.815624 133.26562 30.01875 133.14062ZM34.83125 130.51562L34.83125 131.26562Q32.01875 129.51562 29.190624 129.51562Q28.096874 129.51562 27.003124 129.76562Q26.128124 129.96875 25.315624 130.32812Q24.8 130.5625 23.565624 131.26562L23.565624 130.51562Q25.034374 129.42188 26.51875 128.89062Q27.8 128.4375 29.190624 128.4375Q30.76875 128.4375 32.253124 129.04688Q33.721874 129.65625 34.83125 130.51562Z" fill-rule="nonzero"/><path fill="#000000" d="M74.8 324.26562Q74.8 322.73438 75.1125 321.8125Q75.425 320.875 76.03438 320.375Q76.65938 319.875 77.59688 319.875Q78.28438 319.875 78.8 320.15625Q79.33125 320.4375 79.675 320.96875Q80.01875 321.48438 80.20625 322.23438Q80.39375 322.98438 80.39375 324.26562Q80.39375 325.78125 80.08125 326.70312Q79.78438 327.625 79.15938 328.14062Q78.55 328.64062 77.59688 328.64062Q76.3625 328.64062 75.64375 327.75Q74.8 326.6875 74.8 324.26562ZM75.87813 324.26562Q75.87813 326.375 76.37813 327.07812Q76.87813 327.78125 77.59688 327.78125Q78.33125 327.78125 78.81563 327.07812Q79.31563 326.375 79.31563 324.26562Q79.31563 322.14062 78.81563 321.45312Q78.33125 320.75 77.58125 320.75Q76.8625 320.75 76.425 321.35938Q75.87813 322.14062 75.87813 324.26562Z" fill-rule="nonzero"/><path fill="#000000" d="M59.346874 241.48438L59.346874 242.5L53.659374 242.5Q53.659374 242.125 53.784374 241.76562Q54.003124 241.1875 54.471874 240.625Q54.95625 240.0625 55.8625 239.32812Q57.26875 238.17188 57.753124 237.5Q58.253124 236.82812 58.253124 236.23438Q58.253124 235.60938 57.8 235.1875Q57.346874 234.75 56.628124 234.75Q55.8625 234.75 55.409374 235.20312Q54.95625 235.65625 54.940624 236.46875L53.8625 236.35938Q53.971874 235.14062 54.690624 234.51562Q55.425 233.875 56.659374 233.875Q57.89375 233.875 58.6125 234.5625Q59.33125 235.25 59.33125 236.26562Q59.33125 236.78125 59.1125 237.28125Q58.909374 237.76562 58.409374 238.32812Q57.925 238.875 56.8 239.82812Q55.846874 240.625 55.565624 240.92188Q55.3 241.20312 55.128124 241.48438L59.346874 241.48438ZM60.8 238.26562Q60.8 236.73438 61.1125 235.8125Q61.425 234.875 62.034374 234.375Q62.659374 233.875 63.596874 233.875Q64.28438 233.875 64.8 234.15625Q65.33125 234.4375 65.675 234.96875Q66.01875 235.48438 66.20625 236.23438Q66.39375 236.98438 66.39375 238.26562Q66.39375 239.78125 66.08125 240.70312Q65.78438 241.625 65.15938 242.14062Q64.55 242.64062 63.596874 242.64062Q62.3625 242.64062 61.64375 241.75Q60.8 240.6875 60.8 238.26562ZM61.878124 238.26562Q61.878124 240.375 62.378124 241.07812Q62.878124 241.78125 63.596874 241.78125Q64.33125 241.78125 64.81563 241.07812Q65.31563 240.375 65.31563 238.26562Q65.31563 236.14062 64.81563 235.45312Q64.33125 234.75 63.58125 234.75Q62.8625 234.75 62.425 235.35938Q61.878124 236.14062 61.878124 238.26562ZM67.8 238.26562Q67.8 236.73438 68.1125 235.8125Q68.425 234.875 69.03438 234.375Q69.65938 233.875 70.59688 233.875Q71.28438 233.875 71.8 234.15625Q72.33125 234.4375 72.675 234.96875Q73.01875 235.48438 73.20625 236.23438Q73.39375 236.98438 73.39375 238.26562Q73.39375 239.78125 73.08125 240.70312Q72.78438 241.625 72.15938 242.14062Q71.55 242.64062 70.59688 242.64062Q69.3625 242.64062 68.64375 241.75Q67.8 240.6875 67.8 238.26562ZM68.87813 238.26562Q68.87813 240.375 69.37813 241.07812Q69.87813 241.78125 70.59688 241.78125Q71.33125 241.78125 71.81563 241.07812Q72.31563 240.375 72.31563 238.26562Q72.31563 236.14062 71.81563 235.45312Q71.33125 234.75 70.58125 234.75Q69.8625 234.75 69.425 235.35938Q68.87813 236.14062 68.87813 238.26562ZM74.8 238.26562Q74.8 236.73438 75.1125 235.8125Q75.425 234.875 76.03438 234.375Q76.65938 233.875 77.59688 233.875Q78.28438 233.875 78.8 234.15625Q79.33125 234.4375 79.675 234.96875Q80.01875 235.48438 80.20625 236.23438Q80.39375 236.98438 80.39375 238.26562Q80.39375 239.78125 80.08125 240.70312Q79.78438 241.625 79.15938 242.14062Q78.55 242.64062 77.59688 242.64062Q76.3625 242.64062 75.64375 241.75Q74.8 240.6875 74.8 238.26562ZM75.87813 238.26562Q75.87813 240.375 76.37813 241.07812Q76.87813 241.78125 77.59688 241.78125Q78.33125 241.78125 78.81563 241.07812Q79.31563 240.375 79.31563 238.26562Q79.31563 236.14062 78.81563 235.45312Q78.33125 234.75 77.58125 234.75Q76.8625 234.75 76.425 235.35938Q75.87813 236.14062 75.87813 238.26562Z" fill-rule="nonzero"/><path fill="#000000" d="M57.175 156.5L57.175 154.4375L53.45625 154.4375L53.45625 153.46875L57.378124 147.90625L58.2375 147.90625L58.2375 153.46875L59.39375 153.46875L59.39375 154.4375L58.2375 154.4375L58.2375 156.5L57.175 156.5ZM57.175 153.46875L57.175 149.60938L54.4875 153.46875L57.175 153.46875ZM60.8 152.26562Q60.8 150.73438 61.1125 149.8125Q61.425 148.875 62.034374 148.375Q62.659374 147.875 63.596874 147.875Q64.28438 147.875 64.8 148.15625Q65.33125 148.4375 65.675 148.96875Q66.01875 149.48438 66.20625 150.23438Q66.39375 150.98438 66.39375 152.26562Q66.39375 153.78125 66.08125 154.70312Q65.78438 155.625 65.15938 156.14062Q64.55 156.64062 63.596874 156.64062Q62.3625 156.64062 61.64375 155.75Q60.8 154.6875 60.8 152.26562ZM61.878124 152.26562Q61.878124 154.375 62.378124 155.07812Q62.878124 155.78125 63.596874 155.78125Q64.33125 155.78125 64.81563 155.07812Q65.31563 154.375 65.31563 152.26562Q65.31563 150.14062 64.81563 149.45312Q64.33125 148.75 63.58125 148.75Q62.8625 148.75 62.425 149.35938Q61.878124 150.14062 61.878124 152.26562ZM67.8 152.26562Q67.8 150.73438 68.1125 149.8125Q68.425 148.875 69.03438 148.375Q69.65938 147.875 70.59688 147.875Q71.28438 147.875 71.8 148.15625Q72.33125 148.4375 72.675 148.96875Q73.01875 149.48438 73.20625 150.23438Q73.39375 150.98438 73.39375 152.26562Q73.39375 153.78125 73.08125 154.70312Q72.78438 155.625 72.15938 156.14062Q71.55 156.64062 70.59688 156.64062Q69.3625 156.64062 68.64375 155.75Q67.8 154.6875 67.8 152.26562ZM68.87813 152.26562Q68.87813 154.375 69.37813 155.07812Q69.87813 155.78125 70.59688 155.78125Q71.33125 155.78125 71.81563 155.07812Q72.31563 154.375 72.31563 152.26562Q72.31563 150.14062 71.81563 149.45312Q71.33125 148.75 70.58125 148.75Q69.8625 148.75 69.425 149.35938Q68.87813 150.14062 68.87813 152.26562ZM74.8 152.26562Q74.8 150.73438 75.1125 149.8125Q75.425 148.875 76.03438 148.375Q76.65938 147.875 77.59688 147.875Q78.28438 147.875 78.8 148.15625Q79.33125 148.4375 79.675 148.96875Q80.01875 149.48438 80.20625 150.23438Q80.39375 150.98438 80.39375 152.26562Q80.39375 153.78125 80.08125 154.70312Q79.78438 155.625 79.15938 156.14062Q78.55 156.64062 77.59688 156.64062Q76.3625 156.64062 75.64375 155.75Q74.8 154.6875 74.8 152.26562ZM75.87813 152.26562Q75.87813 154.375 76.37813 155.07812Q76.87813 155.78125 77.59688 155.78125Q78.33125 155.78125 78.81563 155.07812Q79.31563 154.375 79.31563 152.26562Q79.31563 150.14062 78.81563 149.45312Q78.33125 148.75 77.58125 148.75Q76.8625 148.75 76.425 149.35938Q75.87813 150.14062 75.87813 152.26562Z" fill-rule="nonzero"/><path fill="#000000" d="M59.26875 64.015625L58.221874 64.09375Q58.08125 63.46875 57.83125 63.1875Q57.39375 62.734375 56.76875 62.734375Q56.26875 62.734375 55.878124 63.015625Q55.39375 63.390625 55.096874 64.09375Q54.815624 64.78125 54.8 66.0625Q55.175 65.484375 55.721874 65.203125Q56.284374 64.921875 56.89375 64.921875Q57.940624 64.921875 58.675 65.703125Q59.425 66.484375 59.425 67.703125Q59.425 68.515625 59.065624 69.21875Q58.721874 69.90625 58.1125 70.28125Q57.503124 70.640625 56.7375 70.640625Q55.409374 70.640625 54.58125 69.671875Q53.753124 68.703125 53.753124 66.484375Q53.753124 63.984375 54.675 62.859375Q55.471874 61.875 56.83125 61.875Q57.846874 61.875 58.4875 62.453125Q59.14375 63.015625 59.26875 64.015625ZM54.971874 67.71875Q54.971874 68.265625 55.190624 68.765625Q55.425 69.25 55.83125 69.515625Q56.253124 69.78125 56.721874 69.78125Q57.378124 69.78125 57.8625 69.25Q58.346874 68.703125 58.346874 67.78125Q58.346874 66.890625 57.8625 66.375Q57.39375 65.859375 56.675 65.859375Q55.95625 65.859375 55.45625 66.375Q54.971874 66.890625 54.971874 67.71875ZM60.8 66.265625Q60.8 64.734375 61.1125 63.8125Q61.425 62.875 62.034374 62.375Q62.659374 61.875 63.596874 61.875Q64.28438 61.875 64.8 62.15625Q65.33125 62.4375 65.675 62.96875Q66.01875 63.484375 66.20625 64.234375Q66.39375 64.984375 66.39375 66.265625Q66.39375 67.78125 66.08125 68.703125Q65.78438 69.625 65.15938 70.140625Q64.55 70.640625 63.596874 70.640625Q62.3625 70.640625 61.64375 69.75Q60.8 68.6875 60.8 66.265625ZM61.878124 66.265625Q61.878124 68.375 62.378124 69.078125Q62.878124 69.78125 63.596874 69.78125Q64.33125 69.78125 64.81563 69.078125Q65.31563 68.375 65.31563 66.265625Q65.31563 64.140625 64.81563 63.453125Q64.33125 62.75 63.58125 62.75Q62.8625 62.75 62.425 63.359375Q61.878124 64.140625 61.878124 66.265625ZM67.8 66.265625Q67.8 64.734375 68.1125 63.8125Q68.425 62.875 69.03438 62.375Q69.65938 61.875 70.59688 61.875Q71.28438 61.875 71.8 62.15625Q72.33125 62.4375 72.675 62.96875Q73.01875 63.484375 73.20625 64.234375Q73.39375 64.984375 73.39375 66.265625Q73.39375 67.78125 73.08125 68.703125Q72.78438 69.625 72.15938 70.140625Q71.55 70.640625 70.59688 70.640625Q69.3625 70.640625 68.64375 69.75Q67.8 68.6875 67.8 66.265625ZM68.87813 66.265625Q68.87813 68.375 69.37813 69.078125Q69.87813 69.78125 70.59688 69.78125Q71.33125 69.78125 71.81563 69.078125Q72.31563 68.375 72.31563 66.265625Q72.31563 64.140625 71.81563 63.453125Q71.33125 62.75 70.58125 62.75Q69.8625 62.75 69.425 63.359375Q68.87813 64.140625 68.87813 66.265625ZM74.8 66.265625Q74.8 64.734375 75.1125 63.8125Q75.425 62.875 76.03438 62.375Q76.65938 61.875 77.59688 61.875Q78.28438 61.875 78.8 62.15625Q79.33125 62.4375 79.675 62.96875Q80.01875 63.484375 80.20625 64.234375Q80.39375 64.984375 80.39375 66.265625Q80.39375 67.78125 80.08125 68.703125Q79.78438 69.625 79.15938 70.140625Q78.55 70.640625 77.59688 70.640625Q76.3625 70.640625 75.64375 69.75Q74.8 68.6875 74.8 66.265625ZM75.87813 66.265625Q75.87813 68.375 76.37813 69.078125Q76.87813 69.78125 77.59688 69.78125Q78.33125 69.78125 78.81563 69.078125Q79.31563 68.375 79.31563 66.265625Q79.31563 64.140625 78.81563 63.453125Q78.33125 62.75 77.58125 62.75Q76.8625 62.75 76.425 63.359375Q75.87813 64.140625 75.87813 66.265625Z" fill-rule="nonzero"/><path fill="#000000" d="M198.459 340.48438L198.459 341.5L192.7715 341.5Q192.7715 341.125 192.8965 340.76562Q193.11525 340.1875 193.584 339.625Q194.06837 339.0625 194.97462 338.32812Q196.38087 337.17188 196.86525 336.5Q197.36525 335.82812 197.36525 335.23438Q197.36525 334.60938 196.91212 334.1875Q196.459 333.75 195.74025 333.75Q194.97462 333.75 194.5215 334.20312Q194.06837 334.65625 194.05275 335.46875L192.97462 335.35938Q193.084 334.14062 193.80275 333.51562Q194.53712 332.875 195.7715 332.875Q197.00587 332.875 197.72462 333.5625Q198.44337 334.25 198.44337 335.26562Q198.44337 335.78125 198.22462 336.28125Q198.0215 336.76562 197.5215 337.32812Q197.03712 337.875 195.91212 338.82812Q194.959 339.625 194.67775 339.92188Q194.41212 340.20312 194.24025 340.48438L198.459 340.48438ZM199.91212 337.26562Q199.91212 335.73438 200.22462 334.8125Q200.53712 333.875 201.1465 333.375Q201.7715 332.875 202.709 332.875Q203.3965 332.875 203.91212 333.15625Q204.44337 333.4375 204.78712 333.96875Q205.13087 334.48438 205.31837 335.23438Q205.50587 335.98438 205.50587 337.26562Q205.50587 338.78125 205.19337 339.70312Q204.8965 340.625 204.2715 341.14062Q203.66212 341.64062 202.709 341.64062Q201.47462 341.64062 200.75587 340.75Q199.91212 339.6875 199.91212 337.26562ZM200.99025 337.26562Q200.99025 339.375 201.49025 340.07812Q201.99025 340.78125 202.709 340.78125Q203.44337 340.78125 203.92775 340.07812Q204.42775 339.375 204.42775 337.26562Q204.42775 335.14062 203.92775 334.45312Q203.44337 333.75 202.69337 333.75Q201.97462 333.75 201.53712 334.35938Q200.99025 335.14062 200.99025 337.26562ZM206.91212 337.26562Q206.91212 335.73438 207.22462 334.8125Q207.53712 333.875 208.1465 333.375Q208.7715 332.875 209.709 332.875Q210.3965 332.875 210.91212 333.15625Q211.44337 333.4375 211.78712 333.96875Q212.13087 334.48438 212.31837 335.23438Q212.50587 335.98438 212.50587 337.26562Q212.50587 338.78125 212.19337 339.70312Q211.8965 340.625 211.2715 341.14062Q210.66212 341.64062 209.709 341.64062Q208.47462 341.64062 207.75587 340.75Q206.91212 339.6875 206.91212 337.26562ZM207.99025 337.26562Q207.99025 339.375 208.49025 340.07812Q208.99025 340.78125 209.709 340.78125Q210.44337 340.78125 210.92775 340.07812Q211.42775 339.375 211.42775 337.26562Q211.42775 335.14062 210.92775 334.45312Q210.44337 333.75 209.69337 333.75Q208.97462 333.75 208.53712 334.35938Q207.99025 335.14062 207.99025 337.26562Z" fill-rule="nonzero"/><path fill="#000000" d="M317.9841 341.5L317.9841 339.4375L314.26535 339.4375L314.26535 338.46875L318.18723 332.90625L319.0466 332.90625L319.0466 338.46875L320.20285 338.46875L320.20285 339.4375L319.0466 339.4375L319.0466 341.5L317.9841 341.5ZM317.9841 338.46875L317.9841 334.60938L315.2966 338.46875L317.9841 338.46875ZM321.6091 337.26562Q321.6091 335.73438 321.9216 334.8125Q322.2341 333.875 322.84348 333.375Q323.46848 332.875 324.40598 332.875Q325.09348 332.875 325.6091 333.15625Q326.14035 333.4375 326.4841 333.96875Q326.82785 334.48438 327.01535 335.23438Q327.20285 335.98438 327.20285 337.26562Q327.20285 338.78125 326.89035 339.70312Q326.59348 340.625 325.96848 341.14062Q325.3591 341.64062 324.40598 341.64062Q323.1716 341.64062 322.45285 340.75Q321.6091 339.6875 321.6091 337.26562ZM322.68723 337.26562Q322.68723 339.375 323.18723 340.07812Q323.68723 340.78125 324.40598 340.78125Q325.14035 340.78125 325.62473 340.07812Q326.12473 339.375 326.12473 337.26562Q326.12473 335.14062 325.62473 334.45312Q325.14035 333.75 324.39035 333.75Q323.6716 333.75 323.2341 334.35938Q322.68723 335.14062 322.68723 337.26562ZM328.6091 337.26562Q328.6091 335.73438 328.9216 334.8125Q329.2341 333.875 329.84348 333.375Q330.46848 332.875 331.40598 332.875Q332.09348 332.875 332.6091 333.15625Q333.14035 333.4375 333.4841 333.96875Q333.82785 334.48438 334.01535 335.23438Q334.20285 335.98438 334.20285 337.26562Q334.20285 338.78125 333.89035 339.70312Q333.59348 340.625 332.96848 341.14062Q332.3591 341.64062 331.40598 341.64062Q330.1716 341.64062 329.45285 340.75Q328.6091 339.6875 328.6091 337.26562ZM329.68723 337.26562Q329.68723 339.375 330.18723 340.07812Q330.68723 340.78125 331.40598 340.78125Q332.14035 340.78125 332.62473 340.07812Q333.12473 339.375 333.12473 337.26562Q333.12473 335.14062 332.62473 334.45312Q332.14035 333.75 331.39035 333.75Q330.6716 333.75 330.2341 334.35938Q329.68723 335.14062 329.68723 337.26562Z" fill-rule="nonzero"/><path fill="#000000" d="M441.7748 335.01562L440.72794 335.09375Q440.5873 334.46875 440.3373 334.1875Q439.8998 333.73438 439.2748 333.73438Q438.7748 333.73438 438.3842 334.01562Q437.8998 334.39062 437.60294 335.09375Q437.3217 335.78125 437.30606 337.0625Q437.68106 336.48438 438.22794 336.20312Q438.79044 335.92188 439.3998 335.92188Q440.4467 335.92188 441.18106 336.70312Q441.93106 337.48438 441.93106 338.70312Q441.93106 339.51562 441.5717 340.21875Q441.22794 340.90625 440.61856 341.28125Q440.0092 341.64062 439.24356 341.64062Q437.91544 341.64062 437.0873 340.67188Q436.2592 339.70312 436.2592 337.48438Q436.2592 334.98438 437.18106 333.85938Q437.97794 332.875 439.3373 332.875Q440.35294 332.875 440.99356 333.45312Q441.6498 334.01562 441.7748 335.01562ZM437.47794 338.71875Q437.47794 339.26562 437.6967 339.76562Q437.93106 340.25 438.3373 340.51562Q438.7592 340.78125 439.22794 340.78125Q439.8842 340.78125 440.36856 340.25Q440.85294 339.70312 440.85294 338.78125Q440.85294 337.89062 440.36856 337.375Q439.8998 336.85938 439.18106 336.85938Q438.4623 336.85938 437.9623 337.375Q437.47794 337.89062 437.47794 338.71875ZM443.30606 337.26562Q443.30606 335.73438 443.61856 334.8125Q443.93106 333.875 444.54044 333.375Q445.16544 332.875 446.10294 332.875Q446.79044 332.875 447.30606 333.15625Q447.8373 333.4375 448.18106 333.96875Q448.5248 334.48438 448.7123 335.23438Q448.8998 335.98438 448.8998 337.26562Q448.8998 338.78125 448.5873 339.70312Q448.29044 340.625 447.66544 341.14062Q447.05606 341.64062 446.10294 341.64062Q444.86856 341.64062 444.1498 340.75Q443.30606 339.6875 443.30606 337.26562ZM444.3842 337.26562Q444.3842 339.375 444.8842 340.07812Q445.3842 340.78125 446.10294 340.78125Q446.8373 340.78125 447.3217 340.07812Q447.8217 339.375 447.8217 337.26562Q447.8217 335.14062 447.3217 334.45312Q446.8373 333.75 446.0873 333.75Q445.36856 333.75 444.93106 334.35938Q444.3842 335.14062 444.3842 337.26562ZM450.30606 337.26562Q450.30606 335.73438 450.61856 334.8125Q450.93106 333.875 451.54044 333.375Q452.16544 332.875 453.10294 332.875Q453.79044 332.875 454.30606 333.15625Q454.8373 333.4375 455.18106 333.96875Q455.5248 334.48438 455.7123 335.23438Q455.8998 335.98438 455.8998 337.26562Q455.8998 338.78125 455.5873 339.70312Q455.29044 340.625 454.66544 341.14062Q454.05606 341.64062 453.10294 341.64062Q451.86856 341.64062 451.1498 340.75Q450.30606 339.6875 450.30606 337.26562ZM451.3842 337.26562Q451.3842 339.375 451.8842 340.07812Q452.3842 340.78125 453.10294 340.78125Q453.8373 340.78125 454.3217 340.07812Q454.8217 339.375 454.8217 337.26562Q454.8217 335.14062 454.3217 334.45312Q453.8373 333.75 453.0873 333.75Q452.36856 333.75 451.93106 334.35938Q451.3842 335.14062 451.3842 337.26562Z" fill-rule="nonzero"/><path fill="#000000" d="M559.62805 336.84375Q558.9718 336.59375 558.6437 336.15625Q558.3312 335.70312 558.3312 335.09375Q558.3312 334.15625 559.00305 333.51562Q559.69055 332.875 560.7999 332.875Q561.9249 332.875 562.6124 333.53125Q563.2999 334.1875 563.2999 335.125Q563.2999 335.71875 562.9874 336.15625Q562.6749 336.59375 562.0343 336.84375Q562.8312 337.09375 563.2374 337.67188Q563.6437 338.25 563.6437 339.04688Q563.6437 340.14062 562.8624 340.89062Q562.0968 341.64062 560.81555 341.64062Q559.5499 341.64062 558.7687 340.89062Q557.9874 340.14062 557.9874 339.01562Q557.9874 338.17188 558.4093 337.60938Q558.8468 337.04688 559.62805 336.84375ZM559.4093 335.04688Q559.4093 335.65625 559.7999 336.04688Q560.2062 336.4375 560.8312 336.4375Q561.44055 336.4375 561.8312 336.0625Q562.2218 335.67188 562.2218 335.10938Q562.2218 334.53125 561.81555 334.14062Q561.4093 333.73438 560.81555 333.73438Q560.2062 333.73438 559.7999 334.125Q559.4093 334.51562 559.4093 335.04688ZM559.0812 339.01562Q559.0812 339.46875 559.2843 339.89062Q559.50305 340.3125 559.9249 340.54688Q560.3468 340.78125 560.8312 340.78125Q561.5812 340.78125 562.06555 340.29688Q562.56555 339.8125 562.56555 339.0625Q562.56555 338.29688 562.06555 337.79688Q561.56555 337.29688 560.7999 337.29688Q560.0499 337.29688 559.56555 337.79688Q559.0812 338.28125 559.0812 339.01562ZM565.00305 337.26562Q565.00305 335.73438 565.31555 334.8125Q565.62805 333.875 566.2374 333.375Q566.8624 332.875 567.7999 332.875Q568.4874 332.875 569.00305 333.15625Q569.5343 333.4375 569.87805 333.96875Q570.2218 334.48438 570.4093 335.23438Q570.5968 335.98438 570.5968 337.26562Q570.5968 338.78125 570.2843 339.70312Q569.9874 340.625 569.3624 341.14062Q568.75305 341.64062 567.7999 341.64062Q566.56555 341.64062 565.8468 340.75Q565.00305 339.6875 565.00305 337.26562ZM566.0812 337.26562Q566.0812 339.375 566.5812 340.07812Q567.0812 340.78125 567.7999 340.78125Q568.5343 340.78125 569.0187 340.07812Q569.5187 339.375 569.5187 337.26562Q569.5187 335.14062 569.0187 334.45312Q568.5343 333.75 567.7843 333.75Q567.06555 333.75 566.62805 334.35938Q566.0812 335.14062 566.0812 337.26562ZM572.00305 337.26562Q572.00305 335.73438 572.31555 334.8125Q572.62805 333.875 573.2374 333.375Q573.8624 332.875 574.7999 332.875Q575.4874 332.875 576.00305 333.15625Q576.5343 333.4375 576.87805 333.96875Q577.2218 334.48438 577.4093 335.23438Q577.5968 335.98438 577.5968 337.26562Q577.5968 338.78125 577.2843 339.70312Q576.9874 340.625 576.3624 341.14062Q575.75305 341.64062 574.7999 341.64062Q573.56555 341.64062 572.8468 340.75Q572.00305 339.6875 572.00305 337.26562ZM573.0812 337.26562Q573.0812 339.375 573.5812 340.07812Q574.0812 340.78125 574.7999 340.78125Q575.5343 340.78125 576.0187 340.07812Q576.5187 339.375 576.5187 337.26562Q576.5187 335.14062 576.0187 334.45312Q575.5343 333.75 574.7843 333.75Q574.06555 333.75 573.62805 334.35938Q573.0812 335.14062 573.0812 337.26562Z" fill-rule="nonzero"/><path fill="#000000" d="M680.16876 341.5L679.1219 341.5L679.1219 334.78125Q678.73126 335.14062 678.10626 335.51562Q677.4969 335.875 677.0125 336.04688L677.0125 335.03125Q677.8875 334.60938 678.54376 334.03125Q679.21564 333.4375 679.4969 332.875L680.16876 332.875L680.16876 341.5ZM683.2 337.26562Q683.2 335.73438 683.5125 334.8125Q683.825 333.875 684.4344 333.375Q685.0594 332.875 685.9969 332.875Q686.6844 332.875 687.2 333.15625Q687.73126 333.4375 688.075 333.96875Q688.41876 334.48438 688.60626 335.23438Q688.79376 335.98438 688.79376 337.26562Q688.79376 338.78125 688.48126 339.70312Q688.1844 340.625 687.5594 341.14062Q686.95 341.64062 685.9969 341.64062Q684.7625 341.64062 684.04376 340.75Q683.2 339.6875 683.2 337.26562ZM684.27814 337.26562Q684.27814 339.375 684.77814 340.07812Q685.27814 340.78125 685.9969 340.78125Q686.73126 340.78125 687.21564 340.07812Q687.71564 339.375 687.71564 337.26562Q687.71564 335.14062 687.21564 334.45312Q686.73126 333.75 685.98126 333.75Q685.2625 333.75 684.825 334.35938Q684.27814 335.14062 684.27814 337.26562ZM690.2 337.26562Q690.2 335.73438 690.5125 334.8125Q690.825 333.875 691.4344 333.375Q692.0594 332.875 692.9969 332.875Q693.6844 332.875 694.2 333.15625Q694.73126 333.4375 695.075 333.96875Q695.41876 334.48438 695.60626 335.23438Q695.79376 335.98438 695.79376 337.26562Q695.79376 338.78125 695.48126 339.70312Q695.1844 340.625 694.5594 341.14062Q693.95 341.64062 692.9969 341.64062Q691.7625 341.64062 691.04376 340.75Q690.2 339.6875 690.2 337.26562ZM691.27814 337.26562Q691.27814 339.375 691.77814 340.07812Q692.27814 340.78125 692.9969 340.78125Q693.73126 340.78125 694.21564 340.07812Q694.71564 339.375 694.71564 337.26562Q694.71564 335.14062 694.21564 334.45312Q693.73126 333.75 692.98126 333.75Q692.2625 333.75 691.825 334.35938Q691.27814 335.14062 691.27814 337.26562ZM697.2 337.26562Q697.2 335.73438 697.5125 334.8125Q697.825 333.875 698.4344 333.375Q699.0594 332.875 699.9969 332.875Q700.6844 332.875 701.2 333.15625Q701.73126 333.4375 702.075 333.96875Q702.41876 334.48438 702.60626 335.23438Q702.79376 335.98438 702.79376 337.26562Q702.79376 338.78125 702.48126 339.70312Q702.1844 340.625 701.5594 341.14062Q700.95 341.64062 699.9969 341.64062Q698.7625 341.64062 698.04376 340.75Q697.2 339.6875 697.2 337.26562ZM698.27814 337.26562Q698.27814 339.375 698.77814 340.07812Q699.27814 340.78125 699.9969 340.78125Q700.73126 340.78125 701.21564 340.07812Q701.71564 339.375 701.71564 337.26562Q701.71564 335.14062 701.21564 334.45312Q700.73126 333.75 699.98126 333.75Q699.2625 333.75 698.825 334.35938Q698.27814 335.14062 698.27814 337.26562Z" fill-rule="nonzero"/><path stroke="#0000ff" stroke-width="4.0" stroke-linecap="butt" d="M185.5 397.7L197.5 397.7" fill-rule="nonzero"/><path fill="#1a1a1a" d="M205.48438 401.7L208.78125 393.10626L210.0 393.10626L213.51562 401.7L212.23438 401.7L211.21875 399.09064L207.64062 399.09064L206.6875 401.7L205.48438 401.7ZM207.96875 398.16876L210.875 398.16876L209.98438 395.79376Q209.5625 394.71564 209.375 394.0125Q209.20312 394.84064 208.90625 395.65314L207.96875 398.16876ZM214.42188 401.7L214.42188 393.10626L217.67188 393.10626Q218.51562 393.10626 218.96875 393.1844Q219.60938 393.29376 220.03125 393.59064Q220.46875 393.8875 220.71875 394.41876Q220.98438 394.95 220.98438 395.59064Q220.98438 396.6844 220.28125 397.45Q219.59375 398.2 217.76562 398.2L215.5625 398.2L215.5625 401.7L214.42188 401.7ZM215.5625 397.2L217.78125 397.2Q218.89062 397.2 219.34375 396.79376Q219.8125 396.3719 219.8125 395.6219Q219.8125 395.09064 219.53125 394.71564Q219.26562 394.325 218.82812 394.2Q218.53125 394.1219 217.76562 394.1219L215.5625 394.1219L215.5625 397.2ZM222.625 401.7L222.625 393.10626L223.75 393.10626L223.75 401.7L222.625 401.7ZM229.4375 401.7L227.53125 395.48126L228.625 395.48126L229.60938 399.075L229.98438 400.40314Q230.01562 400.3094 230.3125 399.1219L231.29688 395.48126L232.375 395.48126L233.3125 399.09064L233.625 400.27814L233.98438 399.075L235.04688 395.48126L236.07812 395.48126L234.125 401.7L233.03125 401.7L232.04688 397.96564L231.79688 396.91876L230.54688 401.7L229.4375 401.7ZM237.29688 394.325L237.29688 393.10626L238.35938 393.10626L238.35938 394.325L237.29688 394.325ZM237.29688 401.7L237.29688 395.48126L238.35938 395.48126L238.35938 401.7L237.29688 401.7ZM242.59375 400.7625L242.75 401.6844Q242.29688 401.77814 241.95312 401.77814Q241.375 401.77814 241.0625 401.60626Q240.75 401.41876 240.60938 401.1219Q240.48438 400.825 240.48438 399.8719L240.48438 396.29376L239.71875 396.29376L239.71875 395.48126L240.48438 395.48126L240.48438 393.9344L241.53125 393.3094L241.53125 395.48126L242.59375 395.48126L242.59375 396.29376L241.53125 396.29376L241.53125 399.9344Q241.53125 400.3875 241.57812 400.5125Q241.64062 400.6375 241.76562 400.71564Q241.89062 400.79376 242.125 400.79376Q242.3125 400.79376 242.59375 400.7625ZM243.29688 401.7L243.29688 393.10626L244.34375 393.10626L244.34375 396.1844Q245.07812 395.34064 246.20312 395.34064Q246.90625 395.34064 247.40625 395.6219Q247.92188 395.8875 248.14062 396.3719Q248.35938 396.84064 248.35938 397.7625L248.35938 401.7L247.3125 401.7L247.3125 397.7625Q247.3125 396.96564 246.96875 396.60626Q246.625 396.2469 246.0 396.2469Q245.53125 396.2469 245.10938 396.4969Q244.70312 396.73126 244.51562 397.15314Q244.34375 397.5594 244.34375 398.29376L244.34375 401.7L243.29688 401.7ZM254.625 397.04376Q253.96875 396.79376 253.64062 396.35626Q253.32812 395.90314 253.32812 395.29376Q253.32812 394.35626 254.0 393.71564Q254.6875 393.075 255.79688 393.075Q256.92188 393.075 257.60938 393.73126Q258.29688 394.3875 258.29688 395.325Q258.29688 395.91876 257.98438 396.35626Q257.67188 396.79376 257.03125 397.04376Q257.82812 397.29376 258.23438 397.8719Q258.64062 398.45 258.64062 399.2469Q258.64062 400.34064 257.85938 401.09064Q257.09375 401.84064 255.8125 401.84064Q254.54688 401.84064 253.76562 401.09064Q252.98438 400.34064 252.98438 399.21564Q252.98438 398.3719 253.40625 397.8094Q253.84375 397.2469 254.625 397.04376ZM254.40625 395.2469Q254.40625 395.85626 254.79688 396.2469Q255.20312 396.6375 255.82812 396.6375Q256.4375 396.6375 256.82812 396.2625Q257.21875 395.8719 257.21875 395.3094Q257.21875 394.73126 256.8125 394.34064Q256.40625 393.9344 255.8125 393.9344Q255.20312 393.9344 254.79688 394.325Q254.40625 394.71564 254.40625 395.2469ZM254.07812 399.21564Q254.07812 399.66876 254.28125 400.09064Q254.5 400.5125 254.92188 400.7469Q255.34375 400.98126 255.82812 400.98126Q256.57812 400.98126 257.0625 400.4969Q257.5625 400.0125 257.5625 399.2625Q257.5625 398.4969 257.0625 397.9969Q256.5625 397.4969 255.79688 397.4969Q255.04688 397.4969 254.5625 397.9969Q254.07812 398.48126 254.07812 399.21564ZM263.28125 401.7L263.28125 395.48126L264.23438 395.48126L264.23438 396.41876Q264.59375 395.7625 264.89062 395.5594Q265.20312 395.34064 265.57812 395.34064Q266.10938 395.34064 266.65625 395.66876L266.29688 396.65314Q265.90625 396.41876 265.53125 396.41876Q265.17188 396.41876 264.89062 396.6375Q264.625 396.84064 264.51562 397.21564Q264.32812 397.77814 264.32812 398.4344L264.32812 401.7L263.28125 401.7ZM266.90625 398.59064Q266.90625 396.85626 267.85938 396.02814Q268.65625 395.34064 269.8125 395.34064Q271.09375 395.34064 271.90625 396.1844Q272.73438 397.0125 272.73438 398.4969Q272.73438 399.7 272.375 400.3875Q272.01562 401.075 271.3125 401.46564Q270.625 401.84064 269.8125 401.84064Q268.51562 401.84064 267.70312 401.0125Q266.90625 400.16876 266.90625 398.59064ZM267.98438 398.59064Q267.98438 399.77814 268.5 400.3719Q269.03125 400.96564 269.8125 400.96564Q270.60938 400.96564 271.125 400.3719Q271.64062 399.77814 271.64062 398.5594Q271.64062 397.40314 271.10938 396.8094Q270.59375 396.21564 269.8125 396.21564Q269.03125 396.21564 268.5 396.8094Q267.98438 397.3875 267.98438 398.59064ZM278.375 401.7L278.375 400.77814Q277.64062 401.84064 276.39062 401.84064Q275.84375 401.84064 275.35938 401.6375Q274.89062 401.41876 274.65625 401.10626Q274.42188 400.77814 274.32812 400.3094Q274.26562 400.0125 274.26562 399.325L274.26562 395.48126L275.32812 395.48126L275.32812 398.9344Q275.32812 399.7469 275.39062 400.04376Q275.48438 400.45 275.79688 400.7Q276.125 400.9344 276.60938 400.9344Q277.07812 400.9344 277.48438 400.7Q277.90625 400.45 278.07812 400.02814Q278.26562 399.60626 278.26562 398.8094L278.26562 395.48126L279.3125 395.48126L279.3125 401.7L278.375 401.7ZM283.59375 400.7625L283.75 401.6844Q283.29688 401.77814 282.95312 401.77814Q282.375 401.77814 282.0625 401.60626Q281.75 401.41876 281.60938 401.1219Q281.48438 400.825 281.48438 399.8719L281.48438 396.29376L280.71875 396.29376L280.71875 395.48126L281.48438 395.48126L281.48438 393.9344L282.53125 393.3094L282.53125 395.48126L283.59375 395.48126L283.59375 396.29376L282.53125 396.29376L282.53125 399.9344Q282.53125 400.3875 282.57812 400.5125Q282.64062 400.6375 282.76562 400.71564Q282.89062 400.79376 283.125 400.79376Q283.3125 400.79376 283.59375 400.7625ZM288.54688 399.7L289.64062 399.825Q289.39062 400.77814 288.6875 401.3094Q287.98438 401.84064 286.90625 401.84064Q285.54688 401.84064 284.73438 400.9969Q283.9375 400.15314 283.9375 398.6375Q283.9375 397.075 284.75 396.21564Q285.5625 395.34064 286.84375 395.34064Q288.09375 395.34064 288.875 396.1844Q289.67188 397.02814 289.67188 398.575Q289.67188 398.66876 289.67188 398.85626L285.03125 398.85626Q285.09375 399.8875 285.60938 400.4344Q286.125 400.96564 286.90625 400.96564Q287.48438 400.96564 287.89062 400.66876Q288.3125 400.35626 288.54688 399.7ZM285.09375 397.9969L288.5625 397.9969Q288.5 397.2 288.17188 396.8094Q287.65625 396.2 286.85938 396.2Q286.125 396.2 285.625 396.6844Q285.14062 397.16876 285.09375 397.9969ZM290.875 399.84064L291.90625 399.6844Q292.0 400.3094 292.39062 400.6375Q292.79688 400.96564 293.53125 400.96564Q294.25 400.96564 294.59375 400.6844Q294.95312 400.3875 294.95312 399.98126Q294.95312 399.6219 294.64062 399.41876Q294.42188 399.27814 293.5625 399.0594Q292.40625 398.7625 291.95312 398.5594Q291.51562 398.34064 291.28125 397.96564Q291.04688 397.59064 291.04688 397.1219Q291.04688 396.71564 291.23438 396.35626Q291.42188 395.9969 291.75 395.7625Q292.0 395.59064 292.42188 395.46564Q292.84375 395.34064 293.34375 395.34064Q294.0625 395.34064 294.60938 395.5594Q295.17188 395.7625 295.4375 396.1219Q295.70312 396.48126 295.79688 397.075L294.76562 397.21564Q294.70312 396.7469 294.35938 396.48126Q294.03125 396.2 293.40625 396.2Q292.6875 396.2 292.375 396.45Q292.0625 396.6844 292.0625 397.0125Q292.0625 397.21564 292.1875 397.3719Q292.32812 397.54376 292.59375 397.65314Q292.75 397.71564 293.53125 397.91876Q294.65625 398.23126 295.09375 398.41876Q295.53125 398.60626 295.78125 398.96564Q296.03125 399.325 296.03125 399.8719Q296.03125 400.40314 295.71875 400.8719Q295.42188 401.325 294.84375 401.59064Q294.26562 401.84064 293.53125 401.84064Q292.3125 401.84064 291.67188 401.34064Q291.04688 400.825 290.875 399.84064Z" fill-rule="nonzero"/><path stroke="#f49301" stroke-width="4.0" stroke-linecap="butt" d="M312.5 397.7L324.5 397.7" fill-rule="nonzero"/><path fill="#1a1a1a" d="M332.48438 401.7L335.78125 393.10626L337.0 393.10626L340.51562 401.7L339.23438 401.7L338.21875 399.09064L334.64062 399.09064L333.6875 401.7L332.48438 401.7ZM334.96875 398.16876L337.875 398.16876L336.98438 395.79376Q336.5625 394.71564 336.375 394.0125Q336.20312 394.84064 335.90625 395.65314L334.96875 398.16876ZM341.42188 401.7L341.42188 393.10626L344.67188 393.10626Q345.51562 393.10626 345.96875 393.1844Q346.60938 393.29376 347.03125 393.59064Q347.46875 393.8875 347.71875 394.41876Q347.98438 394.95 347.98438 395.59064Q347.98438 396.6844 347.28125 397.45Q346.59375 398.2 344.76562 398.2L342.5625 398.2L342.5625 401.7L341.42188 401.7ZM342.5625 397.2L344.78125 397.2Q345.89062 397.2 346.34375 396.79376Q346.8125 396.3719 346.8125 395.6219Q346.8125 395.09064 346.53125 394.71564Q346.26562 394.325 345.82812 394.2Q345.53125 394.1219 344.76562 394.1219L342.5625 394.1219L342.5625 397.2ZM349.625 401.7L349.625 393.10626L350.75 393.10626L350.75 401.7L349.625 401.7ZM356.4375 401.7L354.53125 395.48126L355.625 395.48126L356.60938 399.075L356.98438 400.40314Q357.01562 400.3094 357.3125 399.1219L358.29688 395.48126L359.375 395.48126L360.3125 399.09064L360.625 400.27814L360.98438 399.075L362.04688 395.48126L363.07812 395.48126L361.125 401.7L360.03125 401.7L359.04688 397.96564L358.79688 396.91876L357.54688 401.7L356.4375 401.7ZM364.29688 394.325L364.29688 393.10626L365.35938 393.10626L365.35938 394.325L364.29688 394.325ZM364.29688 401.7L364.29688 395.48126L365.35938 395.48126L365.35938 401.7L364.29688 401.7ZM369.59375 400.7625L369.75 401.6844Q369.29688 401.77814 368.95312 401.77814Q368.375 401.77814 368.0625 401.60626Q367.75 401.41876 367.60938 401.1219Q367.48438 400.825 367.48438 399.8719L367.48438 396.29376L366.71875 396.29376L366.71875 395.48126L367.48438 395.48126L367.48438 393.9344L368.53125 393.3094L368.53125 395.48126L369.59375 395.48126L369.59375 396.29376L368.53125 396.29376L368.53125 399.9344Q368.53125 400.3875 368.57812 400.5125Q368.64062 400.6375 368.76562 400.71564Q368.89062 400.79376 369.125 400.79376Q369.3125 400.79376 369.59375 400.7625ZM370.29688 401.7L370.29688 393.10626L371.34375 393.10626L371.34375 396.1844Q372.07812 395.34064 373.20312 395.34064Q373.90625 395.34064 374.40625 395.6219Q374.92188 395.8875 375.14062 396.3719Q375.35938 396.84064 375.35938 397.7625L375.35938 401.7L374.3125 401.7L374.3125 397.7625Q374.3125 396.96564 373.96875 396.60626Q373.625 396.2469 373.0 396.2469Q372.53125 396.2469 372.10938 396.4969Q371.70312 396.73126 371.51562 397.15314Q371.34375 397.5594 371.34375 398.29376L371.34375 401.7L370.29688 401.7ZM381.625 397.04376Q380.96875 396.79376 380.64062 396.35626Q380.32812 395.90314 380.32812 395.29376Q380.32812 394.35626 381.0 393.71564Q381.6875 393.075 382.79688 393.075Q383.92188 393.075 384.60938 393.73126Q385.29688 394.3875 385.29688 395.325Q385.29688 395.91876 384.98438 396.35626Q384.67188 396.79376 384.03125 397.04376Q384.82812 397.29376 385.23438 397.8719Q385.64062 398.45 385.64062 399.2469Q385.64062 400.34064 384.85938 401.09064Q384.09375 401.84064 382.8125 401.84064Q381.54688 401.84064 380.76562 401.09064Q379.98438 400.34064 379.98438 399.21564Q379.98438 398.3719 380.40625 397.8094Q380.84375 397.2469 381.625 397.04376ZM381.40625 395.2469Q381.40625 395.85626 381.79688 396.2469Q382.20312 396.6375 382.82812 396.6375Q383.4375 396.6375 383.82812 396.2625Q384.21875 395.8719 384.21875 395.3094Q384.21875 394.73126 383.8125 394.34064Q383.40625 393.9344 382.8125 393.9344Q382.20312 393.9344 381.79688 394.325Q381.40625 394.71564 381.40625 395.2469ZM381.07812 399.21564Q381.07812 399.66876 381.28125 400.09064Q381.5 400.5125 381.92188 400.7469Q382.34375 400.98126 382.82812 400.98126Q383.57812 400.98126 384.0625 400.4969Q384.5625 400.0125 384.5625 399.2625Q384.5625 398.4969 384.0625 397.9969Q383.5625 397.4969 382.79688 397.4969Q382.04688 397.4969 381.5625 397.9969Q381.07812 398.48126 381.07812 399.21564ZM390.28125 401.7L390.28125 395.48126L391.23438 395.48126L391.23438 396.41876Q391.59375 395.7625 391.89062 395.5594Q392.20312 395.34064 392.57812 395.34064Q393.10938 395.34064 393.65625 395.66876L393.29688 396.65314Q392.90625 396.41876 392.53125 396.41876Q392.17188 396.41876 391.89062 396.6375Q391.625 396.84064 391.51562 397.21564Q391.32812 397.77814 391.32812 398.4344L391.32812 401.7L390.28125 401.7ZM393.90625 398.59064Q393.90625 396.85626 394.85938 396.02814Q395.65625 395.34064 396.8125 395.34064Q398.09375 395.34064 398.90625 396.1844Q399.73438 397.0125 399.73438 398.4969Q399.73438 399.7 399.375 400.3875Q399.01562 401.075 398.3125 401.46564Q397.625 401.84064 396.8125 401.84064Q395.51562 401.84064 394.70312 401.0125Q393.90625 400.16876 393.90625 398.59064ZM394.98438 398.59064Q394.98438 399.77814 395.5 400.3719Q396.03125 400.96564 396.8125 400.96564Q397.60938 400.96564 398.125 400.3719Q398.64062 399.77814 398.64062 398.5594Q398.64062 397.40314 398.10938 396.8094Q397.59375 396.21564 396.8125 396.21564Q396.03125 396.21564 395.5 396.8094Q394.98438 397.3875 394.98438 398.59064ZM405.375 401.7L405.375 400.77814Q404.64062 401.84064 403.39062 401.84064Q402.84375 401.84064 402.35938 401.6375Q401.89062 401.41876 401.65625 401.10626Q401.42188 400.77814 401.32812 400.3094Q401.26562 400.0125 401.26562 399.325L401.26562 395.48126L402.32812 395.48126L402.32812 398.9344Q402.32812 399.7469 402.39062 400.04376Q402.48438 400.45 402.79688 400.7Q403.125 400.9344 403.60938 400.9344Q404.07812 400.9344 404.48438 400.7Q404.90625 400.45 405.07812 400.02814Q405.26562 399.60626 405.26562 398.8094L405.26562 395.48126L406.3125 395.48126L406.3125 401.7L405.375 401.7ZM410.59375 400.7625L410.75 401.6844Q410.29688 401.77814 409.95312 401.77814Q409.375 401.77814 409.0625 401.60626Q408.75 401.41876 408.60938 401.1219Q408.48438 400.825 408.48438 399.8719L408.48438 396.29376L407.71875 396.29376L407.71875 395.48126L408.48438 395.48126L408.48438 393.9344L409.53125 393.3094L409.53125 395.48126L410.59375 395.48126L410.59375 396.29376L409.53125 396.29376L409.53125 399.9344Q409.53125 400.3875 409.57812 400.5125Q409.64062 400.6375 409.76562 400.71564Q409.89062 400.79376 410.125 400.79376Q410.3125 400.79376 410.59375 400.7625ZM415.54688 399.7L416.64062 399.825Q416.39062 400.77814 415.6875 401.3094Q414.98438 401.84064 413.90625 401.84064Q412.54688 401.84064 411.73438 400.9969Q410.9375 400.15314 410.9375 398.6375Q410.9375 397.075 411.75 396.21564Q412.5625 395.34064 413.84375 395.34064Q415.09375 395.34064 415.875 396.1844Q416.67188 397.02814 416.67188 398.575Q416.67188 398.66876 416.67188 398.85626L412.03125 398.85626Q412.09375 399.8875 412.60938 400.4344Q413.125 400.96564 413.90625 400.96564Q414.48438 400.96564 414.89062 400.66876Q415.3125 400.35626 415.54688 399.7ZM412.09375 397.9969L415.5625 397.9969Q415.5 397.2 415.17188 396.8094Q414.65625 396.2 413.85938 396.2Q413.125 396.2 412.625 396.6844Q412.14062 397.16876 412.09375 397.9969ZM417.875 399.84064L418.90625 399.6844Q419.0 400.3094 419.39062 400.6375Q419.79688 400.96564 420.53125 400.96564Q421.25 400.96564 421.59375 400.6844Q421.95312 400.3875 421.95312 399.98126Q421.95312 399.6219 421.64062 399.41876Q421.42188 399.27814 420.5625 399.0594Q419.40625 398.7625 418.95312 398.5594Q418.51562 398.34064 418.28125 397.96564Q418.04688 397.59064 418.04688 397.1219Q418.04688 396.71564 418.23438 396.35626Q418.42188 395.9969 418.75 395.7625Q419.0 395.59064 419.42188 395.46564Q419.84375 395.34064 420.34375 395.34064Q421.0625 395.34064 421.60938 395.5594Q422.17188 395.7625 422.4375 396.1219Q422.70312 396.48126 422.79688 397.075L421.76562 397.21564Q421.70312 396.7469 421.35938 396.48126Q421.03125 396.2 420.40625 396.2Q419.6875 396.2 419.375 396.45Q419.0625 396.6844 419.0625 397.0125Q419.0625 397.21564 419.1875 397.3719Q419.32812 397.54376 419.59375 397.65314Q419.75 397.71564 420.53125 397.91876Q421.65625 398.23126 422.09375 398.41876Q422.53125 398.60626 422.78125 398.96564Q423.03125 399.325 423.03125 399.8719Q423.03125 400.40314 422.71875 400.8719Q422.42188 401.325 421.84375 401.59064Q421.26562 401.84064 420.53125 401.84064Q419.3125 401.84064 418.67188 401.34064Q418.04688 400.825 417.875 399.84064ZM429.5 400.3094L429.5 397.95L427.17188 397.95L427.17188 396.96564L429.5 396.96564L429.5 394.6375L430.5 394.6375L430.5 396.96564L432.84375 396.96564L432.84375 397.95L430.5 397.95L430.5 400.3094L429.5 400.3094ZM437.39062 401.7L437.39062 393.10626L439.10938 393.10626L441.14062 399.1844Q441.42188 400.04376 441.54688 400.46564Q441.6875 399.9969 442.0 399.09064L444.0625 393.10626L445.59375 393.10626L445.59375 401.7L444.5 401.7L444.5 394.5125L442.0 401.7L440.96875 401.7L438.48438 394.3875L438.48438 401.7L437.39062 401.7ZM451.54688 399.7L452.64062 399.825Q452.39062 400.77814 451.6875 401.3094Q450.98438 401.84064 449.90625 401.84064Q448.54688 401.84064 447.73438 400.9969Q446.9375 400.15314 446.9375 398.6375Q446.9375 397.075 447.75 396.21564Q448.5625 395.34064 449.84375 395.34064Q451.09375 395.34064 451.875 396.1844Q452.67188 397.02814 452.67188 398.575Q452.67188 398.66876 452.67188 398.85626L448.03125 398.85626Q448.09375 399.8875 448.60938 400.4344Q449.125 400.96564 449.90625 400.96564Q450.48438 400.96564 450.89062 400.66876Q451.3125 400.35626 451.54688 399.7ZM448.09375 397.9969L451.5625 397.9969Q451.5 397.2 451.17188 396.8094Q450.65625 396.2 449.85938 396.2Q449.125 396.2 448.625 396.6844Q448.14062 397.16876 448.09375 397.9969ZM458.32812 401.7L458.32812 400.91876Q457.73438 401.84064 456.59375 401.84064Q455.84375 401.84064 455.21875 401.4344Q454.59375 401.0125 454.25 400.27814Q453.90625 399.54376 453.90625 398.59064Q453.90625 397.66876 454.21875 396.90314Q454.53125 396.1375 455.15625 395.7469Q455.78125 395.34064 456.54688 395.34064Q457.10938 395.34064 457.54688 395.575Q457.98438 395.8094 458.26562 396.1844L458.26562 393.10626L459.3125 393.10626L459.3125 401.7L458.32812 401.7ZM455.0 398.59064Q455.0 399.79376 455.5 400.3875Q456.0 400.96564 456.6875 400.96564Q457.375 400.96564 457.85938 400.40314Q458.34375 399.84064 458.34375 398.6844Q458.34375 397.40314 457.84375 396.8094Q457.35938 396.21564 456.64062 396.21564Q455.9375 396.21564 455.46875 396.79376Q455.0 397.35626 455.0 398.59064ZM461.29688 394.325L461.29688 393.10626L462.35938 393.10626L462.35938 394.325L461.29688 394.325ZM461.29688 401.7L461.29688 395.48126L462.35938 395.48126L462.35938 401.7L461.29688 401.7ZM468.35938 400.9344Q467.76562 401.4344 467.21875 401.6375Q466.6875 401.84064 466.0625 401.84064Q465.03125 401.84064 464.48438 401.34064Q463.9375 400.84064 463.9375 400.0594Q463.9375 399.60626 464.14062 399.23126Q464.34375 398.84064 464.6875 398.6219Q465.03125 398.3875 465.45312 398.27814Q465.75 398.1844 466.39062 398.10626Q467.65625 397.96564 468.26562 397.7469Q468.26562 397.52814 468.26562 397.48126Q468.26562 396.825 467.96875 396.5594Q467.5625 396.21564 466.76562 396.21564Q466.03125 396.21564 465.67188 396.48126Q465.3125 396.73126 465.14062 397.3875L464.10938 397.2469Q464.25 396.59064 464.57812 396.1844Q464.90625 395.77814 465.51562 395.5594Q466.125 395.34064 466.92188 395.34064Q467.71875 395.34064 468.21875 395.52814Q468.71875 395.71564 468.95312 395.9969Q469.1875 396.27814 469.28125 396.71564Q469.32812 396.98126 469.32812 397.6844L469.32812 399.09064Q469.32812 400.5594 469.39062 400.95Q469.46875 401.34064 469.67188 401.7L468.5625 401.7Q468.40625 401.3719 468.35938 400.9344ZM468.26562 398.575Q467.6875 398.8094 466.54688 398.98126Q465.89062 399.075 465.625 399.2Q465.35938 399.3094 465.20312 399.52814Q465.0625 399.7469 465.0625 400.02814Q465.0625 400.45 465.375 400.73126Q465.70312 401.0125 466.3125 401.0125Q466.92188 401.0125 467.39062 400.7469Q467.875 400.48126 468.09375 400.0125Q468.26562 399.65314 468.26562 398.96564L468.26562 398.575ZM473.59375 400.7625L473.75 401.6844Q473.29688 401.77814 472.95312 401.77814Q472.375 401.77814 472.0625 401.60626Q471.75 401.41876 471.60938 401.1219Q471.48438 400.825 471.48438 399.8719L471.48438 396.29376L470.71875 396.29376L470.71875 395.48126L471.48438 395.48126L471.48438 393.9344L472.53125 393.3094L472.53125 395.48126L473.59375 395.48126L473.59375 396.29376L472.53125 396.29376L472.53125 399.9344Q472.53125 400.3875 472.57812 400.5125Q472.64062 400.6375 472.76562 400.71564Q472.89062 400.79376 473.125 400.79376Q473.3125 400.79376 473.59375 400.7625ZM474.29688 394.325L474.29688 393.10626L475.35938 393.10626L475.35938 394.325L474.29688 394.325ZM474.29688 401.7L474.29688 395.48126L475.35938 395.48126L475.35938 401.7L474.29688 401.7ZM476.90625 398.59064Q476.90625 396.85626 477.85938 396.02814Q478.65625 395.34064 479.8125 395.34064Q481.09375 395.34064 481.90625 396.1844Q482.73438 397.0125 482.73438 398.4969Q482.73438 399.7 482.375 400.3875Q482.01562 401.075 481.3125 401.46564Q480.625 401.84064 479.8125 401.84064Q478.51562 401.84064 477.70312 401.0125Q476.90625 400.16876 476.90625 398.59064ZM477.98438 398.59064Q477.98438 399.77814 478.5 400.3719Q479.03125 400.96564 479.8125 400.96564Q480.60938 400.96564 481.125 400.3719Q481.64062 399.77814 481.64062 398.5594Q481.64062 397.40314 481.10938 396.8094Q480.59375 396.21564 479.8125 396.21564Q479.03125 396.21564 478.5 396.8094Q477.98438 397.3875 477.98438 398.59064ZM484.29688 401.7L484.29688 395.48126L485.23438 395.48126L485.23438 396.35626Q485.92188 395.34064 487.21875 395.34064Q487.78125 395.34064 488.25 395.54376Q488.73438 395.7469 488.96875 396.075Q489.20312 396.40314 489.29688 396.84064Q489.34375 397.1375 489.34375 397.8719L489.34375 401.7L488.29688 401.7L488.29688 397.91876Q488.29688 397.2625 488.17188 396.95Q488.04688 396.6375 487.73438 396.45Q487.42188 396.2469 487.0 396.2469Q486.32812 396.2469 485.82812 396.6844Q485.34375 397.10626 485.34375 398.29376L485.34375 401.7L484.29688 401.7ZM494.29688 404.09064L494.29688 395.48126L495.25 395.48126L495.25 396.27814Q495.59375 395.8094 496.01562 395.575Q496.45312 395.34064 497.0625 395.34064Q497.85938 395.34064 498.46875 395.7469Q499.07812 396.15314 499.375 396.90314Q499.6875 397.65314 499.6875 398.54376Q499.6875 399.4969 499.34375 400.2625Q499.01562 401.02814 498.35938 401.4344Q497.70312 401.84064 496.98438 401.84064Q496.45312 401.84064 496.03125 401.6219Q495.60938 401.3875 495.34375 401.0594L495.34375 404.09064L494.29688 404.09064ZM495.25 398.6219Q495.25 399.825 495.73438 400.40314Q496.21875 400.96564 496.90625 400.96564Q497.60938 400.96564 498.10938 400.3719Q498.60938 399.77814 498.60938 398.52814Q498.60938 397.34064 498.125 396.7625Q497.64062 396.16876 496.95312 396.16876Q496.28125 396.16876 495.76562 396.79376Q495.25 397.41876 495.25 398.6219ZM500.90625 398.59064Q500.90625 396.85626 501.85938 396.02814Q502.65625 395.34064 503.8125 395.34064Q505.09375 395.34064 505.90625 396.1844Q506.73438 397.0125 506.73438 398.4969Q506.73438 399.7 506.375 400.3875Q506.01562 401.075 505.3125 401.46564Q504.625 401.84064 503.8125 401.84064Q502.51562 401.84064 501.70312 401.0125Q500.90625 400.16876 500.90625 398.59064ZM501.98438 398.59064Q501.98438 399.77814 502.5 400.3719Q503.03125 400.96564 503.8125 400.96564Q504.60938 400.96564 505.125 400.3719Q505.64062 399.77814 505.64062 398.5594Q505.64062 397.40314 505.10938 396.8094Q504.59375 396.21564 503.8125 396.21564Q503.03125 396.21564 502.5 396.8094Q501.98438 397.3875 501.98438 398.59064ZM508.26562 401.7L508.26562 393.10626L509.32812 393.10626L509.32812 401.7L508.26562 401.7ZM511.29688 394.325L511.29688 393.10626L512.3594 393.10626L512.3594 394.325L511.29688 394.325ZM511.29688 401.7L511.29688 395.48126L512.3594 395.48126L512.3594 401.7L511.29688 401.7ZM518.3594 399.41876L519.3906 399.5594Q519.21875 400.6219 518.5156 401.23126Q517.8125 401.84064 516.7969 401.84064Q515.5156 401.84064 514.7344 401.0125Q513.96875 400.16876 513.96875 398.60626Q513.96875 397.60626 514.2969 396.85626Q514.6406 396.09064 515.3125 395.71564Q516.0 395.34064 516.8125 395.34064Q517.8125 395.34064 518.4531 395.85626Q519.1094 396.35626 519.2969 397.3094L518.2656 397.46564Q518.125 396.84064 517.75 396.52814Q517.375 396.2 516.84375 396.2Q516.0469 396.2 515.5469 396.77814Q515.0469 397.34064 515.0469 398.575Q515.0469 399.84064 515.53125 400.40314Q516.0156 400.96564 516.78125 400.96564Q517.40625 400.96564 517.8125 400.59064Q518.2344 400.21564 518.3594 399.41876ZM520.25 404.09064L520.125 403.10626Q520.46875 403.2 520.7344 403.2Q521.0781 403.2 521.28125 403.075Q521.5 402.96564 521.6406 402.7625Q521.7344 402.59064 521.96875 401.96564Q521.9844 401.8875 522.0625 401.71564L519.6875 395.48126L520.8281 395.48126L522.125 399.075Q522.375 399.7625 522.5781 400.52814Q522.7656 399.79376 523.0156 399.10626L524.34375 395.48126L525.3906 395.48126L523.03125 401.8094Q522.6406 402.825 522.4375 403.21564Q522.15625 403.7469 521.78125 403.98126Q521.4219 404.23126 520.9219 404.23126Q520.625 404.23126 520.25 404.09064Z" fill-rule="nonzero"/><path fill="#444746" d="M215.1875 40.3L215.1875 27.675L210.46875 27.675L210.46875 25.9875L221.8125 25.9875L221.8125 27.675L217.07812 27.675L217.07812 40.3L215.1875 40.3ZM223.3125 40.3L223.3125 25.9875L225.07812 25.9875L225.07812 31.1125Q226.3125 29.690624 228.1875 29.690624Q229.32812 29.690624 230.17188 30.14375Q231.03125 30.596874 231.39062 31.409374Q231.76562 32.20625 231.76562 33.721874L231.76562 40.3L230.01562 40.3L230.01562 33.721874Q230.01562 32.409374 229.4375 31.815624Q228.85938 31.20625 227.82812 31.20625Q227.04688 31.20625 226.34375 31.6125Q225.65625 32.01875 225.35938 32.721874Q225.07812 33.409374 225.07812 34.628124L225.07812 40.3L223.3125 40.3ZM234.29688 40.3L234.29688 29.925L235.875 29.925L235.875 31.503124Q236.48438 30.39375 237.0 30.05Q237.51562 29.690624 238.125 29.690624Q239.01562 29.690624 239.9375 30.253124L239.32812 31.89375Q238.6875 31.503124 238.04688 31.503124Q237.46875 31.503124 237.0 31.8625Q236.54688 32.20625 236.34375 32.815624Q236.0625 33.753124 236.0625 34.8625L236.0625 40.3L234.29688 40.3ZM240.67188 35.1125Q240.67188 32.2375 242.26562 30.846874Q243.60938 29.690624 245.53125 29.690624Q247.67188 29.690624 249.01562 31.096874Q250.375 32.503124 250.375 34.971874Q250.375 36.971874 249.78125 38.128124Q249.1875 39.26875 248.03125 39.909374Q246.89062 40.534374 245.53125 40.534374Q243.34375 40.534374 242.0 39.14375Q240.67188 37.7375 240.67188 35.1125ZM242.46875 35.1125Q242.46875 37.1125 243.32812 38.096874Q244.20312 39.08125 245.53125 39.08125Q246.84375 39.08125 247.70312 38.096874Q248.57812 37.096874 248.57812 35.05Q248.57812 33.128124 247.70312 32.14375Q246.82812 31.14375 245.53125 31.14375Q244.20312 31.14375 243.32812 32.14375Q242.46875 33.128124 242.46875 35.1125ZM259.10938 40.3L259.10938 38.76875Q257.90625 40.534374 255.82812 40.534374Q254.90625 40.534374 254.10938 40.190624Q253.3125 39.83125 252.92188 39.3Q252.54688 38.76875 252.39062 37.9875Q252.28125 37.471874 252.28125 36.346874L252.28125 29.925L254.03125 29.925L254.03125 35.675Q254.03125 37.05 254.14062 37.534374Q254.3125 38.221874 254.84375 38.628124Q255.39062 39.01875 256.17188 39.01875Q256.96875 39.01875 257.65625 38.6125Q258.35938 38.20625 258.64062 37.51875Q258.9375 36.815624 258.9375 35.4875L258.9375 29.925L260.6875 29.925L260.6875 40.3L259.10938 40.3ZM263.0 41.159374L264.70312 41.409374Q264.8125 42.20625 265.29688 42.565624Q265.95312 43.05 267.09375 43.05Q268.3125 43.05 268.96875 42.565624Q269.64062 42.08125 269.875 41.20625Q270.01562 40.659374 270.0 38.940624Q268.84375 40.3 267.125 40.3Q264.98438 40.3 263.8125 38.753124Q262.64062 37.20625 262.64062 35.05Q262.64062 33.565624 263.17188 32.315624Q263.71875 31.065624 264.73438 30.378124Q265.76562 29.690624 267.14062 29.690624Q268.96875 29.690624 270.17188 31.175L270.17188 29.925L271.78125 29.925L271.78125 38.89375Q271.78125 41.315624 271.28125 42.315624Q270.79688 43.33125 269.71875 43.909374Q268.65625 44.503124 267.09375 44.503124Q265.25 44.503124 264.09375 43.675Q262.95312 42.846874 263.0 41.159374ZM264.45312 34.925Q264.45312 36.971874 265.26562 37.909374Q266.07812 38.846874 267.29688 38.846874Q268.5 38.846874 269.3125 37.909374Q270.14062 36.971874 270.14062 34.9875Q270.14062 33.08125 269.29688 32.1125Q268.45312 31.14375 267.26562 31.14375Q266.09375 31.14375 265.26562 32.096874Q264.45312 33.05 264.45312 34.925ZM274.3125 40.3L274.3125 25.9875L276.07812 25.9875L276.07812 31.1125Q277.3125 29.690624 279.1875 29.690624Q280.32812 29.690624 281.17188 30.14375Q282.03125 30.596874 282.39062 31.409374Q282.76562 32.20625 282.76562 33.721874L282.76562 40.3L281.01562 40.3L281.01562 33.721874Q281.01562 32.409374 280.4375 31.815624Q279.85938 31.20625 278.82812 31.20625Q278.04688 31.20625 277.34375 31.6125Q276.65625 32.01875 276.35938 32.721874Q276.07812 33.409374 276.07812 34.628124L276.07812 40.3L274.3125 40.3ZM285.3125 44.26875L285.3125 29.925L286.92188 29.925L286.92188 31.26875Q287.48438 30.4875 288.1875 30.096874Q288.90625 29.690624 289.92188 29.690624Q291.25 29.690624 292.26562 30.378124Q293.28125 31.065624 293.79688 32.315624Q294.32812 33.55 294.32812 35.034374Q294.32812 36.628124 293.75 37.909374Q293.1875 39.175 292.09375 39.8625Q291.0 40.534374 289.79688 40.534374Q288.92188 40.534374 288.21875 40.159374Q287.53125 39.784374 287.07812 39.221874L287.07812 44.26875L285.3125 44.26875ZM286.90625 35.175Q286.90625 37.175 287.71875 38.128124Q288.53125 39.08125 289.6875 39.08125Q290.85938 39.08125 291.6875 38.096874Q292.53125 37.1125 292.53125 35.01875Q292.53125 33.05 291.70312 32.065624Q290.89062 31.065624 289.76562 31.065624Q288.64062 31.065624 287.76562 32.128124Q286.90625 33.175 286.90625 35.175ZM303.10938 40.3L303.10938 38.76875Q301.90625 40.534374 299.82812 40.534374Q298.90625 40.534374 298.10938 40.190624Q297.3125 39.83125 296.92188 39.3Q296.54688 38.76875 296.39062 37.9875Q296.28125 37.471874 296.28125 36.346874L296.28125 29.925L298.03125 29.925L298.03125 35.675Q298.03125 37.05 298.14062 37.534374Q298.3125 38.221874 298.84375 38.628124Q299.39062 39.01875 300.17188 39.01875Q300.96875 39.01875 301.65625 38.6125Q302.35938 38.20625 302.64062 37.51875Q302.9375 36.815624 302.9375 35.4875L302.9375 29.925L304.6875 29.925L304.6875 40.3L303.10938 40.3ZM311.15625 38.721874L311.40625 40.284374Q310.67188 40.440624 310.07812 40.440624Q309.125 40.440624 308.59375 40.14375Q308.07812 39.83125 307.85938 39.346874Q307.64062 38.846874 307.64062 37.26875L307.64062 31.3L306.35938 31.3L306.35938 29.925L307.64062 29.925L307.64062 27.3625L309.39062 26.3L309.39062 29.925L311.15625 29.925L311.15625 31.3L309.39062 31.3L309.39062 37.3625Q309.39062 38.1125 309.48438 38.33125Q309.57812 38.534374 309.78125 38.675Q310.0 38.8 310.39062 38.8Q310.67188 38.8 311.15625 38.721874ZM322.20312 40.3L318.25 29.925L320.10938 29.925L322.34375 36.14375Q322.70312 37.14375 323.0 38.221874Q323.23438 37.409374 323.65625 36.253124L325.95312 29.925L327.76562 29.925L323.84375 40.3L322.20312 40.3ZM328.60938 37.20625L330.35938 36.925Q330.5 37.971874 331.17188 38.534374Q331.84375 39.08125 333.04688 39.08125Q334.25 39.08125 334.82812 38.596874Q335.42188 38.096874 335.42188 37.440624Q335.42188 36.846874 334.90625 36.503124Q334.54688 36.26875 333.10938 35.909374Q331.17188 35.409374 330.42188 35.065624Q329.6875 34.70625 329.29688 34.08125Q328.90625 33.440624 328.90625 32.675Q328.90625 31.9875 329.21875 31.39375Q329.54688 30.8 330.09375 30.409374Q330.5 30.1125 331.20312 29.909374Q331.92188 29.690624 332.73438 29.690624Q333.95312 29.690624 334.875 30.05Q335.79688 30.39375 336.23438 31.003124Q336.67188 31.596874 336.84375 32.596874L335.125 32.83125Q335.0 32.034374 334.4375 31.596874Q333.875 31.14375 332.85938 31.14375Q331.64062 31.14375 331.125 31.55Q330.60938 31.940624 330.60938 32.471874Q330.60938 32.815624 330.82812 33.096874Q331.03125 33.378124 331.5 33.565624Q331.76562 33.659374 333.04688 34.003124Q334.92188 34.503124 335.65625 34.83125Q336.39062 35.14375 336.8125 35.753124Q337.23438 36.346874 337.23438 37.253124Q337.23438 38.128124 336.71875 38.909374Q336.20312 39.690624 335.23438 40.1125Q334.26562 40.534374 333.04688 40.534374Q331.03125 40.534374 329.96875 39.690624Q328.90625 38.846874 328.60938 37.20625ZM355.76562 35.284374L357.65625 35.753124Q357.0625 38.096874 355.51562 39.33125Q353.96875 40.55 351.71875 40.55Q349.40625 40.55 347.95312 39.6125Q346.51562 38.659374 345.75 36.878124Q345.0 35.08125 345.0 33.034374Q345.0 30.8 345.84375 29.14375Q346.70312 27.471874 348.28125 26.6125Q349.85938 25.7375 351.75 25.7375Q353.90625 25.7375 355.35938 26.83125Q356.82812 27.925 357.40625 29.909374L355.54688 30.346874Q355.04688 28.784374 354.09375 28.08125Q353.15625 27.3625 351.71875 27.3625Q350.0625 27.3625 348.95312 28.159374Q347.84375 28.940624 347.39062 30.284374Q346.95312 31.6125 346.95312 33.01875Q346.95312 34.846874 347.48438 36.221874Q348.01562 37.58125 349.14062 38.253124Q350.26562 38.925 351.5625 38.925Q353.15625 38.925 354.26562 38.003124Q355.375 37.08125 355.76562 35.284374ZM358.67188 35.1125Q358.67188 32.2375 360.26562 30.846874Q361.60938 29.690624 363.53125 29.690624Q365.67188 29.690624 367.01562 31.096874Q368.375 32.503124 368.375 34.971874Q368.375 36.971874 367.78125 38.128124Q367.1875 39.26875 366.03125 39.909374Q364.89062 40.534374 363.53125 40.534374Q361.34375 40.534374 360.0 39.14375Q358.67188 37.7375 358.67188 35.1125ZM360.46875 35.1125Q360.46875 37.1125 361.32812 38.096874Q362.20312 39.08125 363.53125 39.08125Q364.84375 39.08125 365.70312 38.096874Q366.57812 37.096874 366.57812 35.05Q366.57812 33.128124 365.70312 32.14375Q364.82812 31.14375 363.53125 31.14375Q362.20312 31.14375 361.32812 32.14375Q360.46875 33.128124 360.46875 35.1125ZM370.3125 40.3L370.3125 29.925L371.90625 29.925L371.90625 31.409374Q373.04688 29.690624 375.20312 29.690624Q376.14062 29.690624 376.92188 30.034374Q377.71875 30.3625 378.10938 30.909374Q378.5 31.45625 378.65625 32.20625Q378.75 32.70625 378.75 33.925L378.75 40.3L376.98438 40.3L376.98438 33.9875Q376.98438 32.909374 376.78125 32.378124Q376.57812 31.846874 376.04688 31.534374Q375.53125 31.221874 374.82812 31.221874Q373.70312 31.221874 372.89062 31.940624Q372.07812 32.64375 372.07812 34.628124L372.07812 40.3L370.3125 40.3ZM388.09375 36.503124L389.8125 36.721874Q389.53125 38.51875 388.35938 39.534374Q387.20312 40.534374 385.5 40.534374Q383.375 40.534374 382.07812 39.14375Q380.78125 37.753124 380.78125 35.159374Q380.78125 33.471874 381.32812 32.221874Q381.89062 30.95625 383.03125 30.33125Q384.17188 29.690624 385.51562 29.690624Q387.20312 29.690624 388.26562 30.55Q389.34375 31.409374 389.65625 32.971874L387.9375 33.2375Q387.70312 32.190624 387.07812 31.675Q386.45312 31.14375 385.57812 31.14375Q384.25 31.14375 383.42188 32.096874Q382.59375 33.05 382.59375 35.096874Q382.59375 37.190624 383.39062 38.14375Q384.1875 39.08125 385.48438 39.08125Q386.51562 39.08125 387.20312 38.45625Q387.90625 37.815624 388.09375 36.503124ZM398.10938 40.3L398.10938 38.76875Q396.90625 40.534374 394.82812 40.534374Q393.90625 40.534374 393.10938 40.190624Q392.3125 39.83125 391.92188 39.3Q391.54688 38.76875 391.39062 37.9875Q391.28125 37.471874 391.28125 36.346874L391.28125 29.925L393.03125 29.925L393.03125 35.675Q393.03125 37.05 393.14062 37.534374Q393.3125 38.221874 393.84375 38.628124Q394.39062 39.01875 395.17188 39.01875Q395.96875 39.01875 396.65625 38.6125Q397.35938 38.20625 397.64062 37.51875Q397.9375 36.815624 397.9375 35.4875L397.9375 29.925L399.6875 29.925L399.6875 40.3L398.10938 40.3ZM402.29688 40.3L402.29688 29.925L403.875 29.925L403.875 31.503124Q404.48438 30.39375 405.0 30.05Q405.51562 29.690624 406.125 29.690624Q407.01562 29.690624 407.9375 30.253124L407.32812 31.89375Q406.6875 31.503124 406.04688 31.503124Q405.46875 31.503124 405.0 31.8625Q404.54688 32.20625 404.34375 32.815624Q404.0625 33.753124 404.0625 34.8625L404.0625 40.3L402.29688 40.3ZM409.29688 40.3L409.29688 29.925L410.875 29.925L410.875 31.503124Q411.48438 30.39375 412.0 30.05Q412.51562 29.690624 413.125 29.690624Q414.01562 29.690624 414.9375 30.253124L414.32812 31.89375Q413.6875 31.503124 413.04688 31.503124Q412.46875 31.503124 412.0 31.8625Q411.54688 32.20625 411.34375 32.815624Q411.0625 33.753124 411.0625 34.8625L411.0625 40.3L409.29688 40.3ZM423.42188 36.95625L425.23438 37.190624Q424.8125 38.76875 423.64062 39.659374Q422.48438 40.534374 420.67188 40.534374Q418.40625 40.534374 417.0625 39.14375Q415.73438 37.7375 415.73438 35.20625Q415.73438 32.58125 417.07812 31.14375Q418.42188 29.690624 420.57812 29.690624Q422.65625 29.690624 423.96875 31.1125Q425.29688 32.51875 425.29688 35.096874Q425.29688 35.253124 425.28125 35.565624L417.54688 35.565624Q417.64062 37.26875 418.51562 38.175Q419.39062 39.08125 420.6875 39.08125Q421.65625 39.08125 422.32812 38.58125Q423.01562 38.065624 423.42188 36.95625ZM417.64062 34.1125L423.4375 34.1125Q423.32812 32.815624 422.78125 32.159374Q421.9375 31.14375 420.59375 31.14375Q419.39062 31.14375 418.5625 31.95625Q417.73438 32.753124 417.64062 34.1125ZM427.3125 40.3L427.3125 29.925L428.90625 29.925L428.90625 31.409374Q430.04688 29.690624 432.20312 29.690624Q433.14062 29.690624 433.92188 30.034374Q434.71875 30.3625 435.10938 30.909374Q435.5 31.45625 435.65625 32.20625Q435.75 32.70625 435.75 33.925L435.75 40.3L433.98438 40.3L433.98438 33.9875Q433.98438 32.909374 433.78125 32.378124Q433.57812 31.846874 433.04688 31.534374Q432.53125 31.221874 431.82812 31.221874Q430.70312 31.221874 429.89062 31.940624Q429.07812 32.64375 429.07812 34.628124L429.07812 40.3L427.3125 40.3ZM442.15625 38.721874L442.40625 40.284374Q441.67188 40.440624 441.07812 40.440624Q440.125 40.440624 439.59375 40.14375Q439.07812 39.83125 438.85938 39.346874Q438.64062 38.846874 438.64062 37.26875L438.64062 31.3L437.35938 31.3L437.35938 29.925L438.64062 29.925L438.64062 27.3625L440.39062 26.3L440.39062 29.925L442.15625 29.925L442.15625 31.3L440.39062 31.3L440.39062 37.3625Q440.39062 38.1125 440.48438 38.33125Q440.57812 38.534374 440.78125 38.675Q441.0 38.8 441.39062 38.8Q441.67188 38.8 442.15625 38.721874ZM459.9375 25.9875L461.82812 25.9875L461.82812 34.253124Q461.82812 36.409374 461.34375 37.690624Q460.85938 38.95625 459.57812 39.753124Q458.3125 40.55 456.23438 40.55Q454.21875 40.55 452.9375 39.8625Q451.67188 39.159374 451.125 37.846874Q450.57812 36.534374 450.57812 34.253124L450.57812 25.9875L452.46875 25.9875L452.46875 34.2375Q452.46875 36.1125 452.8125 37.003124Q453.15625 37.878124 454.0 38.3625Q454.84375 38.83125 456.07812 38.83125Q458.15625 38.83125 459.04688 37.89375Q459.9375 36.940624 459.9375 34.2375L459.9375 25.9875ZM463.60938 37.20625L465.35938 36.925Q465.5 37.971874 466.17188 38.534374Q466.84375 39.08125 468.04688 39.08125Q469.25 39.08125 469.82812 38.596874Q470.42188 38.096874 470.42188 37.440624Q470.42188 36.846874 469.90625 36.503124Q469.54688 36.26875 468.10938 35.909374Q466.17188 35.409374 465.42188 35.065624Q464.6875 34.70625 464.29688 34.08125Q463.90625 33.440624 463.90625 32.675Q463.90625 31.9875 464.21875 31.39375Q464.54688 30.8 465.09375 30.409374Q465.5 30.1125 466.20312 29.909374Q466.92188 29.690624 467.73438 29.690624Q468.95312 29.690624 469.875 30.05Q470.79688 30.39375 471.23438 31.003124Q471.67188 31.596874 471.84375 32.596874L470.125 32.83125Q470.0 32.034374 469.4375 31.596874Q468.875 31.14375 467.85938 31.14375Q466.64062 31.14375 466.125 31.55Q465.60938 31.940624 465.60938 32.471874Q465.60938 32.815624 465.82812 33.096874Q466.03125 33.378124 466.5 33.565624Q466.76562 33.659374 468.04688 34.003124Q469.92188 34.503124 470.65625 34.83125Q471.39062 35.14375 471.8125 35.753124Q472.23438 36.346874 472.23438 37.253124Q472.23438 38.128124 471.71875 38.909374Q471.20312 39.690624 470.23438 40.1125Q469.26562 40.534374 468.04688 40.534374Q466.03125 40.534374 464.96875 39.690624Q463.90625 38.846874 463.60938 37.20625ZM481.42188 36.95625L483.23438 37.190624Q482.8125 38.76875 481.64062 39.659374Q480.48438 40.534374 478.67188 40.534374Q476.40625 40.534374 475.0625 39.14375Q473.73438 37.7375 473.73438 35.20625Q473.73438 32.58125 475.07812 31.14375Q476.42188 29.690624 478.57812 29.690624Q480.65625 29.690624 481.96875 31.1125Q483.29688 32.51875 483.29688 35.096874Q483.29688 35.253124 483.28125 35.565624L475.54688 35.565624Q475.64062 37.26875 476.51562 38.175Q477.39062 39.08125 478.6875 39.08125Q479.65625 39.08125 480.32812 38.58125Q481.01562 38.065624 481.42188 36.95625ZM475.64062 34.1125L481.4375 34.1125Q481.32812 32.815624 480.78125 32.159374Q479.9375 31.14375 478.59375 31.14375Q477.39062 31.14375 476.5625 31.95625Q475.73438 32.753124 475.64062 34.1125ZM485.29688 40.3L485.29688 29.925L486.875 29.925L486.875 31.503124Q487.48438 30.39375 488.0 30.05Q488.51562 29.690624 489.125 29.690624Q490.01562 29.690624 490.9375 30.253124L490.32812 31.89375Q489.6875 31.503124 489.04688 31.503124Q488.46875 31.503124 488.0 31.8625Q487.54688 32.20625 487.34375 32.815624Q487.0625 33.753124 487.0625 34.8625L487.0625 40.3L485.29688 40.3ZM491.60938 37.20625L493.35938 36.925Q493.5 37.971874 494.17188 38.534374Q494.84375 39.08125 496.04688 39.08125Q497.25 39.08125 497.82812 38.596874Q498.42188 38.096874 498.42188 37.440624Q498.42188 36.846874 497.90625 36.503124Q497.54688 36.26875 496.10938 35.909374Q494.17188 35.409374 493.42188 35.065624Q492.6875 34.70625 492.29688 34.08125Q491.90625 33.440624 491.90625 32.675Q491.90625 31.9875 492.21875 31.39375Q492.54688 30.8 493.09375 30.409374Q493.5 30.1125 494.20312 29.909374Q494.92188 29.690624 495.73438 29.690624Q496.95312 29.690624 497.875 30.05Q498.79688 30.39375 499.23438 31.003124Q499.67188 31.596874 499.84375 32.596874L498.125 32.83125Q498.0 32.034374 497.4375 31.596874Q496.875 31.14375 495.85938 31.14375Q494.64062 31.14375 494.125 31.55Q493.60938 31.940624 493.60938 32.471874Q493.60938 32.815624 493.82812 33.096874Q494.03125 33.378124 494.5 33.565624Q494.76562 33.659374 496.04688 34.003124Q497.92188 34.503124 498.65625 34.83125Q499.39062 35.14375 499.8125 35.753124Q500.23438 36.346874 500.23438 37.253124Q500.23438 38.128124 499.71875 38.909374Q499.20312 39.690624 498.23438 40.1125Q497.26562 40.534374 496.04688 40.534374Q494.03125 40.534374 492.96875 39.690624Q491.90625 38.846874 491.60938 37.20625Z" fill-rule="nonzero"/></svg>