<svg version="1.1" id="Layer_1" xmlns="http://www.w3.org/2000/svg" xmlns:xlink="http://www.w3.org/1999/xlink" x="0px" y="0px"
	 width="100%" viewBox="0 0 200 200" enable-background="new 0 0 200 200" xml:space="preserve">
<path fill="#FEFEFE" opacity="0.000000" stroke="none" 
	d="
M120.000000,201.000000 
	C80.024696,201.000000 40.549400,201.000000 1.037050,201.000000 
	C1.037050,134.399734 1.037050,67.799454 1.037050,1.099581 
	C67.558464,1.099581 134.117126,1.099581 200.837891,1.099581 
	C200.837891,67.666351 200.837891,134.333145 200.837891,201.000000 
	C174.133072,201.000000 147.316528,201.000000 120.000000,201.000000 
M112.196625,183.407135 
	C114.437065,182.450790 117.869911,182.024994 118.595337,180.394577 
	C119.380295,178.630341 118.224297,175.318665 116.866249,173.439880 
	C114.649834,170.373566 111.779823,167.680344 108.824501,165.272949 
	C105.234978,162.348938 105.306549,160.302277 108.683586,156.984543 
	C127.223869,138.769791 145.610687,120.396072 163.871033,101.900047 
	C177.879288,87.710968 173.788956,64.375137 155.768127,56.404530 
	C151.082382,54.332031 145.617981,54.020008 140.423859,52.880211 
	C140.161743,50.078110 140.256027,46.698715 139.483124,43.530903 
	C134.211792,21.925997 108.283569,14.767570 92.210411,30.608397 
	C71.562759,50.957588 51.169086,71.564499 30.676628,92.071007 
	C29.857561,92.890633 28.513927,93.816704 28.510239,94.697777 
	C28.500633,96.993523 28.339449,100.100014 29.675163,101.358269 
	C30.970783,102.578773 34.114883,102.274895 36.327408,101.911392 
	C37.552494,101.710129 38.561600,100.044441 39.618053,98.988808 
	C59.536224,79.085907 79.472618,59.201115 99.338638,39.246262 
	C103.591003,34.974884 108.483681,32.469734 114.536308,33.410542 
	C121.324341,34.465656 126.119873,38.297424 128.233246,44.971523 
	C130.345291,51.641483 128.599274,57.425102 123.709091,62.318680 
	C108.869652,77.168442 94.021393,92.009384 79.180901,106.858093 
	C78.121811,107.917763 76.360352,108.919914 76.210793,110.110291 
	C75.897163,112.606682 75.572418,115.940308 76.912560,117.534004 
	C77.939552,118.755295 81.580772,118.185219 83.924728,117.725647 
	C85.152771,117.484863 86.099289,115.775536 87.159378,114.715843 
	C102.006729,99.874046 116.781303,84.958488 131.727325,70.216751 
	C139.087341,62.957352 149.320053,63.110275 156.198593,70.205528 
	C162.928574,77.147530 162.729782,87.000626 155.647629,94.314339 
	C152.286835,97.785011 148.824036,101.156914 145.407455,104.573547 
	C129.973877,120.007332 114.512314,135.413269 99.121162,150.889236 
	C93.343727,156.698517 92.442169,163.750290 97.267845,169.198212 
	C101.661438,174.158310 106.735970,178.515228 112.196625,183.407135 
M118.510239,115.010239 
	C128.054001,105.463982 137.699020,96.014709 147.034454,86.268898 
	C148.465515,84.774925 149.259613,81.760216 148.867981,79.735115 
	C148.583252,78.262871 145.840149,76.274178 144.226028,76.303871 
	C142.241882,76.340385 139.925842,77.866043 138.384201,79.387383 
	C123.794716,93.784775 109.357437,108.336273 94.822235,122.789001 
	C93.068565,124.532722 91.176842,126.285645 89.035339,127.464149 
	C81.963326,131.356018 72.965553,129.225159 68.003555,122.741844 
	C63.008389,116.215202 63.502602,106.945564 69.514626,100.873604 
	C84.639915,85.597580 99.879234,70.434319 115.101456,55.254547 
	C117.899055,52.464748 119.462044,49.380844 116.240135,46.173927 
	C113.077324,43.025822 110.011436,44.377811 107.166557,47.238022 
	C92.006409,62.479893 76.712662,77.589371 61.606483,92.884254 
	C50.492870,104.136696 50.569805,121.352989 61.537132,132.363342 
	C72.509117,143.378357 89.759972,143.459579 101.030472,132.467712 
	C106.756630,126.883125 112.354416,121.166931 118.510239,115.010239 
z"/>
<path fill="#050505" opacity="1.000000" stroke="none"
	d="
M111.853485,183.272583 
	C106.735970,178.515228 101.661438,174.158310 97.267845,169.198212 
	C92.442169,163.750290 93.343727,156.698517 99.121162,150.889236 
	C114.512314,135.413269 129.973877,120.007332 145.407455,104.573547 
	C148.824036,101.156914 152.286835,97.785011 155.647629,94.314339 
	C162.729782,87.000626 162.928574,77.147530 156.198593,70.205528 
	C149.320053,63.110275 139.087341,62.957352 131.727325,70.216751 
	C116.781303,84.958488 102.006729,99.874046 87.159378,114.715843 
	C86.099289,115.775536 85.152771,117.484863 83.924728,117.725647 
	C81.580772,118.185219 77.939552,118.755295 76.912560,117.534004 
	C75.572418,115.940308 75.897163,112.606682 76.210793,110.110291 
	C76.360352,108.919914 78.121811,107.917763 79.180901,106.858093 
	C94.021393,92.009384 108.869652,77.168442 123.709091,62.318680 
	C128.599274,57.425102 130.345291,51.641483 128.233246,44.971523 
	C126.119873,38.297424 121.324341,34.465656 114.536308,33.410542 
	C108.483681,32.469734 103.591003,34.974884 99.338638,39.246262 
	C79.472618,59.201115 59.536224,79.085907 39.618053,98.988808 
	C38.561600,100.044441 37.552494,101.710129 36.327408,101.911392 
	C34.114883,102.274895 30.970783,102.578773 29.675163,101.358269 
	C28.339449,100.100014 28.500633,96.993523 28.510239,94.697777 
	C28.513927,93.816704 29.857561,92.890633 30.676628,92.071007 
	C51.169086,71.564499 71.562759,50.957588 92.210411,30.608397 
	C108.283569,14.767570 134.211792,21.925997 139.483124,43.530903 
	C140.256027,46.698715 140.161743,50.078110 140.423859,52.880211 
	C145.617981,54.020008 151.082382,54.332031 155.768127,56.404530 
	C173.788956,64.375137 177.879288,87.710968 163.871033,101.900047 
	C145.610687,120.396072 127.223869,138.769791 108.683586,156.984543 
	C105.306549,160.302277 105.234978,162.348938 108.824501,165.272949 
	C111.779823,167.680344 114.649834,170.373566 116.866249,173.439880 
	C118.224297,175.318665 119.380295,178.630341 118.595337,180.394577 
	C117.869911,182.024994 114.437065,182.450790 111.853485,183.272583 
z"/>
<path fill="#060606" opacity="1.000000" stroke="none" 
	d="
M118.260239,115.260239 
	C112.354416,121.166931 106.756630,126.883125 101.030472,132.467712 
	C89.759972,143.459579 72.509117,143.378357 61.537132,132.363342 
	C50.569805,121.352989 50.492870,104.136696 61.606483,92.884254 
	C76.712662,77.589371 92.006409,62.479893 107.166557,47.238022 
	C110.011436,44.377811 113.077324,43.025822 116.240135,46.173927 
	C119.462044,49.380844 117.899055,52.464748 115.101456,55.254547 
	C99.879234,70.434319 84.639915,85.597580 69.514626,100.873604 
	C63.502602,106.945564 63.008389,116.215202 68.003555,122.741844 
	C72.965553,129.225159 81.963326,131.356018 89.035339,127.464149 
	C91.176842,126.285645 93.068565,124.532722 94.822235,122.789001 
	C109.357437,108.336273 123.794716,93.784775 138.384201,79.387383 
	C139.925842,77.866043 142.241882,76.340385 144.226028,76.303871 
	C145.840149,76.274178 148.583252,78.262871 148.867981,79.735115 
	C149.259613,81.760216 148.465515,84.774925 147.034454,86.268898 
	C137.699020,96.014709 128.054001,105.463982 118.260239,115.260239 
z"/>
</svg>