<svg width="1819" height="1814" viewBox="0 0 1819 1814" fill="none" xmlns="http://www.w3.org/2000/svg">
<path d="M1176.91 241.52C1178.11 240.325 1178.67 238.951 1178.17 238.451C1177.67 237.951 1176.3 238.515 1175.1 239.71C1173.91 240.905 1173.34 242.279 1173.84 242.779C1174.34 243.279 1175.72 242.715 1176.91 241.52Z" fill="white"/>
<path d="M1637.41 849.19L1372.77 849.82L1240.77 1087.25L911.59 284.66L615.4 944L180.1 943C181.84 978.833 186.151 1014.49 193 1049.71L684.3 1050.71L907.12 554.83L1226.31 1332.92L1435.59 956.35L1638.05 955.86C1639.05 939.6 1639.84 923.24 1639.84 906.72C1639.8 887.33 1638.87 868.2 1637.41 849.19Z" fill="#D4E8F6"/>
<path d="M1387 1312.88C1366.57 1257.39 1346.35 1203.88 1293.19 1167.23C1258.07 1143.05 1232.09 1105.95 1200.38 1076.39C1166.77 1045.06 1147.38 1009.91 1163.6 963.6C1180.25 916.14 1176.82 870.96 1153.66 826.66C1149.12 817.97 1142.76 807.91 1143.66 799.1C1146.09 774.54 1149.24 749.44 1156.86 726.1C1172.86 677.2 1190.71 628.82 1210.03 581.1C1224.34 545.79 1243.4 514.82 1287.24 507.53C1310.63 503.65 1320.54 477.3 1305.81 463.97C1297.12 456.09 1282.07 454.1 1269.46 451.91C1215.72 442.53 1203.77 422.08 1219.35 369.71C1225.41 349.33 1229.78 327.29 1228.56 306.37C1227.93 295.66 1215.1 282.79 1204.47 276.29C1191.47 268.37 1178.47 273.88 1166.96 285.98C1151.85 301.85 1135.96 318.82 1116.89 328.68C1060.42 357.94 1013.5 394.38 990.07 456.56C980.07 483.22 965.01 509.56 927.42 488.5C925.52 499.01 924.32 505.69 921.36 522.19C911.98 482.09 899.11 512.81 888.24 507.48C888.58 521.33 888.86 532.58 889.13 543.09L857.28 540.85C854.493 545.87 851.707 550.903 848.92 555.95L820.69 516.19L814.69 521.52L830.52 559.01L808.13 572.22L777.2 536.82L766.27 554.82L730.7 525.66C723.54 554.86 764.19 577.55 734.55 605.66C738.02 612.45 741.55 619.4 745.16 626.37C744.16 627.01 743.25 627.67 742.3 628.31L725.18 610.7L710.82 629.78C693.36 625.14 676.99 620.78 660.93 616.56C660.13 629.83 659.51 640.26 658.77 652.65L619.17 628.82C619.28 636.38 619.35 642.01 619.43 647.13L587 653.7C606.1 675.86 623.2 695.7 643.56 719.29L582 714.82C588 726.22 591.57 733.05 597.27 743.9L483.7 719.9C505.7 749.48 523.7 773.68 542.52 798.9L502.6 804.51L551.25 861.15C544.09 872.3 537.72 882.23 531.4 892.06C473.18 876 420.1 874.45 394.75 887.91L435.26 912.07L407.87 925.41C434.57 944.73 459.21 962.56 484.39 980.8L474.5 991.45C486.14 1013.34 521.04 997.85 532.09 1032C505.75 1024 486.42 1018.15 466.43 1012.09C465.12 1022.53 464.23 1029.65 463.32 1036.92L369.82 1021.92L439.9 1096.6L389.43 1091.74C412.82 1130.52 451.57 1145.37 480.93 1171.99C460.35 1195.56 433.23 1181.3 406.46 1185.31C418.87 1206.91 429.77 1225.91 439.77 1243.31L399.71 1263.49L437.24 1305.1L410 1302.93C415.48 1321.85 420.48 1339.06 426.82 1360.93L426.05 1361.14C401.93 1367.98 377.45 1371.14 356.88 1381.87C326.47 1397.7 295.11 1414.01 268.33 1435.07C284.37 1453.57 301.173 1471.38 318.74 1488.5C334.807 1476.25 350.873 1464.01 366.94 1451.78L372.13 1457.6L342.57 1486.85C345.99 1488.95 350.21 1490.31 352.57 1493.2C357.62 1499.54 361.72 1506.66 366.2 1513.46C359.73 1511.74 353.34 1509.3 346.77 1508.46C344.157 1508.13 341.547 1507.83 338.94 1507.56C473.15 1630.48 642.575 1708.14 823.3 1729.59C830.49 1719.17 839.35 1709.89 853.64 1704.59C879.58 1694.91 902.92 1678.1 927.14 1663.97C936.27 1658.64 944.77 1646.66 953.33 1646.89C989.4 1647.89 1025.41 1652.29 1062.33 1655.52C1061.33 1666.52 1057.59 1677.21 1060.18 1686.02C1063.92 1698.73 1067.79 1711.4 1071.78 1724.02C1165.2 1708.48 1255.43 1677.74 1338.91 1633.02C1340.29 1573.9 1336.42 1514.5 1301.72 1464.29C1299.48 1461.02 1297.1 1457.81 1294.59 1454.63C1246.18 1393.49 1193.59 1335.63 1141.32 1277.63C1118.54 1252.32 1092.21 1230.22 1067.02 1206.21L1097.02 1168.03C1150.12 1192.67 1202.84 1216.92 1255.25 1241.8C1259.71 1243.91 1263.14 1249.8 1265.36 1254.67C1272.2 1269.67 1277.03 1285.67 1284.85 1300.14C1294.85 1318.63 1284.85 1324.5 1269.77 1327.84C1260.63 1329.84 1251.18 1330.54 1240.89 1331.96C1254.67 1362.96 1266.02 1366.52 1299.98 1351.85C1300.92 1356.06 1301.38 1358.43 1301.98 1360.75C1303.98 1368.61 1305.98 1376.44 1307.98 1384.29C1315.59 1380.92 1325.24 1379.38 1330.37 1373.73C1338.56 1364.73 1343.74 1352.97 1350.21 1342.38C1352.43 1344.56 1354.64 1346.74 1356.85 1348.93C1359.78 1358.76 1362.7 1368.59 1365.78 1378.93C1395 1364.32 1399.55 1347 1387 1312.88Z" fill="#DDDDDD"/>
<path d="M791.13 552.79L911.6 284.66L972.13 432.22L986.1 466.28V466.29" stroke="#D4E8F6" stroke-width="3" stroke-miterlimit="10"/>
<path d="M429.4 943.56L180.1 943C181.836 978.833 186.147 1014.5 193 1049.71L466 1050.29H477L521.36 1050.38L684.22 1050.73L907.11 554.82L1190.85 1246.51L1226.3 1332.92L1256.95 1277.78L1297.31 1205.15L1435.59 956.35L1638.05 955.86C1639.05 939.6 1639.84 923.23 1639.84 906.72C1639.84 887.33 1638.84 868.2 1637.41 849.19L1372.76 849.83L1240.82 1087.26L1172.82 921.54" stroke="#D4E8F6" stroke-width="5" stroke-miterlimit="10"/>
<path d="M972.13 432.22V432.21L911.6 284.66L791.14 552.81" stroke="#D4E8F6" stroke-width="2" stroke-miterlimit="10"/>
<path d="M909.5 0.0996094C407.42 0.0996094 0.380005 406 0.380005 906.72C0.380005 1150.33 96.74 1371.51 253.53 1534.41C271.25 1552.8 289.74 1570.45 309 1587.36C316.253 1593.74 323.587 1599.99 331 1606.12C477.533 1726.96 658.322 1798.73 847.84 1811.28C868.207 1812.61 888.763 1813.3 909.51 1813.34C975.726 1813.38 1041.75 1806.22 1106.42 1792C1202.93 1770.74 1295.3 1733.81 1379.86 1682.68C1642.86 1523.81 1818.62 1235.68 1818.62 906.68C1818.62 406 1411.58 0.0996094 909.5 0.0996094ZM1332 1508.88C1208.96 1597.46 1061.14 1645.04 909.53 1644.88C718.23 1644.88 544.11 1570.54 413.91 1448.88C269.57 1314 179.21 1121 179.21 906.72C179.21 499.04 506.21 168.59 909.5 168.59C1312.79 168.59 1639.8 499 1639.8 906.72C1639.8 1155.27 1518.25 1375.12 1332 1508.88Z" fill="#DDDDDD"/>
</svg>
