<svg width="890" height="176" viewBox="0 0 890 176" fill="none" xmlns="http://www.w3.org/2000/svg">
<path d="M565.371 28.9707L565.298 28.8975C580.459 28.8975 592.617 33.7314 601.772 43.4727C610.928 53.2139 615.542 65.8848 615.542 81.4854C615.542 96.8662 611.001 109.464 601.846 119.278C592.69 129.093 580.532 134 565.371 134H519.741V28.9707H565.371ZM564.858 115.323L564.785 115.396C573.794 115.396 581.045 112.247 586.538 105.875C592.031 99.5029 594.814 91.2266 594.814 81.0459C594.814 71.0117 592.104 62.8818 586.611 56.6562C581.118 50.4307 573.867 47.3545 564.858 47.3545H540.103V115.323H564.858ZM666.812 136.124H666.665C654.946 136.124 645.278 132.315 637.588 124.625C629.897 116.935 626.089 107.413 626.089 95.9873C626.089 84.5615 629.971 75.04 637.661 67.4229C645.352 59.8057 655.02 55.9971 666.738 55.9971C678.457 55.9971 688.125 59.8057 695.815 67.4229C703.506 75.04 707.314 84.5615 707.314 95.9873C707.314 107.413 703.506 116.935 695.815 124.625C688.125 132.315 678.457 136.124 666.812 136.124ZM666.665 118.106C672.964 118.106 678.091 116.056 682.046 111.881C686.001 107.706 687.979 102.433 687.979 96.0605C687.979 89.6885 686.001 84.415 682.046 80.2402C678.091 76.0654 672.964 74.0146 666.665 74.0146C660.366 74.0146 655.239 76.0654 651.284 80.2402C647.329 84.415 645.352 89.6885 645.352 96.0605C645.352 102.433 647.329 107.706 651.284 111.881C655.239 116.056 660.366 118.106 666.665 118.106ZM758.071 136.124L757.705 136.344C746.06 136.344 736.465 132.462 728.848 124.771C721.23 117.081 717.422 107.486 717.422 96.0605C717.422 84.6348 721.23 75.1133 728.848 67.4961C736.465 59.8789 746.06 56.0703 757.559 56.0703C767.3 56.0703 775.503 58.6338 782.168 63.7607C788.833 68.8877 793.008 74.6006 794.692 80.9727L776.235 86.2461C775.356 82.8037 773.232 79.874 769.863 77.3838C766.494 74.8936 762.466 73.6484 757.705 73.6484C751.626 73.6484 746.646 75.8457 742.837 80.167C739.028 84.4883 737.124 89.7617 737.124 95.9873C737.124 102.066 739.028 107.34 742.91 111.808C746.792 116.275 751.772 118.473 757.852 118.473C762.539 118.473 766.567 117.301 770.01 114.884C773.452 112.467 775.576 109.61 776.455 106.314L794.912 111.441C793.228 117.96 789.126 123.673 782.534 128.653C775.942 133.634 767.812 136.124 758.071 136.124ZM840.688 136.124L840.469 136.051C831.46 136.051 823.55 133.707 816.738 129.093C809.927 124.479 805.532 118.985 803.555 112.613L821.426 107.413C822.744 111.148 825.161 114.151 828.677 116.495C832.192 118.839 836.367 120.011 841.274 120.011C845.01 120.011 848.013 119.278 850.356 117.74C852.7 116.202 853.872 114.371 853.872 112.174C853.872 108.878 851.089 106.388 845.449 104.703L826.113 98.9902C813.589 95.4014 807.363 88.6631 807.363 78.7754C807.363 72.4766 810.366 67.1299 816.299 62.6621C822.231 58.1943 829.409 55.9971 837.832 55.9971C845.815 55.9971 852.847 57.7549 858.853 61.2705C864.858 64.7861 869.106 69.4004 871.523 75.1865L853.945 80.3135C850.649 74.3809 845.229 71.4512 837.759 71.4512C834.756 71.4512 832.192 72.1104 830.068 73.502C827.944 74.8936 826.919 76.5049 826.919 78.3359C826.919 81.1191 829.043 83.0967 833.218 84.3418L852.114 89.7617C858.926 91.7393 864.199 94.3027 867.935 97.3789C871.67 100.455 873.501 105.069 873.501 111.295C873.501 118.473 870.425 124.405 864.272 129.093C858.12 133.78 850.283 136.124 840.688 136.124Z" fill="#6F9AB6"/>
<path d="M239.191 36.316C238.355 16.1069 221.717 0.000488281 201.305 0.000488281H100.513C80.3043 0.861525 64.1979 17.5251 64.1979 37.9367V81.6977H40.1142H39.2025C33.5298 81.2418 29.1993 76.7847 29.1993 71.4919V38.8991C36.1129 35.6322 40.8739 28.592 40.8739 20.4374C40.8739 9.168 31.7317 0.0258135 20.4623 0.0258135C9.19283 0.0258135 0 9.14267 0 20.4121C0 28.5666 4.76102 35.5816 11.6746 38.8738V71.6438L11.7 72.8847C12.3584 87.6743 24.8941 99.3489 40.0888 99.3489H64.1725V137.108V138.703C65.0336 158.912 81.6972 175.019 102.109 175.019H202.901C223.11 174.158 239.216 157.494 239.216 137.083V36.316H239.191ZM221.717 137.108V138.349C221.033 149.036 212.144 157.52 201.305 157.52H100.868C90.1809 156.836 81.6972 147.947 81.6972 137.108V36.6705C82.3809 25.9835 91.2699 17.4998 102.109 17.4998H201.305C212.575 17.4998 221.717 26.642 221.717 37.9114V137.108Z" fill="#1A4C6D"/>
<path d="M117.077 136.271V38.9741H158.077C164.18 38.9741 169.448 40.0631 173.88 42.241C178.312 44.4189 181.705 47.4579 184.06 51.3832C186.415 55.3085 187.58 59.9935 187.58 65.489C187.58 70.0981 186.39 74.3526 183.984 78.2273C181.578 82.1019 177.856 85.2169 172.816 87.572V80.9117C177.248 82.6591 180.869 84.8623 183.655 87.4961C186.441 90.1552 188.467 93.1435 189.733 96.4356C190.999 99.7532 191.632 103.223 191.632 106.895C191.632 116.037 188.644 123.229 182.693 128.446C176.716 133.663 168.511 136.271 158.077 136.271H117.077ZM132.474 77.7461H158.33C162.509 77.7461 165.852 76.5558 168.384 74.15C170.917 71.7442 172.183 68.6546 172.183 64.8052C172.183 60.9559 170.917 57.841 168.384 55.663C165.852 53.4851 162.509 52.3962 158.33 52.3962H132.474V77.7208V77.7461ZM132.474 122.545H159.242C164.383 122.545 168.486 121.127 171.575 118.291C174.665 115.454 176.21 111.706 176.21 106.996C176.21 102.286 174.665 98.5123 171.575 95.6253C168.486 92.7636 164.383 91.3201 159.242 91.3201H132.474V122.545Z" fill="#1A4C6D"/>
<path d="M265.352 43.1017V25.3745H279.23V43.1017H265.352ZM265.352 135.41V55.8147H279.23V135.41H265.352Z" fill="#1A4C6D"/>
<path d="M283.94 168.028C283.053 168.028 281.964 167.952 280.698 167.8C279.432 167.648 278.343 167.471 277.457 167.294V154.885C279.432 155.188 281.382 155.315 283.357 155.315C287.485 155.315 290.853 154.175 293.462 151.922C296.07 149.668 297.362 146.224 297.362 141.589V55.8147H311.24V141.614C311.24 147.312 310.049 152.124 307.694 156.024C305.339 159.924 302.072 162.887 297.944 164.964C293.816 167.04 289.131 168.053 283.914 168.053L283.94 168.028ZM297.387 43.1017V25.3745H311.265V43.1017H297.387Z" fill="#1A4C6D"/>
<path d="M329.423 43.1017V25.3745H343.301V43.1017H329.423ZM329.423 135.41V55.8147H343.301V135.41H329.423Z" fill="#1A4C6D"/>
<path d="M361.484 135.409V55.8141H375.058V70.4264L373.589 68.3498C375.463 63.8167 378.325 60.4485 382.149 58.2453C385.973 56.042 390.658 54.9277 396.179 54.9277H401.041V68.0712H394.102C388.48 68.0712 383.972 69.7933 380.528 73.2374C377.084 76.6816 375.362 81.5945 375.362 88.0017V135.409H361.484Z" fill="#1A4C6D"/>
<path d="M433.684 137.157C428.467 137.157 423.833 136.195 419.806 134.27C415.78 132.346 412.614 129.687 410.36 126.293C408.106 122.9 406.967 118.974 406.967 114.543C406.967 110.111 407.904 106.489 409.778 103.096C411.652 99.7023 414.539 96.8153 418.413 94.4601C422.313 92.1049 427.201 90.4335 433.102 89.4459L462.478 84.5835V96.1062L436.191 100.69C431.076 101.576 427.353 103.172 425.049 105.502C422.744 107.806 421.579 110.693 421.579 114.137C421.579 117.379 422.871 120.089 425.504 122.267C428.113 124.444 431.38 125.508 435.33 125.508C440.345 125.508 444.7 124.444 448.398 122.343C452.095 120.215 454.957 117.354 457.034 113.707C459.11 110.06 460.123 106.084 460.123 101.754V81.3673C460.123 77.0368 458.553 73.5167 455.387 70.8069C452.247 68.0972 448.043 66.755 442.826 66.755C438.293 66.755 434.292 67.9453 430.797 70.3005C427.302 72.6556 424.719 75.7199 423.048 79.468L411.095 73.2634C412.564 69.6167 414.944 66.3498 418.186 63.4375C421.427 60.5252 425.226 58.2459 429.556 56.5745C433.887 54.9031 438.42 54.0674 443.13 54.0674C449.234 54.0674 454.602 55.2323 459.237 57.5369C463.871 59.8414 467.467 63.0829 470.101 67.2109C472.709 71.3388 474.001 76.0745 474.001 81.3926V135.435H460.554V120.367L463.061 121.406C461.389 124.47 459.085 127.18 456.198 129.611C453.285 132.017 449.943 133.891 446.169 135.233C442.371 136.55 438.217 137.233 433.684 137.233V137.157Z" fill="#1A4C6D"/>
</svg>
