<svg width="904" height="176" viewBox="0 0 904 176" fill="none" xmlns="http://www.w3.org/2000/svg">
<path d="M577.247 36.9707V37.0439C592.701 37.0439 605.079 41.9512 614.308 51.6924C623.536 61.4336 628.15 74.0312 628.15 89.4854C628.15 104.866 623.536 117.464 614.381 127.278C605.226 137.093 592.848 142 577.247 142H534.474V36.9707H577.247ZM576.954 127.352V127.498C587.647 127.498 596.144 123.909 602.442 116.805C608.741 109.7 611.891 100.545 611.891 89.3389C611.891 78.3525 608.741 69.3438 602.442 62.3125C596.144 55.2812 587.647 51.7656 576.954 51.7656H550.733V127.352H576.954ZM680.006 143.978H679.933C668.434 143.978 658.912 140.169 651.295 132.625C643.678 125.081 639.869 115.633 639.869 104.28C639.869 93.001 643.678 83.5527 651.295 76.0088C658.912 68.4648 668.434 64.6562 679.933 64.6562C691.432 64.6562 701.026 68.3916 708.644 75.9355C716.261 83.4795 720.069 92.9277 720.069 104.28C720.069 115.633 716.261 125.081 708.644 132.625C701.026 140.169 691.505 143.978 680.006 143.978ZM679.933 129.695C687.11 129.695 693.043 127.278 697.73 122.444C702.418 117.61 704.762 111.604 704.762 104.427C704.762 97.1025 702.418 91.0234 697.73 86.1895C693.043 81.3555 687.11 78.9385 679.933 78.9385C672.755 78.9385 666.822 81.3555 662.208 86.1895C657.594 91.0234 655.25 97.1025 655.25 104.427C655.25 111.604 657.594 117.61 662.208 122.444C666.822 127.278 672.755 129.695 679.933 129.695ZM771.339 143.978V144.197C759.986 144.197 750.538 140.389 742.994 132.771C735.45 125.154 731.715 115.706 731.715 104.427C731.715 93.1475 735.45 83.6992 742.921 76.1553C750.392 68.6113 759.84 64.8027 771.192 64.8027C780.641 64.8027 788.551 67.2197 794.996 72.0537C801.441 76.8877 805.47 82.3809 807.081 88.6064L792.506 92.7812C791.407 89.0459 788.917 85.8232 785.035 83.04C781.153 80.2568 776.612 78.8652 771.412 78.8652C764.234 78.8652 758.375 81.3555 753.834 86.2627C749.293 91.1699 747.022 97.1758 747.022 104.28C747.022 111.238 749.293 117.244 753.834 122.298C758.375 127.352 764.234 129.842 771.339 129.842C776.539 129.842 781.08 128.523 784.962 125.887C788.844 123.25 791.334 120.101 792.433 116.365L807.008 120.394C805.396 126.473 801.441 131.893 795.069 136.727C788.697 141.561 780.787 143.978 771.339 143.978ZM853.37 143.978L853.004 144.051C844.435 144.051 836.891 141.78 830.299 137.312C823.707 132.845 819.459 127.425 817.481 121.053L831.764 116.878C833.155 120.979 835.865 124.349 839.82 127.059C843.775 129.769 848.39 131.087 853.59 131.087C858.277 131.087 862.086 130.062 865.016 128.084C867.945 126.106 869.41 123.689 869.41 120.833C869.41 118.562 868.678 116.731 867.14 115.413C865.602 114.095 863.111 112.923 859.669 111.897L839.381 105.892C827.369 102.303 821.363 95.8574 821.363 86.5557C821.363 80.5498 824.146 75.4229 829.786 71.1016C835.426 66.7803 842.237 64.6562 850.221 64.6562C858.131 64.6562 865.016 66.4141 870.802 69.9297C876.588 73.4453 880.616 78.0596 882.887 83.6992L868.971 87.8008C867.433 84.7979 865.016 82.3076 861.72 80.2568C858.424 78.2061 854.542 77.1807 850.074 77.1807C846.266 77.1807 843.116 78.1328 840.626 79.9639C838.136 81.7949 836.891 83.9189 836.891 86.3359C836.891 89.6318 839.601 92.1221 845.021 93.8066L865.089 99.5928C871.314 101.424 876.148 103.841 879.664 106.917C883.18 109.993 884.938 114.388 884.938 120.174C884.938 126.985 881.935 132.625 876.002 137.166C870.069 141.707 862.525 143.978 853.37 143.978Z" fill="#407893"/>
<path d="M239.191 36.3155C238.355 16.1064 221.717 0 201.305 0H100.513C80.3043 0.861037 64.1979 17.5246 64.1979 37.9363V81.6972H40.1142H39.2025C33.5298 81.2413 29.1993 76.7842 29.1993 71.4914V38.8986C36.1129 35.6317 40.8739 28.5915 40.8739 20.437C40.8739 9.16751 31.7317 0.0253252 20.4623 0.0253252C9.19283 0.0253252 0 9.14218 0 20.4116C0 28.5662 4.76102 35.5811 11.6746 38.8733V71.6433L11.7 72.8842C12.3584 87.6738 24.8941 99.3484 40.0888 99.3484H64.1725V137.107V138.703C65.0336 158.912 81.6972 175.018 102.109 175.018H202.901C223.11 174.157 239.216 157.494 239.216 137.082V36.3155H239.191ZM221.717 137.107V138.348C221.033 149.035 212.144 157.519 201.305 157.519H100.868C90.1809 156.835 81.6972 147.946 81.6972 137.107V36.67C82.3809 25.983 91.2699 17.4993 102.109 17.4993H201.305C212.575 17.4993 221.717 26.6415 221.717 37.9109V137.107Z" fill="#407893"/>
<path d="M117.077 136.271V38.9736H158.077C164.18 38.9736 169.448 40.0626 173.88 42.2405C178.312 44.4184 181.705 47.4574 184.06 51.3827C186.415 55.308 187.58 59.9931 187.58 65.4885C187.58 70.0976 186.39 74.3521 183.984 78.2268C181.578 82.1014 177.856 85.2164 172.816 87.5716V80.9112C177.248 82.6586 180.869 84.8618 183.655 87.4956C186.441 90.1547 188.467 93.143 189.733 96.4352C190.999 99.7527 191.632 103.222 191.632 106.894C191.632 116.036 188.644 123.229 182.693 128.445C176.716 133.662 168.511 136.271 158.077 136.271H117.077ZM132.474 77.7456H158.33C162.509 77.7456 165.852 76.5553 168.384 74.1495C170.917 71.7437 172.183 68.6541 172.183 64.8047C172.183 60.9554 170.917 57.8405 168.384 55.6625C165.852 53.4846 162.509 52.3957 158.33 52.3957H132.474V77.7203V77.7456ZM132.474 122.545H159.242C164.383 122.545 168.486 121.127 171.575 118.29C174.665 115.454 176.21 111.706 176.21 106.996C176.21 102.285 174.665 98.5118 171.575 95.6248C168.486 92.7631 164.383 91.3196 159.242 91.3196H132.474V122.545Z" fill="#407893"/>
<path d="M265.352 43.1012V25.374H279.23V43.1012H265.352ZM265.352 135.409V55.8142H279.23V135.409H265.352Z" fill="#407893"/>
<path d="M283.94 168.028C283.053 168.028 281.964 167.952 280.698 167.8C279.432 167.648 278.343 167.47 277.457 167.293V154.884C279.432 155.188 281.382 155.315 283.357 155.315C287.485 155.315 290.853 154.175 293.462 151.921C296.07 149.667 297.362 146.223 297.362 141.589V55.8142H311.24V141.614C311.24 147.312 310.049 152.124 307.694 156.024C305.339 159.924 302.072 162.887 297.944 164.963C293.816 167.04 289.131 168.053 283.914 168.053L283.94 168.028ZM297.387 43.1012V25.374H311.265V43.1012H297.387Z" fill="#407893"/>
<path d="M329.423 43.1012V25.374H343.301V43.1012H329.423ZM329.423 135.409V55.8142H343.301V135.409H329.423Z" fill="#407893"/>
<path d="M361.484 135.409V55.8141H375.058V70.4264L373.589 68.3498C375.463 63.8167 378.325 60.4485 382.149 58.2453C385.973 56.042 390.658 54.9277 396.179 54.9277H401.041V68.0712H394.102C388.48 68.0712 383.972 69.7933 380.528 73.2374C377.084 76.6816 375.362 81.5945 375.362 88.0017V135.409H361.484Z" fill="#407893"/>
<path d="M433.684 137.157C428.467 137.157 423.833 136.195 419.806 134.27C415.78 132.346 412.614 129.687 410.36 126.293C408.106 122.9 406.967 118.974 406.967 114.543C406.967 110.111 407.904 106.489 409.778 103.096C411.652 99.7023 414.539 96.8153 418.413 94.4601C422.313 92.1049 427.201 90.4335 433.102 89.4459L462.478 84.5835V96.1062L436.191 100.69C431.076 101.576 427.353 103.172 425.049 105.502C422.744 107.806 421.579 110.693 421.579 114.137C421.579 117.379 422.871 120.089 425.504 122.267C428.113 124.444 431.38 125.508 435.33 125.508C440.345 125.508 444.7 124.444 448.398 122.343C452.095 120.215 454.957 117.354 457.034 113.707C459.11 110.06 460.123 106.084 460.123 101.754V81.3673C460.123 77.0368 458.553 73.5167 455.387 70.8069C452.247 68.0972 448.043 66.755 442.826 66.755C438.293 66.755 434.292 67.9453 430.797 70.3005C427.302 72.6556 424.719 75.7199 423.048 79.468L411.095 73.2634C412.564 69.6167 414.944 66.3498 418.186 63.4375C421.427 60.5252 425.226 58.2459 429.556 56.5745C433.887 54.9031 438.42 54.0674 443.13 54.0674C449.234 54.0674 454.602 55.2323 459.237 57.5369C463.871 59.8414 467.467 63.0829 470.101 67.2109C472.709 71.3388 474.001 76.0745 474.001 81.3926V135.435H460.554V120.367L463.061 121.406C461.389 124.47 459.085 127.18 456.198 129.611C453.285 132.017 449.943 133.891 446.169 135.233C442.371 136.55 438.217 137.233 433.684 137.233V137.157Z" fill="#407893"/>
</svg>
