<svg width="1021" height="209" viewBox="0 0 1021 209" fill="none" xmlns="http://www.w3.org/2000/svg">
<path d="M180.868 104.784C180.868 147.384 146.697 181.918 104.552 181.918C62.4073 181.918 28.2368 147.384 28.2368 104.784C28.2368 62.1835 62.4083 27.6494 104.552 27.6494C146.696 27.6494 180.868 62.1773 180.868 104.784Z" fill="#A8CADC"/>
<path d="M132.497 35.2707C132.622 35.1458 132.681 35.0022 132.628 34.95C132.576 34.8977 132.433 34.9566 132.308 35.0815C132.183 35.2064 132.124 35.35 132.176 35.4022C132.228 35.4544 132.372 35.3955 132.497 35.2707Z" fill="white"/>
<path d="M180.619 98.7727L152.964 98.8385L139.5 119.832L106.5 38L73.8189 108.68L28.3301 108.576C28.5119 112.32 28.9624 116.047 29.6781 119.727L81.019 119.832L104.304 68.0121L137.659 149.322L159.529 109.971L180.686 109.92C180.79 108.221 180.873 106.511 180.873 104.785C180.869 102.758 180.772 100.759 180.619 98.7727Z" fill="#D4E8F6"/>
<path d="M132.1 106.4L139.175 123.65L152.969 98.8385L180.624 98.7727C180.777 100.758 180.874 102.758 180.878 104.785C180.878 106.511 180.8 108.221 180.691 109.92L159.534 109.971L146.485 133.447L141.946 141.616L137.661 149.328L132.103 135.779L104.306 68.0173L81.019 119.836L50.923 119.772L29.6781 119.727C28.9624 116.047 28.5119 112.32 28.3301 108.576L54.755 108.633L73.8189 108.674L92.1827 67.7989L104.771 39.7793L112.557 58.7596" stroke="#D4E8F6" stroke-width="4" stroke-miterlimit="10"/>
<path d="M92.1826 67.7989L104.772 39.7793L111.097 55.1993L112.557 58.7586V58.7596" stroke="#D4E8F6" stroke-width="3" stroke-miterlimit="10"/>
<path d="M111.097 55.1993V55.1983L104.772 39.7793L92.1836 67.801" stroke="#D4E8F6" stroke-width="2" stroke-miterlimit="10"/>
<path d="M104.552 10.042C52.085 10.042 9.54932 52.4585 9.54932 104.784C9.54932 130.241 19.6189 153.354 36.0035 170.377C37.8552 172.299 39.7874 174.144 41.8001 175.911C42.5581 176.577 43.3244 177.231 44.0991 177.871C59.4118 190.499 78.3042 197.998 98.1089 199.31C100.237 199.45 102.385 199.521 104.553 199.526C111.473 199.53 118.372 198.782 125.13 197.296C135.215 195.074 144.868 191.215 153.705 185.872C181.188 169.27 199.555 139.16 199.555 104.78C199.555 52.4585 157.02 10.042 104.552 10.042ZM148.704 167.71C135.845 176.966 120.399 181.938 104.555 181.922C84.5646 181.922 66.3691 174.153 52.7632 161.44C37.6797 147.345 28.237 127.176 28.237 104.784C28.237 62.1812 62.4085 27.6492 104.552 27.6492C146.696 27.6492 180.869 62.177 180.869 104.784C180.869 130.757 168.167 153.732 148.704 167.71Z" fill="#1A4C6D"/>
<path d="M282.078 64.7812V64.8281C291.969 64.8281 299.891 67.9688 305.797 74.2031C311.703 80.4375 314.656 88.5 314.656 98.3906C314.656 108.234 311.703 116.297 305.844 122.578C299.984 128.859 292.062 132 282.078 132H254.703V64.7812H282.078ZM281.891 122.625V122.719C288.734 122.719 294.172 120.422 298.203 115.875C302.234 111.328 304.25 105.469 304.25 98.2969C304.25 91.2656 302.234 85.5 298.203 81C294.172 76.5 288.734 74.25 281.891 74.25H265.109V122.625H281.891ZM347.984 133.266L348.078 133.359C340.438 133.359 334.25 131.016 329.469 126.328C324.688 121.641 322.297 115.5 322.297 107.953C322.297 100.688 324.594 94.6406 329.188 89.8125C333.781 84.9844 339.781 82.5469 347.141 82.5469C354.781 82.5469 360.781 84.8438 365.188 89.4844C369.594 94.125 371.797 99.9375 371.797 106.969C371.797 108.188 371.703 109.547 371.469 111H332.234C332.562 115.078 334.109 118.359 336.922 120.844C339.734 123.328 343.531 124.594 348.266 124.594C354.922 124.594 359.516 122.016 362 116.812L371.188 119.531C369.453 123.328 366.594 126.562 362.609 129.234C358.625 131.906 353.75 133.266 347.984 133.266ZM332.234 104.344H361.906C361.578 100.5 360.125 97.3594 357.547 94.9219C354.969 92.4844 351.5 91.2656 347.188 91.2656C343.016 91.2656 339.594 92.5312 336.875 95.0625C334.156 97.5938 332.609 100.688 332.234 104.344ZM414.828 83.7188H425.75L405.312 132H394.109L373.625 83.7188H384.594L399.641 121.078L414.828 83.7188ZM454.109 133.266L454.203 133.359C446.562 133.359 440.375 131.016 435.594 126.328C430.812 121.641 428.422 115.5 428.422 107.953C428.422 100.688 430.719 94.6406 435.312 89.8125C439.906 84.9844 445.906 82.5469 453.266 82.5469C460.906 82.5469 466.906 84.8438 471.312 89.4844C475.719 94.125 477.922 99.9375 477.922 106.969C477.922 108.188 477.828 109.547 477.594 111H438.359C438.688 115.078 440.234 118.359 443.047 120.844C445.859 123.328 449.656 124.594 454.391 124.594C461.047 124.594 465.641 122.016 468.125 116.812L477.312 119.531C475.578 123.328 472.719 126.562 468.734 129.234C464.75 131.906 459.875 133.266 454.109 133.266ZM438.359 104.344H468.031C467.703 100.5 466.25 97.3594 463.672 94.9219C461.094 92.4844 457.625 91.2656 453.312 91.2656C449.141 91.2656 445.719 92.5312 443 95.0625C440.281 97.5938 438.734 100.688 438.359 104.344ZM488.141 132V61.9219H498.219V132H488.141ZM534.312 133.266H534.266C526.906 133.266 520.812 130.828 515.938 126C511.062 121.172 508.625 115.125 508.625 107.859C508.625 100.641 511.062 94.5938 515.938 89.7656C520.812 84.9375 526.906 82.5 534.266 82.5C541.625 82.5 547.766 84.8906 552.641 89.7188C557.516 94.5469 559.953 100.594 559.953 107.859C559.953 115.125 557.516 121.172 552.641 126C547.766 130.828 541.672 133.266 534.312 133.266ZM534.266 124.125C538.859 124.125 542.656 122.578 545.656 119.484C548.656 116.391 550.156 112.547 550.156 107.953C550.156 103.266 548.656 99.375 545.656 96.2812C542.656 93.1875 538.859 91.6406 534.266 91.6406C529.672 91.6406 525.875 93.1875 522.922 96.2812C519.969 99.375 518.469 103.266 518.469 107.953C518.469 112.547 519.969 116.391 522.922 119.484C525.875 122.578 529.672 124.125 534.266 124.125ZM597.734 82.4531V82.5C604.578 82.5 610.297 84.8906 614.891 89.7188C619.484 94.5469 621.781 100.594 621.781 107.859C621.781 115.125 619.484 121.172 614.891 126C610.297 130.828 604.578 133.266 597.734 133.266C590.234 133.266 584.469 130.406 580.438 124.688V152.156H570.359V83.7188H580.438V91.0312C584.469 85.3125 590.234 82.4531 597.734 82.4531ZM596.094 124.266L596.047 124.219C600.641 124.219 604.438 122.672 607.391 119.578C610.344 116.484 611.844 112.547 611.844 107.812C611.844 103.078 610.391 99.1875 607.438 96.1406C604.484 93.0938 600.688 91.5469 596.047 91.5469C591.594 91.5469 587.844 93.0938 584.75 96.1875C581.656 99.2812 580.109 103.172 580.109 107.859C580.109 112.594 581.656 116.531 584.75 119.625C587.844 122.719 591.641 124.266 596.094 124.266ZM654.922 133.266L655.016 133.359C647.375 133.359 641.188 131.016 636.406 126.328C631.625 121.641 629.234 115.5 629.234 107.953C629.234 100.688 631.531 94.6406 636.125 89.8125C640.719 84.9844 646.719 82.5469 654.078 82.5469C661.719 82.5469 667.719 84.8438 672.125 89.4844C676.531 94.125 678.734 99.9375 678.734 106.969C678.734 108.188 678.641 109.547 678.406 111H639.172C639.5 115.078 641.047 118.359 643.859 120.844C646.672 123.328 650.469 124.594 655.203 124.594C661.859 124.594 666.453 122.016 668.938 116.812L678.125 119.531C676.391 123.328 673.531 126.562 669.547 129.234C665.562 131.906 660.688 133.266 654.922 133.266ZM639.172 104.344H668.844C668.516 100.5 667.062 97.3594 664.484 94.9219C661.906 92.4844 658.438 91.2656 654.125 91.2656C649.953 91.2656 646.531 92.5312 643.812 95.0625C641.094 97.5938 639.547 100.688 639.172 104.344ZM699.031 91.4062L698.984 91.4531C700.438 88.4531 702.594 86.2031 705.453 84.7031C708.312 83.2031 711.688 82.6875 715.531 83.2031V92.5781C710.234 91.7812 706.156 92.8125 703.297 95.6719C700.438 98.5312 699.031 103.359 699.031 110.203V132H688.953V83.7188H699.031V91.4062ZM779.328 64.7812V64.7344C786.219 64.7344 791.75 67.0312 795.875 71.625C800 76.2188 802.062 81.4688 802.062 87.375C802.062 93.2812 799.953 98.4844 795.781 103.031C791.609 107.578 785.938 109.828 778.812 109.828H759.172V132H748.766V64.7812H779.328ZM778.625 100.359C782.656 100.359 785.891 99.0469 788.328 96.4688C790.766 93.8906 791.984 90.8438 791.984 87.3281C791.984 83.8125 790.766 80.7188 788.328 78.0938C785.891 75.4688 782.844 74.1562 779.141 74.1562H759.172V100.359H778.625ZM831.594 133.266H831.547C824.188 133.266 818.094 130.828 813.219 126C808.344 121.172 805.906 115.125 805.906 107.859C805.906 100.641 808.344 94.5938 813.219 89.7656C818.094 84.9375 824.188 82.5 831.547 82.5C838.906 82.5 845.047 84.8906 849.922 89.7188C854.797 94.5469 857.234 100.594 857.234 107.859C857.234 115.125 854.797 121.172 849.922 126C845.047 130.828 838.953 133.266 831.594 133.266ZM831.547 124.125C836.141 124.125 839.938 122.578 842.938 119.484C845.938 116.391 847.438 112.547 847.438 107.953C847.438 103.266 845.938 99.375 842.938 96.2812C839.938 93.1875 836.141 91.6406 831.547 91.6406C826.953 91.6406 823.156 93.1875 820.203 96.2812C817.25 99.375 815.75 103.266 815.75 107.953C815.75 112.547 817.25 116.391 820.203 119.484C823.156 122.578 826.953 124.125 831.547 124.125ZM877.719 91.4062L877.672 91.4531C879.125 88.4531 881.281 86.2031 884.141 84.7031C887 83.2031 890.375 82.6875 894.219 83.2031V92.5781C888.922 91.7812 884.844 92.8125 881.984 95.6719C879.125 98.5312 877.719 103.359 877.719 110.203V132H867.641V83.7188H877.719V91.4062ZM932.234 122.203L934.719 130.453C931.062 132 927.5 132.75 924.078 132.75C919.016 132.75 915.219 131.297 912.734 128.391C910.25 125.484 908.984 121.453 908.984 116.344V92.625H900.172V83.7188H908.984V67.5938H918.969V83.7188H934.344V92.625H918.969V116.344C918.969 121.266 921.266 123.75 925.906 123.75C928.016 123.75 930.125 123.234 932.234 122.203ZM962.938 133.266V133.219C956.094 133.219 950.375 130.781 945.781 125.953C941.188 121.125 938.891 115.078 938.891 107.812C938.891 100.594 941.188 94.5469 945.781 89.7188C950.375 84.8906 956.094 82.4531 962.938 82.4531C970.484 82.4531 976.297 85.3125 980.328 91.0312V83.7188H990.312V132H980.328V124.688C976.297 130.406 970.484 133.266 962.938 133.266ZM964.578 124.172L964.438 124.219C968.891 124.219 972.688 122.672 975.781 119.578C978.875 116.484 980.422 112.547 980.422 107.812C980.422 103.125 978.875 99.2344 975.781 96.1406C972.688 93.0469 968.938 91.5 964.484 91.5C959.891 91.5 956.141 93.0469 953.188 96.0938C950.234 99.1406 948.781 103.031 948.781 107.766C948.781 112.5 950.281 116.438 953.234 119.531C956.188 122.625 959.984 124.172 964.578 124.172ZM1003.67 132V61.9219H1013.75V132H1003.67Z" fill="black"/>
<path d="M1010.69 143H912.232C908.79 143 906 145.79 906 149.232V173.771C906 177.213 908.79 180.003 912.232 180.003H1010.69C1014.14 180.003 1016.93 177.213 1016.93 173.771V149.232C1016.93 145.79 1014.14 143 1010.69 143Z" fill="#407893"/>
<path d="M920.569 171.28V151.947H928.712C929.931 151.947 930.983 152.169 931.842 152.584C932.701 153 933.393 153.637 933.864 154.412C934.335 155.188 934.556 156.129 934.556 157.21C934.556 158.124 934.307 158.982 933.836 159.73C933.365 160.506 932.617 161.115 931.62 161.586V160.256C932.507 160.589 933.227 161.032 933.781 161.558C934.335 162.084 934.722 162.666 934.999 163.331C935.276 163.995 935.387 164.688 935.387 165.408C935.387 167.236 934.806 168.648 933.615 169.701C932.424 170.726 930.789 171.252 928.712 171.252H920.569V171.28ZM923.616 159.647H928.768C929.599 159.647 930.263 159.398 930.762 158.927C931.26 158.456 931.51 157.819 931.51 157.071C931.51 156.323 931.26 155.686 930.762 155.243C930.263 154.8 929.599 154.606 928.768 154.606H923.616V159.647ZM923.616 168.538H928.934C929.959 168.538 930.762 168.261 931.399 167.707C932.008 167.153 932.313 166.405 932.313 165.463C932.313 164.522 932.008 163.774 931.399 163.192C930.789 162.611 929.959 162.334 928.934 162.334H923.616V168.538Z" fill="white"/>
<path d="M945.773 171.28V151.947H958.486V154.662H948.82V160.229H957.96V162.943H948.82V168.538H958.486V171.252H945.773V171.28Z" fill="white"/>
<path d="M972.002 171.28V154.662H966.878V151.947H980.117V154.662H975.048V171.28H971.974H972.002Z" fill="white"/>
<path d="M986.681 171.28L993.494 151.947H997.289L1004.1 171.28H1000.81L999.366 166.959H991.5L990.004 171.28H986.736H986.681ZM992.331 164.217H998.369L994.934 154.108H995.793L992.303 164.217H992.331Z" fill="white"/>
</svg>
