<svg width="50" height="50" viewBox="0 0 50 50" fill="none" xmlns="http://www.w3.org/2000/svg">
<path fill-rule="evenodd" clip-rule="evenodd" d="M24.9977 0C11.1943 0 0 11.4761 0 25.6335C0 36.9585 7.16259 46.5651 17.0969 49.9546C18.3477 50.1906 18.8035 49.3991 18.8035 48.7193C18.8035 48.1119 18.782 46.499 18.7698 44.3605C11.8159 45.9089 10.3487 40.9239 10.3487 40.9239C9.21146 37.9624 7.57236 37.174 7.57236 37.174C5.3025 35.5847 7.74425 35.6162 7.74425 35.6162C10.2535 35.7972 11.5734 38.2582 11.5734 38.2582C13.8034 42.1748 17.4253 41.0434 18.8496 40.3873C19.0767 38.7319 19.7228 37.602 20.4365 36.9616C14.8854 36.3149 9.04877 34.115 9.04877 24.2928C9.04877 21.495 10.0233 19.2054 11.6225 17.4147C11.3647 16.7664 10.5068 14.159 11.8681 10.631C11.8681 10.631 13.9661 9.94182 18.7421 13.2589C20.7358 12.6893 22.8752 12.406 25.0008 12.395C27.1248 12.406 29.2627 12.6893 31.2594 13.2589C36.0324 9.94182 38.1273 10.631 38.1273 10.631C39.4917 14.159 38.6338 16.7664 38.3775 17.4147C39.9797 19.2054 40.9466 21.495 40.9466 24.2928C40.9466 34.1402 35.1008 36.307 29.5328 36.9411C30.4291 37.7327 31.2287 39.2968 31.2287 41.6886C31.2287 45.1143 31.198 47.879 31.198 48.7193C31.198 49.4054 31.6492 50.2032 32.9169 49.953C42.8435 46.5557 50 36.9553 50 25.6335C50 11.4761 38.8057 0 24.9977 0Z" fill="#161514"/>
</svg>
