<svg width="50" height="50" viewBox="0 0 50 50" fill="none" xmlns="http://www.w3.org/2000/svg" opacity="0.5">
<path fill-rule="evenodd" clip-rule="evenodd" d="M29.2718 5.72984C29.3916 5.32638 29.4559 4.89886 29.4559 4.45608C29.4559 1.99183 27.4641 0 24.9998 0C22.5355 0 20.5437 1.99183 20.5437 4.45608C20.5437 4.89647 20.6073 5.32178 20.7259 5.72332L10.442 11.6609C10.1535 11.3563 9.81696 11.0872 9.43541 10.8656C7.30313 9.63988 4.57074 10.3677 3.345 12.4999C2.11926 14.6322 2.84705 17.3646 4.97933 18.5903C5.36001 18.8092 5.75983 18.9658 6.16679 19.0632V30.9396C5.76449 31.0372 5.36912 31.1929 4.99211 31.4096C2.85983 32.6481 2.13204 35.3677 3.35778 37.5C4.58353 39.6323 7.30314 40.3601 9.44819 39.1343C9.82569 38.9151 10.1592 38.6494 10.4456 38.3487L20.724 44.2831C20.6067 44.6828 20.5437 45.1059 20.5437 45.5439C20.5437 48.0082 22.5355 50 24.9998 50C27.4641 50 29.4559 47.9954 29.4559 45.5439C29.4559 45.053 29.3768 44.5809 29.2308 44.1395L39.4492 38.2397C39.758 38.5865 40.1268 38.8903 40.5514 39.1343C42.6836 40.3601 45.416 39.6323 46.6418 37.5C47.8803 35.3677 47.1525 32.6481 45.0075 31.4096C44.6307 31.1931 44.2353 31.0375 43.8328 30.9399V19.0632C44.2397 18.9658 44.6395 18.8092 45.0202 18.5903C47.1525 17.3518 47.8803 14.6322 46.6546 12.4999C45.416 10.3677 42.6964 9.63988 40.5641 10.8656C40.1805 11.0884 39.8424 11.3592 39.5529 11.6658L29.2718 5.72984ZM23.7585 8.73755C24.1524 8.85125 24.5689 8.91216 24.9998 8.91216C25.4321 8.91216 25.8499 8.85086 26.2449 8.73647L39.7015 32.0433C39.4003 32.3304 39.1349 32.665 38.917 33.0439C38.7005 33.4206 38.5449 33.8161 38.4473 34.2186H11.5525C11.4549 33.8163 11.2992 33.4209 11.0825 33.0439C10.8638 32.6674 10.599 32.3347 10.2993 32.0488L23.7585 8.73755ZM21.7942 7.55386C21.8358 7.59688 21.8782 7.63905 21.9215 7.68037L8.46186 30.9925C8.40366 30.9756 8.34513 30.9598 8.2863 30.9453V19.0526C9.42046 18.7707 10.4424 18.0473 11.0697 16.956C11.6962 15.8662 11.8124 14.6229 11.4915 13.5023L21.7942 7.55386ZM28.0809 7.67767C28.1216 7.63879 28.1615 7.59915 28.2006 7.55876L38.5062 13.5089C38.1876 14.6277 38.3045 15.8683 38.9298 16.956C39.5571 18.0473 40.5791 18.7707 41.7133 19.0526V30.9442C41.6555 30.9584 41.598 30.9737 41.5408 30.9902L28.0809 7.67767ZM38.5339 36.6304L28.2952 42.5419C27.4807 41.6481 26.3067 41.0878 24.9998 41.0878C23.7378 41.0878 22.5997 41.6103 21.7895 42.451L11.5006 36.5105C11.5171 36.4533 11.5325 36.3959 11.5468 36.3381H38.4516C38.4757 36.4364 38.5032 36.5339 38.5339 36.6304Z" fill="#E535AB"/>
</svg>
