<svg width="24" height="25" viewBox="0 0 24 25" fill="none" xmlns="http://www.w3.org/2000/svg">
<path d="M12.8837 1.00028C12.1947 1.16491 11.5774 1.45418 11.0523 1.85633C10.9473 1.93864 8.45507 4.17049 5.51462 6.8186C0.973319 10.906 0.156243 11.6515 0.0845251 11.7715C0.00512273 11.9032 0 11.9267 0 12.1478C0 12.3712 0.00512273 12.39 0.0870864 12.5311C0.189541 12.7051 0.325293 12.8227 0.52508 12.9097C0.645464 12.9615 0.699253 12.9709 0.909285 12.9709C1.31142 12.9709 1.29349 12.9826 2.40256 11.9878C2.92508 11.5151 5.34301 9.33972 7.77375 7.15021C10.2045 4.96304 12.2664 3.11924 12.3586 3.05574C12.5891 2.89347 13.0399 2.69357 13.3447 2.61831C13.5804 2.55716 13.6367 2.55246 14.0619 2.55481C14.4768 2.55481 14.5486 2.56187 14.7714 2.61596C15.2734 2.7406 15.6909 2.96638 16.0598 3.30739C16.9588 4.14227 17.0971 5.40518 16.403 6.39998C16.2211 6.65868 16.6719 6.24477 11.6593 10.7578C8.47812 13.6223 7.96841 14.0903 7.90694 14.2032C7.84546 14.3208 7.83778 14.3608 7.83778 14.5701C7.83778 14.7723 7.84803 14.8217 7.90181 14.9229C8.14514 15.3815 8.80341 15.5437 9.2619 15.2568C9.32593 15.2145 11.2034 13.5377 13.4344 11.5292C16.0111 9.20567 17.553 7.83458 17.6709 7.75932C18.6391 7.13139 19.9044 7.10787 20.8751 7.70288C21.9048 8.3308 22.3658 9.40792 22.0662 10.478C21.9893 10.7531 21.7665 11.1482 21.5616 11.3787C21.4668 11.4869 19.1974 13.5447 16.5208 15.9553C11.4621 20.5107 11.539 20.4378 11.3725 20.7788C11.1496 21.2421 11.1496 21.8653 11.3725 22.331C11.521 22.6367 11.644 22.7637 12.7556 23.7703C14.0414 24.9321 14.0209 24.918 14.4435 24.918C14.6741 24.918 14.7176 24.9109 14.8482 24.8521C15.3093 24.6452 15.4937 24.156 15.2734 23.7327C15.2145 23.6174 15.1633 23.568 13.8903 22.4204C12.9989 21.6161 12.9938 21.6066 13.0911 21.4397C13.1193 21.3973 15.2862 19.4289 17.9091 17.0677C20.5293 14.7065 22.7654 12.6887 22.873 12.5805C23.3904 12.0631 23.7772 11.3505 23.9411 10.6026C23.9923 10.3745 24 10.2663 24 9.83124C24 9.39616 23.9923 9.28798 23.9411 9.05986C23.5441 7.25368 21.9304 5.87789 19.9274 5.6333C19.6329 5.59803 19.0591 5.59097 18.8055 5.61919L18.6544 5.63566L18.6698 5.56745C18.7338 5.27818 18.7082 4.6432 18.6186 4.23869C18.2882 2.75472 17.1304 1.56706 15.5475 1.08495C15.0275 0.927376 14.9456 0.917969 14.0312 0.917969L13.2166 0.920321L12.8837 1.00028Z" fill="black"/>
<path d="M13.7827 4.24809C13.7136 4.2669 13.6137 4.31159 13.5573 4.34216C13.4318 4.41507 5.49414 11.5621 5.29947 11.7785C4.74366 12.3923 4.39275 13.1496 4.29029 13.9539C4.24163 14.3184 4.2698 14.8923 4.35177 15.2427C4.64632 16.5127 5.51719 17.5474 6.78506 18.133C7.784 18.5963 8.85209 18.7186 9.94835 18.4952C10.3197 18.4176 10.6066 18.3259 10.9652 18.1683C11.2675 18.0343 11.6926 17.785 11.9232 17.6039C12 17.5427 13.8647 15.873 16.0675 13.8928C20.5985 9.81477 20.2348 10.1746 20.2348 9.7842C20.2348 9.60546 20.2271 9.56548 20.1503 9.42673C19.9863 9.11864 19.6918 8.95402 19.3127 8.95166C19.1334 8.95166 19.0822 8.96107 18.9285 9.02692C18.7799 9.09277 18.6877 9.16333 18.2907 9.52315C15.5091 12.0419 10.7296 16.3245 10.5964 16.4162C10.3684 16.5738 9.96628 16.7549 9.68197 16.8278C8.30395 17.1876 6.84654 16.5456 6.31377 15.3415C5.9808 14.5865 6.08325 13.7211 6.58784 13.0226C6.73896 12.8157 6.51356 13.0226 11.0728 8.91874C15.0711 5.3158 14.902 5.47807 14.9712 5.18645C15.0532 4.85015 14.8329 4.46681 14.4692 4.30218C14.2668 4.21046 13.9876 4.18694 13.7827 4.24809Z" fill="black"/>
</svg>
