<svg width="22" height="24" viewBox="0 0 22 24" fill="none" xmlns="http://www.w3.org/2000/svg">
<path d="M11.7891 0.0820234C11.1586 0.246086 10.5938 0.534367 10.1133 0.935148C10.0172 1.01718 7.73672 3.2414 5.04609 5.88046C0.890625 9.9539 0.142969 10.6969 0.0773438 10.8164C0.0046875 10.9476 0 10.9711 0 11.1914C0 11.4141 0.0046875 11.4328 0.0796875 11.5734C0.173438 11.7469 0.297656 11.8641 0.480469 11.9508C0.590625 12.0023 0.639844 12.0117 0.832031 12.0117C1.2 12.0117 1.18359 12.0234 2.19844 11.032C2.67656 10.5609 4.88906 8.39296 7.11328 6.21093C9.3375 4.03124 11.2242 2.19374 11.3086 2.13046C11.5195 1.96874 11.932 1.76952 12.2109 1.69452C12.4266 1.63359 12.4781 1.6289 12.8672 1.63124C13.2469 1.63124 13.3125 1.63827 13.5164 1.69218C13.9758 1.8164 14.3578 2.0414 14.6953 2.38124C15.518 3.21327 15.6445 4.47187 15.0094 5.46327C14.843 5.72109 15.2555 5.30858 10.6688 9.80624C7.75781 12.6609 7.29141 13.1273 7.23516 13.2398C7.17891 13.357 7.17188 13.3969 7.17188 13.6055C7.17188 13.807 7.18125 13.8562 7.23047 13.957C7.45313 14.4141 8.05547 14.5758 8.475 14.2898C8.53359 14.2476 10.2516 12.5766 12.293 10.575C14.6508 8.25937 16.0617 6.89296 16.1695 6.81796C17.0555 6.19218 18.2133 6.16874 19.1016 6.76171C20.0438 7.38749 20.4656 8.46093 20.1914 9.52734C20.1211 9.80155 19.9172 10.1953 19.7297 10.425C19.643 10.5328 17.5664 12.5836 15.1172 14.9859C10.4883 19.5258 10.5586 19.4531 10.4063 19.793C10.2023 20.2547 10.2023 20.8758 10.4063 21.3398C10.5422 21.6445 10.6547 21.7711 11.6719 22.7742C12.8484 23.932 12.8297 23.918 13.2164 23.918C13.4273 23.918 13.4672 23.9109 13.5867 23.8523C14.0086 23.6461 14.1773 23.1586 13.9758 22.7367C13.9219 22.6219 13.875 22.5726 12.7102 21.4289C11.8945 20.6273 11.8898 20.618 11.9789 20.4516C12.0047 20.4094 13.9875 18.4476 16.3875 16.0945C18.7852 13.7414 20.8313 11.7305 20.9297 11.6226C21.4031 11.107 21.757 10.3969 21.907 9.65155C21.9539 9.42421 21.9609 9.3164 21.9609 8.8828C21.9609 8.44921 21.9539 8.3414 21.907 8.11405C21.5438 6.31405 20.0672 4.94296 18.2344 4.69921C17.9648 4.66405 17.4398 4.65702 17.2078 4.68515L17.0695 4.70155L17.0836 4.63359C17.1422 4.3453 17.1188 3.71249 17.0367 3.30937C16.7344 1.83046 15.675 0.646867 14.2266 0.166398C13.7508 0.00936718 13.6758 -7.81687e-06 12.8391 -7.81687e-06L12.0938 0.00233593L11.7891 0.0820234Z" fill="#A8CADC"/>
<path d="M12.6117 3.31873C12.5484 3.33748 12.457 3.38201 12.4055 3.41248C12.2906 3.48513 5.02734 10.6078 4.84921 10.8234C4.34062 11.4351 4.01953 12.1898 3.92578 12.9914C3.88124 13.3547 3.90703 13.9265 3.98203 14.2758C4.25156 15.5414 5.04843 16.5726 6.20859 17.1562C7.12265 17.6179 8.09999 17.7398 9.10312 17.5172C9.44296 17.4398 9.70546 17.3484 10.0336 17.1914C10.3102 17.0578 10.6992 16.8094 10.9102 16.6289C10.9805 16.5679 12.6867 14.9039 14.7023 12.9304C18.8484 8.86638 18.5156 9.22498 18.5156 8.83592C18.5156 8.65779 18.5086 8.61795 18.4383 8.47967C18.2883 8.17263 18.0187 8.00857 17.6719 8.00623C17.5078 8.00623 17.4609 8.0156 17.3203 8.08123C17.1844 8.14685 17.1 8.21717 16.7367 8.57576C14.1914 11.0859 9.81796 15.3539 9.69609 15.4453C9.48749 15.6023 9.11953 15.7828 8.85937 15.8554C7.59843 16.214 6.26484 15.5742 5.77734 14.3742C5.47265 13.6219 5.5664 12.7594 6.02812 12.0633C6.1664 11.857 5.96015 12.0633 10.132 7.97341C13.7906 4.38279 13.6359 4.54451 13.6992 4.25388C13.7742 3.91873 13.5727 3.5367 13.2398 3.37263C13.0547 3.28123 12.7992 3.25779 12.6117 3.31873Z" fill="#A8CADC"/>
</svg>
