<svg width="96" height="78" viewBox="0 0 96 78" fill="none" xmlns="http://www.w3.org/2000/svg">
<path fill-rule="evenodd" clip-rule="evenodd" d="M16 17.0625C15.4477 17.0625 15 17.4263 15 17.875V33.4519C15 34.5293 14.4732 35.5627 13.5355 36.3245L10.2426 39L13.5355 41.6755C14.4732 42.4373 15 43.4706 15 44.5481V60.125C15 60.5737 15.4477 60.9375 16 60.9375H21C22.6569 60.9375 24 62.0288 24 63.375C24 64.7212 22.6569 65.8125 21 65.8125H16C12.134 65.8125 9 63.2661 9 60.125V44.8846L1.75735 39L9 33.1154V17.875C9 14.7339 12.134 12.1875 16 12.1875H21C22.6569 12.1875 24 13.2788 24 14.625C24 15.9712 22.6569 17.0625 21 17.0625H16ZM9.29289 45.1226C9.29248 45.1223 9.2933 45.123 9.29289 45.1226V45.1226Z" fill="#A6B3FF"/>
<path fill-rule="evenodd" clip-rule="evenodd" d="M81 17.0625C81.5523 17.0625 82 17.4263 82 17.875V33.4519C82 34.5293 82.5268 35.5627 83.4645 36.3245L86.7574 39L83.4645 41.6755C82.5268 42.4373 82 43.4706 82 44.5481V60.125C82 60.5737 81.5523 60.9375 81 60.9375H76C74.3431 60.9375 73 62.0288 73 63.375C73 64.7212 74.3431 65.8125 76 65.8125H81C84.866 65.8125 88 63.2661 88 60.125V44.8846L95.2426 39L88 33.1154V17.875C88 14.7339 84.866 12.1875 81 12.1875H76C74.3431 12.1875 73 13.2788 73 14.625C73 15.9712 74.3431 17.0625 76 17.0625H81ZM87.7071 45.1226C87.7075 45.1223 87.7067 45.123 87.7071 45.1226V45.1226Z" fill="#A6B3FF"/>
<path d="M33.1157 46.6785L29.863 41.645H26.801V45.2881C26.801 46.0615 26.174 46.6885 25.4005 46.6885C24.627 46.6885 24 46.0615 24 45.2881V33.6153C24 32.8786 24.5973 32.2813 25.334 32.2813H31.0075C32.4833 32.2813 33.678 32.7535 34.5815 33.708C35.485 34.6624 35.9368 35.7475 35.9368 36.9632C35.9368 37.9377 35.6557 38.8218 35.1035 39.6256C34.5514 40.4293 33.7783 41.002 32.7945 41.3537L36.3685 46.6785H33.1157ZM26.801 34.8131L26.7909 39.1735H30.8167C31.5295 39.1735 32.1018 38.9625 32.5435 38.5405C32.9852 38.1186 33.2061 37.5961 33.2061 36.9732C33.2061 36.3804 32.9953 35.8681 32.5636 35.4461C32.1319 35.0241 31.5898 34.8131 30.9272 34.8131H26.801Z" fill="black"/>
<path d="M48.8976 33.5472C48.8976 34.2519 48.3264 34.8232 47.6217 34.8232H41.0469V38.1186H46.6077C47.2902 38.1186 47.8435 38.6718 47.8435 39.3543C47.8435 40.0368 47.2902 40.5901 46.6077 40.5901H41.0469V44.1266H47.6016C48.3063 44.1266 48.8776 44.6979 48.8776 45.4025C48.8776 46.1072 48.3063 46.6785 47.6016 46.6785H39.397C38.7834 46.6785 38.286 46.1811 38.286 45.5675V33.3844C38.286 32.7696 38.7844 32.2713 39.3991 32.2713H47.6217C48.3264 32.2713 48.8976 32.8425 48.8976 33.5472Z" fill="black"/>
<path d="M56.5978 46.9699L56.5476 47C54.8911 47 53.4756 46.578 52.311 45.7341C51.1465 44.8902 50.3433 43.8553 49.9016 42.6296L52.6022 41.8158C52.9033 42.6095 53.4154 43.2525 54.1382 43.7549C54.861 44.2572 55.7244 44.5084 56.7183 44.5084C57.5315 44.5084 58.1941 44.3275 58.7061 43.9658C59.2181 43.6042 59.4691 43.1822 59.4691 42.6899C59.4691 42.3081 59.3285 41.9766 59.0374 41.6952C58.7463 41.4139 58.2543 41.1628 57.5616 40.9518L53.8872 39.7964C52.8833 39.4849 52.0902 39.0127 51.4978 38.3898C50.9055 37.7669 50.6144 37.0134 50.6244 36.1192C50.6144 34.9839 51.1063 34.0094 52.0902 33.2056C53.074 32.4019 54.3089 32 55.7846 32C57.2805 32 58.5856 32.3516 59.7 33.0549C60.8144 33.7582 61.5774 34.6323 61.989 35.6872L59.3687 36.4508C59.0675 35.858 58.5957 35.3858 57.9632 35.0241C57.3307 34.6624 56.6179 34.4816 55.8248 34.4816C55.1421 34.4816 54.59 34.6323 54.1583 34.9337C53.7266 35.2351 53.5158 35.6068 53.5158 36.0388C53.5158 36.6718 53.9776 37.1239 54.8911 37.3952L58.4652 38.5506C59.7201 38.9324 60.6839 39.4146 61.3465 39.9973C62.0091 40.58 62.3404 41.4139 62.3404 42.499C62.3404 43.7549 61.8083 44.8098 60.7441 45.6738C59.6799 46.5378 58.2945 46.9699 56.5978 46.9699Z" fill="black"/>
<path d="M73.724 32.2713C74.4287 32.2713 75 32.8425 75 33.5472C75 34.2519 74.4287 34.8232 73.724 34.8232H70.1711V45.268C70.1711 46.047 69.5395 46.6785 68.7605 46.6785C67.9815 46.6785 67.35 46.047 67.35 45.268V34.8232H63.797C63.0923 34.8232 62.5211 34.2519 62.5211 33.5472C62.5211 32.8425 63.0923 32.2713 63.797 32.2713H73.724Z" fill="black"/>
</svg>
