<svg width="95" height="54" viewBox="0 0 95 54" fill="none" xmlns="http://www.w3.org/2000/svg">
<path fill-rule="evenodd" clip-rule="evenodd" d="M15 5.0625C14.4477 5.0625 14 5.42627 14 5.875V21.4519C14 22.5293 13.4732 23.5627 12.5356 24.3245L9.24267 27L12.5356 29.6755C13.4732 30.4373 14 31.4706 14 32.5481V48.125C14 48.5737 14.4477 48.9375 15 48.9375H20C21.6569 48.9375 23 50.0288 23 51.375C23 52.7212 21.6569 53.8125 20 53.8125H15C11.134 53.8125 8.00003 51.2661 8.00003 48.125V32.8846L0.757385 27L8.00003 21.1154V5.875C8.00003 2.73388 11.134 0.1875 15 0.1875H20C21.6569 0.1875 23 1.27881 23 2.625C23 3.97119 21.6569 5.0625 20 5.0625H15ZM8.29292 33.1226C8.29333 33.123 8.29251 33.1223 8.29292 33.1226Z" fill="#A6B3FF"/>
<path fill-rule="evenodd" clip-rule="evenodd" d="M80 5.0625C80.5523 5.0625 81 5.42627 81 5.875V21.4519C81 22.5293 81.5268 23.5627 82.4644 24.3245L85.7573 27L82.4644 29.6755C81.5268 30.4373 81 31.4706 81 32.5481V48.125C81 48.5737 80.5523 48.9375 80 48.9375H75C73.3431 48.9375 72 50.0288 72 51.375C72 52.7212 73.3431 53.8125 75 53.8125H80C83.866 53.8125 87 51.2661 87 48.125V32.8846L94.2426 27L87 21.1154V5.875C87 2.73388 83.866 0.1875 80 0.1875H75C73.3431 0.1875 72 1.27881 72 2.625C72 3.97119 73.3431 5.0625 75 5.0625H80ZM86.7071 33.1226C86.7067 33.123 86.7075 33.1223 86.7071 33.1226Z" fill="#A6B3FF"/>
<path d="M32.1157 34.6785L28.863 29.645H25.801V33.2881C25.801 34.0615 25.174 34.6885 24.4005 34.6885V34.6885C23.627 34.6885 23 34.0615 23 33.2881V21.6153C23 20.8786 23.5973 20.2813 24.334 20.2813H30.0075C31.4833 20.2813 32.678 20.7535 33.5815 21.708C34.485 22.6624 34.9368 23.7475 34.9368 24.9632C34.9368 25.9377 34.6557 26.8218 34.1035 27.6256C33.5514 28.4293 32.7783 29.002 31.7945 29.3537L35.3685 34.6785H32.1157ZM25.801 22.8131L25.7909 27.1735H29.8167C30.5295 27.1735 31.1018 26.9625 31.5435 26.5405C31.9852 26.1186 32.2061 25.5961 32.2061 24.9732C32.2061 24.3804 31.9953 23.8681 31.5636 23.4461C31.1319 23.0241 30.5898 22.8131 29.9272 22.8131H25.801Z" fill="black"/>
<path d="M47.8976 21.5472C47.8976 22.2519 47.3264 22.8232 46.6217 22.8232H40.0469V26.1186H45.6077C46.2902 26.1186 46.8435 26.6718 46.8435 27.3543V27.3543C46.8435 28.0368 46.2902 28.5901 45.6077 28.5901H40.0469V32.1266H46.6016C47.3063 32.1266 47.8776 32.6979 47.8776 33.4025V33.4025C47.8776 34.1072 47.3063 34.6785 46.6016 34.6785H38.397C37.7834 34.6785 37.286 34.1811 37.286 33.5675V21.3844C37.286 20.7696 37.7844 20.2713 38.3991 20.2713H46.6217C47.3264 20.2713 47.8976 20.8425 47.8976 21.5472V21.5472Z" fill="black"/>
<path d="M55.5978 34.9699L55.5476 35C53.8911 35 52.4756 34.578 51.311 33.7341C50.1465 32.8902 49.3433 31.8553 48.9016 30.6296L51.6022 29.8158C51.9033 30.6095 52.4154 31.2525 53.1382 31.7549C53.861 32.2572 54.7244 32.5084 55.7183 32.5084C56.5315 32.5084 57.1941 32.3275 57.7061 31.9658C58.2181 31.6042 58.4691 31.1822 58.4691 30.6899C58.4691 30.3081 58.3285 29.9766 58.0374 29.6952C57.7463 29.4139 57.2543 29.1628 56.5616 28.9518L52.8872 27.7964C51.8833 27.4849 51.0902 27.0127 50.4978 26.3898C49.9055 25.7669 49.6144 25.0134 49.6244 24.1192C49.6144 22.9839 50.1063 22.0094 51.0902 21.2056C52.074 20.4019 53.3089 20 54.7846 20C56.2805 20 57.5856 20.3516 58.7 21.0549C59.8144 21.7582 60.5774 22.6323 60.989 23.6872L58.3687 24.4508C58.0675 23.858 57.5957 23.3858 56.9632 23.0241C56.3307 22.6624 55.6179 22.4816 54.8248 22.4816C54.1421 22.4816 53.59 22.6323 53.1583 22.9337C52.7266 23.2351 52.5158 23.6068 52.5158 24.0388C52.5158 24.6718 52.9776 25.1239 53.8911 25.3952L57.4652 26.5506C58.7201 26.9324 59.6839 27.4146 60.3465 27.9973C61.0091 28.58 61.3404 29.4139 61.3404 30.499C61.3404 31.7549 60.8083 32.8098 59.7441 33.6738C58.6799 34.5378 57.2945 34.9699 55.5978 34.9699Z" fill="black"/>
<path d="M72.724 20.2713C73.4287 20.2713 74 20.8425 74 21.5472V21.5472C74 22.2519 73.4287 22.8232 72.724 22.8232H69.1711V33.268C69.1711 34.047 68.5395 34.6785 67.7605 34.6785V34.6785C66.9815 34.6785 66.35 34.047 66.35 33.268V22.8232H62.797C62.0923 22.8232 61.5211 22.2519 61.5211 21.5472V21.5472C61.5211 20.8425 62.0923 20.2713 62.797 20.2713H72.724Z" fill="black"/>
</svg>
