<svg width="48" height="48" viewBox="0 0 48 48" fill="none" xmlns="http://www.w3.org/2000/svg">
<g clip-path="url(#clip0_1237_816)">
<path d="M24 13C30.0751 13 35 17.9249 35 24C35 30.0751 30.0751 35 24 35C17.9249 35 13 30.0751 13 24C13 17.9249 17.9249 13 24 13Z" fill="#F0F1F4"/>
<path d="M4.46957 32.2396C2.02041 29.9165 1.96913 26.0309 4.35613 23.6439L22.8677 5.13228C25.1673 2.83268 28.8803 2.78375 31.2397 5.02195L44.5347 17.634C46.127 19.1446 47.0288 21.243 47.0288 23.4379L47.0288 41.9712C47.0288 44.7326 44.7903 46.9712 42.0288 46.9712L23.1907 46.9712C21.1421 46.9712 19.1715 46.1852 17.6851 44.7753L4.46957 32.2396Z" fill="#F0F1F4"/>
<path d="M13.1768 29.412C14.7554 30.8592 17.1938 30.8062 18.7081 29.2919L28.1716 19.8284C29.7337 18.2663 29.7337 15.7337 28.1716 14.1716L21.5858 7.58578C21.2107 7.21071 20.702 6.99999 20.1716 6.99999L4.07395 6.99998C3.49361 6.99997 3.03514 7.49235 3.07649 8.07122L3.94326 20.206C3.97968 20.7159 4.20993 21.1924 4.58673 21.5378L13.1768 29.412Z" fill="#7BA3B6"/>
<path d="M17.8937 37.35L22.0128 41.4691C22.3878 41.8441 22.8965 42.0548 23.427 42.0548L38.9205 42.0548C40.5774 42.0548 41.9205 40.7117 41.9205 39.0548L41.9205 22.6673C41.9205 22.1753 41.7391 21.7005 41.411 21.3337L31.8301 10.6257" stroke="#40404B" stroke-width="1.5" stroke-linecap="round"/>
<path d="M2 5H17.7574C18.553 5 19.3161 5.31607 19.8787 5.87868L28.8787 14.8787C30.0503 16.0503 30.0503 17.9497 28.8787 19.1213L18.0002 29.9998C16.877 31.123 15.073 31.176 13.8858 30.1207L8.00691 24.895C7.36644 24.3257 7 23.5097 7 22.6528V12" stroke="#40404B" stroke-width="1.5" stroke-linecap="round"/>
<path d="M21 28.3462L25.6538 33M27.3462 22L32 26.6538" stroke="#40404B" stroke-width="1.5" stroke-linecap="round"/>
</g>
<defs>
<clipPath id="clip0_1237_816">
<rect width="48" height="48" fill="white"/>
</clipPath>
</defs>
</svg>
